<svg width="576" height="435" viewBox="0 0 576 435" fill="none" xmlns="http://www.w3.org/2000/svg">
<g filter="url(#filter0_d_2006_44656)">
<g clip-path="url(#clip0_2006_44656)">
<rect x="50.3657" y="66.6" width="520" height="356" rx="38" fill="#FFF5F2"/>
<rect width="520" height="50" transform="translate(50.3657 66.6)" fill="#FF4B1E"/>
<circle cx="88.3657" cy="91.6" r="6" fill="white"/>
<circle cx="108.366" cy="91.6" r="6" fill="white"/>
<circle cx="128.366" cy="91.6" r="6" fill="white"/>
<rect x="82.3657" y="126.6" width="48" height="24" rx="12" fill="white"/>
<rect x="151.366" y="130.6" width="48" height="16" rx="8" fill="white"/>
<rect x="88.3657" y="171.6" width="456" height="133" rx="20" fill="white"/>
<rect x="88.3657" y="351.6" width="142.667" height="133" rx="20" fill="white"/>
<rect x="245.032" y="351.6" width="142.667" height="133" rx="20" fill="white"/>
<rect x="401.699" y="351.6" width="142.667" height="133" rx="20" fill="white"/>
<rect x="425.366" y="362.6" width="52" height="14" rx="7" fill="#E6E6E6"/>
<rect x="263.366" y="362.6" width="52" height="14" rx="7" fill="#E6E6E6"/>
<rect x="101.366" y="362.6" width="52" height="14" rx="7" fill="#E6E6E6"/>
<rect x="425.366" y="389.6" width="82" height="10" rx="5" fill="#F7F7F7"/>
<rect x="263.366" y="389.6" width="82" height="10" rx="5" fill="#F7F7F7"/>
<rect x="101.366" y="389.6" width="82" height="10" rx="5" fill="#F7F7F7"/>
<rect x="425.366" y="407.6" width="103" height="10" rx="5" fill="#F7F7F7"/>
<rect x="263.366" y="407.6" width="103" height="10" rx="5" fill="#F7F7F7"/>
<rect x="101.366" y="407.6" width="103" height="10" rx="5" fill="#F7F7F7"/>
<rect x="269.366" y="218.6" width="82" height="10" rx="5" fill="#F1F1F1"/>
<rect x="214.366" y="239.6" width="192" height="10" rx="5" fill="#F1F1F1"/>
<rect x="432.366" y="130.6" width="48" height="16" rx="8" fill="white"/>
<rect x="209.366" y="130.6" width="48" height="16" rx="8" fill="white"/>
<rect x="292.366" y="319.6" width="64" height="16" rx="8" fill="#FFDFDF"/>
<rect x="490.366" y="130.6" width="48" height="16" rx="8" fill="white"/>
<rect x="259.366" y="130.6" width="48" height="16" rx="8" fill="white"/>
</g>
<rect x="50.8657" y="67.1" width="519" height="355" rx="37.5" stroke="#FF4B1E"/>
</g>
<g filter="url(#filter1_d_2006_44656)">
<path d="M518.803 50.5316V95.9057C518.803 126.182 504.182 154.596 479.544 172.194L436.866 202.678L394.187 172.194C369.55 154.596 354.928 126.182 354.928 95.9057V50.5316L436.866 15.4154L518.803 50.5316Z" fill="white" stroke="#FF4B1E" stroke-width="1.5"/>
<path d="M465.598 100.953C465.467 100.723 465.277 100.531 465.048 100.397C464.819 100.263 464.559 100.191 464.294 100.189H444.105C443.707 100.19 443.327 100.348 443.046 100.629C442.764 100.91 442.606 101.291 442.605 101.688V106.428C442.605 108.083 441.948 109.67 440.777 110.84C439.607 112.01 438.02 112.668 436.365 112.668C434.711 112.668 433.123 112.01 431.953 110.84C430.783 109.67 430.126 108.083 430.126 106.428V101.688C430.125 101.291 429.966 100.91 429.685 100.629C429.404 100.348 429.023 100.19 428.626 100.189H408.437C408.172 100.191 407.912 100.263 407.683 100.397C407.454 100.531 407.264 100.723 407.132 100.953C404.308 106.043 402.861 111.781 402.935 117.602C403.009 123.422 404.602 129.122 407.555 134.138C410.508 139.153 414.719 143.312 419.772 146.2C424.825 149.089 430.545 150.609 436.365 150.609C442.186 150.609 447.906 149.089 452.959 146.2C458.012 143.312 462.223 139.153 465.176 134.138C468.129 129.122 469.721 123.422 469.795 117.602C469.87 111.781 468.423 106.043 465.598 100.953ZM442.665 140.671C442.527 140.845 442.352 140.986 442.152 141.082C441.952 141.178 441.732 141.227 441.51 141.226H431.221C431 141.224 430.783 141.173 430.584 141.078C430.386 140.983 430.21 140.846 430.07 140.676C429.93 140.506 429.829 140.307 429.774 140.094C429.718 139.88 429.711 139.658 429.751 139.441L431.716 129.467C430.983 128.465 430.584 127.258 430.576 126.017C430.576 125.256 430.725 124.504 431.016 123.801C431.307 123.099 431.734 122.461 432.271 121.923C432.809 121.385 433.447 120.959 434.15 120.668C434.852 120.377 435.605 120.227 436.365 120.227C437.126 120.227 437.878 120.377 438.581 120.668C439.283 120.959 439.922 121.385 440.459 121.923C440.997 122.461 441.423 123.099 441.714 123.801C442.005 124.504 442.155 125.256 442.155 126.017C442.147 127.258 441.748 128.465 441.015 129.467L442.98 139.441C443.023 139.656 443.017 139.879 442.962 140.092C442.908 140.305 442.806 140.503 442.665 140.671Z" fill="#50CDA3"/>
<path d="M418.907 97.1885V93.3938C418.907 91.101 419.358 88.8308 420.236 86.7126C421.113 84.5944 422.399 82.6697 424.02 81.0485C425.641 79.4273 427.566 78.1413 429.684 77.2639C431.802 76.3865 434.073 75.9349 436.365 75.9349C438.658 75.9349 440.928 76.3865 443.047 77.2639C445.165 78.1413 447.089 79.4273 448.711 81.0485C450.332 82.6697 451.618 84.5944 452.495 86.7126C453.373 88.8308 453.824 91.101 453.824 93.3938V97.1885H463.154V93.3938C463.453 78.9929 450.772 66.2964 436.365 66.6055C419.765 66.6532 408.081 80.9752 409.577 97.1885H418.907Z" fill="#50CDA3"/>
<path d="M438.406 127.907C438.887 127.395 439.155 126.719 439.155 126.017C439.155 125.277 438.862 124.567 438.338 124.044C437.815 123.521 437.106 123.227 436.366 123.227C435.626 123.227 434.916 123.521 434.393 124.044C433.87 124.567 433.576 125.277 433.576 126.017C433.581 126.73 433.854 127.415 434.341 127.937C434.534 128.108 434.679 128.327 434.761 128.572C434.842 128.817 434.858 129.079 434.806 129.332L433.051 138.226H439.68L437.925 129.332C437.875 129.073 437.892 128.806 437.977 128.556C438.061 128.306 438.209 128.082 438.406 127.907Z" fill="#50CDA3"/>
</g>
<g filter="url(#filter2_d_2006_44656)">
<rect x="20.3657" y="218.6" width="310.962" height="173" rx="27.3734" fill="white"/>
<path d="M46.7229 244.563V246.172H44.0753V254.499H42.0825V246.172H39.435V244.563H46.7229ZM51.6785 254.627C50.9193 254.627 50.2361 254.461 49.6288 254.129C49.0214 253.787 48.5422 253.308 48.1911 252.691C47.8495 252.074 47.6787 251.362 47.6787 250.556C47.6787 249.749 47.8542 249.038 48.2054 248.421C48.566 247.804 49.0547 247.329 49.6715 246.997C50.2883 246.656 50.9763 246.485 51.7354 246.485C52.4946 246.485 53.1826 246.656 53.7994 246.997C54.4162 247.329 54.9002 247.804 55.2513 248.421C55.6119 249.038 55.7922 249.749 55.7922 250.556C55.7922 251.362 55.6071 252.074 55.237 252.691C54.8764 253.308 54.383 253.787 53.7567 254.129C53.1399 254.461 52.4471 254.627 51.6785 254.627ZM51.6785 252.89C52.0391 252.89 52.376 252.805 52.6891 252.634C53.0118 252.454 53.268 252.188 53.4578 251.837C53.6476 251.486 53.7424 251.059 53.7424 250.556C53.7424 249.806 53.5432 249.232 53.1446 248.834C52.7555 248.425 52.2763 248.221 51.707 248.221C51.1376 248.221 50.6584 248.425 50.2693 248.834C49.8897 249.232 49.6999 249.806 49.6999 250.556C49.6999 251.306 49.885 251.884 50.2551 252.292C50.6347 252.691 51.1091 252.89 51.6785 252.89ZM59.5741 248.25V252.065C59.5741 252.33 59.6358 252.525 59.7592 252.648C59.892 252.762 60.1103 252.819 60.4139 252.819H61.3392V254.499H60.0866C58.4069 254.499 57.5671 253.683 57.5671 252.05V248.25H56.6276V246.613H57.5671V244.663H59.5741V246.613H61.3392V248.25H59.5741ZM62.26 250.527C62.26 249.73 62.4166 249.023 62.7298 248.407C63.0524 247.79 63.4842 247.315 64.0251 246.983C64.5755 246.651 65.1875 246.485 65.8613 246.485C66.4496 246.485 66.9621 246.604 67.3986 246.841C67.8446 247.078 68.2004 247.377 68.4661 247.738V246.613H70.4732V254.499H68.4661V253.346C68.2099 253.716 67.8541 254.024 67.3986 254.271C66.9526 254.508 66.4354 254.627 65.8471 254.627C65.1828 254.627 64.5755 254.456 64.0251 254.114C63.4842 253.773 63.0524 253.294 62.7298 252.677C62.4166 252.05 62.26 251.334 62.26 250.527ZM68.4661 250.556C68.4661 250.072 68.3713 249.659 68.1815 249.318C67.9917 248.966 67.7355 248.701 67.4128 248.52C67.0902 248.331 66.7438 248.236 66.3737 248.236C66.0036 248.236 65.662 248.326 65.3489 248.506C65.0357 248.686 64.7795 248.952 64.5802 249.303C64.3904 249.645 64.2955 250.053 64.2955 250.527C64.2955 251.002 64.3904 251.419 64.5802 251.78C64.7795 252.131 65.0357 252.402 65.3489 252.591C65.6715 252.781 66.0131 252.876 66.3737 252.876C66.7438 252.876 67.0902 252.786 67.4128 252.606C67.7355 252.416 67.9917 252.15 68.1815 251.808C68.3713 251.457 68.4661 251.04 68.4661 250.556ZM74.4123 243.965V254.499H72.4195V243.965H74.4123ZM89.566 246.499C90.5339 246.499 91.312 246.798 91.9004 247.396C92.4982 247.984 92.7971 248.81 92.7971 249.873V254.499H90.8044V250.143C90.8044 249.526 90.6478 249.057 90.3346 248.734C90.0215 248.402 89.5944 248.236 89.0535 248.236C88.5127 248.236 88.0809 248.402 87.7582 248.734C87.4451 249.057 87.2885 249.526 87.2885 250.143V254.499H85.2957V250.143C85.2957 249.526 85.1392 249.057 84.826 248.734C84.5128 248.402 84.0858 248.236 83.5449 248.236C82.9945 248.236 82.558 248.402 82.2354 248.734C81.9222 249.057 81.7656 249.526 81.7656 250.143V254.499H79.7729V246.613H81.7656V247.567C82.0219 247.235 82.3493 246.974 82.7478 246.784C83.1559 246.594 83.6019 246.499 84.0858 246.499C84.7026 246.499 85.253 246.632 85.737 246.898C86.2209 247.154 86.5958 247.524 86.8615 248.008C87.1177 247.552 87.4878 247.187 87.9718 246.912C88.4652 246.637 88.9966 246.499 89.566 246.499ZM94.1757 250.527C94.1757 249.73 94.3323 249.023 94.6455 248.407C94.9681 247.79 95.3999 247.315 95.9408 246.983C96.4912 246.651 97.1032 246.485 97.777 246.485C98.3653 246.485 98.8778 246.604 99.3143 246.841C99.7603 247.078 100.116 247.377 100.382 247.738V246.613H102.389V254.499H100.382V253.346C100.126 253.716 99.7698 254.024 99.3143 254.271C98.8683 254.508 98.3511 254.627 97.7628 254.627C97.0985 254.627 96.4912 254.456 95.9408 254.114C95.3999 253.773 94.9681 253.294 94.6455 252.677C94.3323 252.05 94.1757 251.334 94.1757 250.527ZM100.382 250.556C100.382 250.072 100.287 249.659 100.097 249.318C99.9074 248.966 99.6512 248.701 99.3285 248.52C99.0059 248.331 98.6595 248.236 98.2894 248.236C97.9193 248.236 97.5777 248.326 97.2646 248.506C96.9514 248.686 96.6952 248.952 96.4959 249.303C96.3061 249.645 96.2112 250.053 96.2112 250.527C96.2112 251.002 96.3061 251.419 96.4959 251.78C96.6952 252.131 96.9514 252.402 97.2646 252.591C97.5872 252.781 97.9288 252.876 98.2894 252.876C98.6595 252.876 99.0059 252.786 99.3285 252.606C99.6512 252.416 99.9074 252.15 100.097 251.808C100.287 251.457 100.382 251.04 100.382 250.556ZM106.328 243.965V254.499H104.335V243.965H106.328ZM109.307 245.674C108.956 245.674 108.662 245.564 108.425 245.346C108.197 245.118 108.083 244.838 108.083 244.506C108.083 244.174 108.197 243.899 108.425 243.681C108.662 243.453 108.956 243.339 109.307 243.339C109.659 243.339 109.948 243.453 110.176 243.681C110.413 243.899 110.532 244.174 110.532 244.506C110.532 244.838 110.413 245.118 110.176 245.346C109.948 245.564 109.659 245.674 109.307 245.674ZM110.29 246.613V254.499H108.297V246.613H110.29ZM111.746 250.556C111.746 249.74 111.912 249.028 112.244 248.421C112.576 247.804 113.037 247.329 113.625 246.997C114.213 246.656 114.887 246.485 115.646 246.485C116.624 246.485 117.43 246.732 118.066 247.225C118.711 247.709 119.143 248.392 119.361 249.275H117.212C117.098 248.933 116.904 248.667 116.628 248.478C116.363 248.278 116.031 248.179 115.632 248.179C115.063 248.179 114.612 248.388 114.28 248.805C113.948 249.213 113.782 249.797 113.782 250.556C113.782 251.306 113.948 251.889 114.28 252.307C114.612 252.715 115.063 252.919 115.632 252.919C116.439 252.919 116.965 252.558 117.212 251.837H119.361C119.143 252.691 118.711 253.369 118.066 253.872C117.421 254.375 116.614 254.627 115.646 254.627C114.887 254.627 114.213 254.461 113.625 254.129C113.037 253.787 112.576 253.313 112.244 252.705C111.912 252.088 111.746 251.372 111.746 250.556ZM121.832 245.674C121.481 245.674 121.187 245.564 120.949 245.346C120.722 245.118 120.608 244.838 120.608 244.506C120.608 244.174 120.722 243.899 120.949 243.681C121.187 243.453 121.481 243.339 121.832 243.339C122.183 243.339 122.472 243.453 122.7 243.681C122.937 243.899 123.056 244.174 123.056 244.506C123.056 244.838 122.937 245.118 122.7 245.346C122.472 245.564 122.183 245.674 121.832 245.674ZM122.814 246.613V254.499H120.821V246.613H122.814ZM128.285 254.627C127.525 254.627 126.842 254.461 126.235 254.129C125.627 253.787 125.148 253.308 124.797 252.691C124.456 252.074 124.285 251.362 124.285 250.556C124.285 249.749 124.46 249.038 124.811 248.421C125.172 247.804 125.661 247.329 126.277 246.997C126.894 246.656 127.582 246.485 128.341 246.485C129.101 246.485 129.789 246.656 130.405 246.997C131.022 247.329 131.506 247.804 131.857 248.421C132.218 249.038 132.398 249.749 132.398 250.556C132.398 251.362 132.213 252.074 131.843 252.691C131.482 253.308 130.989 253.787 130.363 254.129C129.746 254.461 129.053 254.627 128.285 254.627ZM128.285 252.89C128.645 252.89 128.982 252.805 129.295 252.634C129.618 252.454 129.874 252.188 130.064 251.837C130.254 251.486 130.348 251.059 130.348 250.556C130.348 249.806 130.149 249.232 129.751 248.834C129.362 248.425 128.882 248.221 128.313 248.221C127.744 248.221 127.264 248.425 126.875 248.834C126.496 249.232 126.306 249.806 126.306 250.556C126.306 251.306 126.491 251.884 126.861 252.292C127.241 252.691 127.715 252.89 128.285 252.89ZM141.304 246.613V254.499H139.297V253.502C139.041 253.844 138.704 254.114 138.287 254.314C137.879 254.503 137.433 254.598 136.949 254.598C136.332 254.598 135.786 254.47 135.312 254.214C134.837 253.948 134.463 253.564 134.187 253.061C133.922 252.549 133.789 251.941 133.789 251.239V246.613H135.782V250.954C135.782 251.581 135.938 252.065 136.251 252.406C136.564 252.738 136.991 252.905 137.532 252.905C138.083 252.905 138.515 252.738 138.828 252.406C139.141 252.065 139.297 251.581 139.297 250.954V246.613H141.304ZM146.288 254.627C145.643 254.627 145.064 254.513 144.552 254.285C144.039 254.048 143.631 253.73 143.328 253.332C143.033 252.933 142.872 252.492 142.844 252.008H144.851C144.889 252.311 145.036 252.563 145.292 252.762C145.558 252.961 145.885 253.061 146.274 253.061C146.654 253.061 146.948 252.985 147.157 252.833C147.375 252.682 147.484 252.487 147.484 252.25C147.484 251.994 147.351 251.804 147.085 251.68C146.829 251.548 146.416 251.405 145.847 251.253C145.259 251.111 144.775 250.964 144.395 250.812C144.025 250.66 143.702 250.428 143.427 250.115C143.162 249.801 143.029 249.379 143.029 248.848C143.029 248.411 143.152 248.013 143.399 247.652C143.655 247.292 144.016 247.007 144.481 246.798C144.955 246.589 145.51 246.485 146.146 246.485C147.085 246.485 147.835 246.722 148.395 247.197C148.955 247.662 149.263 248.293 149.32 249.09H147.413C147.384 248.777 147.251 248.53 147.014 248.35C146.786 248.16 146.478 248.065 146.089 248.065C145.728 248.065 145.448 248.131 145.249 248.264C145.059 248.397 144.965 248.582 144.965 248.819C144.965 249.085 145.097 249.289 145.363 249.431C145.629 249.564 146.042 249.702 146.601 249.844C147.171 249.987 147.641 250.134 148.011 250.285C148.381 250.437 148.699 250.674 148.964 250.997C149.24 251.31 149.382 251.728 149.391 252.25C149.391 252.705 149.263 253.113 149.007 253.474C148.76 253.834 148.4 254.119 147.925 254.328C147.46 254.527 146.915 254.627 146.288 254.627ZM156.412 247.766C156.668 247.386 157.019 247.078 157.465 246.841C157.921 246.604 158.438 246.485 159.017 246.485C159.69 246.485 160.298 246.651 160.839 246.983C161.389 247.315 161.821 247.79 162.134 248.407C162.456 249.014 162.618 249.721 162.618 250.527C162.618 251.334 162.456 252.05 162.134 252.677C161.821 253.294 161.389 253.773 160.839 254.114C160.298 254.456 159.69 254.627 159.017 254.627C158.428 254.627 157.911 254.513 157.465 254.285C157.028 254.048 156.677 253.744 156.412 253.374V254.499H154.419V243.965H156.412V247.766ZM160.582 250.527C160.582 250.053 160.483 249.645 160.283 249.303C160.094 248.952 159.837 248.686 159.515 248.506C159.202 248.326 158.86 248.236 158.49 248.236C158.129 248.236 157.788 248.331 157.465 248.52C157.152 248.701 156.896 248.966 156.696 249.318C156.507 249.669 156.412 250.081 156.412 250.556C156.412 251.03 156.507 251.443 156.696 251.794C156.896 252.145 157.152 252.416 157.465 252.606C157.788 252.786 158.129 252.876 158.49 252.876C158.86 252.876 159.202 252.781 159.515 252.591C159.837 252.402 160.094 252.131 160.283 251.78C160.483 251.429 160.582 251.011 160.582 250.527ZM167.567 254.627C166.808 254.627 166.125 254.461 165.518 254.129C164.91 253.787 164.431 253.308 164.08 252.691C163.738 252.074 163.568 251.362 163.568 250.556C163.568 249.749 163.743 249.038 164.094 248.421C164.455 247.804 164.944 247.329 165.56 246.997C166.177 246.656 166.865 246.485 167.624 246.485C168.384 246.485 169.072 246.656 169.688 246.997C170.305 247.329 170.789 247.804 171.14 248.421C171.501 249.038 171.681 249.749 171.681 250.556C171.681 251.362 171.496 252.074 171.126 252.691C170.765 253.308 170.272 253.787 169.646 254.129C169.029 254.461 168.336 254.627 167.567 254.627ZM167.567 252.89C167.928 252.89 168.265 252.805 168.578 252.634C168.901 252.454 169.157 252.188 169.347 251.837C169.537 251.486 169.631 251.059 169.631 250.556C169.631 249.806 169.432 249.232 169.034 248.834C168.645 248.425 168.165 248.221 167.596 248.221C167.027 248.221 166.547 248.425 166.158 248.834C165.779 249.232 165.589 249.806 165.589 250.556C165.589 251.306 165.774 251.884 166.144 252.292C166.524 252.691 166.998 252.89 167.567 252.89ZM175.463 248.25V252.065C175.463 252.33 175.525 252.525 175.648 252.648C175.781 252.762 175.999 252.819 176.303 252.819H177.228V254.499H175.976C174.296 254.499 173.456 253.683 173.456 252.05V248.25H172.517V246.613H173.456V244.663H175.463V246.613H177.228V248.25H175.463ZM184.046 247.766C184.302 247.386 184.653 247.078 185.099 246.841C185.555 246.604 186.072 246.485 186.651 246.485C187.325 246.485 187.932 246.651 188.473 246.983C189.023 247.315 189.455 247.79 189.768 248.407C190.091 249.014 190.252 249.721 190.252 250.527C190.252 251.334 190.091 252.05 189.768 252.677C189.455 253.294 189.023 253.773 188.473 254.114C187.932 254.456 187.325 254.627 186.651 254.627C186.063 254.627 185.545 254.513 185.099 254.285C184.663 254.048 184.312 253.744 184.046 253.374V254.499H182.053V243.965H184.046V247.766ZM188.217 250.527C188.217 250.053 188.117 249.645 187.918 249.303C187.728 248.952 187.472 248.686 187.149 248.506C186.836 248.326 186.494 248.236 186.124 248.236C185.764 248.236 185.422 248.331 185.099 248.52C184.786 248.701 184.53 248.966 184.331 249.318C184.141 249.669 184.046 250.081 184.046 250.556C184.046 251.03 184.141 251.443 184.331 251.794C184.53 252.145 184.786 252.416 185.099 252.606C185.422 252.786 185.764 252.876 186.124 252.876C186.494 252.876 186.836 252.781 187.149 252.591C187.472 252.402 187.728 252.131 187.918 251.78C188.117 251.429 188.217 251.011 188.217 250.527ZM193.693 243.965V254.499H191.7V243.965H193.693ZM199.163 254.627C198.404 254.627 197.721 254.461 197.114 254.129C196.506 253.787 196.027 253.308 195.676 252.691C195.334 252.074 195.164 251.362 195.164 250.556C195.164 249.749 195.339 249.038 195.69 248.421C196.051 247.804 196.54 247.329 197.156 246.997C197.773 246.656 198.461 246.485 199.22 246.485C199.98 246.485 200.668 246.656 201.284 246.997C201.901 247.329 202.385 247.804 202.736 248.421C203.097 249.038 203.277 249.749 203.277 250.556C203.277 251.362 203.092 252.074 202.722 252.691C202.361 253.308 201.868 253.787 201.242 254.129C200.625 254.461 199.932 254.627 199.163 254.627ZM199.163 252.89C199.524 252.89 199.861 252.805 200.174 252.634C200.497 252.454 200.753 252.188 200.943 251.837C201.133 251.486 201.227 251.059 201.227 250.556C201.227 249.806 201.028 249.232 200.63 248.834C200.241 248.425 199.761 248.221 199.192 248.221C198.623 248.221 198.143 248.425 197.754 248.834C197.375 249.232 197.185 249.806 197.185 250.556C197.185 251.306 197.37 251.884 197.74 252.292C198.12 252.691 198.594 252.89 199.163 252.89ZM204.227 250.556C204.227 249.74 204.393 249.028 204.725 248.421C205.057 247.804 205.517 247.329 206.105 246.997C206.694 246.656 207.368 246.485 208.127 246.485C209.104 246.485 209.911 246.732 210.546 247.225C211.192 247.709 211.624 248.392 211.842 249.275H209.692C209.579 248.933 209.384 248.667 209.109 248.478C208.843 248.278 208.511 248.179 208.112 248.179C207.543 248.179 207.092 248.388 206.76 248.805C206.428 249.213 206.262 249.797 206.262 250.556C206.262 251.306 206.428 251.889 206.76 252.307C207.092 252.715 207.543 252.919 208.112 252.919C208.919 252.919 209.446 252.558 209.692 251.837H211.842C211.624 252.691 211.192 253.369 210.546 253.872C209.901 254.375 209.095 254.627 208.127 254.627C207.368 254.627 206.694 254.461 206.105 254.129C205.517 253.787 205.057 253.313 204.725 252.705C204.393 252.088 204.227 251.372 204.227 250.556ZM217.97 254.499L215.294 251.139V254.499H213.302V243.965H215.294V249.958L217.942 246.613H220.533L217.06 250.57L220.561 254.499H217.97ZM228.945 250.385C228.945 250.67 228.926 250.926 228.888 251.154H223.123C223.17 251.723 223.37 252.169 223.721 252.492C224.072 252.814 224.504 252.976 225.016 252.976C225.756 252.976 226.283 252.658 226.596 252.022H228.746C228.518 252.781 228.081 253.407 227.436 253.901C226.791 254.385 225.998 254.627 225.059 254.627C224.3 254.627 223.616 254.461 223.009 254.129C222.411 253.787 221.942 253.308 221.6 252.691C221.268 252.074 221.102 251.362 221.102 250.556C221.102 249.74 221.268 249.023 221.6 248.407C221.932 247.79 222.397 247.315 222.995 246.983C223.593 246.651 224.281 246.485 225.059 246.485C225.809 246.485 226.478 246.646 227.066 246.969C227.664 247.292 228.124 247.752 228.447 248.35C228.779 248.938 228.945 249.616 228.945 250.385ZM226.881 249.816C226.871 249.303 226.686 248.895 226.326 248.592C225.965 248.278 225.524 248.122 225.002 248.122C224.509 248.122 224.091 248.274 223.749 248.577C223.417 248.871 223.213 249.284 223.137 249.816H226.881ZM229.887 250.527C229.887 249.73 230.044 249.023 230.357 248.407C230.679 247.79 231.116 247.315 231.666 246.983C232.217 246.651 232.829 246.485 233.502 246.485C234.015 246.485 234.504 246.599 234.969 246.827C235.434 247.045 235.804 247.339 236.079 247.709V243.965H238.1V254.499H236.079V253.332C235.832 253.721 235.486 254.034 235.04 254.271C234.594 254.508 234.077 254.627 233.488 254.627C232.824 254.627 232.217 254.456 231.666 254.114C231.116 253.773 230.679 253.294 230.357 252.677C230.044 252.05 229.887 251.334 229.887 250.527ZM236.093 250.556C236.093 250.072 235.998 249.659 235.808 249.318C235.619 248.966 235.362 248.701 235.04 248.52C234.717 248.331 234.371 248.236 234.001 248.236C233.631 248.236 233.289 248.326 232.976 248.506C232.663 248.686 232.406 248.952 232.207 249.303C232.017 249.645 231.922 250.053 231.922 250.527C231.922 251.002 232.017 251.419 232.207 251.78C232.406 252.131 232.663 252.402 232.976 252.591C233.298 252.781 233.64 252.876 234.001 252.876C234.371 252.876 234.717 252.786 235.04 252.606C235.362 252.416 235.619 252.15 235.808 251.808C235.998 251.457 236.093 251.04 236.093 250.556Z" fill="#7B7B7B"/>
<rect x="295.195" y="241.239" width="17.519" height="17.519" rx="8.75949" fill="#EDEDED"/>
<path d="M300.825 245.833L303.954 248.962L307.083 245.833C307.344 245.572 307.758 245.547 308.067 245.789L308.12 245.837C308.405 246.122 308.405 246.585 308.12 246.87L304.991 249.999L308.12 253.128C308.381 253.389 308.405 253.802 308.164 254.111L308.115 254.165C307.83 254.45 307.368 254.45 307.083 254.165L303.954 251.035L300.825 254.165C300.564 254.426 300.151 254.45 299.842 254.209L299.788 254.16C299.503 253.875 299.503 253.413 299.788 253.128L302.917 249.999L299.788 246.87C299.527 246.609 299.503 246.195 299.744 245.886L299.793 245.833C300.078 245.548 300.54 245.548 300.825 245.833ZM300.315 254.013C300.313 254.013 300.311 254.013 300.309 254.013L300.315 254.013ZM300.363 254.009L300.347 254.011C300.353 254.011 300.358 254.01 300.363 254.009ZM300.255 254.009L300.262 254.01C300.26 254.01 300.257 254.01 300.255 254.009ZM300.209 254L300.215 254.001C300.213 254.001 300.211 254 300.209 254ZM300.41 253.999L300.39 254.004C300.397 254.003 300.403 254.001 300.41 253.999ZM300.451 253.985L300.436 253.991C300.441 253.989 300.446 253.987 300.451 253.985ZM300.167 253.985C300.168 253.985 300.169 253.986 300.167 253.985V253.985ZM300.124 253.963L300.085 253.937C300.102 253.95 300.119 253.961 300.136 253.97L300.124 253.963ZM300.494 253.963L300.482 253.97C300.486 253.968 300.49 253.966 300.494 253.963ZM307.926 253.817L307.919 253.829L307.892 253.867C307.905 253.851 307.916 253.834 307.926 253.817ZM307.946 253.772L307.94 253.786C307.942 253.781 307.944 253.777 307.946 253.772ZM307.96 253.725L307.955 253.743C307.957 253.738 307.958 253.732 307.96 253.725ZM307.967 253.682L307.965 253.698C307.966 253.693 307.966 253.687 307.967 253.682ZM307.599 246.349L303.954 249.994L300.309 246.349L300.304 246.354L303.95 249.999L300.304 253.644L300.309 253.649L303.954 250.003L307.599 253.649L307.604 253.644L303.959 249.999L307.604 246.354L307.599 246.349ZM307.969 253.638L307.969 253.649C307.969 253.645 307.969 253.642 307.969 253.638ZM307.965 253.59L307.967 253.606C307.966 253.6 307.966 253.595 307.965 253.59ZM307.955 253.543L307.96 253.563C307.958 253.556 307.957 253.55 307.955 253.543ZM307.94 253.502L307.946 253.517C307.944 253.512 307.942 253.507 307.94 253.502ZM307.919 253.459L307.926 253.471C307.923 253.467 307.921 253.463 307.919 253.459ZM299.983 246.526L299.988 246.536C299.986 246.533 299.985 246.53 299.983 246.526ZM299.962 246.48L299.967 246.493C299.965 246.489 299.964 246.484 299.962 246.48ZM299.948 246.434L299.952 246.447C299.951 246.443 299.949 246.439 299.948 246.434ZM299.941 246.39L299.942 246.401C299.942 246.397 299.942 246.394 299.941 246.39ZM299.94 246.343L299.939 246.354C299.939 246.35 299.939 246.346 299.94 246.343ZM299.943 246.3L299.942 246.306C299.943 246.304 299.943 246.302 299.943 246.3ZM299.953 246.254L299.952 246.26C299.952 246.258 299.953 246.256 299.953 246.254ZM299.968 246.212C299.967 246.213 299.968 246.212 299.968 246.212V246.212ZM299.99 246.169L300.016 246.13C300.003 246.146 299.992 246.163 299.983 246.181L299.99 246.169ZM300.482 246.027L300.494 246.034L300.533 246.06C300.516 246.048 300.499 246.037 300.482 246.027ZM307.426 246.027L307.417 246.033C307.42 246.031 307.423 246.029 307.426 246.027ZM300.136 246.027L300.126 246.033C300.13 246.031 300.133 246.029 300.136 246.027ZM307.772 246.027L307.784 246.034L307.823 246.06C307.807 246.048 307.79 246.037 307.772 246.027ZM300.181 246.007L300.17 246.011C300.173 246.01 300.177 246.008 300.181 246.007ZM300.436 246.007L300.451 246.013C300.446 246.01 300.441 246.008 300.436 246.007ZM307.473 246.007L307.46 246.011C307.464 246.01 307.468 246.008 307.473 246.007ZM307.728 246.007L307.741 246.013C307.737 246.011 307.732 246.009 307.728 246.007ZM300.227 245.993L300.215 245.996C300.219 245.995 300.223 245.994 300.227 245.993ZM300.39 245.993L300.41 245.998C300.403 245.996 300.397 245.994 300.39 245.993ZM307.518 245.993L307.505 245.996C307.51 245.995 307.514 245.994 307.518 245.993ZM307.681 245.993L307.699 245.998C307.693 245.996 307.687 245.994 307.681 245.993ZM300.272 245.986L300.262 245.987C300.265 245.987 300.269 245.986 300.272 245.986ZM300.346 245.986L300.363 245.988C300.358 245.987 300.352 245.986 300.346 245.986ZM307.563 245.986L307.552 245.987C307.556 245.987 307.559 245.986 307.563 245.986ZM307.636 245.986L307.653 245.988C307.648 245.987 307.642 245.986 307.636 245.986ZM307.589 245.984L307.61 245.984C307.603 245.984 307.596 245.984 307.589 245.984ZM300.298 245.984L300.32 245.984C300.313 245.984 300.305 245.984 300.298 245.984Z" fill="#9A9A9A"/>
<mask id="path-36-inside-1_2006_44656" fill="white">
<path d="M249.531 365.322C255.387 365.322 260.203 360.556 259.482 354.744C257.158 335.993 248.7 318.434 235.287 304.931C219.377 288.914 197.799 279.916 175.299 279.916C152.799 279.916 131.221 288.914 115.311 304.931C101.899 318.434 93.441 335.992 91.1165 354.744C90.396 360.556 95.2114 365.322 101.068 365.322C106.925 365.322 111.583 360.542 112.542 354.764C114.712 341.692 120.877 329.523 130.308 320.029C142.241 308.016 158.424 301.268 175.299 301.268C192.174 301.268 208.358 308.016 220.29 320.029C229.722 329.523 235.886 341.692 238.056 354.764C239.015 360.542 243.674 365.322 249.531 365.322Z"/>
</mask>
<path d="M249.531 365.322C255.387 365.322 260.203 360.556 259.482 354.744C257.158 335.993 248.7 318.434 235.287 304.931C219.377 288.914 197.799 279.916 175.299 279.916C152.799 279.916 131.221 288.914 115.311 304.931C101.899 318.434 93.441 335.992 91.1165 354.744C90.396 360.556 95.2114 365.322 101.068 365.322C106.925 365.322 111.583 360.542 112.542 354.764C114.712 341.692 120.877 329.523 130.308 320.029C142.241 308.016 158.424 301.268 175.299 301.268C192.174 301.268 208.358 308.016 220.29 320.029C229.722 329.523 235.886 341.692 238.056 354.764C239.015 360.542 243.674 365.322 249.531 365.322Z" stroke="#FFEDE8" stroke-width="45.5494" mask="url(#path-36-inside-1_2006_44656)"/>
<mask id="path-37-inside-2_2006_44656" fill="white">
<path d="M101.068 365.322C95.2114 365.322 90.3962 360.556 91.1168 354.744C92.6912 342.045 97.0871 329.817 104.032 318.99C112.889 305.183 125.515 294.242 140.396 287.479C155.277 280.717 171.78 278.421 187.925 280.868C200.58 282.785 212.593 287.552 223.093 294.759C227.917 298.07 228.303 304.822 224.448 309.223C220.555 313.666 213.826 314 208.815 310.874C201.512 306.319 193.337 303.279 184.769 301.981C172.66 300.146 160.283 301.868 149.122 306.94C137.961 312.012 128.491 320.218 121.849 330.573C117.12 337.945 113.967 346.183 112.543 354.765C111.584 360.542 106.925 365.322 101.068 365.322Z"/>
</mask>
<path d="M101.068 365.322C95.2114 365.322 90.3962 360.556 91.1168 354.744C92.6912 342.045 97.0871 329.817 104.032 318.99C112.889 305.183 125.515 294.242 140.396 287.479C155.277 280.717 171.78 278.421 187.925 280.868C200.58 282.785 212.593 287.552 223.093 294.759C227.917 298.07 228.303 304.822 224.448 309.223C220.555 313.666 213.826 314 208.815 310.874C201.512 306.319 193.337 303.279 184.769 301.981C172.66 300.146 160.283 301.868 149.122 306.94C137.961 312.012 128.491 320.218 121.849 330.573C117.12 337.945 113.967 346.183 112.543 354.765C111.584 360.542 106.925 365.322 101.068 365.322Z" stroke="url(#paint0_linear_2006_44656)" stroke-width="45.5494" mask="url(#path-37-inside-2_2006_44656)"/>
<path d="M159.511 334.337C158.696 333.951 158.028 333.388 157.509 332.646C157.035 331.949 156.798 331.149 156.798 330.244C156.798 329.414 157.02 328.665 157.465 327.998C157.925 327.316 158.495 326.797 159.178 326.441V326.263C158.659 325.907 158.214 325.448 157.843 324.884C157.502 324.35 157.332 323.735 157.332 323.038C157.332 322.193 157.547 321.444 157.976 320.792C158.421 320.125 159.037 319.598 159.822 319.213C160.623 318.827 161.498 318.635 162.447 318.635C163.396 318.635 164.271 318.827 165.071 319.213C165.828 319.583 166.435 320.11 166.895 320.792C167.34 321.459 167.562 322.208 167.562 323.038C167.562 323.735 167.392 324.35 167.051 324.884C166.68 325.462 166.228 325.922 165.694 326.263V326.441C166.376 326.797 166.947 327.316 167.407 327.998C167.866 328.68 168.096 329.429 168.096 330.244C168.096 331.149 167.859 331.949 167.384 332.646C166.865 333.388 166.198 333.951 165.383 334.337C164.508 334.737 163.529 334.937 162.447 334.937C161.365 334.937 160.386 334.737 159.511 334.337ZM164.048 324.617C164.463 324.261 164.671 323.794 164.671 323.216C164.671 322.653 164.463 322.193 164.048 321.837C163.618 321.481 163.084 321.303 162.447 321.303C161.78 321.303 161.238 321.481 160.823 321.837C160.408 322.193 160.201 322.653 160.201 323.216C160.201 323.794 160.408 324.261 160.823 324.617C161.238 324.973 161.78 325.151 162.447 325.151C163.084 325.151 163.618 324.973 164.048 324.617ZM162.447 332.179C163.233 332.179 163.87 331.979 164.36 331.579C164.849 331.178 165.094 330.637 165.094 329.955C165.094 329.303 164.842 328.776 164.337 328.376C163.833 327.976 163.203 327.776 162.447 327.776C161.691 327.776 161.061 327.976 160.556 328.376C160.037 328.776 159.778 329.303 159.778 329.955C159.778 330.637 160.03 331.178 160.534 331.579C161.053 331.979 161.691 332.179 162.447 332.179ZM172.739 333.447L175.942 328.932L175.808 328.799C175.467 328.947 175.074 329.021 174.63 329.021C173.844 329.021 173.088 328.806 172.361 328.376C171.62 327.946 171.034 327.346 170.604 326.575C170.159 325.804 169.937 324.936 169.937 323.972C169.937 322.964 170.189 322.052 170.693 321.237C171.212 320.406 171.894 319.769 172.739 319.324C173.614 318.864 174.511 318.635 175.43 318.635C176.527 318.635 177.499 318.879 178.344 319.368C179.204 319.858 179.864 320.525 180.323 321.37C180.798 322.23 181.035 323.135 181.035 324.084C181.035 325.077 180.85 325.989 180.479 326.819C180.079 327.709 179.523 328.65 178.811 329.644L175.074 335.026L172.739 333.447ZM177.321 325.796C177.855 325.307 178.121 324.691 178.121 323.95C178.121 323.209 177.855 322.593 177.321 322.104C176.787 321.615 176.179 321.37 175.497 321.37C174.8 321.37 174.185 321.615 173.651 322.104C173.117 322.593 172.85 323.209 172.85 323.95C172.85 324.691 173.117 325.307 173.651 325.796C174.2 326.3 174.815 326.552 175.497 326.552C176.164 326.552 176.772 326.3 177.321 325.796ZM186.034 334.47C185.307 334.174 184.647 333.706 184.054 333.069C183.491 332.461 183.098 331.683 182.876 330.734L185.567 329.688C185.745 330.459 186.078 331.067 186.568 331.512C187.057 331.957 187.665 332.179 188.391 332.179C189.133 332.179 189.741 331.942 190.215 331.468C190.704 330.978 190.949 330.363 190.949 329.622C190.949 328.88 190.704 328.265 190.215 327.776C189.726 327.286 189.118 327.042 188.391 327.042C187.932 327.042 187.517 327.138 187.146 327.331C186.79 327.509 186.479 327.761 186.212 328.087L183.32 326.797L184.188 319.013H192.995V321.615H186.679L186.123 325.262L186.301 325.307C187.057 324.684 187.961 324.373 189.014 324.373C189.874 324.373 190.682 324.595 191.438 325.04C192.209 325.485 192.81 326.1 193.24 326.886C193.7 327.716 193.929 328.628 193.929 329.622C193.929 330.645 193.692 331.564 193.218 332.379C192.728 333.21 192.076 333.84 191.26 334.27C190.415 334.715 189.466 334.937 188.414 334.937C187.583 334.937 186.79 334.781 186.034 334.47Z" fill="#54403F"/>
<path d="M128.589 346.233H131.044V356.944H136.56V359.275H128.589V346.233ZM141.133 359.56C140.148 359.56 139.341 359.275 138.713 358.706C138.084 358.136 137.77 357.377 137.77 356.428C137.77 355.811 137.93 355.266 138.25 354.791C138.559 354.329 139.009 353.967 139.602 353.706C140.195 353.445 140.83 353.314 141.506 353.314C142.467 353.314 143.285 353.457 143.962 353.741V353.332C143.962 352.822 143.772 352.413 143.392 352.104C143.001 351.784 142.485 351.624 141.844 351.624C141.429 351.624 141.008 351.725 140.581 351.927C140.178 352.116 139.84 352.377 139.567 352.709L138.037 351.517C138.476 350.948 139.039 350.497 139.727 350.165C140.403 349.845 141.144 349.685 141.951 349.685C143.363 349.685 144.448 350.017 145.207 350.681C145.943 351.333 146.31 352.288 146.31 353.546V359.275H143.962V358.332H143.819C143.523 358.711 143.155 359.008 142.716 359.222C142.265 359.447 141.738 359.56 141.133 359.56ZM141.702 357.709C142.402 357.709 142.953 357.49 143.357 357.051C143.76 356.612 143.962 356.09 143.962 355.485C143.309 355.189 142.657 355.04 142.004 355.04C140.771 355.04 140.154 355.503 140.154 356.428C140.154 356.808 140.29 357.116 140.563 357.353C140.836 357.591 141.216 357.709 141.702 357.709ZM151.951 359.56C150.812 359.56 149.898 359.328 149.21 358.866C148.522 358.403 148.036 357.804 147.751 357.069L149.869 356.143C150.059 356.57 150.337 356.903 150.705 357.14C151.049 357.365 151.464 357.478 151.951 357.478C152.401 357.478 152.769 357.407 153.054 357.264C153.338 357.122 153.481 356.891 153.481 356.57C153.481 356.274 153.35 356.049 153.089 355.894C152.864 355.752 152.461 355.616 151.879 355.485L150.794 355.254C150.035 355.076 149.406 354.744 148.908 354.257C148.41 353.783 148.161 353.184 148.161 352.46C148.161 351.927 148.321 351.446 148.641 351.019C148.95 350.604 149.388 350.278 149.958 350.041C150.527 349.803 151.138 349.685 151.79 349.685C153.712 349.685 154.993 350.361 155.634 351.713L153.587 352.603C153.232 351.95 152.65 351.624 151.844 351.624C151.429 351.624 151.102 351.701 150.865 351.855C150.616 352.01 150.492 352.199 150.492 352.425C150.492 352.864 150.907 353.19 151.737 353.403L153.107 353.741C154.044 353.979 154.738 354.329 155.189 354.791C155.651 355.266 155.883 355.847 155.883 356.535C155.883 357.116 155.711 357.644 155.367 358.118C155.035 358.581 154.56 358.937 153.943 359.186C153.338 359.435 152.674 359.56 151.951 359.56ZM161.576 359.417C161.114 359.417 160.687 359.346 160.295 359.204C159.904 359.061 159.59 358.872 159.352 358.634C158.783 358.089 158.498 357.312 158.498 356.304V352.015H156.879V349.987H158.498V347.354H160.882V349.987H163.16V352.015H160.882V355.877C160.882 356.351 160.983 356.689 161.185 356.891C161.363 357.08 161.659 357.175 162.075 357.175C162.276 357.175 162.466 357.146 162.644 357.086C162.739 357.051 162.935 356.95 163.231 356.784V359.115C162.745 359.316 162.193 359.417 161.576 359.417ZM170.633 358.723C169.814 358.166 169.257 357.353 168.96 356.286L171.22 355.396C171.362 355.989 171.623 356.446 172.003 356.766C172.383 357.086 172.857 357.247 173.426 357.247C173.948 357.247 174.399 357.092 174.779 356.784C175.158 356.476 175.348 356.072 175.348 355.574C175.348 355.04 175.146 354.625 174.743 354.329C174.328 354.02 173.776 353.866 173.088 353.866H172.021V351.695H172.999C173.533 351.695 173.99 351.559 174.369 351.286C174.737 351.025 174.921 350.64 174.921 350.129C174.921 349.726 174.767 349.388 174.458 349.115C174.15 348.842 173.764 348.706 173.302 348.706C172.804 348.706 172.4 348.842 172.092 349.115C171.783 349.388 171.57 349.72 171.451 350.112L169.281 349.222C169.53 348.487 170.004 347.852 170.704 347.318C171.404 346.784 172.276 346.518 173.32 346.518C174.079 346.518 174.773 346.666 175.401 346.962C176.006 347.247 176.481 347.644 176.825 348.154C177.169 348.665 177.341 349.234 177.341 349.863C177.341 350.515 177.187 351.084 176.878 351.571C176.582 352.045 176.208 352.389 175.757 352.603V352.745C176.362 352.994 176.854 353.38 177.234 353.902C177.614 354.423 177.803 355.052 177.803 355.788C177.803 356.487 177.62 357.134 177.252 357.727C176.896 358.296 176.38 358.747 175.704 359.079C175.04 359.399 174.28 359.56 173.426 359.56C172.371 359.56 171.44 359.281 170.633 358.723ZM185.721 358.937C185.021 358.51 184.482 357.929 184.102 357.193C183.711 356.446 183.515 355.592 183.515 354.631C183.515 353.682 183.711 352.834 184.102 352.087C184.493 351.339 185.033 350.752 185.721 350.325C186.421 349.898 187.186 349.685 188.016 349.685C188.645 349.685 189.203 349.821 189.689 350.094C190.175 350.367 190.543 350.705 190.792 351.108H190.952L190.792 349.809V346.233H193.176V359.275H190.952V358.172H190.792C190.543 358.587 190.181 358.919 189.707 359.168C189.22 359.429 188.657 359.56 188.016 359.56C187.162 359.56 186.397 359.352 185.721 358.937ZM188.408 357.353C188.87 357.353 189.292 357.241 189.671 357.015C190.051 356.79 190.359 356.47 190.596 356.054C190.834 355.639 190.952 355.165 190.952 354.631C190.952 354.097 190.834 353.623 190.596 353.208C190.359 352.792 190.051 352.472 189.671 352.247C189.292 352.021 188.87 351.909 188.408 351.909C187.969 351.909 187.56 352.021 187.18 352.247C186.777 352.484 186.462 352.804 186.237 353.208C186.012 353.611 185.899 354.085 185.899 354.631C185.899 355.177 186.012 355.651 186.237 356.054C186.462 356.458 186.777 356.778 187.18 357.015C187.56 357.241 187.969 357.353 188.408 357.353ZM198.265 359.56C197.28 359.56 196.474 359.275 195.845 358.706C195.217 358.136 194.902 357.377 194.902 356.428C194.902 355.811 195.062 355.266 195.383 354.791C195.691 354.329 196.142 353.967 196.735 353.706C197.328 353.445 197.963 353.314 198.639 353.314C199.599 353.314 200.418 353.457 201.094 353.741V353.332C201.094 352.822 200.904 352.413 200.525 352.104C200.133 351.784 199.617 351.624 198.977 351.624C198.562 351.624 198.14 351.725 197.713 351.927C197.31 352.116 196.972 352.377 196.699 352.709L195.169 351.517C195.608 350.948 196.171 350.497 196.859 350.165C197.535 349.845 198.277 349.685 199.083 349.685C200.495 349.685 201.58 350.017 202.34 350.681C203.075 351.333 203.443 352.288 203.443 353.546V359.275H201.094V358.332H200.952C200.655 358.711 200.287 359.008 199.849 359.222C199.398 359.447 198.87 359.56 198.265 359.56ZM198.834 357.709C199.534 357.709 200.086 357.49 200.489 357.051C200.892 356.612 201.094 356.09 201.094 355.485C200.442 355.189 199.789 355.04 199.137 355.04C197.903 355.04 197.286 355.503 197.286 356.428C197.286 356.808 197.423 357.116 197.696 357.353C197.968 357.591 198.348 357.709 198.834 357.709ZM208.353 358.83L204.439 349.987H207.161L209.563 355.752H209.706L212.019 349.987H214.688L208.941 363.207H206.378L208.353 358.83ZM219.332 359.56C218.193 359.56 217.279 359.328 216.591 358.866C215.904 358.403 215.417 357.804 215.132 357.069L217.25 356.143C217.44 356.57 217.718 356.903 218.086 357.14C218.43 357.365 218.845 357.478 219.332 357.478C219.782 357.478 220.15 357.407 220.435 357.264C220.719 357.122 220.862 356.891 220.862 356.57C220.862 356.274 220.731 356.049 220.47 355.894C220.245 355.752 219.842 355.616 219.26 355.485L218.175 355.254C217.416 355.076 216.787 354.744 216.289 354.257C215.791 353.783 215.542 353.184 215.542 352.46C215.542 351.927 215.702 351.446 216.022 351.019C216.331 350.604 216.769 350.278 217.339 350.041C217.908 349.803 218.519 349.685 219.171 349.685C221.093 349.685 222.374 350.361 223.015 351.713L220.969 352.603C220.613 351.95 220.031 351.624 219.225 351.624C218.81 351.624 218.483 351.701 218.246 351.855C217.997 352.01 217.873 352.199 217.873 352.425C217.873 352.864 218.288 353.19 219.118 353.403L220.488 353.741C221.425 353.979 222.119 354.329 222.57 354.791C223.032 355.266 223.264 355.847 223.264 356.535C223.264 357.116 223.092 357.644 222.748 358.118C222.416 358.581 221.941 358.937 221.324 359.186C220.719 359.435 220.055 359.56 219.332 359.56Z" fill="#E5D9D8"/>
</g>
<defs>
<filter id="filter0_d_2006_44656" x="45.3657" y="66.6" width="530" height="368" filterUnits="userSpaceOnUse" color-interpolation-filters="sRGB">
<feFlood flood-opacity="0" result="BackgroundImageFix"/>
<feColorMatrix in="SourceAlpha" type="matrix" values="0 0 0 0 0 0 0 0 0 0 0 0 0 0 0 0 0 0 127 0" result="hardAlpha"/>
<feOffset dy="7"/>
<feGaussianBlur stdDeviation="2.5"/>
<feComposite in2="hardAlpha" operator="out"/>
<feColorMatrix type="matrix" values="0 0 0 0 0.917647 0 0 0 0 0.890196 0 0 0 0 0.882353 0 0 0 0.2 0"/>
<feBlend mode="normal" in2="BackgroundImageFix" result="effect1_dropShadow_2006_44656"/>
<feBlend mode="normal" in="SourceGraphic" in2="effect1_dropShadow_2006_44656" result="shape"/>
</filter>
<filter id="filter1_d_2006_44656" x="323.766" y="-1.90735e-06" width="226.2" height="226.2" filterUnits="userSpaceOnUse" color-interpolation-filters="sRGB">
<feFlood flood-opacity="0" result="BackgroundImageFix"/>
<feColorMatrix in="SourceAlpha" type="matrix" values="0 0 0 0 0 0 0 0 0 0 0 0 0 0 0 0 0 0 127 0" result="hardAlpha"/>
<feOffset dy="4"/>
<feGaussianBlur stdDeviation="9.3"/>
<feComposite in2="hardAlpha" operator="out"/>
<feColorMatrix type="matrix" values="0 0 0 0 0 0 0 0 0 0 0 0 0 0 0 0 0 0 0.25 0"/>
<feBlend mode="normal" in2="BackgroundImageFix" result="effect1_dropShadow_2006_44656"/>
<feBlend mode="normal" in="SourceGraphic" in2="effect1_dropShadow_2006_44656" result="shape"/>
</filter>
<filter id="filter2_d_2006_44656" x="-0.000101089" y="202.614" width="351.694" height="213.732" filterUnits="userSpaceOnUse" color-interpolation-filters="sRGB">
<feFlood flood-opacity="0" result="BackgroundImageFix"/>
<feColorMatrix in="SourceAlpha" type="matrix" values="0 0 0 0 0 0 0 0 0 0 0 0 0 0 0 0 0 0 127 0" result="hardAlpha"/>
<feOffset dy="4.37975"/>
<feGaussianBlur stdDeviation="10.1829"/>
<feComposite in2="hardAlpha" operator="out"/>
<feColorMatrix type="matrix" values="0 0 0 0 0 0 0 0 0 0 0 0 0 0 0 0 0 0 0.25 0"/>
<feBlend mode="normal" in2="BackgroundImageFix" result="effect1_dropShadow_2006_44656"/>
<feBlend mode="normal" in="SourceGraphic" in2="effect1_dropShadow_2006_44656" result="shape"/>
</filter>
<linearGradient id="paint0_linear_2006_44656" x1="101.121" y1="295.313" x2="191.199" y2="454.004" gradientUnits="userSpaceOnUse">
<stop stop-color="#FF7D5D"/>
<stop offset="1" stop-color="#FF4B1E"/>
</linearGradient>
<clipPath id="clip0_2006_44656">
<rect x="50.3657" y="66.6" width="520" height="356" rx="38" fill="white"/>
</clipPath>
</defs>
</svg>
