<svg width="550" height="407" viewBox="0 0 550 407" fill="none" xmlns="http://www.w3.org/2000/svg">
<path d="M0 248C0 227.013 17.0132 210 38 210H512C532.987 210 550 227.013 550 248V365C550 385.987 532.987 403 512 403H38C17.0132 403 0 385.987 0 365V248Z" fill="url(#paint0_linear_2006_44807)"/>
<g filter="url(#filter0_d_2006_44807)">
<path d="M90 20C90 8.95431 98.9543 0 110 0H335C346.046 0 355 8.95431 355 20V365C355 376.046 346.046 385 335 385H110C98.9543 385 90 376.046 90 365V20Z" fill="#FEFEFE"/>
<path d="M110 0.5H335C345.77 0.5 354.5 9.23045 354.5 20V365C354.5 375.77 345.77 384.5 335 384.5H110C99.2304 384.5 90.5 375.77 90.5 365V20L90.5068 19.4971C90.7736 8.95996 99.3986 0.5 110 0.5Z" stroke="#FF4B1E"/>
<g clip-path="url(#clip0_2006_44807)">
<rect x="102" y="12" width="241" height="113" rx="8" fill="#F9F9F9"/>
<path d="M115.047 39V29.4698H118.537C119.213 29.4698 119.773 29.5815 120.217 29.8048C120.661 30.0251 120.993 30.3245 121.213 30.7029C121.433 31.0783 121.543 31.5018 121.543 31.9733C121.543 32.3704 121.47 32.7055 121.324 32.9785C121.179 33.2484 120.983 33.4655 120.738 33.63C120.496 33.7913 120.229 33.9092 119.938 33.9836V34.0767C120.254 34.0922 120.563 34.1946 120.864 34.3838C121.168 34.5699 121.419 34.8352 121.618 35.1795C121.816 35.5239 121.915 35.9427 121.915 36.436C121.915 36.923 121.801 37.3604 121.571 37.7482C121.345 38.1329 120.994 38.4385 120.519 38.665C120.045 38.8883 119.438 39 118.7 39H115.047ZM116.485 37.7668H118.56C119.249 37.7668 119.742 37.6334 120.04 37.3666C120.338 37.0999 120.487 36.7664 120.487 36.3662C120.487 36.0652 120.411 35.7891 120.259 35.5379C120.107 35.2866 119.89 35.0865 119.607 34.9376C119.328 34.7887 118.996 34.7142 118.612 34.7142H116.485V37.7668ZM116.485 33.5927H118.411C118.734 33.5927 119.024 33.5307 119.282 33.4066C119.542 33.2825 119.749 33.1088 119.901 32.8854C120.056 32.6589 120.133 32.3921 120.133 32.085C120.133 31.691 119.995 31.3606 119.719 31.0938C119.443 30.827 119.019 30.6936 118.449 30.6936H116.485V33.5927ZM126.52 39.1443C125.85 39.1443 125.265 38.9907 124.766 38.6836C124.266 38.3764 123.878 37.9468 123.602 37.3946C123.326 36.8424 123.188 36.1971 123.188 35.4587C123.188 34.7173 123.326 34.0689 123.602 33.5136C123.878 32.9583 124.266 32.5271 124.766 32.22C125.265 31.9128 125.85 31.7593 126.52 31.7593C127.19 31.7593 127.775 31.9128 128.274 32.22C128.774 32.5271 129.162 32.9583 129.438 33.5136C129.714 34.0689 129.852 34.7173 129.852 35.4587C129.852 36.1971 129.714 36.8424 129.438 37.3946C129.162 37.9468 128.774 38.3764 128.274 38.6836C127.775 38.9907 127.19 39.1443 126.52 39.1443ZM126.525 37.9762C126.959 37.9762 127.319 37.8615 127.604 37.6319C127.89 37.4023 128.101 37.0968 128.237 36.7152C128.377 36.3336 128.447 35.9132 128.447 35.4541C128.447 34.9981 128.377 34.5792 128.237 34.1977C128.101 33.813 127.89 33.5043 127.604 33.2716C127.319 33.039 126.959 32.9226 126.525 32.9226C126.087 32.9226 125.724 33.039 125.436 33.2716C125.15 33.5043 124.938 33.813 124.798 34.1977C124.662 34.5792 124.594 34.9981 124.594 35.4541C124.594 35.9132 124.662 36.3336 124.798 36.7152C124.938 37.0968 125.15 37.4023 125.436 37.6319C125.724 37.8615 126.087 37.9762 126.525 37.9762ZM134.741 31.8523V32.9692H130.837V31.8523H134.741ZM131.884 30.1399H133.276V36.9013C133.276 37.1712 133.316 37.3744 133.397 37.5109C133.477 37.6443 133.581 37.7358 133.708 37.7855C133.839 37.832 133.98 37.8553 134.132 37.8553C134.244 37.8553 134.341 37.8475 134.425 37.832C134.509 37.8165 134.574 37.8041 134.62 37.7948L134.872 38.9442C134.791 38.9752 134.676 39.0062 134.527 39.0372C134.378 39.0714 134.192 39.09 133.969 39.0931C133.603 39.0993 133.262 39.0341 132.945 38.8976C132.629 38.7611 132.373 38.5502 132.177 38.2648C131.982 37.9793 131.884 37.621 131.884 37.1898V30.1399ZM143.085 31.8523V32.9692H139.181V31.8523H143.085ZM140.228 30.1399H141.619V36.9013C141.619 37.1712 141.66 37.3744 141.74 37.5109C141.821 37.6443 141.925 37.7358 142.052 37.7855C142.182 37.832 142.323 37.8553 142.475 37.8553C142.587 37.8553 142.685 37.8475 142.769 37.832C142.852 37.8165 142.918 37.8041 142.964 37.7948L143.215 38.9442C143.135 38.9752 143.02 39.0062 142.871 39.0372C142.722 39.0714 142.536 39.09 142.313 39.0931C141.947 39.0993 141.605 39.0341 141.289 38.8976C140.972 38.7611 140.716 38.5502 140.521 38.2648C140.326 37.9793 140.228 37.621 140.228 37.1898V30.1399ZM144.624 39V31.8523H145.969V32.9878H146.043C146.174 32.6031 146.403 32.3006 146.732 32.0804C147.064 31.857 147.439 31.7453 147.858 31.7453C147.945 31.7453 148.048 31.7484 148.165 31.7546C148.286 31.7608 148.381 31.7686 148.449 31.7779V33.1088C148.393 33.0933 148.294 33.0762 148.151 33.0576C148.009 33.0359 147.866 33.025 147.723 33.025C147.395 33.025 147.101 33.0948 146.844 33.2344C146.589 33.3709 146.388 33.5617 146.239 33.8068C146.09 34.0488 146.016 34.3249 146.016 34.6351V39H144.624ZM151.669 39.1582C151.217 39.1582 150.807 39.0745 150.441 38.9069C150.075 38.7363 149.785 38.4897 149.571 38.167C149.36 37.8444 149.254 37.4489 149.254 36.9804C149.254 36.5771 149.332 36.2452 149.487 35.9846C149.642 35.724 149.852 35.5177 150.115 35.3657C150.379 35.2137 150.674 35.0989 150.999 35.0213C151.325 34.9438 151.657 34.8848 151.995 34.8445C152.423 34.7949 152.771 34.7545 153.038 34.7235C153.304 34.6894 153.498 34.6351 153.619 34.5606C153.74 34.4862 153.801 34.3652 153.801 34.1977V34.1651C153.801 33.7587 153.686 33.4438 153.456 33.2205C153.23 32.9971 152.892 32.8854 152.442 32.8854C151.973 32.8854 151.604 32.9893 151.334 33.1972C151.068 33.4019 150.883 33.63 150.781 33.8812L149.473 33.5834C149.628 33.1491 149.855 32.7985 150.152 32.5317C150.453 32.2618 150.799 32.0664 151.19 31.9454C151.581 31.8213 151.992 31.7593 152.423 31.7593C152.709 31.7593 153.011 31.7934 153.331 31.8617C153.653 31.9268 153.954 32.0478 154.233 32.2246C154.516 32.4014 154.747 32.6543 154.927 32.9831C155.107 33.3089 155.197 33.7323 155.197 34.2535V39H153.838V38.0228H153.782C153.692 38.2027 153.557 38.3795 153.377 38.5533C153.197 38.727 152.966 38.8713 152.684 38.986C152.402 39.1008 152.063 39.1582 151.669 39.1582ZM151.972 38.0414C152.357 38.0414 152.685 37.9654 152.958 37.8134C153.235 37.6614 153.444 37.4628 153.587 37.2177C153.732 36.9696 153.805 36.7043 153.805 36.422V35.5006C153.756 35.5503 153.66 35.5968 153.517 35.6402C153.377 35.6806 153.217 35.7162 153.038 35.7473C152.858 35.7752 152.682 35.8015 152.512 35.8264C152.341 35.8481 152.198 35.8667 152.084 35.8822C151.814 35.9163 151.567 35.9737 151.344 36.0544C151.123 36.135 150.947 36.2514 150.813 36.4034C150.683 36.5523 150.618 36.7508 150.618 36.999C150.618 37.3434 150.745 37.604 150.999 37.7808C151.254 37.9545 151.578 38.0414 151.972 38.0414ZM160.452 31.8523V32.9692H156.412V31.8523H160.452ZM157.52 39V31.024C157.52 30.5773 157.618 30.2066 157.813 29.9119C158.009 29.614 158.268 29.3922 158.59 29.2464C158.913 29.0975 159.263 29.0231 159.642 29.0231C159.921 29.0231 160.16 29.0463 160.359 29.0929C160.557 29.1363 160.704 29.1766 160.801 29.2139L160.475 30.34C160.41 30.3214 160.326 30.2997 160.224 30.2748C160.121 30.2469 159.997 30.233 159.851 30.233C159.513 30.233 159.271 30.3167 159.125 30.4842C158.983 30.6518 158.911 30.8937 158.911 31.2102V39H157.52ZM165.289 31.8523V32.9692H161.25V31.8523H165.289ZM162.357 39V31.024C162.357 30.5773 162.455 30.2066 162.65 29.9119C162.846 29.614 163.105 29.3922 163.427 29.2464C163.75 29.0975 164.101 29.0231 164.479 29.0231C164.758 29.0231 164.997 29.0463 165.196 29.0929C165.394 29.1363 165.542 29.1766 165.638 29.2139L165.312 30.34C165.247 30.3214 165.163 30.2997 165.061 30.2748C164.958 30.2469 164.834 30.233 164.689 30.233C164.35 30.233 164.108 30.3167 163.963 30.4842C163.82 30.6518 163.749 30.8937 163.749 31.2102V39H162.357ZM166.724 39V31.8523H168.116V39H166.724ZM167.427 30.7495C167.185 30.7495 166.977 30.6688 166.804 30.5075C166.633 30.3431 166.548 30.1476 166.548 29.9212C166.548 29.6916 166.633 29.4962 166.804 29.3348C166.977 29.1704 167.185 29.0882 167.427 29.0882C167.669 29.0882 167.875 29.1704 168.046 29.3348C168.22 29.4962 168.307 29.6916 168.307 29.9212C168.307 30.1476 168.22 30.3431 168.046 30.5075C167.875 30.6688 167.669 30.7495 167.427 30.7495ZM172.998 39.1443C172.307 39.1443 171.711 38.9876 171.211 38.6743C170.715 38.3578 170.334 37.922 170.067 37.3666C169.8 36.8113 169.667 36.1754 169.667 35.4587C169.667 34.7328 169.803 34.0922 170.076 33.5369C170.349 32.9785 170.734 32.5426 171.23 32.2293C171.726 31.9159 172.311 31.7593 172.984 31.7593C173.527 31.7593 174.011 31.8601 174.436 32.0617C174.861 32.2603 175.204 32.5395 175.465 32.8994C175.728 33.2592 175.885 33.6796 175.935 34.1604H174.581C174.506 33.8254 174.335 33.5369 174.069 33.2949C173.805 33.0529 173.451 32.9319 173.008 32.9319C172.62 32.9319 172.28 33.0343 171.989 33.2391C171.7 33.4407 171.475 33.7292 171.314 34.1046C171.153 34.4769 171.072 34.9174 171.072 35.4262C171.072 35.9474 171.151 36.3972 171.309 36.7757C171.467 37.1541 171.691 37.4473 171.979 37.6552C172.271 37.863 172.614 37.9669 173.008 37.9669C173.271 37.9669 173.51 37.9189 173.724 37.8227C173.941 37.7234 174.123 37.5823 174.269 37.3992C174.418 37.2162 174.522 36.9959 174.581 36.7384H175.935C175.885 37.2007 175.735 37.6133 175.483 37.9762C175.232 38.3392 174.895 38.6246 174.474 38.8325C174.055 39.0403 173.563 39.1443 172.998 39.1443ZM183.901 39.1443C183.231 39.1443 182.646 38.9907 182.147 38.6836C181.648 38.3764 181.26 37.9468 180.984 37.3946C180.708 36.8424 180.57 36.1971 180.57 35.4587C180.57 34.7173 180.708 34.0689 180.984 33.5136C181.26 32.9583 181.648 32.5271 182.147 32.22C182.646 31.9128 183.231 31.7593 183.901 31.7593C184.571 31.7593 185.156 31.9128 185.656 32.22C186.155 32.5271 186.543 32.9583 186.819 33.5136C187.095 34.0689 187.233 34.7173 187.233 35.4587C187.233 36.1971 187.095 36.8424 186.819 37.3946C186.543 37.9468 186.155 38.3764 185.656 38.6836C185.156 38.9907 184.571 39.1443 183.901 39.1443ZM183.906 37.9762C184.34 37.9762 184.7 37.8615 184.986 37.6319C185.271 37.4023 185.482 37.0968 185.618 36.7152C185.758 36.3336 185.828 35.9132 185.828 35.4541C185.828 34.9981 185.758 34.5792 185.618 34.1977C185.482 33.813 185.271 33.5043 184.986 33.2716C184.7 33.039 184.34 32.9226 183.906 32.9226C183.469 32.9226 183.106 33.039 182.817 33.2716C182.532 33.5043 182.319 33.813 182.18 34.1977C182.043 34.5792 181.975 34.9981 181.975 35.4541C181.975 35.9132 182.043 36.3336 182.18 36.7152C182.319 37.0968 182.532 37.4023 182.817 37.6319C183.106 37.8615 183.469 37.9762 183.906 37.9762ZM194.658 31.8523L192.066 39H190.577L187.98 31.8523H189.474L191.284 37.3527H191.358L193.164 31.8523H194.658ZM198.803 39.1443C198.099 39.1443 197.492 38.9938 196.983 38.6929C196.478 38.3889 196.087 37.9623 195.811 37.4132C195.538 36.861 195.401 36.2142 195.401 35.4727C195.401 34.7406 195.538 34.0953 195.811 33.5369C196.087 32.9785 196.471 32.5426 196.965 32.2293C197.461 31.9159 198.041 31.7593 198.705 31.7593C199.108 31.7593 199.499 31.826 199.878 31.9594C200.256 32.0928 200.596 32.3022 200.897 32.5876C201.198 32.873 201.435 33.2437 201.609 33.6998C201.783 34.1527 201.869 34.7033 201.869 35.3517V35.845H196.188V34.8026H200.506C200.506 34.4365 200.431 34.1124 200.283 33.83C200.134 33.5446 199.924 33.3197 199.654 33.1553C199.388 32.9909 199.074 32.9087 198.714 32.9087C198.323 32.9087 197.982 33.0048 197.691 33.1972C197.402 33.3864 197.179 33.6346 197.021 33.9417C196.865 34.2458 196.788 34.5761 196.788 34.9329V35.7473C196.788 36.225 196.872 36.6314 197.039 36.9665C197.21 37.3015 197.447 37.5574 197.751 37.7343C198.055 37.908 198.41 37.9949 198.817 37.9949C199.08 37.9949 199.321 37.9576 199.538 37.8832C199.755 37.8056 199.943 37.6908 200.101 37.5388C200.259 37.3868 200.38 37.1991 200.464 36.9758L201.781 37.2131C201.675 37.6009 201.486 37.9406 201.213 38.2322C200.943 38.5207 200.604 38.7456 200.194 38.9069C199.788 39.0651 199.324 39.1443 198.803 39.1443ZM203.413 39V31.8523H204.758V32.9878H204.832C204.963 32.6031 205.192 32.3006 205.521 32.0804C205.853 31.857 206.228 31.7453 206.647 31.7453C206.734 31.7453 206.837 31.7484 206.954 31.7546C207.075 31.7608 207.17 31.7686 207.238 31.7779V33.1088C207.182 33.0933 207.083 33.0762 206.94 33.0576C206.798 33.0359 206.655 33.025 206.512 33.025C206.184 33.025 205.89 33.0948 205.633 33.2344C205.378 33.3709 205.177 33.5617 205.028 33.8068C204.879 34.0488 204.805 34.3249 204.805 34.6351V39H203.413ZM212.201 31.8523V32.9692H208.297V31.8523H212.201ZM209.344 30.1399H210.735V36.9013C210.735 37.1712 210.776 37.3744 210.856 37.5109C210.937 37.6443 211.041 37.7358 211.168 37.7855C211.298 37.832 211.44 37.8553 211.592 37.8553C211.703 37.8553 211.801 37.8475 211.885 37.832C211.968 37.8165 212.034 37.8041 212.08 37.7948L212.331 38.9442C212.251 38.9752 212.136 39.0062 211.987 39.0372C211.838 39.0714 211.652 39.09 211.429 39.0931C211.063 39.0993 210.721 39.0341 210.405 38.8976C210.088 38.7611 209.833 38.5502 209.637 38.2648C209.442 37.9793 209.344 37.621 209.344 37.1898V30.1399ZM213.74 39V31.8523H215.132V39H213.74ZM214.443 30.7495C214.201 30.7495 213.993 30.6688 213.819 30.5075C213.649 30.3431 213.563 30.1476 213.563 29.9212C213.563 29.6916 213.649 29.4962 213.819 29.3348C213.993 29.1704 214.201 29.0882 214.443 29.0882C214.685 29.0882 214.891 29.1704 215.062 29.3348C215.236 29.4962 215.322 29.6916 215.322 29.9212C215.322 30.1476 215.236 30.3431 215.062 30.5075C214.891 30.6688 214.685 30.7495 214.443 30.7495ZM217.003 39V31.8523H218.339V33.0157H218.427C218.576 32.6217 218.82 32.3146 219.158 32.0943C219.496 31.871 219.901 31.7593 220.373 31.7593C220.85 31.7593 221.251 31.871 221.573 32.0943C221.899 32.3177 222.139 32.6248 222.294 33.0157H222.369C222.54 32.6341 222.811 32.3301 223.183 32.1036C223.556 31.8741 223.999 31.7593 224.514 31.7593C225.162 31.7593 225.691 31.9625 226.101 32.3689C226.514 32.7753 226.72 33.388 226.72 34.207V39H225.328V34.3373C225.328 33.8533 225.197 33.5028 224.933 33.2856C224.669 33.0684 224.354 32.9599 223.988 32.9599C223.535 32.9599 223.183 33.0995 222.932 33.3787C222.681 33.6548 222.555 34.01 222.555 34.4443V39H221.168V34.2489C221.168 33.8611 221.047 33.5493 220.805 33.3135C220.563 33.0777 220.248 32.9599 219.861 32.9599C219.597 32.9599 219.353 33.0297 219.13 33.1693C218.91 33.3058 218.731 33.4966 218.595 33.7416C218.462 33.9867 218.395 34.2706 218.395 34.5932V39H217.003ZM231.665 39.1443C230.961 39.1443 230.355 38.9938 229.846 38.6929C229.34 38.3889 228.949 37.9623 228.673 37.4132C228.4 36.861 228.264 36.2142 228.264 35.4727C228.264 34.7406 228.4 34.0953 228.673 33.5369C228.949 32.9785 229.334 32.5426 229.827 32.2293C230.324 31.9159 230.904 31.7593 231.568 31.7593C231.971 31.7593 232.362 31.826 232.74 31.9594C233.119 32.0928 233.458 32.3022 233.759 32.5876C234.06 32.873 234.298 33.2437 234.471 33.6998C234.645 34.1527 234.732 34.7033 234.732 35.3517V35.845H229.05V34.8026H233.368C233.368 34.4365 233.294 34.1124 233.145 33.83C232.996 33.5446 232.787 33.3197 232.517 33.1553C232.25 32.9909 231.937 32.9087 231.577 32.9087C231.186 32.9087 230.845 33.0048 230.553 33.1972C230.265 33.3864 230.041 33.6346 229.883 33.9417C229.728 34.2458 229.65 34.5761 229.65 34.9329V35.7473C229.65 36.225 229.734 36.6314 229.902 36.9665C230.072 37.3015 230.31 37.5574 230.614 37.7343C230.918 37.908 231.273 37.9949 231.679 37.9949C231.943 37.9949 232.183 37.9576 232.4 37.8832C232.618 37.8056 232.805 37.6908 232.964 37.5388C233.122 37.3868 233.243 37.1991 233.327 36.9758L234.643 37.2131C234.538 37.6009 234.349 37.9406 234.076 38.2322C233.806 38.5207 233.466 38.7456 233.057 38.9069C232.65 39.0651 232.186 39.1443 231.665 39.1443Z" fill="#4D4D4D"/>
<rect x="307" y="30" width="24" height="9" rx="4.5" fill="#CECECE"/>
<rect x="114" y="73" width="37.8" height="129" rx="7" fill="#FF4B1E" fill-opacity="0.2"/>
<rect x="158.8" y="87" width="37.8" height="101" rx="7" fill="#FF4B1E" fill-opacity="0.2"/>
<rect x="204" y="65" width="37" height="122" rx="7" fill="#FF4B1E"/>
<rect x="204" y="65" width="37" height="122" rx="7" fill="url(#paint1_radial_2006_44807)"/>
<rect x="248" y="82" width="38" height="120" rx="7" fill="#FF4B1E" fill-opacity="0.2"/>
<rect x="293" y="95" width="38" height="107" rx="7" fill="#FF4B1E" fill-opacity="0.2"/>
</g>
<rect x="102" y="137" width="157" height="236" rx="8" fill="#F9F9F9"/>
<path d="M111.047 164V154.47H114.537C115.213 154.47 115.773 154.581 116.217 154.805C116.661 155.025 116.993 155.324 117.213 155.703C117.433 156.078 117.543 156.502 117.543 156.973C117.543 157.37 117.47 157.705 117.324 157.978C117.179 158.248 116.983 158.466 116.738 158.63C116.496 158.791 116.229 158.909 115.938 158.984V159.077C116.254 159.092 116.563 159.195 116.864 159.384C117.168 159.57 117.419 159.835 117.618 160.18C117.816 160.524 117.915 160.943 117.915 161.436C117.915 161.923 117.801 162.36 117.571 162.748C117.345 163.133 116.994 163.438 116.519 163.665C116.045 163.888 115.438 164 114.7 164H111.047ZM112.485 162.767H114.56C115.249 162.767 115.742 162.633 116.04 162.367C116.338 162.1 116.487 161.766 116.487 161.366C116.487 161.065 116.411 160.789 116.259 160.538C116.107 160.287 115.89 160.086 115.607 159.938C115.328 159.789 114.996 159.714 114.612 159.714H112.485V162.767ZM112.485 158.593H114.411C114.734 158.593 115.024 158.531 115.282 158.407C115.542 158.282 115.749 158.109 115.901 157.885C116.056 157.659 116.133 157.392 116.133 157.085C116.133 156.691 115.995 156.361 115.719 156.094C115.443 155.827 115.019 155.694 114.449 155.694H112.485V158.593ZM122.52 164.144C121.85 164.144 121.265 163.991 120.766 163.684C120.266 163.376 119.878 162.947 119.602 162.395C119.326 161.842 119.188 161.197 119.188 160.459C119.188 159.717 119.326 159.069 119.602 158.514C119.878 157.958 120.266 157.527 120.766 157.22C121.265 156.913 121.85 156.759 122.52 156.759C123.19 156.759 123.775 156.913 124.274 157.22C124.774 157.527 125.162 157.958 125.438 158.514C125.714 159.069 125.852 159.717 125.852 160.459C125.852 161.197 125.714 161.842 125.438 162.395C125.162 162.947 124.774 163.376 124.274 163.684C123.775 163.991 123.19 164.144 122.52 164.144ZM122.525 162.976C122.959 162.976 123.319 162.861 123.604 162.632C123.89 162.402 124.101 162.097 124.237 161.715C124.377 161.334 124.447 160.913 124.447 160.454C124.447 159.998 124.377 159.579 124.237 159.198C124.101 158.813 123.89 158.504 123.604 158.272C123.319 158.039 122.959 157.923 122.525 157.923C122.087 157.923 121.724 158.039 121.436 158.272C121.15 158.504 120.938 158.813 120.798 159.198C120.662 159.579 120.594 159.998 120.594 160.454C120.594 160.913 120.662 161.334 120.798 161.715C120.938 162.097 121.15 162.402 121.436 162.632C121.724 162.861 122.087 162.976 122.525 162.976ZM130.741 156.852V157.969H126.837V156.852H130.741ZM127.884 155.14H129.276V161.901C129.276 162.171 129.316 162.374 129.397 162.511C129.477 162.644 129.581 162.736 129.708 162.785C129.839 162.832 129.98 162.855 130.132 162.855C130.244 162.855 130.341 162.848 130.425 162.832C130.509 162.816 130.574 162.804 130.62 162.795L130.872 163.944C130.791 163.975 130.676 164.006 130.527 164.037C130.378 164.071 130.192 164.09 129.969 164.093C129.603 164.099 129.262 164.034 128.945 163.898C128.629 163.761 128.373 163.55 128.177 163.265C127.982 162.979 127.884 162.621 127.884 162.19V155.14ZM135.86 164V154.47H137.252V158.011H137.335C137.416 157.862 137.532 157.69 137.684 157.495C137.836 157.299 138.047 157.128 138.317 156.983C138.587 156.834 138.944 156.759 139.388 156.759C139.965 156.759 140.48 156.905 140.932 157.197C141.385 157.488 141.741 157.909 141.998 158.458C142.259 159.007 142.389 159.668 142.389 160.44C142.389 161.213 142.26 161.875 142.003 162.427C141.745 162.976 141.392 163.4 140.942 163.698C140.492 163.992 139.979 164.14 139.401 164.14C138.967 164.14 138.612 164.067 138.336 163.921C138.063 163.775 137.849 163.604 137.694 163.409C137.539 163.214 137.419 163.04 137.335 162.888H137.219V164H135.86ZM137.224 160.426C137.224 160.929 137.297 161.369 137.442 161.748C137.588 162.126 137.799 162.422 138.075 162.637C138.351 162.848 138.69 162.953 139.09 162.953C139.505 162.953 139.853 162.843 140.132 162.623C140.411 162.399 140.622 162.097 140.765 161.715C140.911 161.334 140.984 160.904 140.984 160.426C140.984 159.955 140.912 159.531 140.77 159.156C140.63 158.78 140.419 158.484 140.137 158.267C139.858 158.05 139.509 157.941 139.09 157.941C138.686 157.941 138.345 158.045 138.066 158.253C137.79 158.461 137.58 158.751 137.438 159.123C137.295 159.495 137.224 159.93 137.224 160.426ZM145.343 154.47V164H143.951V154.47H145.343ZM150.225 164.144C149.555 164.144 148.97 163.991 148.471 163.684C147.972 163.376 147.584 162.947 147.308 162.395C147.032 161.842 146.893 161.197 146.893 160.459C146.893 159.717 147.032 159.069 147.308 158.514C147.584 157.958 147.972 157.527 148.471 157.22C148.97 156.913 149.555 156.759 150.225 156.759C150.895 156.759 151.48 156.913 151.98 157.22C152.479 157.527 152.867 157.958 153.143 158.514C153.419 159.069 153.557 159.717 153.557 160.459C153.557 161.197 153.419 161.842 153.143 162.395C152.867 162.947 152.479 163.376 151.98 163.684C151.48 163.991 150.895 164.144 150.225 164.144ZM150.23 162.976C150.664 162.976 151.024 162.861 151.31 162.632C151.595 162.402 151.806 162.097 151.942 161.715C152.082 161.334 152.152 160.913 152.152 160.454C152.152 159.998 152.082 159.579 151.942 159.198C151.806 158.813 151.595 158.504 151.31 158.272C151.024 158.039 150.664 157.923 150.23 157.923C149.793 157.923 149.43 158.039 149.141 158.272C148.856 158.504 148.643 158.813 148.504 159.198C148.367 159.579 148.299 159.998 148.299 160.454C148.299 160.913 148.367 161.334 148.504 161.715C148.643 162.097 148.856 162.402 149.141 162.632C149.43 162.861 149.793 162.976 150.23 162.976ZM158.121 164.144C157.429 164.144 156.834 163.988 156.334 163.674C155.838 163.358 155.456 162.922 155.189 162.367C154.923 161.811 154.789 161.175 154.789 160.459C154.789 159.733 154.926 159.092 155.199 158.537C155.472 157.978 155.856 157.543 156.353 157.229C156.849 156.916 157.434 156.759 158.107 156.759C158.65 156.759 159.134 156.86 159.559 157.062C159.984 157.26 160.327 157.539 160.587 157.899C160.851 158.259 161.008 158.68 161.057 159.16H159.703C159.629 158.825 159.458 158.537 159.191 158.295C158.928 158.053 158.574 157.932 158.13 157.932C157.743 157.932 157.403 158.034 157.111 158.239C156.823 158.441 156.598 158.729 156.436 159.105C156.275 159.477 156.195 159.917 156.195 160.426C156.195 160.947 156.274 161.397 156.432 161.776C156.59 162.154 156.813 162.447 157.102 162.655C157.394 162.863 157.736 162.967 158.13 162.967C158.394 162.967 158.633 162.919 158.847 162.823C159.064 162.723 159.246 162.582 159.391 162.399C159.54 162.216 159.644 161.996 159.703 161.738H161.057C161.008 162.201 160.857 162.613 160.606 162.976C160.355 163.339 160.018 163.625 159.596 163.832C159.177 164.04 158.686 164.144 158.121 164.144ZM163.825 161.576L163.816 159.877H164.058L166.906 156.852H168.571L165.323 160.296H165.105L163.825 161.576ZM162.545 164V154.47H163.937V164H162.545ZM167.059 164L164.5 160.603L165.458 159.63L168.767 164H167.059ZM172.626 164.144C171.922 164.144 171.315 163.994 170.806 163.693C170.301 163.389 169.91 162.962 169.634 162.413C169.361 161.861 169.224 161.214 169.224 160.473C169.224 159.741 169.361 159.095 169.634 158.537C169.91 157.978 170.294 157.543 170.788 157.229C171.284 156.916 171.864 156.759 172.528 156.759C172.931 156.759 173.322 156.826 173.701 156.959C174.079 157.093 174.419 157.302 174.72 157.588C175.021 157.873 175.258 158.244 175.432 158.7C175.605 159.153 175.692 159.703 175.692 160.352V160.845H170.011V159.803H174.329C174.329 159.437 174.254 159.112 174.106 158.83C173.957 158.545 173.747 158.32 173.477 158.155C173.211 157.991 172.897 157.909 172.537 157.909C172.146 157.909 171.805 158.005 171.514 158.197C171.225 158.386 171.002 158.635 170.843 158.942C170.688 159.246 170.611 159.576 170.611 159.933V160.747C170.611 161.225 170.695 161.631 170.862 161.966C171.033 162.302 171.27 162.557 171.574 162.734C171.878 162.908 172.233 162.995 172.64 162.995C172.903 162.995 173.144 162.958 173.361 162.883C173.578 162.806 173.766 162.691 173.924 162.539C174.082 162.387 174.203 162.199 174.287 161.976L175.604 162.213C175.498 162.601 175.309 162.941 175.036 163.232C174.766 163.521 174.427 163.746 174.017 163.907C173.611 164.065 173.147 164.144 172.626 164.144ZM179.912 164.14C179.335 164.14 178.82 163.992 178.367 163.698C177.917 163.4 177.563 162.976 177.306 162.427C177.052 161.875 176.924 161.213 176.924 160.44C176.924 159.668 177.053 159.007 177.311 158.458C177.571 157.909 177.928 157.488 178.381 157.197C178.834 156.905 179.347 156.759 179.921 156.759C180.365 156.759 180.722 156.834 180.991 156.983C181.264 157.128 181.475 157.299 181.624 157.495C181.776 157.69 181.894 157.862 181.978 158.011H182.062V154.47H183.453V164H182.094V162.888H181.978C181.894 163.04 181.773 163.214 181.615 163.409C181.46 163.604 181.246 163.775 180.973 163.921C180.7 164.067 180.346 164.14 179.912 164.14ZM180.219 162.953C180.619 162.953 180.957 162.848 181.233 162.637C181.513 162.422 181.724 162.126 181.866 161.748C182.012 161.369 182.085 160.929 182.085 160.426C182.085 159.93 182.014 159.495 181.871 159.123C181.728 158.751 181.519 158.461 181.243 158.253C180.967 158.045 180.625 157.941 180.219 157.941C179.8 157.941 179.451 158.05 179.172 158.267C178.893 158.484 178.682 158.78 178.539 159.156C178.399 159.531 178.33 159.955 178.33 160.426C178.33 160.904 178.401 161.334 178.544 161.715C178.686 162.097 178.897 162.399 179.177 162.623C179.459 162.843 179.806 162.953 180.219 162.953Z" fill="#4D4D4D"/>
<rect x="227" y="155" width="24" height="9" rx="4.5" fill="#CECECE"/>
<rect x="110" y="337" width="24" height="9" rx="4.5" fill="#FF4B1E"/>
<rect x="142" y="337" width="39" height="9" rx="4.5" fill="#E0E0E0"/>
<rect x="110" y="354" width="24" height="9" rx="4.5" fill="#50CDA3"/>
<rect x="142" y="354" width="85" height="9" rx="4.5" fill="#E0E0E0"/>
<path d="M243.5 255.5C243.5 290.018 215.518 318 181 318C146.482 318 118.5 290.018 118.5 255.5C118.5 220.982 146.482 193 181 193C215.518 193 243.5 220.982 243.5 255.5ZM134.125 255.5C134.125 281.388 155.112 302.375 181 302.375C206.888 302.375 227.875 281.388 227.875 255.5C227.875 229.612 206.888 208.625 181 208.625C155.112 208.625 134.125 229.612 134.125 255.5Z" fill="white"/>
<path d="M241.397 271.577C243.856 262.34 244.163 252.662 242.295 243.287C240.427 233.913 236.434 225.092 230.623 217.503C224.812 209.913 217.337 203.758 208.774 199.51C200.211 195.263 190.788 193.036 181.23 193L181.172 208.625C188.341 208.652 195.409 210.322 201.831 213.508C208.253 216.694 213.859 221.31 218.217 227.002C222.576 232.694 225.571 239.31 226.971 246.341C228.372 253.371 228.142 260.63 226.298 267.558L241.397 271.577Z" fill="#FF4B1E"/>
<path d="M118.506 254.607C118.739 238.316 125.324 222.76 136.858 211.254C148.392 199.747 163.963 193.199 180.254 193.004L180.441 208.628C168.222 208.774 156.544 213.685 147.894 222.315C139.243 230.945 134.304 242.612 134.13 254.83L118.506 254.607Z" fill="#FFEDE8"/>
<path d="M118.5 255.5C118.5 270.608 123.973 285.205 133.905 296.589C143.837 307.973 157.557 315.374 172.526 317.423C187.494 319.471 202.698 316.028 215.324 307.731C227.95 299.434 237.143 286.844 241.202 272.292L226.152 268.094C223.107 279.008 216.212 288.451 206.743 294.673C197.274 300.896 185.871 303.478 174.644 301.942C163.418 300.406 153.128 294.855 145.679 286.317C138.229 277.779 134.125 266.831 134.125 255.5H118.5Z" fill="#50CDA3"/>
<path d="M164.632 252.203C164.1 251.986 163.618 251.644 163.184 251.178C162.771 250.733 162.484 250.163 162.321 249.469L164.29 248.704C164.421 249.268 164.665 249.713 165.023 250.038C165.381 250.364 165.826 250.526 166.357 250.526C166.9 250.526 167.345 250.353 167.692 250.006C168.05 249.648 168.229 249.197 168.229 248.655C168.229 248.112 168.05 247.662 167.692 247.304C167.334 246.946 166.889 246.767 166.357 246.767C166.021 246.767 165.717 246.837 165.446 246.978C165.186 247.109 164.958 247.293 164.762 247.532L162.646 246.588L163.281 240.891H169.727V242.795H165.104L164.697 245.465L164.827 245.497C165.381 245.041 166.043 244.814 166.813 244.814C167.442 244.814 168.034 244.976 168.587 245.302C169.151 245.627 169.591 246.078 169.906 246.653C170.242 247.26 170.41 247.928 170.41 248.655C170.41 249.403 170.237 250.076 169.889 250.673C169.531 251.281 169.054 251.742 168.457 252.056C167.839 252.382 167.144 252.545 166.374 252.545C165.766 252.545 165.186 252.431 164.632 252.203ZM174.247 251.78C173.52 251.259 172.967 250.548 172.587 249.648C172.186 248.714 171.985 247.694 171.985 246.588C171.985 245.481 172.186 244.461 172.587 243.528C172.967 242.627 173.52 241.916 174.247 241.396C174.964 240.875 175.804 240.614 176.77 240.614C177.736 240.614 178.577 240.875 179.293 241.396C180.031 241.938 180.59 242.649 180.969 243.528C181.36 244.439 181.555 245.459 181.555 246.588C181.555 247.716 181.36 248.736 180.969 249.648C180.59 250.526 180.031 251.237 179.293 251.78C178.588 252.29 177.747 252.545 176.77 252.545C175.794 252.545 174.953 252.29 174.247 251.78ZM178.17 249.989C178.561 249.653 178.859 249.186 179.065 248.59C179.271 248.004 179.374 247.336 179.374 246.588C179.374 245.427 179.141 244.483 178.674 243.756C178.208 243.029 177.573 242.665 176.77 242.665C175.989 242.665 175.36 243.034 174.882 243.772C174.416 244.499 174.182 245.438 174.182 246.588C174.182 247.336 174.285 248.004 174.492 248.59C174.698 249.165 175.002 249.631 175.403 249.989C175.783 250.326 176.238 250.494 176.77 250.494C177.324 250.494 177.79 250.326 178.17 249.989ZM183.391 251.536L188.143 243.04L188.078 242.942H182.837V240.891H190.585V243.04L185.23 252.545L183.391 251.536ZM192.046 250.299C194.454 247.911 195.838 246.517 196.196 246.116C196.619 245.66 196.896 245.302 197.026 245.041C197.178 244.738 197.254 244.407 197.254 244.049C197.254 243.658 197.107 243.332 196.814 243.072C196.511 242.801 196.125 242.665 195.659 242.665C195.214 242.665 194.84 242.801 194.536 243.072C194.254 243.322 194.048 243.653 193.917 244.065L191.948 243.251C192.078 242.828 192.306 242.41 192.632 241.998C192.946 241.596 193.369 241.265 193.901 241.005C194.422 240.745 195.024 240.614 195.708 240.614C196.446 240.614 197.102 240.761 197.677 241.054C198.241 241.347 198.681 241.748 198.995 242.258C199.31 242.768 199.467 243.332 199.467 243.951C199.467 245.188 198.865 246.392 197.661 247.564C197.335 247.879 196.429 248.78 194.943 250.266L194.992 250.364H199.614V252.284H192.046V250.299Z" fill="#0C0200"/>
<path d="M155.798 262.612H153.142V260.907H160.264V262.612H157.608V270.451H155.798V262.612ZM163.65 270.659C162.947 270.659 162.322 270.503 161.775 270.191C161.228 269.878 160.798 269.448 160.486 268.901C160.182 268.372 160.03 267.756 160.03 267.052C160.03 266.358 160.182 265.746 160.486 265.217C160.807 264.661 161.237 264.227 161.775 263.914C162.339 263.593 162.964 263.433 163.65 263.433C164.336 263.433 164.961 263.593 165.525 263.914C166.063 264.227 166.493 264.661 166.814 265.217C167.118 265.746 167.27 266.358 167.27 267.052C167.27 267.756 167.118 268.372 166.814 268.901C166.501 269.448 166.072 269.878 165.525 270.191C164.978 270.503 164.353 270.659 163.65 270.659ZM164.587 268.81C164.865 268.663 165.091 268.433 165.264 268.12C165.438 267.816 165.525 267.46 165.525 267.052C165.525 266.653 165.438 266.302 165.264 265.998C165.091 265.685 164.865 265.455 164.587 265.308C164.284 265.143 163.971 265.06 163.65 265.06C163.337 265.06 163.029 265.143 162.725 265.308C162.439 265.464 162.209 265.694 162.035 265.998C161.862 266.302 161.775 266.653 161.775 267.052C161.775 267.434 161.862 267.786 162.035 268.107C162.2 268.42 162.43 268.654 162.725 268.81C163.012 268.967 163.32 269.045 163.65 269.045C163.988 269.045 164.301 268.967 164.587 268.81ZM171.358 270.555C171.02 270.555 170.707 270.503 170.421 270.399C170.134 270.295 169.904 270.156 169.731 269.982C169.314 269.583 169.106 269.014 169.106 268.276V265.138H167.921V263.654H169.106V261.727H170.85V263.654H172.517V265.138H170.85V267.964C170.85 268.311 170.924 268.559 171.072 268.706C171.202 268.845 171.419 268.914 171.723 268.914C171.87 268.914 172.009 268.893 172.139 268.849C172.209 268.823 172.352 268.75 172.569 268.628V270.334C172.213 270.481 171.81 270.555 171.358 270.555ZM175.915 270.659C175.195 270.659 174.605 270.451 174.145 270.034C173.685 269.618 173.455 269.062 173.455 268.368C173.455 267.916 173.572 267.517 173.806 267.17C174.032 266.831 174.362 266.566 174.796 266.375C175.23 266.184 175.694 266.089 176.189 266.089C176.892 266.089 177.491 266.193 177.986 266.401V266.102C177.986 265.729 177.847 265.429 177.569 265.204C177.283 264.969 176.905 264.852 176.436 264.852C176.132 264.852 175.824 264.926 175.512 265.073C175.217 265.212 174.969 265.403 174.77 265.646L173.65 264.774C173.971 264.357 174.383 264.027 174.887 263.784C175.382 263.55 175.924 263.433 176.514 263.433C177.547 263.433 178.342 263.676 178.897 264.162C179.435 264.639 179.705 265.338 179.705 266.258V270.451H177.986V269.761H177.882C177.665 270.039 177.395 270.256 177.074 270.412C176.744 270.577 176.358 270.659 175.915 270.659ZM176.332 269.305C176.844 269.305 177.248 269.145 177.543 268.823C177.838 268.502 177.986 268.12 177.986 267.677C177.508 267.46 177.031 267.352 176.553 267.352C175.651 267.352 175.199 267.691 175.199 268.368C175.199 268.645 175.299 268.871 175.499 269.045C175.698 269.218 175.976 269.305 176.332 269.305ZM181.319 260.907H183.064V270.451H181.319V260.907ZM188.129 260.907H191.866C192.413 260.907 192.903 261.015 193.337 261.232C193.771 261.449 194.123 261.753 194.392 262.144C194.652 262.526 194.783 262.942 194.783 263.394C194.783 263.88 194.665 264.296 194.431 264.644C194.197 265 193.889 265.269 193.507 265.451V265.555C194.001 265.737 194.396 266.02 194.691 266.401C194.987 266.783 195.134 267.248 195.134 267.795C195.134 268.316 194.991 268.78 194.705 269.188C194.409 269.605 194.032 269.917 193.572 270.125C193.103 270.342 192.578 270.451 191.996 270.451H188.129V260.907ZM191.723 264.8C192.131 264.8 192.448 264.691 192.673 264.474C192.908 264.257 193.025 263.984 193.025 263.654C193.025 263.342 192.912 263.072 192.686 262.847C192.469 262.63 192.17 262.521 191.788 262.521H189.926V264.8H191.723ZM191.931 268.81C192.356 268.81 192.695 268.697 192.947 268.472C193.19 268.255 193.311 267.96 193.311 267.586C193.311 267.222 193.19 266.922 192.947 266.688C192.712 266.462 192.356 266.349 191.879 266.349H189.926V268.81H191.931ZM199.757 270.659C199.053 270.659 198.428 270.503 197.882 270.191C197.335 269.878 196.905 269.448 196.593 268.901C196.289 268.372 196.137 267.756 196.137 267.052C196.137 266.358 196.289 265.746 196.593 265.217C196.914 264.661 197.343 264.227 197.882 263.914C198.446 263.593 199.071 263.433 199.757 263.433C200.442 263.433 201.067 263.593 201.632 263.914C202.17 264.227 202.599 264.661 202.921 265.217C203.224 265.746 203.376 266.358 203.376 267.052C203.376 267.756 203.224 268.372 202.921 268.901C202.608 269.448 202.178 269.878 201.632 270.191C201.085 270.503 200.46 270.659 199.757 270.659ZM200.694 268.81C200.972 268.663 201.198 268.433 201.371 268.12C201.545 267.816 201.632 267.46 201.632 267.052C201.632 266.653 201.545 266.302 201.371 265.998C201.198 265.685 200.972 265.455 200.694 265.308C200.39 265.143 200.078 265.06 199.757 265.06C199.444 265.06 199.136 265.143 198.832 265.308C198.546 265.464 198.316 265.694 198.142 265.998C197.968 266.302 197.882 266.653 197.882 267.052C197.882 267.434 197.968 267.786 198.142 268.107C198.307 268.42 198.537 268.654 198.832 268.81C199.119 268.967 199.427 269.045 199.757 269.045C200.095 269.045 200.408 268.967 200.694 268.81ZM207.465 270.555C207.126 270.555 206.814 270.503 206.527 270.399C206.241 270.295 206.011 270.156 205.837 269.982C205.421 269.583 205.212 269.014 205.212 268.276V265.138H204.027V263.654H205.212V261.727H206.957V263.654H208.624V265.138H206.957V267.964C206.957 268.311 207.031 268.559 207.178 268.706C207.309 268.845 207.526 268.914 207.83 268.914C207.977 268.914 208.116 268.893 208.246 268.849C208.316 268.823 208.459 268.75 208.676 268.628V270.334C208.32 270.481 207.916 270.555 207.465 270.555Z" fill="#E5D9D8"/>
<rect x="271" y="137" width="72" height="112" rx="8" fill="#F9F9F9"/>
<rect x="280" y="146" width="30" height="9" rx="4.5" fill="#EBEBEB"/>
<rect x="280" y="161" width="57" height="9" rx="4.5" fill="#EBEBEB"/>
<rect x="280" y="184" width="54" height="56" rx="10" fill="#EBEBEB"/>
<rect x="271" y="261" width="72" height="112" rx="8" fill="#F9F9F9"/>
<rect x="280" y="308" width="54" height="56" rx="10" fill="#E0E0E0"/>
<path fill-rule="evenodd" clip-rule="evenodd" d="M307.5 325C307.776 325 308 325.224 308 325.5V330C308 331.657 309.343 333 311 333H315.5C315.776 333 316 333.224 316 333.5V344C316 345.657 314.657 347 313 347H301C299.343 347 298 345.657 298 344V328C298 326.343 299.343 325 301 325H307.5ZM307.707 335.293C307.317 334.902 306.683 334.902 306.293 335.293L303.293 338.293C302.902 338.683 302.902 339.317 303.293 339.707C303.683 340.098 304.317 340.098 304.707 339.707L306 338.414V342C306 342.552 306.448 343 307 343C307.552 343 308 342.552 308 342V338.414L309.293 339.707C309.683 340.098 310.317 340.098 310.707 339.707C311.098 339.317 311.098 338.683 310.707 338.293L307.707 335.293ZM310 325.172C310 325.077 310.077 325 310.172 325C310.702 325 311.211 325.211 311.586 325.586L315.414 329.414C315.789 329.789 316 330.298 316 330.828C316 330.923 315.923 331 315.828 331H311C310.448 331 310 330.552 310 330V325.172Z" fill="#B7B7B7"/>
<rect x="280" y="269" width="57" height="9" rx="4.5" fill="#EBEBEB"/>
</g>
<g filter="url(#filter1_d_2006_44807)">
<path d="M325.481 109.288H465.054C466.725 109.288 468.311 110.025 469.389 111.302L490.242 136.015C491.106 137.038 491.58 138.333 491.58 139.672V204.085C491.58 207.217 489.04 209.757 485.908 209.757H325.481C322.349 209.757 319.811 207.217 319.811 204.085V114.959C319.811 111.827 322.349 109.288 325.481 109.288Z" fill="#FFF5F2" stroke="#FF4B1F" stroke-width="1.62047"/>
<rect x="331.961" y="121.441" width="9.7228" height="9.7228" rx="4.8614" fill="#FF4B1E"/>
<path d="M333.388 153.645V141.859H340.454V143.125H334.815V147.107H339.925V148.373H334.815V153.645H333.388ZM345.315 153.852C344.755 153.852 344.247 153.746 343.791 153.535C343.334 153.32 342.971 153.012 342.703 152.609C342.434 152.202 342.3 151.711 342.3 151.136C342.3 150.629 342.4 150.219 342.599 149.904C342.799 149.586 343.065 149.336 343.399 149.156C343.733 148.976 344.101 148.841 344.504 148.753C344.911 148.661 345.319 148.588 345.73 148.535C346.267 148.465 346.702 148.414 347.036 148.379C347.374 148.341 347.619 148.278 347.773 148.189C347.93 148.101 348.009 147.948 348.009 147.729V147.683C348.009 147.115 347.853 146.674 347.542 146.359C347.236 146.045 346.769 145.887 346.144 145.887C345.496 145.887 344.987 146.029 344.619 146.313C344.251 146.597 343.992 146.9 343.842 147.223L342.553 146.762C342.783 146.225 343.09 145.807 343.474 145.508C343.861 145.205 344.283 144.994 344.74 144.875C345.2 144.752 345.653 144.691 346.098 144.691C346.382 144.691 346.708 144.725 347.076 144.794C347.448 144.859 347.807 144.996 348.152 145.203C348.502 145.41 348.791 145.723 349.021 146.141C349.252 146.559 349.367 147.119 349.367 147.821V153.645H348.009V152.448H347.94C347.847 152.639 347.694 152.845 347.479 153.063C347.264 153.282 346.978 153.468 346.622 153.622C346.265 153.775 345.83 153.852 345.315 153.852ZM345.523 152.632C346.06 152.632 346.512 152.526 346.881 152.315C347.253 152.104 347.533 151.832 347.721 151.498C347.913 151.164 348.009 150.813 348.009 150.445V149.202C347.951 149.271 347.824 149.334 347.629 149.392C347.437 149.446 347.214 149.494 346.961 149.536C346.712 149.574 346.468 149.609 346.23 149.639C345.996 149.666 345.807 149.689 345.661 149.708C345.308 149.754 344.978 149.829 344.671 149.933C344.368 150.033 344.122 150.184 343.934 150.387C343.75 150.587 343.658 150.859 343.658 151.205C343.658 151.676 343.833 152.033 344.182 152.275C344.535 152.513 344.982 152.632 345.523 152.632ZM353.111 150.422L353.088 148.742H353.365L357.232 144.806H358.912L354.792 148.972H354.677L353.111 150.422ZM351.845 153.645V141.859H353.203V153.645H351.845ZM357.462 153.645L354.009 149.271L354.976 148.327L359.188 153.645H357.462ZM364.002 153.829C363.15 153.829 362.415 153.641 361.798 153.265C361.184 152.885 360.71 152.356 360.376 151.676C360.046 150.994 359.882 150.2 359.882 149.294C359.882 148.389 360.046 147.591 360.376 146.9C360.71 146.206 361.174 145.665 361.769 145.277C362.367 144.886 363.066 144.691 363.864 144.691C364.324 144.691 364.779 144.767 365.227 144.921C365.676 145.074 366.085 145.324 366.453 145.669C366.821 146.01 367.115 146.463 367.334 147.027C367.552 147.591 367.662 148.285 367.662 149.11V149.685H360.848V148.512H366.281C366.281 148.013 366.181 147.568 365.981 147.176C365.786 146.785 365.506 146.476 365.141 146.25C364.781 146.024 364.355 145.91 363.864 145.91C363.323 145.91 362.855 146.045 362.46 146.313C362.068 146.578 361.767 146.923 361.556 147.349C361.345 147.775 361.24 148.231 361.24 148.719V149.501C361.24 150.169 361.355 150.735 361.585 151.199C361.819 151.659 362.143 152.01 362.557 152.252C362.972 152.49 363.453 152.609 364.002 152.609C364.359 152.609 364.681 152.559 364.969 152.459C365.26 152.356 365.511 152.202 365.722 151.999C365.933 151.792 366.096 151.535 366.211 151.228L367.524 151.596C367.385 152.041 367.153 152.432 366.827 152.77C366.501 153.104 366.098 153.364 365.619 153.552C365.139 153.737 364.6 153.829 364.002 153.829ZM376.886 153.852C376.326 153.852 375.818 153.746 375.361 153.535C374.905 153.32 374.542 153.012 374.274 152.609C374.005 152.202 373.871 151.711 373.871 151.136C373.871 150.629 373.97 150.219 374.17 149.904C374.369 149.586 374.636 149.336 374.97 149.156C375.304 148.976 375.672 148.841 376.075 148.753C376.481 148.661 376.89 148.588 377.3 148.535C377.837 148.465 378.273 148.414 378.607 148.379C378.944 148.341 379.19 148.278 379.343 148.189C379.501 148.101 379.579 147.948 379.579 147.729V147.683C379.579 147.115 379.424 146.674 379.113 146.359C378.806 146.045 378.34 145.887 377.715 145.887C377.066 145.887 376.558 146.029 376.19 146.313C375.821 146.597 375.563 146.9 375.413 147.223L374.124 146.762C374.354 146.225 374.661 145.807 375.045 145.508C375.432 145.205 375.854 144.994 376.311 144.875C376.771 144.752 377.224 144.691 377.669 144.691C377.953 144.691 378.279 144.725 378.647 144.794C379.019 144.859 379.378 144.996 379.723 145.203C380.072 145.41 380.362 145.723 380.592 146.141C380.822 146.559 380.937 147.119 380.937 147.821V153.645H379.579V152.448H379.51C379.418 152.639 379.265 152.845 379.05 153.063C378.835 153.282 378.549 153.468 378.192 153.622C377.836 153.775 377.4 153.852 376.886 153.852ZM377.093 152.632C377.63 152.632 378.083 152.526 378.451 152.315C378.823 152.104 379.103 151.832 379.291 151.498C379.483 151.164 379.579 150.813 379.579 150.445V149.202C379.522 149.271 379.395 149.334 379.199 149.392C379.008 149.446 378.785 149.494 378.532 149.536C378.282 149.574 378.039 149.609 377.801 149.639C377.567 149.666 377.377 149.689 377.231 149.708C376.878 149.754 376.548 149.829 376.242 149.933C375.939 150.033 375.693 150.184 375.505 150.387C375.321 150.587 375.229 150.859 375.229 151.205C375.229 151.676 375.403 152.033 375.752 152.275C376.105 152.513 376.552 152.632 377.093 152.632ZM387.007 153.829C386.178 153.829 385.465 153.633 384.866 153.242C384.268 152.85 383.807 152.311 383.485 151.625C383.163 150.938 383.002 150.153 383.002 149.271C383.002 148.373 383.167 147.581 383.497 146.895C383.83 146.204 384.295 145.665 384.889 145.277C385.488 144.886 386.186 144.691 386.984 144.691C387.605 144.691 388.165 144.806 388.664 145.036C389.163 145.266 389.571 145.588 389.89 146.003C390.208 146.417 390.406 146.9 390.483 147.453H389.124C389.021 147.05 388.791 146.693 388.434 146.382C388.081 146.068 387.605 145.91 387.007 145.91C386.477 145.91 386.013 146.049 385.614 146.325C385.219 146.597 384.91 146.983 384.688 147.481C384.469 147.976 384.36 148.558 384.36 149.225C384.36 149.908 384.467 150.503 384.682 151.009C384.901 151.515 385.208 151.909 385.603 152.189C386.002 152.469 386.47 152.609 387.007 152.609C387.36 152.609 387.68 152.547 387.968 152.425C388.256 152.302 388.499 152.125 388.699 151.895C388.898 151.665 389.04 151.389 389.124 151.067H390.483C390.406 151.588 390.216 152.058 389.913 152.476C389.614 152.891 389.217 153.221 388.722 153.466C388.231 153.708 387.659 153.829 387.007 153.829ZM396.059 153.829C395.23 153.829 394.516 153.633 393.918 153.242C393.319 152.85 392.859 152.311 392.537 151.625C392.215 150.938 392.053 150.153 392.053 149.271C392.053 148.373 392.218 147.581 392.548 146.895C392.882 146.204 393.346 145.665 393.941 145.277C394.539 144.886 395.238 144.691 396.036 144.691C396.657 144.691 397.217 144.806 397.716 145.036C398.215 145.266 398.623 145.588 398.942 146.003C399.26 146.417 399.458 146.9 399.534 147.453H398.176C398.073 147.05 397.843 146.693 397.486 146.382C397.133 146.068 396.657 145.91 396.059 145.91C395.529 145.91 395.065 146.049 394.666 146.325C394.271 146.597 393.962 146.983 393.74 147.481C393.521 147.976 393.412 148.558 393.412 149.225C393.412 149.908 393.519 150.503 393.734 151.009C393.952 151.515 394.259 151.909 394.655 152.189C395.054 152.469 395.522 152.609 396.059 152.609C396.412 152.609 396.732 152.547 397.02 152.425C397.307 152.302 397.551 152.125 397.75 151.895C397.95 151.665 398.092 151.389 398.176 151.067H399.534C399.458 151.588 399.268 152.058 398.965 152.476C398.665 152.891 398.268 153.221 397.773 153.466C397.282 153.708 396.711 153.829 396.059 153.829ZM405.11 153.829C404.313 153.829 403.612 153.639 403.01 153.259C402.412 152.879 401.944 152.348 401.606 151.665C401.272 150.982 401.105 150.184 401.105 149.271C401.105 148.35 401.272 147.547 401.606 146.86C401.944 146.173 402.412 145.64 403.01 145.26C403.612 144.88 404.313 144.691 405.11 144.691C405.908 144.691 406.607 144.88 407.205 145.26C407.807 145.64 408.275 146.173 408.609 146.86C408.947 147.547 409.116 148.35 409.116 149.271C409.116 150.184 408.947 150.982 408.609 151.665C408.275 152.348 407.807 152.879 407.205 153.259C406.607 153.639 405.908 153.829 405.11 153.829ZM405.11 152.609C405.717 152.609 406.215 152.453 406.607 152.143C406.998 151.832 407.288 151.423 407.476 150.917C407.664 150.411 407.758 149.862 407.758 149.271C407.758 148.68 407.664 148.13 407.476 147.62C407.288 147.109 406.998 146.697 406.607 146.382C406.215 146.068 405.717 145.91 405.11 145.91C404.504 145.91 404.006 146.068 403.614 146.382C403.223 146.697 402.933 147.109 402.745 147.62C402.557 148.13 402.463 148.68 402.463 149.271C402.463 149.862 402.557 150.411 402.745 150.917C402.933 151.423 403.223 151.832 403.614 152.143C404.006 152.453 404.504 152.609 405.11 152.609ZM416.759 150.031V144.806H418.117V153.645H416.759V152.148H416.667C416.46 152.597 416.138 152.979 415.7 153.294C415.263 153.604 414.71 153.76 414.043 153.76C413.49 153.76 412.999 153.639 412.57 153.397C412.14 153.152 411.802 152.783 411.557 152.292C411.311 151.797 411.189 151.174 411.189 150.422V144.806H412.547V150.33C412.547 150.974 412.727 151.489 413.088 151.872C413.452 152.256 413.916 152.448 414.48 152.448C414.818 152.448 415.161 152.361 415.51 152.189C415.863 152.016 416.159 151.751 416.396 151.395C416.638 151.038 416.759 150.583 416.759 150.031ZM421.963 148.327V153.645H420.604V144.806H421.916V146.187H422.032C422.239 145.738 422.553 145.377 422.975 145.105C423.397 144.829 423.942 144.691 424.61 144.691C425.208 144.691 425.732 144.813 426.181 145.059C426.629 145.301 426.979 145.669 427.228 146.164C427.477 146.655 427.602 147.276 427.602 148.028V153.645H426.244V148.12C426.244 147.426 426.064 146.885 425.703 146.497C425.342 146.106 424.847 145.91 424.218 145.91C423.785 145.91 423.397 146.004 423.056 146.192C422.718 146.38 422.452 146.655 422.256 147.015C422.06 147.376 421.963 147.813 421.963 148.327ZM433.928 144.806V145.957H429.347V144.806H433.928ZM430.682 142.688H432.04V151.113C432.04 151.496 432.096 151.784 432.207 151.976C432.322 152.164 432.468 152.29 432.644 152.356C432.825 152.417 433.015 152.448 433.214 152.448C433.364 152.448 433.486 152.44 433.582 152.425C433.678 152.405 433.755 152.39 433.812 152.379L434.089 153.598C433.997 153.633 433.868 153.668 433.703 153.702C433.538 153.74 433.329 153.76 433.076 153.76C432.692 153.76 432.316 153.677 431.948 153.512C431.584 153.347 431.28 153.096 431.039 152.758C430.801 152.421 430.682 151.995 430.682 151.481V142.688ZM442.073 146.785L440.853 147.13C440.776 146.927 440.663 146.73 440.514 146.538C440.368 146.342 440.168 146.181 439.915 146.054C439.662 145.928 439.338 145.864 438.943 145.864C438.402 145.864 437.951 145.989 437.59 146.238C437.234 146.484 437.055 146.797 437.055 147.176C437.055 147.514 437.178 147.781 437.423 147.976C437.669 148.172 438.053 148.335 438.574 148.465L439.886 148.788C440.677 148.98 441.266 149.273 441.653 149.668C442.04 150.059 442.234 150.564 442.234 151.182C442.234 151.688 442.088 152.141 441.797 152.54C441.509 152.939 441.106 153.253 440.588 153.483C440.07 153.714 439.468 153.829 438.781 153.829C437.88 153.829 437.134 153.633 436.543 153.242C435.952 152.85 435.578 152.279 435.421 151.527L436.71 151.205C436.833 151.68 437.065 152.037 437.406 152.275C437.751 152.513 438.202 152.632 438.758 152.632C439.391 152.632 439.894 152.497 440.266 152.229C440.642 151.957 440.83 151.63 440.83 151.251C440.83 150.944 440.723 150.687 440.508 150.48C440.293 150.269 439.963 150.111 439.518 150.008L438.045 149.662C437.235 149.471 436.641 149.173 436.261 148.77C435.885 148.364 435.697 147.856 435.697 147.246C435.697 146.747 435.837 146.306 436.117 145.922C436.401 145.538 436.787 145.237 437.274 145.019C437.765 144.8 438.321 144.691 438.943 144.691C439.817 144.691 440.504 144.882 441.003 145.266C441.505 145.65 441.862 146.156 442.073 146.785Z" fill="#4D4D4D"/>
<rect x="331.961" y="165.193" width="97.228" height="8.10233" rx="4.05117" fill="#FFE0D7"/>
<rect x="331.961" y="183.018" width="131.258" height="8.10233" rx="4.05117" fill="#FFE0D7"/>
</g>
<g filter="url(#filter2_d_2006_44807)">
<path d="M325.481 220.199H465.054C466.725 220.199 468.311 220.935 469.389 222.212L490.242 246.925C491.106 247.948 491.58 249.244 491.58 250.582V314.995C491.58 318.128 489.04 320.667 485.908 320.667H325.481C322.349 320.667 319.811 318.128 319.811 314.995V225.87C319.811 222.737 322.349 220.199 325.481 220.199Z" fill="#FFF5F2" stroke="#FF4B1F" stroke-width="1.62047"/>
<rect width="9.7228" height="9.7228" rx="4.8614" transform="matrix(-1 0 0 1 342.25 232.352)" fill="#50CDA3"/>
<path d="M335.528 264.556L332.306 252.771H333.756L336.219 262.369H336.334L338.843 252.771H340.454L342.963 262.369H343.078L345.541 252.771H346.991L343.769 264.556H342.296L339.695 255.165H339.603L337.002 264.556H335.528ZM351.468 264.74C350.617 264.74 349.882 264.552 349.264 264.176C348.651 263.797 348.177 263.267 347.843 262.588C347.513 261.905 347.348 261.111 347.348 260.206C347.348 259.3 347.513 258.502 347.843 257.812C348.177 257.118 348.641 256.577 349.236 256.189C349.834 255.798 350.532 255.602 351.33 255.602C351.791 255.602 352.245 255.679 352.694 255.832C353.143 255.986 353.552 256.235 353.92 256.58C354.288 256.922 354.582 257.375 354.8 257.938C355.019 258.502 355.128 259.197 355.128 260.022V260.597H348.315V259.423H353.747C353.747 258.924 353.647 258.479 353.448 258.088C353.252 257.697 352.972 257.388 352.608 257.162C352.247 256.935 351.821 256.822 351.33 256.822C350.789 256.822 350.321 256.956 349.926 257.225C349.535 257.49 349.234 257.835 349.023 258.261C348.812 258.687 348.706 259.143 348.706 259.63V260.413C348.706 261.08 348.821 261.646 349.052 262.11C349.286 262.571 349.61 262.922 350.024 263.164C350.438 263.401 350.92 263.52 351.468 263.52C351.825 263.52 352.147 263.47 352.435 263.371C352.727 263.267 352.978 263.114 353.189 262.91C353.4 262.703 353.563 262.446 353.678 262.139L354.99 262.508C354.852 262.953 354.62 263.344 354.294 263.681C353.968 264.015 353.565 264.276 353.085 264.464C352.606 264.648 352.067 264.74 351.468 264.74ZM357.378 264.556V252.771H358.736V257.121H358.851C358.951 256.968 359.089 256.772 359.266 256.534C359.446 256.293 359.703 256.078 360.037 255.89C360.374 255.698 360.831 255.602 361.406 255.602C362.151 255.602 362.807 255.788 363.375 256.16C363.942 256.532 364.385 257.06 364.704 257.743C365.022 258.426 365.181 259.231 365.181 260.16C365.181 261.096 365.022 261.907 364.704 262.594C364.385 263.277 363.944 263.806 363.38 264.182C362.816 264.554 362.166 264.74 361.429 264.74C360.862 264.74 360.407 264.646 360.066 264.458C359.724 264.267 359.461 264.05 359.277 263.808C359.093 263.563 358.951 263.359 358.851 263.198H358.69V264.556H357.378ZM358.713 260.137C358.713 260.804 358.811 261.393 359.007 261.903C359.202 262.41 359.488 262.807 359.864 263.095C360.24 263.378 360.701 263.52 361.245 263.52C361.813 263.52 362.287 263.371 362.667 263.071C363.05 262.768 363.338 262.362 363.53 261.852C363.726 261.337 363.823 260.766 363.823 260.137C363.823 259.515 363.727 258.955 363.536 258.456C363.348 257.954 363.062 257.557 362.678 257.265C362.298 256.97 361.821 256.822 361.245 256.822C360.693 256.822 360.229 256.962 359.853 257.242C359.477 257.518 359.193 257.906 359.001 258.405C358.809 258.899 358.713 259.477 358.713 260.137ZM371.816 267.871V255.717H373.128V257.121H373.29C373.389 256.968 373.527 256.772 373.704 256.534C373.884 256.293 374.141 256.078 374.475 255.89C374.813 255.698 375.269 255.602 375.845 255.602C376.589 255.602 377.245 255.788 377.813 256.16C378.38 256.532 378.823 257.06 379.142 257.743C379.46 258.426 379.619 259.231 379.619 260.16C379.619 261.096 379.46 261.907 379.142 262.594C378.823 263.277 378.382 263.806 377.818 264.182C377.254 264.554 376.604 264.74 375.868 264.74C375.3 264.74 374.845 264.646 374.504 264.458C374.162 264.267 373.899 264.05 373.715 263.808C373.531 263.563 373.389 263.359 373.29 263.198H373.174V267.871H371.816ZM373.151 260.137C373.151 260.804 373.249 261.393 373.445 261.903C373.641 262.41 373.926 262.807 374.302 263.095C374.678 263.378 375.139 263.52 375.683 263.52C376.251 263.52 376.725 263.371 377.105 263.071C377.488 262.768 377.776 262.362 377.968 261.852C378.164 261.337 378.261 260.766 378.261 260.137C378.261 259.515 378.165 258.955 377.974 258.456C377.786 257.954 377.5 257.557 377.116 257.265C376.736 256.97 376.259 256.822 375.683 256.822C375.131 256.822 374.667 256.962 374.291 257.242C373.915 257.518 373.631 257.906 373.439 258.405C373.247 258.899 373.151 259.477 373.151 260.137ZM385.397 264.74C384.545 264.74 383.811 264.552 383.193 264.176C382.579 263.797 382.105 263.267 381.772 262.588C381.442 261.905 381.277 261.111 381.277 260.206C381.277 259.3 381.442 258.502 381.772 257.812C382.105 257.118 382.57 256.577 383.164 256.189C383.763 255.798 384.461 255.602 385.259 255.602C385.719 255.602 386.174 255.679 386.623 255.832C387.072 255.986 387.48 256.235 387.848 256.58C388.217 256.922 388.51 257.375 388.729 257.938C388.948 258.502 389.057 259.197 389.057 260.022V260.597H382.244V259.423H387.676C387.676 258.924 387.576 258.479 387.377 258.088C387.181 257.697 386.901 257.388 386.536 257.162C386.176 256.935 385.75 256.822 385.259 256.822C384.718 256.822 384.25 256.956 383.855 257.225C383.463 257.49 383.162 257.835 382.951 258.261C382.74 258.687 382.635 259.143 382.635 259.63V260.413C382.635 261.08 382.75 261.646 382.98 262.11C383.214 262.571 383.538 262.922 383.953 263.164C384.367 263.401 384.848 263.52 385.397 263.52C385.754 263.52 386.076 263.47 386.364 263.371C386.655 263.267 386.907 263.114 387.118 262.91C387.329 262.703 387.492 262.446 387.607 262.139L388.919 262.508C388.781 262.953 388.549 263.344 388.222 263.681C387.896 264.015 387.494 264.276 387.014 264.464C386.534 264.648 385.995 264.74 385.397 264.74ZM391.123 264.556V255.717H392.435V257.052H392.527C392.688 256.615 392.979 256.26 393.401 255.988C393.823 255.715 394.299 255.579 394.829 255.579C394.928 255.579 395.053 255.581 395.203 255.585C395.352 255.589 395.465 255.594 395.542 255.602V256.983C395.496 256.972 395.391 256.954 395.226 256.931C395.065 256.905 394.894 256.891 394.714 256.891C394.284 256.891 393.9 256.981 393.563 257.162C393.229 257.338 392.964 257.584 392.768 257.898C392.577 258.209 392.481 258.564 392.481 258.963V264.556H391.123ZM401.642 255.717V256.868H396.877V255.717H401.642ZM398.304 264.556V254.497C398.304 253.991 398.423 253.569 398.661 253.231C398.899 252.894 399.208 252.641 399.588 252.472C399.967 252.303 400.368 252.219 400.79 252.219C401.124 252.219 401.396 252.245 401.607 252.299C401.818 252.353 401.976 252.403 402.079 252.449L401.688 253.623C401.619 253.6 401.523 253.571 401.4 253.536C401.281 253.502 401.124 253.484 400.928 253.484C400.48 253.484 400.155 253.598 399.956 253.824C399.76 254.05 399.662 254.382 399.662 254.82V264.556H398.304ZM406.772 264.74C405.974 264.74 405.274 264.55 404.672 264.171C404.073 263.791 403.605 263.259 403.268 262.577C402.934 261.894 402.767 261.096 402.767 260.183C402.767 259.262 402.934 258.458 403.268 257.772C403.605 257.085 404.073 256.552 404.672 256.172C405.274 255.792 405.974 255.602 406.772 255.602C407.57 255.602 408.268 255.792 408.867 256.172C409.469 256.552 409.937 257.085 410.271 257.772C410.608 258.458 410.777 259.262 410.777 260.183C410.777 261.096 410.608 261.894 410.271 262.577C409.937 263.259 409.469 263.791 408.867 264.171C408.268 264.55 407.57 264.74 406.772 264.74ZM406.772 263.52C407.378 263.52 407.877 263.365 408.268 263.054C408.66 262.743 408.949 262.335 409.137 261.829C409.325 261.322 409.419 260.774 409.419 260.183C409.419 259.592 409.325 259.041 409.137 258.531C408.949 258.021 408.66 257.609 408.268 257.294C407.877 256.979 407.378 256.822 406.772 256.822C406.166 256.822 405.667 256.979 405.276 257.294C404.885 257.609 404.595 258.021 404.407 258.531C404.219 259.041 404.125 259.592 404.125 260.183C404.125 260.774 404.219 261.322 404.407 261.829C404.595 262.335 404.885 262.743 405.276 263.054C405.667 263.365 406.166 263.52 406.772 263.52ZM412.85 264.556V255.717H414.162V257.052H414.254C414.415 256.615 414.707 256.26 415.129 255.988C415.551 255.715 416.027 255.579 416.556 255.579C416.656 255.579 416.781 255.581 416.93 255.585C417.08 255.589 417.193 255.594 417.27 255.602V256.983C417.224 256.972 417.118 256.954 416.953 256.931C416.792 256.905 416.621 256.891 416.441 256.891C416.011 256.891 415.628 256.981 415.29 257.162C414.956 257.338 414.692 257.584 414.496 257.898C414.304 258.209 414.208 258.564 414.208 258.963V264.556H412.85ZM418.88 264.556V255.717H420.192V257.098H420.307C420.491 256.626 420.788 256.26 421.199 255.999C421.609 255.735 422.102 255.602 422.678 255.602C423.261 255.602 423.746 255.735 424.133 255.999C424.525 256.26 424.83 256.626 425.048 257.098H425.14C425.367 256.642 425.706 256.279 426.159 256.011C426.612 255.738 427.155 255.602 427.788 255.602C428.578 255.602 429.224 255.85 429.727 256.344C430.229 256.836 430.481 257.601 430.481 258.641V264.556H429.123V258.641C429.123 257.988 428.944 257.522 428.587 257.242C428.231 256.962 427.811 256.822 427.327 256.822C426.706 256.822 426.224 257.01 425.883 257.386C425.541 257.758 425.371 258.23 425.371 258.802V264.556H423.99V258.502C423.99 258 423.826 257.595 423.5 257.288C423.174 256.977 422.754 256.822 422.24 256.822C421.887 256.822 421.557 256.916 421.25 257.104C420.947 257.292 420.702 257.553 420.514 257.887C420.33 258.217 420.238 258.598 420.238 259.032V264.556H418.88ZM435.565 264.763C435.005 264.763 434.496 264.658 434.04 264.447C433.583 264.232 433.221 263.923 432.952 263.52C432.684 263.114 432.549 262.623 432.549 262.047C432.549 261.541 432.649 261.13 432.849 260.816C433.048 260.497 433.315 260.248 433.648 260.068C433.982 259.887 434.351 259.753 434.753 259.665C435.16 259.573 435.569 259.5 435.979 259.446C436.516 259.377 436.952 259.325 437.285 259.291C437.623 259.252 437.868 259.189 438.022 259.101C438.179 259.013 438.258 258.859 438.258 258.641V258.594C438.258 258.027 438.102 257.586 437.792 257.271C437.485 256.956 437.019 256.799 436.393 256.799C435.745 256.799 435.237 256.941 434.868 257.225C434.5 257.509 434.241 257.812 434.092 258.134L432.803 257.674C433.033 257.137 433.34 256.719 433.723 256.419C434.111 256.116 434.533 255.905 434.989 255.786C435.45 255.664 435.902 255.602 436.347 255.602C436.631 255.602 436.957 255.637 437.326 255.706C437.698 255.771 438.056 255.907 438.402 256.114C438.751 256.321 439.04 256.634 439.271 257.052C439.501 257.47 439.616 258.031 439.616 258.733V264.556H438.258V263.359H438.189C438.097 263.551 437.943 263.756 437.728 263.975C437.514 264.194 437.228 264.38 436.871 264.533C436.514 264.687 436.079 264.763 435.565 264.763ZM435.772 263.543C436.309 263.543 436.762 263.438 437.13 263.227C437.502 263.016 437.782 262.743 437.97 262.41C438.162 262.076 438.258 261.725 438.258 261.357V260.114C438.2 260.183 438.074 260.246 437.878 260.304C437.686 260.357 437.464 260.405 437.21 260.447C436.961 260.486 436.718 260.52 436.48 260.551C436.246 260.578 436.056 260.601 435.91 260.62C435.557 260.666 435.227 260.741 434.92 260.844C434.617 260.944 434.372 261.096 434.184 261.299C433.999 261.499 433.907 261.771 433.907 262.116C433.907 262.588 434.082 262.945 434.431 263.187C434.784 263.424 435.231 263.543 435.772 263.543ZM443.453 259.239V264.556H442.095V255.717H443.407V257.098H443.522C443.729 256.649 444.043 256.289 444.465 256.016C444.887 255.74 445.432 255.602 446.1 255.602C446.698 255.602 447.222 255.725 447.671 255.97C448.12 256.212 448.469 256.58 448.718 257.075C448.967 257.566 449.092 258.188 449.092 258.94V264.556H447.734V259.032C447.734 258.337 447.554 257.797 447.193 257.409C446.832 257.018 446.338 256.822 445.708 256.822C445.275 256.822 444.887 256.916 444.546 257.104C444.208 257.292 443.942 257.566 443.746 257.927C443.551 258.288 443.453 258.725 443.453 259.239ZM455.165 264.74C454.336 264.74 453.622 264.545 453.024 264.153C452.425 263.762 451.965 263.223 451.643 262.536C451.321 261.85 451.159 261.065 451.159 260.183C451.159 259.285 451.324 258.493 451.654 257.806C451.988 257.116 452.452 256.577 453.047 256.189C453.645 255.798 454.344 255.602 455.142 255.602C455.763 255.602 456.323 255.717 456.822 255.947C457.321 256.178 457.729 256.5 458.048 256.914C458.366 257.329 458.564 257.812 458.64 258.364H457.282C457.179 257.961 456.948 257.605 456.592 257.294C456.239 256.979 455.763 256.822 455.165 256.822C454.635 256.822 454.171 256.96 453.772 257.236C453.377 257.509 453.068 257.894 452.845 258.393C452.627 258.888 452.517 259.469 452.517 260.137C452.517 260.82 452.625 261.414 452.84 261.921C453.058 262.427 453.365 262.82 453.76 263.1C454.159 263.38 454.627 263.52 455.165 263.52C455.517 263.52 455.838 263.459 456.126 263.336C456.413 263.213 456.657 263.037 456.856 262.807C457.056 262.577 457.198 262.3 457.282 261.978H458.64C458.564 262.5 458.374 262.97 458.071 263.388C457.771 263.802 457.374 264.132 456.879 264.378C456.388 264.619 455.817 264.74 455.165 264.74ZM464.331 264.74C463.48 264.74 462.745 264.552 462.127 264.176C461.514 263.797 461.04 263.267 460.706 262.588C460.376 261.905 460.211 261.111 460.211 260.206C460.211 259.3 460.376 258.502 460.706 257.812C461.04 257.118 461.504 256.577 462.099 256.189C462.697 255.798 463.395 255.602 464.193 255.602C464.654 255.602 465.108 255.679 465.557 255.832C466.006 255.986 466.415 256.235 466.783 256.58C467.151 256.922 467.445 257.375 467.663 257.938C467.882 258.502 467.991 259.197 467.991 260.022V260.597H461.178V259.423H466.61C466.61 258.924 466.51 258.479 466.311 258.088C466.115 257.697 465.835 257.388 465.471 257.162C465.11 256.935 464.684 256.822 464.193 256.822C463.652 256.822 463.184 256.956 462.789 257.225C462.398 257.49 462.097 257.835 461.886 258.261C461.675 258.687 461.569 259.143 461.569 259.63V260.413C461.569 261.08 461.684 261.646 461.915 262.11C462.149 262.571 462.473 262.922 462.887 263.164C463.301 263.401 463.783 263.52 464.331 263.52C464.688 263.52 465.01 263.47 465.298 263.371C465.59 263.267 465.841 263.114 466.052 262.91C466.263 262.703 466.426 262.446 466.541 262.139L467.853 262.508C467.715 262.953 467.483 263.344 467.157 263.681C466.831 264.015 466.428 264.276 465.948 264.464C465.469 264.648 464.93 264.74 464.331 264.74Z" fill="#4D4D4D"/>
<rect x="331.961" y="276.104" width="97.228" height="8.10233" rx="4.05117" fill="#FFE0D7"/>
<rect x="331.961" y="293.928" width="131.258" height="8.10233" rx="4.05117" fill="#FFE0D7"/>
</g>
<defs>
<filter id="filter0_d_2006_44807" x="85" y="0" width="275" height="397" filterUnits="userSpaceOnUse" color-interpolation-filters="sRGB">
<feFlood flood-opacity="0" result="BackgroundImageFix"/>
<feColorMatrix in="SourceAlpha" type="matrix" values="0 0 0 0 0 0 0 0 0 0 0 0 0 0 0 0 0 0 127 0" result="hardAlpha"/>
<feOffset dy="7"/>
<feGaussianBlur stdDeviation="2.5"/>
<feComposite in2="hardAlpha" operator="out"/>
<feColorMatrix type="matrix" values="0 0 0 0 0.917647 0 0 0 0 0.890196 0 0 0 0 0.882353 0 0 0 0.2 0"/>
<feBlend mode="normal" in2="BackgroundImageFix" result="effect1_dropShadow_2006_44807"/>
<feBlend mode="normal" in="SourceGraphic" in2="effect1_dropShadow_2006_44807" result="shape"/>
</filter>
<filter id="filter1_d_2006_44807" x="300.658" y="95.6379" width="210.075" height="138.774" filterUnits="userSpaceOnUse" color-interpolation-filters="sRGB">
<feFlood flood-opacity="0" result="BackgroundImageFix"/>
<feColorMatrix in="SourceAlpha" type="matrix" values="0 0 0 0 0 0 0 0 0 0 0 0 0 0 0 0 0 0 127 0" result="hardAlpha"/>
<feOffset dy="5.5027"/>
<feGaussianBlur stdDeviation="9.17117"/>
<feComposite in2="hardAlpha" operator="out"/>
<feColorMatrix type="matrix" values="0 0 0 0 0.9625 0 0 0 0 0.853328 0 0 0 0 0.822135 0 0 0 0.5 0"/>
<feBlend mode="normal" in2="BackgroundImageFix" result="effect1_dropShadow_2006_44807"/>
<feBlend mode="normal" in="SourceGraphic" in2="effect1_dropShadow_2006_44807" result="shape"/>
</filter>
<filter id="filter2_d_2006_44807" x="300.658" y="206.548" width="210.075" height="138.774" filterUnits="userSpaceOnUse" color-interpolation-filters="sRGB">
<feFlood flood-opacity="0" result="BackgroundImageFix"/>
<feColorMatrix in="SourceAlpha" type="matrix" values="0 0 0 0 0 0 0 0 0 0 0 0 0 0 0 0 0 0 127 0" result="hardAlpha"/>
<feOffset dy="5.5027"/>
<feGaussianBlur stdDeviation="9.17117"/>
<feComposite in2="hardAlpha" operator="out"/>
<feColorMatrix type="matrix" values="0 0 0 0 0.9625 0 0 0 0 0.853328 0 0 0 0 0.822135 0 0 0 0.5 0"/>
<feBlend mode="normal" in2="BackgroundImageFix" result="effect1_dropShadow_2006_44807"/>
<feBlend mode="normal" in="SourceGraphic" in2="effect1_dropShadow_2006_44807" result="shape"/>
</filter>
<linearGradient id="paint0_linear_2006_44807" x1="275" y1="210" x2="275" y2="403" gradientUnits="userSpaceOnUse">
<stop stop-color="#FFD4CA"/>
<stop offset="1" stop-color="#FFEFEB"/>
</linearGradient>
<radialGradient id="paint1_radial_2006_44807" cx="0" cy="0" r="1" gradientTransform="matrix(27.6862 98.5385 -2.16193 91.2896 210.89 88.4615)" gradientUnits="userSpaceOnUse">
<stop stop-color="#FF9176"/>
<stop offset="1" stop-color="#FF4B1E"/>
</radialGradient>
<clipPath id="clip0_2006_44807">
<rect x="102" y="12" width="241" height="113" rx="8" fill="white"/>
</clipPath>
</defs>
</svg>
