<svg width="28" height="28" viewBox="0 0 28 28" fill="none" xmlns="http://www.w3.org/2000/svg">
<path d="M18.5927 12.6427C19.0027 12.2326 19.0027 11.5678 18.5927 11.1577C18.1826 10.7477 17.5178 10.7477 17.1077 11.1577L12.9502 15.3153L11.2427 13.6077C10.8326 13.1977 10.1678 13.1977 9.75773 13.6077C9.34768 14.0178 9.34768 14.6826 9.75773 15.0927L12.2077 17.5427C12.6178 17.9527 13.2826 17.9527 13.6927 17.5427L18.5927 12.6427Z" fill="#FF4B1E"/>
<path fill-rule="evenodd" clip-rule="evenodd" d="M23.8002 14.0002C23.8002 19.4126 19.4126 23.8002 14.0002 23.8002C8.5878 23.8002 4.2002 19.4126 4.2002 14.0002C4.2002 8.5878 8.5878 4.2002 14.0002 4.2002C19.4126 4.2002 23.8002 8.5878 23.8002 14.0002ZM21.7002 14.0002C21.7002 18.2528 18.2528 21.7002 14.0002 21.7002C9.7476 21.7002 6.3002 18.2528 6.3002 14.0002C6.3002 9.7476 9.7476 6.3002 14.0002 6.3002C18.2528 6.3002 21.7002 9.7476 21.7002 14.0002Z" fill="#FF4B1E"/>
</svg>
