<svg width="42" height="42" viewBox="0 0 42 42" fill="none" xmlns="http://www.w3.org/2000/svg">
<g filter="url(#filter0_d_2006_45556)">
<rect x="6" y="4" width="30" height="30" rx="15" fill="#FF4B1E"/>
<rect x="6.25" y="4.25" width="29.5" height="29.5" rx="14.75" stroke="#321D18" stroke-width="0.5"/>
<path d="M13.4248 17.6752L17.6935 15.369C17.8626 15.2785 18.0522 15.2332 18.2439 15.2376C18.4356 15.242 18.6229 15.2958 18.7877 15.3939C18.9524 15.492 19.0891 15.6311 19.1843 15.7975C19.2795 15.964 19.33 16.1522 19.331 16.344V21.544C19.3311 21.7363 19.2813 21.9253 19.1866 22.0926C19.0918 22.2599 18.9553 22.3998 18.7904 22.4987C18.6254 22.5975 18.4377 22.6519 18.2454 22.6566C18.0532 22.6612 17.863 22.616 17.6935 22.5252L13.4248 20.2502C13.1869 20.1296 12.9872 19.9454 12.8477 19.7181C12.7081 19.4909 12.6343 19.2294 12.6343 18.9627C12.6343 18.6961 12.7081 18.4346 12.8477 18.2073C12.9872 17.9801 13.1869 17.7959 13.4248 17.6752Z" fill="white"/>
<path d="M28.8874 17.7502L24.8187 15.3752C24.6527 15.2801 24.4648 15.2302 24.2735 15.2305C24.0823 15.2307 23.8944 15.2811 23.7287 15.3766C23.563 15.4721 23.4253 15.6094 23.3292 15.7747C23.2331 15.9401 23.1821 16.1277 23.1812 16.319V21.5752C23.1821 21.7665 23.2331 21.9541 23.3292 22.1195C23.4253 22.2848 23.563 22.4221 23.7287 22.5176C23.8944 22.6131 24.0823 22.6635 24.2735 22.6637C24.4648 22.6639 24.6527 22.614 24.8187 22.519L28.8874 20.169C29.0957 20.0433 29.268 19.8659 29.3877 19.654C29.5073 19.4421 29.5701 19.2029 29.5701 18.9596C29.5701 18.7163 29.5073 18.4771 29.3877 18.2652C29.268 18.0533 29.0957 17.8759 28.8874 17.7502V17.7502Z" fill="white"/>
</g>
<defs>
<filter id="filter0_d_2006_45556" x="0" y="0" width="42" height="42" filterUnits="userSpaceOnUse" color-interpolation-filters="sRGB">
<feFlood flood-opacity="0" result="BackgroundImageFix"/>
<feColorMatrix in="SourceAlpha" type="matrix" values="0 0 0 0 0 0 0 0 0 0 0 0 0 0 0 0 0 0 127 0" result="hardAlpha"/>
<feOffset dy="2"/>
<feGaussianBlur stdDeviation="3"/>
<feComposite in2="hardAlpha" operator="out"/>
<feColorMatrix type="matrix" values="0 0 0 0 0 0 0 0 0 0 0 0 0 0 0 0 0 0 0.15 0"/>
<feBlend mode="normal" in2="BackgroundImageFix" result="effect1_dropShadow_2006_45556"/>
<feBlend mode="normal" in="SourceGraphic" in2="effect1_dropShadow_2006_45556" result="shape"/>
</filter>
</defs>
</svg>
