<svg width="37" height="31" viewBox="0 0 37 31" fill="none" xmlns="http://www.w3.org/2000/svg">
<g filter="url(#filter0_d_169_8)">
<path d="M10.925 13.675L15.1937 11.3688C15.3628 11.2783 15.5524 11.233 15.7441 11.2374C15.9358 11.2417 16.1232 11.2956 16.2879 11.3937C16.4527 11.4918 16.5893 11.6308 16.6845 11.7973C16.7797 11.9637 16.8302 12.152 16.8313 12.3438V17.5438C16.8313 17.736 16.7816 17.9251 16.6868 18.0924C16.592 18.2597 16.4555 18.3996 16.2906 18.4985C16.1256 18.5973 15.9379 18.6517 15.7457 18.6563C15.5534 18.661 15.3633 18.6157 15.1937 18.525L10.925 16.25C10.6872 16.1293 10.4874 15.9452 10.3479 15.7179C10.2084 15.4906 10.1345 15.2292 10.1345 14.9625C10.1345 14.6958 10.2084 14.4344 10.3479 14.2071C10.4874 13.9798 10.6872 13.7957 10.925 13.675V13.675Z" fill="white"/>
<path d="M26.3875 13.75L22.3187 11.375C22.1528 11.2799 21.9649 11.23 21.7736 11.2303C21.5824 11.2305 21.3945 11.2809 21.2288 11.3764C21.0631 11.4719 20.9254 11.6091 20.8293 11.7745C20.7332 11.9399 20.6822 12.1275 20.6812 12.3187V17.575C20.6822 17.7662 20.7332 17.9539 20.8293 18.1193C20.9254 18.2846 21.0631 18.4219 21.2288 18.5174C21.3945 18.6129 21.5824 18.6633 21.7736 18.6635C21.9649 18.6637 22.1528 18.6138 22.3187 18.5187L26.3875 16.1687C26.5958 16.043 26.7681 15.8656 26.8878 15.6538C27.0074 15.4419 27.0702 15.2027 27.0702 14.9594C27.0702 14.7161 27.0074 14.4769 26.8878 14.265C26.7681 14.0531 26.5958 13.8757 26.3875 13.75V13.75Z" fill="white"/>
</g>
<defs>
<filter id="filter0_d_169_8" x="-2.5" y="-4" width="42" height="42" filterUnits="userSpaceOnUse" color-interpolation-filters="sRGB">
<feFlood flood-opacity="0" result="BackgroundImageFix"/>
<feColorMatrix in="SourceAlpha" type="matrix" values="0 0 0 0 0 0 0 0 0 0 0 0 0 0 0 0 0 0 127 0" result="hardAlpha"/>
<feOffset dy="2"/>
<feGaussianBlur stdDeviation="3"/>
<feComposite in2="hardAlpha" operator="out"/>
<feColorMatrix type="matrix" values="0 0 0 0 0 0 0 0 0 0 0 0 0 0 0 0 0 0 0.15 0"/>
<feBlend mode="normal" in2="BackgroundImageFix" result="effect1_dropShadow_169_8"/>
<feBlend mode="normal" in="SourceGraphic" in2="effect1_dropShadow_169_8" result="shape"/>
</filter>
</defs>
</svg>
