<svg width="19" height="19" viewBox="0 0 19 19" fill="none" xmlns="http://www.w3.org/2000/svg">
<path d="M9.09996 4.55C9.67986 4.55 10.15 5.0201 10.15 5.6V10.5C10.15 11.0799 9.67986 11.55 9.09996 11.55C8.52006 11.55 8.04996 11.0799 8.04996 10.5V5.6C8.04996 5.0201 8.52006 4.55 9.09996 4.55Z" fill="#B91C1C"/>
<path d="M10.5 14C10.5 14.7732 9.87324 15.4 9.10004 15.4C8.32684 15.4 7.70004 14.7732 7.70004 14C7.70004 13.2268 8.32684 12.6 9.10004 12.6C9.87324 12.6 10.5 13.2268 10.5 14Z" fill="#B91C1C"/>
<path fill-rule="evenodd" clip-rule="evenodd" d="M9.1001 0C7.63664 0 6.60267 0.983252 6.08672 2.0254C5.81795 2.56827 4.56382 4.96175 3.28031 7.41094L3.24147 7.48504C1.99211 9.86908 0.724037 12.2888 0.430065 12.8827C-0.09082 13.9351 -0.238929 15.3326 0.559384 16.5424C1.3568 17.7507 2.71916 18.2 4.00903 18.2H14.191C15.4808 18.2 16.8432 17.7508 17.6406 16.5424C18.439 15.3327 18.2909 13.9352 17.77 12.8828C17.4765 12.2897 16.212 9.87698 14.9646 7.49666L14.9196 7.41092C13.636 4.9616 12.382 2.56836 12.1135 2.0257C11.5976 0.983382 10.5637 0 9.1001 0ZM7.9687 2.95714C8.53451 1.81428 9.66574 1.81429 10.2313 2.95714C10.5143 3.52886 11.7881 5.9596 13.0615 8.3894C14.3336 10.8167 15.6052 13.2432 15.8879 13.8143C16.4536 14.9571 15.8879 16.1 14.191 16.1H4.00903C2.31215 16.1 1.74649 14.9571 2.31215 13.8143C2.5953 13.2422 3.8706 10.8087 5.14477 8.37732C6.416 5.95155 7.68612 3.52791 7.9687 2.95714Z" fill="#B91C1C"/>
</svg>
