<svg width="48" height="48" viewBox="0 0 48 48" fill="none" xmlns="http://www.w3.org/2000/svg">
<path fill-rule="evenodd" clip-rule="evenodd" d="M45.1454 23.9499C45.1454 35.6389 35.6729 45.1109 23.9844 45.1109C18.3732 45.1109 12.9897 42.8832 9.02329 38.9136C5.05369 34.9472 2.82275 29.5643 2.82275 23.9499C2.82275 12.264 12.298 2.78827 23.9844 2.78827C35.6729 2.7888 45.1454 12.2645 45.1454 23.9499Z" fill="#F9F9F9"/>
<path fill-rule="evenodd" clip-rule="evenodd" d="M35.9999 22.0982C35.9999 21.5629 35.5067 21.1692 34.9714 21.1692H13.0285C12.4932 21.1692 11.9999 21.5629 11.9999 22.0982V24.1892C11.9999 27.8639 15.0719 30.8571 18.8434 30.8571C20.6811 30.8571 22.3954 30.1623 23.6845 28.9062L23.9999 28.5988L24.3154 28.9062C25.6045 30.1623 27.3188 30.8571 29.1565 30.8571C32.9279 30.8571 35.9999 27.8639 35.9999 24.1892V22.0982ZM19.8856 24.8439C20.4534 24.8439 20.9142 25.2929 20.9142 25.8461C20.9142 26.3994 20.4534 26.8483 19.8856 26.8483H17.1428C16.575 26.8483 16.1142 26.3994 16.1142 25.8461C16.1142 25.2929 16.575 24.8439 17.1428 24.8439H19.8856ZM30.8571 24.8439C31.4248 24.8439 31.8856 25.2929 31.8856 25.8461C31.8856 26.3994 31.4248 26.8483 30.8571 26.8483H28.1142C27.5464 26.8483 27.0856 26.3994 27.0856 25.8461C27.0856 25.2929 27.5464 24.8439 28.1142 24.8439H30.8571Z" fill="#303030"/>
<path fill-rule="evenodd" clip-rule="evenodd" d="M23.9846 4.36694C13.1867 4.36694 4.39844 13.1536 4.39844 23.9504C4.39844 34.7477 13.1872 43.5365 23.9846 43.5365C26.5479 43.5365 30.2495 42.1497 32.0047 41.427C32.5452 41.2044 32.7551 40.563 32.4693 40.053L31.9672 39.1568C31.7238 38.7226 31.198 38.5324 30.7291 38.6995C29.2099 39.2406 25.9216 40.3259 23.9846 40.3259C14.9206 40.3259 7.60857 33.0144 7.60857 23.9504C7.60857 20.1867 8.87311 16.7253 10.9979 13.9611L16.2511 19.2133C16.6722 19.6343 17.3656 19.5964 17.7382 19.1319L18.4991 18.1835C18.8182 17.7856 18.7868 17.2113 18.4262 16.8506L13.1984 11.6224C16.0763 9.10294 19.8448 7.57548 23.9846 7.57548C33.0454 7.57548 40.3622 14.8891 40.3622 23.9504C40.3622 28.0896 38.8347 31.8613 36.3126 34.7392L34.2824 32.7066C33.9251 32.3488 33.3568 32.3141 32.9586 32.6258L31.9988 33.377C31.5261 33.747 31.4836 34.4472 31.9081 34.8716L35.6108 38.5736C35.9721 38.9348 36.5494 38.9676 36.9323 38.6294C40.9984 35.0372 43.5712 29.7894 43.5712 23.9504C43.5707 13.1531 34.7808 4.36694 23.9846 4.36694Z" fill="#FF4B1E"/>
</svg>
