<svg width="32" height="32" viewBox="0 0 32 32" fill="none" xmlns="http://www.w3.org/2000/svg">
<rect width="32" height="32" rx="16" fill="#FF4B1E"/>
<path d="M16 22.7499C16.1326 22.7499 16.2598 22.6972 16.3536 22.6034C16.4473 22.5097 16.5 22.3825 16.5 22.2499C16.5 22.1173 16.4473 21.9901 16.3536 21.8963C16.2598 21.8026 16.1326 21.7499 16 21.7499C14.8536 21.7504 13.7333 21.408 12.783 20.7669C11.8327 20.1257 11.0958 19.2151 10.6671 18.1519C10.2384 17.0887 10.1373 15.9216 10.377 14.8006C10.6167 13.6795 11.1862 12.6558 12.0122 11.8609V13.5892C12.0122 13.7218 12.0649 13.849 12.1587 13.9428C12.2524 14.0366 12.3796 14.0892 12.5122 14.0892C12.6448 14.0892 12.772 14.0366 12.8658 13.9428C12.9595 13.849 13.0122 13.7218 13.0122 13.5892V10.8271C13.0122 10.6945 12.9595 10.5674 12.8658 10.4736C12.772 10.3798 12.6448 10.3272 12.5122 10.3271H9.75C9.61739 10.3271 9.49022 10.3798 9.39645 10.4736C9.30268 10.5674 9.25 10.6945 9.25 10.8271C9.25 10.9598 9.30268 11.0869 9.39645 11.1807C9.49022 11.2745 9.61739 11.3271 9.75 11.3271H11.1327C10.2157 12.2812 9.59944 13.4839 9.36071 14.7855C9.12197 16.0871 9.27127 17.4302 9.79002 18.6476C10.3088 19.865 11.1741 20.903 12.2782 21.6324C13.3824 22.3618 14.6767 22.7504 16 22.7499Z" fill="white"/>
<path d="M16 9.25C15.8674 9.25 15.7402 9.30268 15.6464 9.39645C15.5527 9.49022 15.5 9.61739 15.5 9.75C15.5 9.88261 15.5527 10.0098 15.6464 10.1036C15.7402 10.1973 15.8674 10.25 16 10.25C17.1465 10.2498 18.2668 10.5923 19.2171 11.2337C20.1674 11.875 20.9043 12.7859 21.333 13.8492C21.7617 14.9125 21.8626 16.0797 21.6229 17.2008C21.3832 18.3219 20.8138 19.3458 19.9878 20.1408V18.4523C19.9878 18.3197 19.9351 18.1925 19.8413 18.0987C19.7476 18.0049 19.6204 17.9523 19.4878 17.9523C19.3552 17.9523 19.228 18.0049 19.1342 18.0987C19.0405 18.1925 18.9878 18.3197 18.9878 18.4523V21.2144C18.9878 21.347 19.0405 21.4741 19.1342 21.5679C19.228 21.6617 19.3552 21.7143 19.4878 21.7144H22.25C22.3826 21.7144 22.5098 21.6617 22.6036 21.5679C22.6973 21.4741 22.75 21.347 22.75 21.2144C22.75 21.0817 22.6973 20.9546 22.6036 20.8608C22.5098 20.767 22.3826 20.7144 22.25 20.7144H20.8277C21.7561 19.7645 22.3836 18.5618 22.6315 17.2569C22.8793 15.952 22.7366 14.603 22.2211 13.3789C21.7056 12.1548 20.8403 11.1101 19.7337 10.3756C18.627 9.64109 17.3282 9.24955 16 9.25Z" fill="white"/>
</svg>
