<svg width="48" height="48" viewBox="0 0 48 48" fill="none" xmlns="http://www.w3.org/2000/svg">
<path d="M5.3749 19.5086C5.14347 19.5086 4.91204 19.4486 4.69776 19.3457C4.26061 19.1314 3.98633 18.6857 3.98633 18.1971C3.98633 17.9057 4.0549 17.6143 4.18347 17.3486L4.21776 17.28L4.26061 17.22C6.48061 14.1257 9.42919 11.6228 12.8492 9.94284C16.2949 8.23713 20.0835 7.36284 23.9235 7.37999C27.7635 7.36284 31.5606 8.21999 35.0235 9.88284C38.4692 11.5371 41.452 14.0143 43.6978 17.1086L43.7235 17.1428L43.7406 17.1771C43.9635 17.5457 44.0406 17.88 43.9892 18.2143C43.9292 18.5228 43.7835 18.8057 43.552 19.02C43.2778 19.2943 42.9092 19.4486 42.5149 19.44C42.2063 19.44 41.7606 19.3371 41.3578 18.84L41.3406 18.8228L41.3235 18.8057C39.3778 16.0886 36.772 13.9028 33.7463 12.4628C30.6778 10.9886 27.3178 10.2257 23.9063 10.2343C20.452 10.2343 17.1692 10.9886 14.152 12.48C11.1606 13.9543 8.56347 16.1228 6.59204 18.8057L6.58347 18.8228L6.5749 18.8314C6.30919 19.1571 6.0349 19.3628 5.72633 19.4486C5.62347 19.4828 5.4949 19.5 5.3749 19.5086Z" fill="#FF4B1E"/>
<path d="M34.7663 41.4686C31.4663 41.4686 28.5606 40.3543 26.1349 38.16C23.6835 35.94 22.4492 33.1028 22.4492 29.7343C22.4406 29.3743 22.5606 29.0143 22.792 28.7314C23.3406 28.1314 24.2663 28.0886 24.8663 28.6286L24.9692 28.7314C25.2006 29.0143 25.3206 29.3657 25.312 29.7343C25.312 32.3228 26.2378 34.4057 28.132 36.0771C30.0692 37.7828 32.2378 38.6143 34.7663 38.6143C35.0149 38.6143 35.3235 38.5971 35.6835 38.5628C36.0435 38.5286 36.4463 38.4771 36.8749 38.4171C36.9692 38.4 37.072 38.3914 37.1749 38.3914C37.4835 38.3914 37.792 38.4943 38.032 38.6914C38.2549 38.8714 38.4263 39.12 38.5206 39.3857L38.5292 39.42L38.5378 39.4543C38.6235 39.7886 38.5978 40.14 38.4435 40.4486C38.3406 40.6543 38.0835 41.0057 37.5092 41.1343C36.9092 41.3057 36.292 41.4171 35.6749 41.4514C35.0149 41.4686 34.8435 41.4686 34.7663 41.4686Z" fill="#FF4B1E"/>
<path d="M19.012 45.5143C18.6178 45.5057 18.2406 45.3257 18.0006 45.0086C15.9263 42.8571 14.2806 40.56 13.1063 38.1771C11.9063 35.7514 11.3063 32.9057 11.3063 29.7343C11.3063 26.3657 12.5663 23.4857 15.0435 21.18C17.5035 18.8914 20.4949 17.7257 23.9406 17.7257C27.3863 17.7257 30.3949 18.8828 32.8892 21.1714C35.4092 23.4771 36.6778 26.3571 36.6778 29.7257C36.7206 30.48 36.1378 31.1143 35.392 31.1571H35.2463C34.8863 31.1657 34.5263 31.0457 34.2435 30.8143C33.9263 30.54 33.7463 30.1457 33.7635 29.7257C33.7635 27.1286 32.8206 25.0028 30.8749 23.2457C28.9035 21.4543 26.6406 20.5886 23.932 20.5886C21.2235 20.5886 18.9778 21.4543 17.0492 23.2457C15.1378 25.0114 14.212 27.1371 14.212 29.7343C14.212 32.5628 14.7006 34.9971 15.6692 36.96C16.6549 38.9657 18.1463 41.0143 20.1092 43.0371C20.5378 43.4743 20.5806 43.9028 20.5463 44.1943C20.4949 44.52 20.3406 44.82 20.1092 45.0514C19.912 45.24 19.672 45.3771 19.4149 45.4543C19.2778 45.4971 19.1406 45.5143 19.012 45.5143Z" fill="#FF4B1E"/>
<path fill-rule="evenodd" clip-rule="evenodd" d="M11.3749 8.08284C11.1606 8.08284 10.9549 8.03141 10.7749 7.91999C10.5863 7.79999 10.4235 7.65427 10.2949 7.4657C10.0892 7.21713 9.98633 6.90856 9.9949 6.59141C9.98633 6.16284 10.2006 5.75999 10.552 5.51999L10.5863 5.49427L10.6206 5.47713C12.6692 4.36284 14.8549 3.5057 17.1178 2.92284C19.3378 2.35713 21.6349 2.05713 23.932 2.05713C26.272 2.05713 28.5949 2.34856 30.8663 2.92284C33.0949 3.48856 35.2549 4.30284 37.312 5.34856C37.7663 5.5457 38.0578 5.91427 38.1178 6.37713C38.1692 6.71999 38.0835 7.07141 37.8949 7.36284C37.7406 7.5857 37.5435 7.77427 37.3035 7.91142C37.1063 8.02284 36.8835 8.08284 36.652 8.08284C36.4549 8.08284 36.2578 8.03999 36.0692 7.96284L36.0349 7.9457L36.0006 7.92856C34.1235 7.01142 32.152 6.28284 30.1206 5.75999C28.0978 5.23713 26.0149 4.97141 23.932 4.97141C21.8578 4.97141 19.8006 5.21141 17.7863 5.70856C15.7892 6.19713 13.8606 6.94284 12.052 7.91999L12.0092 7.9457L11.9578 7.96284C11.7692 8.03141 11.572 8.07427 11.3749 8.08284Z" fill="#FF4B1E"/>
<path d="M30.4292 45.9428C30.2578 45.9428 30.0863 45.9086 29.9235 45.8486C26.1692 44.8886 23.032 42.9771 20.5978 40.1571C18.1292 37.3028 16.8778 33.7971 16.8778 29.7343C16.8778 27.8314 17.5892 26.2114 18.9778 24.9171C20.3578 23.64 22.0206 22.9971 23.932 22.9971C25.8435 22.9971 27.5063 23.6486 28.8863 24.9171C30.2835 26.2114 30.9863 27.8314 30.9863 29.7343C30.9863 30.8057 31.3978 31.68 32.2292 32.4257C33.052 33.1714 34.1235 33.5828 35.2378 33.5657C36.3435 33.5657 37.2949 33.1971 38.1263 32.4343C38.9406 31.6971 39.3263 30.8143 39.3263 29.7343C39.3263 25.6543 37.852 22.3286 34.8092 19.5686C31.7835 16.8257 28.1235 15.4371 23.9235 15.4371C19.7235 15.4371 16.0635 16.8257 13.0378 19.5686C10.0035 22.3286 8.52061 25.6543 8.52061 29.7343C8.52061 30.5314 8.6149 31.5943 8.80347 32.8971C8.98347 34.1743 9.38633 35.6571 9.98633 37.3028C10.2435 37.9457 10.012 38.3828 9.84919 38.5886C9.71204 38.7514 9.55776 38.8971 9.37776 39.0171L9.32633 39.0514L9.2749 39.0771C9.06061 39.1886 8.82061 39.24 8.58061 39.24C8.46061 39.24 8.34919 39.2228 8.22919 39.1971C7.7749 39.0943 7.40633 38.7686 7.24347 38.34L7.2349 38.3228L7.22633 38.2971C6.7549 36.9257 6.38633 35.52 6.11204 34.0971C5.83776 32.6657 5.70061 31.2086 5.70061 29.7428C5.70061 24.9771 7.5349 20.8543 11.1435 17.4857C14.7349 14.1343 19.0292 12.4286 23.9063 12.4286C28.8863 12.4286 33.2235 14.1 36.7978 17.4C40.3978 20.7171 42.2149 24.8743 42.2149 29.7428C42.2149 31.6114 41.5206 33.2057 40.1406 34.5C38.7778 35.7771 37.1235 36.4286 35.212 36.4286C33.2663 36.4286 31.5778 35.7857 30.1806 34.5086C28.7663 33.2143 28.0463 31.6114 28.0463 29.7428C28.0463 28.6286 27.652 27.7286 26.8463 26.9914C26.0492 26.2457 24.9949 25.8428 23.9063 25.86C22.8092 25.8428 21.7463 26.2457 20.9406 27C20.1178 27.7371 19.7149 28.6371 19.7149 29.7428C19.7149 33.1371 20.752 36.0086 22.792 38.2628C24.8749 40.5686 27.5149 42.2057 30.6349 43.1314L30.6606 43.14C31.1063 43.2857 31.4149 43.5257 31.5778 43.86C31.8778 44.5286 31.672 45.3171 31.0892 45.7543C30.9092 45.8743 30.6692 45.9428 30.4292 45.9428Z" fill="#303030"/>
</svg>
