<svg width="16" height="16" viewBox="0 0 16 16" fill="none" xmlns="http://www.w3.org/2000/svg">
<path d="M8 0C12.4183 0 16 3.58172 16 8C16 12.4183 12.4183 16 8 16C3.58172 16 0 12.4183 0 8C0 3.58172 3.58172 0 8 0ZM5.33301 5.33301V11.7334H6.54004V5.33301H5.33301ZM7.99512 5.33301V11.7334H9.20215V9.38281H10.248C10.6502 9.38279 11.0168 9.30165 11.3564 9.13184C11.687 8.96203 11.946 8.7209 12.1426 8.4082C12.3303 8.1043 12.4287 7.7468 12.4287 7.35352C12.4287 6.96022 12.3303 6.61153 12.1426 6.30762C11.946 6.00385 11.687 5.76257 11.3564 5.59277C11.0168 5.42296 10.6502 5.33303 10.248 5.33301H7.99512ZM10.2832 6.47754C10.578 6.47754 10.8107 6.56675 10.9805 6.73633C11.1503 6.90616 11.2402 7.11217 11.2402 7.35352C11.2402 7.60378 11.1503 7.80967 10.9805 7.97949C10.8107 8.15802 10.578 8.23828 10.2832 8.23828H9.20215V6.47754H10.2832Z" fill="#FF4B1E"/>
</svg>
