<svg width="18" height="18" viewBox="0 0 18 18" fill="none" xmlns="http://www.w3.org/2000/svg">
<path d="M13.2883 2.28674C12.5102 1.64966 11.6005 1.1932 10.6246 0.950281C9.64881 0.707361 8.63123 0.684037 7.64529 0.88199C6.37759 1.1419 5.21131 1.76073 4.28539 2.66478C3.35947 3.56882 2.71294 4.71997 2.42281 5.9811C2.13268 7.24223 2.21118 8.56019 2.64896 9.77796C3.08674 10.9957 3.86535 12.062 4.89204 12.8497C6.06424 13.7077 7.06228 14.7811 7.83279 16.0125L8.35779 16.8855C8.42447 16.9964 8.5187 17.0881 8.63133 17.1518C8.74396 17.2155 8.87115 17.249 9.00054 17.249C9.12993 17.249 9.25712 17.2155 9.36975 17.1518C9.48238 17.0881 9.57661 16.9964 9.64329 16.8855L10.1465 16.047C10.8175 14.8675 11.7324 13.8448 12.83 13.047C13.6907 12.4548 14.4021 11.6707 14.9079 10.7566C15.4137 9.84245 15.7001 8.82328 15.7446 7.77949C15.7891 6.7357 15.5905 5.69584 15.1643 4.74196C14.7382 3.78809 14.0962 2.94629 13.289 2.28299L13.2883 2.28674ZM8.99979 10.5C8.40645 10.5 7.82643 10.324 7.33308 9.9944C6.83973 9.66476 6.45521 9.19622 6.22815 8.64804C6.00109 8.09986 5.94168 7.49666 6.05744 6.91472C6.17319 6.33278 6.45891 5.79823 6.87847 5.37867C7.29803 4.95911 7.83258 4.67339 8.41452 4.55763C8.99646 4.44188 9.59966 4.50129 10.1478 4.72835C10.696 4.95541 11.1646 5.33993 11.4942 5.83328C11.8238 6.32663 11.9998 6.90665 11.9998 7.49999C11.9998 8.29564 11.6837 9.0587 11.1211 9.62131C10.5585 10.1839 9.79544 10.5 8.99979 10.5Z" fill="#FF4B1E"/>
</svg>
