<svg width="32" height="32" viewBox="0 0 32 32" fill="none" xmlns="http://www.w3.org/2000/svg">
<rect width="32" height="32" rx="16" fill="#FF4B1E"/>
<path d="M22.4109 9.90259L16.1349 8.01978C16.0471 7.99341 15.9534 7.99341 15.8655 8.01978L9.58943 9.90259C9.39115 9.96206 9.25537 10.1446 9.25537 10.3516V17.2552C9.25537 18.1531 9.61887 19.0723 10.3358 19.9872C10.8833 20.686 11.6408 21.3876 12.5873 22.0727C14.1772 23.2236 15.7427 23.9296 15.8086 23.9591C15.8696 23.9863 15.9348 24 16.0002 24C16.0654 24 16.1307 23.9864 16.1917 23.9591C16.2576 23.9296 17.8231 23.2236 19.413 22.0727C20.3594 21.3876 21.1169 20.686 21.6645 19.9872C22.3814 19.0723 22.7449 18.1532 22.7449 17.2552V10.3516C22.7449 10.1446 22.6092 9.96206 22.4109 9.90259ZM21.8074 17.2552C21.8074 18.8443 20.2129 20.3344 18.8753 21.3046C17.6762 22.1744 16.46 22.7916 16.0002 23.0133C15.5404 22.7916 14.3242 22.1744 13.125 21.3046C11.7874 20.3344 10.1929 18.8443 10.1929 17.2552V10.7003L16.0002 8.95812L21.8074 10.7003V17.2552Z" fill="white"/>
</svg>
