<svg width="48" height="48" viewBox="0 0 48 48" fill="none" xmlns="http://www.w3.org/2000/svg">
<path d="M42.391 13.3572C42.3685 12.1723 42.347 11.053 42.347 9.97016C42.347 9.12182 41.6594 8.43405 40.8109 8.43405C34.2415 8.43405 29.2397 6.54607 25.0705 2.49238C24.4741 1.91235 23.525 1.91255 22.9288 2.49238C18.76 6.54607 13.759 8.43405 7.18999 8.43405C6.34165 8.43405 5.65388 9.12182 5.65388 9.97016C5.65388 11.0532 5.63258 12.1729 5.60985 13.358C5.3993 24.3844 5.11092 39.4856 23.4965 45.8584C23.6595 45.9149 23.8295 45.9431 23.9995 45.9431C24.1695 45.9431 24.3397 45.9149 24.5025 45.8584C42.8896 39.4853 42.6016 24.3838 42.391 13.3572ZM23.9997 42.7769C8.23168 37.0489 8.47008 24.5009 8.68165 13.4166C8.69435 12.7513 8.70664 12.1066 8.71524 11.4745C14.8679 11.2148 19.7879 9.35039 23.9997 5.68134C28.2119 9.35039 33.1328 11.215 39.2858 11.4745C39.2944 12.1064 39.3067 12.7507 39.3194 13.4155C39.5308 24.5003 39.769 37.0487 23.9997 42.7769Z" fill="#FF4B1E"/>
<path d="M29.2906 18.6641L21.8765 26.0777L18.7128 22.914C18.1129 22.3143 17.1402 22.3143 16.5405 22.914C15.9406 23.5141 15.9406 24.4865 16.5405 25.0864L20.7904 29.3363C21.0903 29.6362 21.4835 29.7861 21.8765 29.7861C22.2696 29.7861 22.6628 29.6362 22.9627 29.3363L31.4627 20.8365C32.0628 20.2366 32.0628 19.264 31.4629 18.6643C30.8632 18.0644 29.8905 18.0642 29.2906 18.6641Z" fill="#303030"/>
</svg>
