<svg width="32" height="32" viewBox="0 0 32 32" fill="none" xmlns="http://www.w3.org/2000/svg">
<path d="M16.4299 21.8599L11.9287 26.3476C11.794 26.4285 11.6188 26.6307 11.2549 26.5228C11.0663 26.4554 10.8371 26.2398 10.7967 25.9972V25.9837L9.50293 18.2482L10.5541 17.4531C10.6903 17.533 13.2878 19.0561 13.1281 18.9625L16.4299 20.9031C16.686 21.1726 16.686 21.5904 16.4299 21.8599Z" fill="#EEEEEE"/>
<path d="M26.9869 5.70641L22.8986 26.0107C22.8582 26.2264 22.6965 26.415 22.4808 26.4959C22.4 26.5363 22.3191 26.5498 22.2383 26.5498C22.1035 26.5498 21.9687 26.5094 21.8475 26.4285C21.7119 26.3317 11.7822 19.239 12.4139 19.6902C6.40152 16.7119 9.53765 18.2773 4.37734 15.7012C4.13477 15.5799 4 15.3373 4 15.0812C4.01348 14.8117 4.16172 14.5826 4.4043 14.4748L26.057 4.95172C26.2861 4.85739 26.5556 4.88434 26.7443 5.04606C26.7712 5.07301 26.8117 5.11344 26.8386 5.14039C26.9734 5.30211 27.0273 5.50426 26.9869 5.70641Z" fill="#F9F9F9"/>
<path d="M26.8386 5.14062L13.1281 18.9627L12.4139 19.6904L11.2549 26.523C11.0663 26.4556 10.8371 26.24 10.7967 25.9974V25.984L9.50293 18.2484L10.5541 17.4533L26.8386 5.14062Z" fill="#BABABA"/>
</svg>
