<svg width="32" height="32" viewBox="0 0 32 32" fill="none" xmlns="http://www.w3.org/2000/svg">
<rect width="32" height="32" rx="16" fill="#FF4B1E"/>
<path d="M9.79147 14.5029C9.71433 14.5029 9.63718 14.4829 9.56576 14.4486C9.42004 14.3772 9.32861 14.2286 9.32861 14.0658C9.32861 13.9686 9.35147 13.8715 9.39433 13.7829L9.40576 13.7601L9.42004 13.7401C10.16 12.7086 11.1429 11.8744 12.2829 11.3144C13.4315 10.7458 14.6943 10.4544 15.9743 10.4601C17.2543 10.4544 18.52 10.7401 19.6743 11.2944C20.8229 11.8458 21.8172 12.6715 22.5658 13.7029L22.5743 13.7144L22.58 13.7258C22.6543 13.8486 22.68 13.9601 22.6629 14.0715C22.6429 14.1744 22.5943 14.2686 22.5172 14.3401C22.4258 14.4315 22.3029 14.4829 22.1715 14.4801C22.0686 14.4801 21.92 14.4458 21.7858 14.2801L21.78 14.2744L21.7743 14.2686C21.1258 13.3629 20.2572 12.6344 19.2486 12.1544C18.2258 11.6629 17.1058 11.4086 15.9686 11.4115C14.8172 11.4115 13.7229 11.6629 12.7172 12.1601C11.72 12.6515 10.8543 13.3744 10.1972 14.2686L10.1943 14.2744L10.1915 14.2772C10.1029 14.3858 10.0115 14.4544 9.90861 14.4829C9.87433 14.4944 9.83147 14.5001 9.79147 14.5029Z" fill="white"/>
<path d="M19.5886 21.8229C18.4886 21.8229 17.52 21.4515 16.7115 20.7201C15.8943 19.9801 15.4829 19.0344 15.4829 17.9115C15.48 17.7915 15.52 17.6715 15.5972 17.5772C15.78 17.3772 16.0886 17.3629 16.2886 17.5429L16.3229 17.5772C16.4 17.6715 16.44 17.7886 16.4372 17.9115C16.4372 18.7744 16.7458 19.4686 17.3772 20.0258C18.0229 20.5944 18.7458 20.8715 19.5886 20.8715C19.6715 20.8715 19.7743 20.8658 19.8943 20.8544C20.0143 20.8429 20.1486 20.8258 20.2915 20.8058C20.3229 20.8001 20.3572 20.7972 20.3915 20.7972C20.4943 20.7972 20.5972 20.8315 20.6772 20.8972C20.7515 20.9572 20.8086 21.0401 20.84 21.1286L20.8429 21.1401L20.8458 21.1515C20.8743 21.2629 20.8658 21.3801 20.8143 21.4829C20.78 21.5515 20.6943 21.6686 20.5029 21.7115C20.3029 21.7686 20.0972 21.8058 19.8915 21.8172C19.6715 21.8229 19.6143 21.8229 19.5886 21.8229Z" fill="white"/>
<path d="M14.3372 23.1715C14.2058 23.1686 14.08 23.1086 14 23.0029C13.3086 22.2858 12.76 21.5201 12.3686 20.7258C11.9686 19.9172 11.7686 18.9686 11.7686 17.9115C11.7686 16.7886 12.1886 15.8286 13.0143 15.0601C13.8343 14.2972 14.8315 13.9086 15.98 13.9086C17.1286 13.9086 18.1315 14.2944 18.9629 15.0572C19.8029 15.8258 20.2258 16.7858 20.2258 17.9086C20.24 18.1601 20.0458 18.3715 19.7972 18.3858H19.7486C19.6286 18.3886 19.5086 18.3486 19.4143 18.2715C19.3086 18.1801 19.2486 18.0486 19.2543 17.9086C19.2543 17.0429 18.94 16.3344 18.2915 15.7486C17.6343 15.1515 16.88 14.8629 15.9772 14.8629C15.0743 14.8629 14.3258 15.1515 13.6829 15.7486C13.0458 16.3372 12.7372 17.0458 12.7372 17.9115C12.7372 18.8544 12.9 19.6658 13.2229 20.3201C13.5515 20.9886 14.0486 21.6715 14.7029 22.3458C14.8458 22.4915 14.86 22.6344 14.8486 22.7315C14.8315 22.8401 14.78 22.9401 14.7029 23.0172C14.6372 23.0801 14.5572 23.1258 14.4715 23.1515C14.4258 23.1658 14.38 23.1715 14.3372 23.1715Z" fill="white"/>
<path fill-rule="evenodd" clip-rule="evenodd" d="M11.7915 10.6944C11.72 10.6944 11.6515 10.6772 11.5915 10.6401C11.5286 10.6001 11.4743 10.5515 11.4315 10.4886C11.3629 10.4058 11.3286 10.3029 11.3315 10.1972C11.3286 10.0544 11.4 9.92008 11.5172 9.84008L11.5286 9.83151L11.54 9.82579C12.2229 9.45436 12.9515 9.16865 13.7058 8.97436C14.4458 8.78579 15.2115 8.68579 15.9772 8.68579C16.7572 8.68579 17.5315 8.78293 18.2886 8.97436C19.0315 9.16293 19.7515 9.43436 20.4372 9.78293C20.5886 9.84865 20.6858 9.97151 20.7058 10.1258C20.7229 10.2401 20.6943 10.3572 20.6315 10.4544C20.58 10.5286 20.5143 10.5915 20.4343 10.6372C20.3686 10.6744 20.2943 10.6944 20.2172 10.6944C20.1515 10.6944 20.0858 10.6801 20.0229 10.6544L20.0115 10.6486L20 10.6429C19.3743 10.3372 18.7172 10.0944 18.04 9.92008C17.3658 9.74579 16.6715 9.65722 15.9772 9.65722C15.2858 9.65722 14.6 9.73722 13.9286 9.90293C13.2629 10.0658 12.62 10.3144 12.0172 10.6401L12.0029 10.6486L11.9858 10.6544C11.9229 10.6772 11.8572 10.6915 11.7915 10.6944Z" fill="white"/>
<path d="M18.1429 23.3144C18.0858 23.3144 18.0286 23.3029 17.9743 23.2829C16.7229 22.9629 15.6772 22.3258 14.8658 21.3858C14.0429 20.4344 13.6258 19.2658 13.6258 17.9115C13.6258 17.2772 13.8629 16.7372 14.3258 16.3058C14.7858 15.8801 15.34 15.6658 15.9772 15.6658C16.6143 15.6658 17.1686 15.8829 17.6286 16.3058C18.0943 16.7372 18.3286 17.2772 18.3286 17.9115C18.3286 18.2686 18.4658 18.5601 18.7429 18.8086C19.0172 19.0572 19.3743 19.1944 19.7458 19.1886C20.1143 19.1886 20.4315 19.0658 20.7086 18.8115C20.98 18.5658 21.1086 18.2715 21.1086 17.9115C21.1086 16.5515 20.6172 15.4429 19.6029 14.5229C18.5943 13.6086 17.3743 13.1458 15.9743 13.1458C14.5743 13.1458 13.3543 13.6086 12.3458 14.5229C11.3343 15.4429 10.84 16.5515 10.84 17.9115C10.84 18.1772 10.8715 18.5315 10.9343 18.9658C10.9943 19.3915 11.1286 19.8858 11.3286 20.4344C11.4143 20.6486 11.3372 20.7944 11.2829 20.8629C11.2372 20.9172 11.1858 20.9658 11.1258 21.0058L11.1086 21.0172L11.0915 21.0258C11.02 21.0629 10.94 21.0801 10.86 21.0801C10.82 21.0801 10.7829 21.0744 10.7429 21.0658C10.5915 21.0315 10.4686 20.9229 10.4143 20.7801L10.4115 20.7744L10.4086 20.7658C10.2515 20.3086 10.1286 19.8401 10.0372 19.3658C9.94576 18.8886 9.90004 18.4029 9.90004 17.9144C9.90004 16.3258 10.5115 14.9515 11.7143 13.8286C12.9115 12.7115 14.3429 12.1429 15.9686 12.1429C17.6286 12.1429 19.0743 12.7001 20.2658 13.8001C21.4658 14.9058 22.0715 16.2915 22.0715 17.9144C22.0715 18.5372 21.84 19.0686 21.38 19.5001C20.9258 19.9258 20.3743 20.1429 19.7372 20.1429C19.0886 20.1429 18.5258 19.9286 18.06 19.5029C17.5886 19.0715 17.3486 18.5372 17.3486 17.9144C17.3486 17.5429 17.2172 17.2429 16.9486 16.9972C16.6829 16.7486 16.3315 16.6144 15.9686 16.6201C15.6029 16.6144 15.2486 16.7486 14.98 17.0001C14.7058 17.2458 14.5715 17.5458 14.5715 17.9144C14.5715 19.0458 14.9172 20.0029 15.5972 20.7544C16.2915 21.5229 17.1715 22.0686 18.2115 22.3772L18.22 22.3801C18.3686 22.4286 18.4715 22.5086 18.5258 22.6201C18.6258 22.8429 18.5572 23.1058 18.3629 23.2515C18.3029 23.2915 18.2229 23.3144 18.1429 23.3144Z" fill="white"/>
</svg>
