<svg width="32" height="32" viewBox="0 0 32 32" fill="none" xmlns="http://www.w3.org/2000/svg">
<g clip-path="url(#clip0_2007_1290)">
<path d="M16.6025 26.9628L10.0792 26.8429C7.96706 26.8011 5.84969 26.8845 3.77899 26.4518C0.628973 25.8052 0.405815 22.6347 0.172304 19.9754C-0.149451 16.2366 -0.0248905 12.43 0.582303 8.72246C0.925083 6.64214 2.27406 5.4008 4.36021 5.26572C11.4025 4.77549 18.4916 4.83359 25.5183 5.0623C26.2604 5.08326 27.0076 5.19786 27.7394 5.3283C31.3515 5.9645 31.4396 9.55728 31.6737 12.5817C31.9072 15.6374 31.8086 18.7087 31.3623 21.7436C31.0042 24.2564 30.3192 26.3636 27.428 26.567C23.8055 26.833 20.2662 27.0471 16.6336 26.979C16.6337 26.9628 16.6129 26.9628 16.6025 26.9628ZM12.7674 20.6012C15.4972 19.0263 18.175 17.4776 20.8892 15.9133C18.1543 14.3384 15.4816 12.7898 12.7674 11.2255V20.6012Z" fill="#F9F9F9"/>
</g>
<defs>
<clipPath id="clip0_2007_1290">
<rect width="31.7962" height="32" fill="white"/>
</clipPath>
</defs>
</svg>
