<svg width="572" height="476" viewBox="0 0 572 476" fill="none" xmlns="http://www.w3.org/2000/svg">
<rect width="572" height="476" rx="38" fill="url(#paint0_linear_147_2)"/>
<rect x="58.5248" y="73.5248" width="455.95" height="148.95" rx="9.97128" fill="#FEFEFE"/>
<rect x="58.5248" y="73.5248" width="455.95" height="148.95" rx="9.97128" stroke="#FF4B1F" stroke-width="1.04961"/>
<rect x="58.5248" y="73.5248" width="455.95" height="148.95" rx="9.97128" stroke="#EAE3E1" stroke-width="1.04961"/>
<rect x="78" y="93" width="10" height="10" rx="5" fill="#50CDA3" style="mix-blend-mode:luminosity"/>
<rect x="96" y="93" width="10" height="10" rx="5" fill="#50CDA3" style="mix-blend-mode:luminosity"/>
<rect x="114" y="93" width="10" height="10" rx="5" fill="#50CDA3" style="mix-blend-mode:luminosity"/>
<path d="M88.88 138.04V140.3H85.16V152H82.36V140.3H78.64V138.04H88.88ZM101.383 140.92V152H98.563V150.6C98.203 151.08 97.7296 151.46 97.143 151.74C96.5696 152.007 95.943 152.14 95.263 152.14C94.3963 152.14 93.6296 151.96 92.963 151.6C92.2963 151.227 91.7696 150.687 91.383 149.98C91.0096 149.26 90.823 148.407 90.823 147.42V140.92H93.623V147.02C93.623 147.9 93.843 148.58 94.283 149.06C94.723 149.527 95.323 149.76 96.083 149.76C96.8563 149.76 97.463 149.527 97.903 149.06C98.343 148.58 98.563 147.9 98.563 147.02V140.92H101.383ZM106.946 142.64C107.306 142.053 107.772 141.593 108.346 141.26C108.932 140.927 109.599 140.76 110.346 140.76V143.7H109.606C108.726 143.7 108.059 143.907 107.606 144.32C107.166 144.733 106.946 145.453 106.946 146.48V152H104.146V140.92H106.946V142.64ZM118.372 140.76C119.692 140.76 120.758 141.18 121.572 142.02C122.385 142.847 122.792 144.007 122.792 145.5V152H119.992V145.88C119.992 145 119.772 144.327 119.332 143.86C118.892 143.38 118.292 143.14 117.532 143.14C116.758 143.14 116.145 143.38 115.692 143.86C115.252 144.327 115.032 145 115.032 145.88V152H112.232V140.92H115.032V142.3C115.405 141.82 115.878 141.447 116.452 141.18C117.038 140.9 117.678 140.76 118.372 140.76ZM135.14 152.18C134.073 152.18 133.113 151.947 132.26 151.48C131.407 151 130.733 150.327 130.24 149.46C129.76 148.593 129.52 147.593 129.52 146.46C129.52 145.327 129.767 144.327 130.26 143.46C130.767 142.593 131.453 141.927 132.32 141.46C133.187 140.98 134.153 140.74 135.22 140.74C136.287 140.74 137.253 140.98 138.12 141.46C138.987 141.927 139.667 142.593 140.16 143.46C140.667 144.327 140.92 145.327 140.92 146.46C140.92 147.593 140.66 148.593 140.14 149.46C139.633 150.327 138.94 151 138.06 151.48C137.193 151.947 136.22 152.18 135.14 152.18ZM135.14 149.74C135.647 149.74 136.12 149.62 136.56 149.38C137.013 149.127 137.373 148.753 137.64 148.26C137.907 147.767 138.04 147.167 138.04 146.46C138.04 145.407 137.76 144.6 137.2 144.04C136.653 143.467 135.98 143.18 135.18 143.18C134.38 143.18 133.707 143.467 133.16 144.04C132.627 144.6 132.36 145.407 132.36 146.46C132.36 147.513 132.62 148.327 133.14 148.9C133.673 149.46 134.34 149.74 135.14 149.74ZM149.114 140.76C150.434 140.76 151.5 141.18 152.314 142.02C153.127 142.847 153.534 144.007 153.534 145.5V152H150.734V145.88C150.734 145 150.514 144.327 150.074 143.86C149.634 143.38 149.034 143.14 148.274 143.14C147.5 143.14 146.887 143.38 146.434 143.86C145.994 144.327 145.774 145 145.774 145.88V152H142.974V140.92H145.774V142.3C146.147 141.82 146.62 141.447 147.194 141.18C147.78 140.9 148.42 140.76 149.114 140.76ZM163.762 142.52C164.122 142.013 164.615 141.593 165.242 141.26C165.882 140.913 166.609 140.74 167.422 140.74C168.369 140.74 169.222 140.973 169.982 141.44C170.755 141.907 171.362 142.573 171.802 143.44C172.255 144.293 172.482 145.287 172.482 146.42C172.482 147.553 172.255 148.56 171.802 149.44C171.362 150.307 170.755 150.98 169.982 151.46C169.222 151.94 168.369 152.18 167.422 152.18C166.609 152.18 165.889 152.013 165.262 151.68C164.649 151.347 164.149 150.927 163.762 150.42V157.28H160.962V140.92H163.762V142.52ZM169.622 146.42C169.622 145.753 169.482 145.18 169.202 144.7C168.935 144.207 168.575 143.833 168.122 143.58C167.682 143.327 167.202 143.2 166.682 143.2C166.175 143.2 165.695 143.333 165.242 143.6C164.802 143.853 164.442 144.227 164.162 144.72C163.895 145.213 163.762 145.793 163.762 146.46C163.762 147.127 163.895 147.707 164.162 148.2C164.442 148.693 164.802 149.073 165.242 149.34C165.695 149.593 166.175 149.72 166.682 149.72C167.202 149.72 167.682 149.587 168.122 149.32C168.575 149.053 168.935 148.673 169.202 148.18C169.482 147.687 169.622 147.1 169.622 146.42ZM177.317 142.64C177.677 142.053 178.143 141.593 178.717 141.26C179.303 140.927 179.97 140.76 180.717 140.76V143.7H179.977C179.097 143.7 178.43 143.907 177.977 144.32C177.537 144.733 177.317 145.453 177.317 146.48V152H174.517V140.92H177.317V142.64ZM187.523 152.18C186.456 152.18 185.496 151.947 184.643 151.48C183.789 151 183.116 150.327 182.623 149.46C182.143 148.593 181.903 147.593 181.903 146.46C181.903 145.327 182.149 144.327 182.643 143.46C183.149 142.593 183.836 141.927 184.703 141.46C185.569 140.98 186.536 140.74 187.603 140.74C188.669 140.74 189.636 140.98 190.503 141.46C191.369 141.927 192.049 142.593 192.543 143.46C193.049 144.327 193.303 145.327 193.303 146.46C193.303 147.593 193.043 148.593 192.523 149.46C192.016 150.327 191.323 151 190.443 151.48C189.576 151.947 188.603 152.18 187.523 152.18ZM187.523 149.74C188.029 149.74 188.503 149.62 188.943 149.38C189.396 149.127 189.756 148.753 190.023 148.26C190.289 147.767 190.423 147.167 190.423 146.46C190.423 145.407 190.143 144.6 189.583 144.04C189.036 143.467 188.363 143.18 187.563 143.18C186.763 143.18 186.089 143.467 185.543 144.04C185.009 144.6 184.743 145.407 184.743 146.46C184.743 147.513 185.003 148.327 185.523 148.9C186.056 149.46 186.723 149.74 187.523 149.74ZM198.617 143.22V148.58C198.617 148.953 198.703 149.227 198.877 149.4C199.063 149.56 199.37 149.64 199.797 149.64H201.097V152H199.337C196.977 152 195.797 150.853 195.797 148.56V143.22H194.477V140.92H195.797V138.18H198.617V140.92H201.097V143.22H198.617ZM213.41 146.22C213.41 146.62 213.384 146.98 213.33 147.3H205.23C205.297 148.1 205.577 148.727 206.07 149.18C206.564 149.633 207.17 149.86 207.89 149.86C208.93 149.86 209.67 149.413 210.11 148.52H213.13C212.81 149.587 212.197 150.467 211.29 151.16C210.384 151.84 209.27 152.18 207.95 152.18C206.884 152.18 205.924 151.947 205.07 151.48C204.23 151 203.57 150.327 203.09 149.46C202.624 148.593 202.39 147.593 202.39 146.46C202.39 145.313 202.624 144.307 203.09 143.44C203.557 142.573 204.21 141.907 205.05 141.44C205.89 140.973 206.857 140.74 207.95 140.74C209.004 140.74 209.944 140.967 210.77 141.42C211.61 141.873 212.257 142.52 212.71 143.36C213.177 144.187 213.41 145.14 213.41 146.22ZM210.51 145.42C210.497 144.7 210.237 144.127 209.73 143.7C209.224 143.26 208.604 143.04 207.87 143.04C207.177 143.04 206.59 143.253 206.11 143.68C205.644 144.093 205.357 144.673 205.25 145.42H210.51ZM214.734 146.46C214.734 145.313 214.968 144.313 215.434 143.46C215.901 142.593 216.548 141.927 217.374 141.46C218.201 140.98 219.148 140.74 220.214 140.74C221.588 140.74 222.721 141.087 223.614 141.78C224.521 142.46 225.128 143.42 225.434 144.66H222.414C222.254 144.18 221.981 143.807 221.594 143.54C221.221 143.26 220.754 143.12 220.194 143.12C219.394 143.12 218.761 143.413 218.294 144C217.828 144.573 217.594 145.393 217.594 146.46C217.594 147.513 217.828 148.333 218.294 148.92C218.761 149.493 219.394 149.78 220.194 149.78C221.328 149.78 222.068 149.273 222.414 148.26H225.434C225.128 149.46 224.521 150.413 223.614 151.12C222.708 151.827 221.574 152.18 220.214 152.18C219.148 152.18 218.201 151.947 217.374 151.48C216.548 151 215.901 150.333 215.434 149.48C214.968 148.613 214.734 147.607 214.734 146.46ZM230.745 143.22V148.58C230.745 148.953 230.832 149.227 231.005 149.4C231.192 149.56 231.499 149.64 231.925 149.64H233.225V152H231.465C229.105 152 227.925 150.853 227.925 148.56V143.22H226.605V140.92H227.925V138.18H230.745V140.92H233.225V143.22H230.745ZM236.659 139.6C236.166 139.6 235.753 139.447 235.419 139.14C235.099 138.82 234.939 138.427 234.939 137.96C234.939 137.493 235.099 137.107 235.419 136.8C235.753 136.48 236.166 136.32 236.659 136.32C237.153 136.32 237.559 136.48 237.879 136.8C238.213 137.107 238.379 137.493 238.379 137.96C238.379 138.427 238.213 138.82 237.879 139.14C237.559 139.447 237.153 139.6 236.659 139.6ZM238.039 140.92V152H235.239V140.92H238.039ZM245.726 152.18C244.659 152.18 243.699 151.947 242.846 151.48C241.992 151 241.319 150.327 240.826 149.46C240.346 148.593 240.106 147.593 240.106 146.46C240.106 145.327 240.352 144.327 240.846 143.46C241.352 142.593 242.039 141.927 242.906 141.46C243.772 140.98 244.739 140.74 245.806 140.74C246.872 140.74 247.839 140.98 248.706 141.46C249.572 141.927 250.252 142.593 250.746 143.46C251.252 144.327 251.506 145.327 251.506 146.46C251.506 147.593 251.246 148.593 250.726 149.46C250.219 150.327 249.526 151 248.646 151.48C247.779 151.947 246.806 152.18 245.726 152.18ZM245.726 149.74C246.232 149.74 246.706 149.62 247.146 149.38C247.599 149.127 247.959 148.753 248.226 148.26C248.492 147.767 248.626 147.167 248.626 146.46C248.626 145.407 248.346 144.6 247.786 144.04C247.239 143.467 246.566 143.18 245.766 143.18C244.966 143.18 244.292 143.467 243.746 144.04C243.212 144.6 242.946 145.407 242.946 146.46C242.946 147.513 243.206 148.327 243.726 148.9C244.259 149.46 244.926 149.74 245.726 149.74ZM259.7 140.76C261.02 140.76 262.086 141.18 262.9 142.02C263.713 142.847 264.12 144.007 264.12 145.5V152H261.32V145.88C261.32 145 261.1 144.327 260.66 143.86C260.22 143.38 259.62 143.14 258.86 143.14C258.086 143.14 257.473 143.38 257.02 143.86C256.58 144.327 256.36 145 256.36 145.88V152H253.56V140.92H256.36V142.3C256.733 141.82 257.206 141.447 257.78 141.18C258.366 140.9 259.006 140.76 259.7 140.76Z" fill="#0C0200"/>
<path d="M81.874 175.091C81.276 175.091 80.7387 174.987 80.262 174.779C79.794 174.562 79.4257 174.268 79.157 173.895C78.8883 173.514 78.7497 173.076 78.741 172.582H80.002C80.0453 173.007 80.2187 173.366 80.522 173.661C80.834 173.947 81.2847 174.09 81.874 174.09C82.4373 174.09 82.8793 173.951 83.2 173.674C83.5293 173.388 83.694 173.024 83.694 172.582C83.694 172.235 83.5987 171.954 83.408 171.737C83.2173 171.52 82.979 171.356 82.693 171.243C82.407 171.13 82.0213 171.009 81.536 170.879C80.938 170.723 80.457 170.567 80.093 170.411C79.7377 170.255 79.43 170.012 79.17 169.683C78.9187 169.345 78.793 168.894 78.793 168.331C78.793 167.837 78.9187 167.399 79.17 167.018C79.4213 166.637 79.7723 166.342 80.223 166.134C80.6823 165.926 81.2067 165.822 81.796 165.822C82.6453 165.822 83.3387 166.034 83.876 166.459C84.422 166.884 84.7297 167.447 84.799 168.149H83.499C83.4557 167.802 83.2737 167.499 82.953 167.239C82.6323 166.97 82.2077 166.836 81.679 166.836C81.185 166.836 80.782 166.966 80.47 167.226C80.158 167.477 80.002 167.833 80.002 168.292C80.002 168.621 80.093 168.89 80.275 169.098C80.4657 169.306 80.6953 169.466 80.964 169.579C81.2413 169.683 81.627 169.804 82.121 169.943C82.719 170.108 83.2 170.272 83.564 170.437C83.928 170.593 84.24 170.84 84.5 171.178C84.76 171.507 84.89 171.958 84.89 172.53C84.89 172.972 84.773 173.388 84.539 173.778C84.305 174.168 83.9583 174.484 83.499 174.727C83.0397 174.97 82.498 175.091 81.874 175.091ZM95.1979 167.746C95.7525 167.746 96.2465 167.863 96.6799 168.097C97.1132 168.322 97.4555 168.665 97.7069 169.124C97.9582 169.583 98.0839 170.142 98.0839 170.801V175H96.9139V170.97C96.9139 170.259 96.7362 169.718 96.3809 169.345C96.0342 168.964 95.5619 168.773 94.9639 168.773C94.3485 168.773 93.8589 168.972 93.4949 169.371C93.1309 169.761 92.9489 170.329 92.9489 171.074V175H91.7789V170.97C91.7789 170.259 91.6012 169.718 91.2459 169.345C90.8992 168.964 90.4269 168.773 89.8289 168.773C89.2135 168.773 88.7239 168.972 88.3599 169.371C87.9959 169.761 87.8139 170.329 87.8139 171.074V175H86.6309V167.876H87.8139V168.903C88.0479 168.53 88.3599 168.244 88.7499 168.045C89.1485 167.846 89.5862 167.746 90.0629 167.746C90.6609 167.746 91.1895 167.88 91.6489 168.149C92.1082 168.418 92.4505 168.812 92.6759 169.332C92.8752 168.829 93.2045 168.439 93.6639 168.162C94.1232 167.885 94.6345 167.746 95.1979 167.746ZM99.5824 171.412C99.5824 170.684 99.7298 170.047 100.024 169.501C100.319 168.946 100.722 168.517 101.233 168.214C101.753 167.911 102.33 167.759 102.962 167.759C103.586 167.759 104.128 167.893 104.587 168.162C105.047 168.431 105.389 168.769 105.614 169.176V167.876H106.81V175H105.614V173.674C105.38 174.09 105.029 174.437 104.561 174.714C104.102 174.983 103.565 175.117 102.949 175.117C102.317 175.117 101.745 174.961 101.233 174.649C100.722 174.337 100.319 173.899 100.024 173.336C99.7298 172.773 99.5824 172.131 99.5824 171.412ZM105.614 171.425C105.614 170.888 105.506 170.42 105.289 170.021C105.073 169.622 104.778 169.319 104.405 169.111C104.041 168.894 103.638 168.786 103.196 168.786C102.754 168.786 102.351 168.89 101.987 169.098C101.623 169.306 101.333 169.609 101.116 170.008C100.9 170.407 100.791 170.875 100.791 171.412C100.791 171.958 100.9 172.435 101.116 172.842C101.333 173.241 101.623 173.548 101.987 173.765C102.351 173.973 102.754 174.077 103.196 174.077C103.638 174.077 104.041 173.973 104.405 173.765C104.778 173.548 105.073 173.241 105.289 172.842C105.506 172.435 105.614 171.962 105.614 171.425ZM109.993 169.033C110.201 168.626 110.495 168.309 110.877 168.084C111.267 167.859 111.739 167.746 112.294 167.746V168.968H111.982C110.656 168.968 109.993 169.687 109.993 171.126V175H108.81V167.876H109.993V169.033ZM115.102 168.851V173.05C115.102 173.397 115.176 173.644 115.323 173.791C115.471 173.93 115.726 173.999 116.09 173.999H116.961V175H115.895C115.237 175 114.743 174.848 114.413 174.545C114.084 174.242 113.919 173.743 113.919 173.05V168.851H112.996V167.876H113.919V166.082H115.102V167.876H116.961V168.851H115.102ZM121.418 171.412C121.418 170.684 121.566 170.047 121.86 169.501C122.155 168.946 122.558 168.517 123.069 168.214C123.589 167.911 124.17 167.759 124.811 167.759C125.366 167.759 125.882 167.889 126.358 168.149C126.835 168.4 127.199 168.734 127.45 169.15V165.38H128.646V175H127.45V173.661C127.216 174.086 126.87 174.437 126.41 174.714C125.951 174.983 125.414 175.117 124.798 175.117C124.166 175.117 123.589 174.961 123.069 174.649C122.558 174.337 122.155 173.899 121.86 173.336C121.566 172.773 121.418 172.131 121.418 171.412ZM127.45 171.425C127.45 170.888 127.342 170.42 127.125 170.021C126.909 169.622 126.614 169.319 126.241 169.111C125.877 168.894 125.474 168.786 125.032 168.786C124.59 168.786 124.187 168.89 123.823 169.098C123.459 169.306 123.169 169.609 122.952 170.008C122.736 170.407 122.627 170.875 122.627 171.412C122.627 171.958 122.736 172.435 122.952 172.842C123.169 173.241 123.459 173.548 123.823 173.765C124.187 173.973 124.59 174.077 125.032 174.077C125.474 174.077 125.877 173.973 126.241 173.765C126.614 173.548 126.909 173.241 127.125 172.842C127.342 172.435 127.45 171.962 127.45 171.425ZM137.146 171.165C137.146 171.39 137.133 171.629 137.107 171.88H131.413C131.456 172.582 131.694 173.132 132.128 173.531C132.57 173.921 133.103 174.116 133.727 174.116C134.238 174.116 134.663 173.999 135.001 173.765C135.347 173.522 135.59 173.202 135.729 172.803H137.003C136.812 173.488 136.431 174.047 135.859 174.48C135.287 174.905 134.576 175.117 133.727 175.117C133.051 175.117 132.444 174.965 131.907 174.662C131.378 174.359 130.962 173.93 130.659 173.375C130.355 172.812 130.204 172.162 130.204 171.425C130.204 170.688 130.351 170.043 130.646 169.488C130.94 168.933 131.352 168.509 131.881 168.214C132.418 167.911 133.033 167.759 133.727 167.759C134.403 167.759 135.001 167.906 135.521 168.201C136.041 168.496 136.439 168.903 136.717 169.423C137.003 169.934 137.146 170.515 137.146 171.165ZM135.924 170.918C135.924 170.467 135.824 170.082 135.625 169.761C135.425 169.432 135.152 169.185 134.806 169.02C134.468 168.847 134.091 168.76 133.675 168.76C133.077 168.76 132.565 168.951 132.141 169.332C131.725 169.713 131.486 170.242 131.426 170.918H135.924ZM141.606 168.851H140.111V175H138.928V168.851H138.005V167.876H138.928V167.369C138.928 166.572 139.132 165.991 139.539 165.627C139.955 165.254 140.618 165.068 141.528 165.068V166.056C141.008 166.056 140.64 166.16 140.423 166.368C140.215 166.567 140.111 166.901 140.111 167.369V167.876H141.606V168.851ZM149.485 171.165C149.485 171.39 149.472 171.629 149.446 171.88H143.752C143.796 172.582 144.034 173.132 144.467 173.531C144.909 173.921 145.442 174.116 146.066 174.116C146.578 174.116 147.002 173.999 147.34 173.765C147.687 173.522 147.93 173.202 148.068 172.803H149.342C149.152 173.488 148.77 174.047 148.198 174.48C147.626 174.905 146.916 175.117 146.066 175.117C145.39 175.117 144.784 174.965 144.246 174.662C143.718 174.359 143.302 173.93 142.998 173.375C142.695 172.812 142.543 172.162 142.543 171.425C142.543 170.688 142.691 170.043 142.985 169.488C143.28 168.933 143.692 168.509 144.22 168.214C144.758 167.911 145.373 167.759 146.066 167.759C146.742 167.759 147.34 167.906 147.86 168.201C148.38 168.496 148.779 168.903 149.056 169.423C149.342 169.934 149.485 170.515 149.485 171.165ZM148.263 170.918C148.263 170.467 148.164 170.082 147.964 169.761C147.765 169.432 147.492 169.185 147.145 169.02C146.807 168.847 146.43 168.76 146.014 168.76C145.416 168.76 144.905 168.951 144.48 169.332C144.064 169.713 143.826 170.242 143.765 170.918H148.263ZM154.518 167.746C155.385 167.746 156.087 168.01 156.624 168.539C157.161 169.059 157.43 169.813 157.43 170.801V175H156.26V170.97C156.26 170.259 156.082 169.718 155.727 169.345C155.372 168.964 154.886 168.773 154.271 168.773C153.647 168.773 153.149 168.968 152.776 169.358C152.412 169.748 152.23 170.316 152.23 171.061V175H151.047V167.876H152.23V168.89C152.464 168.526 152.78 168.244 153.179 168.045C153.586 167.846 154.033 167.746 154.518 167.746ZM161.884 175.117C161.338 175.117 160.849 175.026 160.415 174.844C159.982 174.653 159.64 174.393 159.388 174.064C159.137 173.726 158.998 173.34 158.972 172.907H160.194C160.229 173.262 160.394 173.553 160.688 173.778C160.992 174.003 161.386 174.116 161.871 174.116C162.322 174.116 162.677 174.016 162.937 173.817C163.197 173.618 163.327 173.366 163.327 173.063C163.327 172.751 163.189 172.521 162.911 172.374C162.634 172.218 162.205 172.066 161.624 171.919C161.096 171.78 160.662 171.642 160.324 171.503C159.995 171.356 159.709 171.143 159.466 170.866C159.232 170.58 159.115 170.207 159.115 169.748C159.115 169.384 159.224 169.05 159.44 168.747C159.657 168.444 159.965 168.205 160.363 168.032C160.762 167.85 161.217 167.759 161.728 167.759C162.517 167.759 163.154 167.958 163.639 168.357C164.125 168.756 164.385 169.302 164.419 169.995H163.236C163.21 169.622 163.059 169.323 162.781 169.098C162.513 168.873 162.149 168.76 161.689 168.76C161.265 168.76 160.927 168.851 160.675 169.033C160.424 169.215 160.298 169.453 160.298 169.748C160.298 169.982 160.372 170.177 160.519 170.333C160.675 170.48 160.866 170.602 161.091 170.697C161.325 170.784 161.646 170.883 162.053 170.996C162.565 171.135 162.981 171.273 163.301 171.412C163.622 171.542 163.895 171.741 164.12 172.01C164.354 172.279 164.476 172.63 164.484 173.063C164.484 173.453 164.376 173.804 164.159 174.116C163.943 174.428 163.635 174.675 163.236 174.857C162.846 175.03 162.396 175.117 161.884 175.117ZM172.654 171.165C172.654 171.39 172.641 171.629 172.615 171.88H166.921C166.965 172.582 167.203 173.132 167.636 173.531C168.078 173.921 168.611 174.116 169.235 174.116C169.747 174.116 170.171 173.999 170.509 173.765C170.856 173.522 171.099 173.202 171.237 172.803H172.511C172.321 173.488 171.939 174.047 171.367 174.48C170.795 174.905 170.085 175.117 169.235 175.117C168.559 175.117 167.953 174.965 167.415 174.662C166.887 174.359 166.471 173.93 166.167 173.375C165.864 172.812 165.712 172.162 165.712 171.425C165.712 170.688 165.86 170.043 166.154 169.488C166.449 168.933 166.861 168.509 167.389 168.214C167.927 167.911 168.542 167.759 169.235 167.759C169.911 167.759 170.509 167.906 171.029 168.201C171.549 168.496 171.948 168.903 172.225 169.423C172.511 169.934 172.654 170.515 172.654 171.165ZM171.432 170.918C171.432 170.467 171.333 170.082 171.133 169.761C170.934 169.432 170.661 169.185 170.314 169.02C169.976 168.847 169.599 168.76 169.183 168.76C168.585 168.76 168.074 168.951 167.649 169.332C167.233 169.713 166.995 170.242 166.934 170.918H171.432ZM177.24 171.412C177.24 170.684 177.387 170.047 177.682 169.501C177.976 168.946 178.379 168.517 178.891 168.214C179.411 167.911 179.987 167.759 180.62 167.759C181.244 167.759 181.785 167.893 182.245 168.162C182.704 168.431 183.046 168.769 183.272 169.176V167.876H184.468V175H183.272V173.674C183.038 174.09 182.687 174.437 182.219 174.714C181.759 174.983 181.222 175.117 180.607 175.117C179.974 175.117 179.402 174.961 178.891 174.649C178.379 174.337 177.976 173.899 177.682 173.336C177.387 172.773 177.24 172.131 177.24 171.412ZM183.272 171.425C183.272 170.888 183.163 170.42 182.947 170.021C182.73 169.622 182.435 169.319 182.063 169.111C181.699 168.894 181.296 168.786 180.854 168.786C180.412 168.786 180.009 168.89 179.645 169.098C179.281 169.306 178.99 169.609 178.774 170.008C178.557 170.407 178.449 170.875 178.449 171.412C178.449 171.958 178.557 172.435 178.774 172.842C178.99 173.241 179.281 173.548 179.645 173.765C180.009 173.973 180.412 174.077 180.854 174.077C181.296 174.077 181.699 173.973 182.063 173.765C182.435 173.548 182.73 173.241 182.947 172.842C183.163 172.435 183.272 171.962 183.272 171.425ZM189.405 167.759C190.02 167.759 190.557 167.893 191.017 168.162C191.485 168.431 191.831 168.769 192.057 169.176V167.876H193.253V175.156C193.253 175.806 193.114 176.382 192.837 176.885C192.559 177.396 192.161 177.795 191.641 178.081C191.129 178.367 190.531 178.51 189.847 178.51C188.911 178.51 188.131 178.289 187.507 177.847C186.883 177.405 186.514 176.803 186.402 176.04H187.572C187.702 176.473 187.97 176.82 188.378 177.08C188.785 177.349 189.275 177.483 189.847 177.483C190.497 177.483 191.025 177.279 191.433 176.872C191.849 176.465 192.057 175.893 192.057 175.156V173.661C191.823 174.077 191.476 174.424 191.017 174.701C190.557 174.978 190.02 175.117 189.405 175.117C188.772 175.117 188.196 174.961 187.676 174.649C187.164 174.337 186.761 173.899 186.467 173.336C186.172 172.773 186.025 172.131 186.025 171.412C186.025 170.684 186.172 170.047 186.467 169.501C186.761 168.946 187.164 168.517 187.676 168.214C188.196 167.911 188.772 167.759 189.405 167.759ZM192.057 171.425C192.057 170.888 191.948 170.42 191.732 170.021C191.515 169.622 191.22 169.319 190.848 169.111C190.484 168.894 190.081 168.786 189.639 168.786C189.197 168.786 188.794 168.89 188.43 169.098C188.066 169.306 187.775 169.609 187.559 170.008C187.342 170.407 187.234 170.875 187.234 171.412C187.234 171.958 187.342 172.435 187.559 172.842C187.775 173.241 188.066 173.548 188.43 173.765C188.794 173.973 189.197 174.077 189.639 174.077C190.081 174.077 190.484 173.973 190.848 173.765C191.22 173.548 191.515 173.241 191.732 172.842C191.948 172.435 192.057 171.962 192.057 171.425ZM194.81 171.412C194.81 170.684 194.957 170.047 195.252 169.501C195.547 168.946 195.95 168.517 196.461 168.214C196.981 167.911 197.557 167.759 198.19 167.759C198.814 167.759 199.356 167.893 199.815 168.162C200.274 168.431 200.617 168.769 200.842 169.176V167.876H202.038V175H200.842V173.674C200.608 174.09 200.257 174.437 199.789 174.714C199.33 174.983 198.792 175.117 198.177 175.117C197.544 175.117 196.972 174.961 196.461 174.649C195.95 174.337 195.547 173.899 195.252 173.336C194.957 172.773 194.81 172.131 194.81 171.412ZM200.842 171.425C200.842 170.888 200.734 170.42 200.517 170.021C200.3 169.622 200.006 169.319 199.633 169.111C199.269 168.894 198.866 168.786 198.424 168.786C197.982 168.786 197.579 168.89 197.215 169.098C196.851 169.306 196.561 169.609 196.344 170.008C196.127 170.407 196.019 170.875 196.019 171.412C196.019 171.958 196.127 172.435 196.344 172.842C196.561 173.241 196.851 173.548 197.215 173.765C197.579 173.973 197.982 174.077 198.424 174.077C198.866 174.077 199.269 173.973 199.633 173.765C200.006 173.548 200.3 173.241 200.517 172.842C200.734 172.435 200.842 171.962 200.842 171.425ZM204.648 166.719C204.423 166.719 204.232 166.641 204.076 166.485C203.92 166.329 203.842 166.138 203.842 165.913C203.842 165.688 203.92 165.497 204.076 165.341C204.232 165.185 204.423 165.107 204.648 165.107C204.865 165.107 205.047 165.185 205.194 165.341C205.35 165.497 205.428 165.688 205.428 165.913C205.428 166.138 205.35 166.329 205.194 166.485C205.047 166.641 204.865 166.719 204.648 166.719ZM205.22 167.876V175H204.037V167.876H205.22ZM210.707 167.746C211.574 167.746 212.276 168.01 212.813 168.539C213.351 169.059 213.619 169.813 213.619 170.801V175H212.449V170.97C212.449 170.259 212.272 169.718 211.916 169.345C211.561 168.964 211.076 168.773 210.46 168.773C209.836 168.773 209.338 168.968 208.965 169.358C208.601 169.748 208.419 170.316 208.419 171.061V175H207.236V167.876H208.419V168.89C208.653 168.526 208.97 168.244 209.368 168.045C209.776 167.846 210.222 167.746 210.707 167.746ZM218.074 175.117C217.528 175.117 217.038 175.026 216.605 174.844C216.171 174.653 215.829 174.393 215.578 174.064C215.326 173.726 215.188 173.34 215.162 172.907H216.384C216.418 173.262 216.583 173.553 216.878 173.778C217.181 174.003 217.575 174.116 218.061 174.116C218.511 174.116 218.867 174.016 219.127 173.817C219.387 173.618 219.517 173.366 219.517 173.063C219.517 172.751 219.378 172.521 219.101 172.374C218.823 172.218 218.394 172.066 217.814 171.919C217.285 171.78 216.852 171.642 216.514 171.503C216.184 171.356 215.898 171.143 215.656 170.866C215.422 170.58 215.305 170.207 215.305 169.748C215.305 169.384 215.413 169.05 215.63 168.747C215.846 168.444 216.154 168.205 216.553 168.032C216.951 167.85 217.406 167.759 217.918 167.759C218.706 167.759 219.343 167.958 219.829 168.357C220.314 168.756 220.574 169.302 220.609 169.995H219.426C219.4 169.622 219.248 169.323 218.971 169.098C218.702 168.873 218.338 168.76 217.879 168.76C217.454 168.76 217.116 168.851 216.865 169.033C216.613 169.215 216.488 169.453 216.488 169.748C216.488 169.982 216.561 170.177 216.709 170.333C216.865 170.48 217.055 170.602 217.281 170.697C217.515 170.784 217.835 170.883 218.243 170.996C218.754 171.135 219.17 171.273 219.491 171.412C219.811 171.542 220.084 171.741 220.31 172.01C220.544 172.279 220.665 172.63 220.674 173.063C220.674 173.453 220.565 173.804 220.349 174.116C220.132 174.428 219.824 174.675 219.426 174.857C219.036 175.03 218.585 175.117 218.074 175.117ZM223.787 168.851V173.05C223.787 173.397 223.86 173.644 224.008 173.791C224.155 173.93 224.411 173.999 224.775 173.999H225.646V175H224.58C223.921 175 223.427 174.848 223.098 174.545C222.768 174.242 222.604 173.743 222.604 173.05V168.851H221.681V167.876H222.604V166.082H223.787V167.876H225.646V168.851H223.787ZM236.863 167.876V175H235.68V173.947C235.455 174.311 235.138 174.597 234.731 174.805C234.332 175.004 233.89 175.104 233.405 175.104C232.85 175.104 232.352 174.991 231.91 174.766C231.468 174.532 231.117 174.185 230.857 173.726C230.606 173.267 230.48 172.708 230.48 172.049V167.876H231.65V171.893C231.65 172.595 231.828 173.137 232.183 173.518C232.538 173.891 233.024 174.077 233.639 174.077C234.272 174.077 234.77 173.882 235.134 173.492C235.498 173.102 235.68 172.534 235.68 171.789V167.876H236.863ZM242.331 167.746C243.198 167.746 243.9 168.01 244.437 168.539C244.975 169.059 245.243 169.813 245.243 170.801V175H244.073V170.97C244.073 170.259 243.896 169.718 243.54 169.345C243.185 168.964 242.7 168.773 242.084 168.773C241.46 168.773 240.962 168.968 240.589 169.358C240.225 169.748 240.043 170.316 240.043 171.061V175H238.86V167.876H240.043V168.89C240.277 168.526 240.594 168.244 240.992 168.045C241.4 167.846 241.846 167.746 242.331 167.746ZM256.666 167.876L254.443 175H253.221L251.505 169.345L249.789 175H248.567L246.331 167.876H247.54L249.178 173.856L250.946 167.876H252.155L253.884 173.869L255.496 167.876H256.666ZM257.398 171.412C257.398 170.684 257.545 170.047 257.84 169.501C258.135 168.946 258.538 168.517 259.049 168.214C259.569 167.911 260.145 167.759 260.778 167.759C261.402 167.759 261.944 167.893 262.403 168.162C262.862 168.431 263.205 168.769 263.43 169.176V167.876H264.626V175H263.43V173.674C263.196 174.09 262.845 174.437 262.377 174.714C261.918 174.983 261.38 175.117 260.765 175.117C260.132 175.117 259.56 174.961 259.049 174.649C258.538 174.337 258.135 173.899 257.84 173.336C257.545 172.773 257.398 172.131 257.398 171.412ZM263.43 171.425C263.43 170.888 263.322 170.42 263.105 170.021C262.888 169.622 262.594 169.319 262.221 169.111C261.857 168.894 261.454 168.786 261.012 168.786C260.57 168.786 260.167 168.89 259.803 169.098C259.439 169.306 259.149 169.609 258.932 170.008C258.715 170.407 258.607 170.875 258.607 171.412C258.607 171.958 258.715 172.435 258.932 172.842C259.149 173.241 259.439 173.548 259.803 173.765C260.167 173.973 260.57 174.077 261.012 174.077C261.454 174.077 261.857 173.973 262.221 173.765C262.594 173.548 262.888 173.241 263.105 172.842C263.322 172.435 263.43 171.962 263.43 171.425ZM270.096 167.746C270.963 167.746 271.665 168.01 272.202 168.539C272.739 169.059 273.008 169.813 273.008 170.801V175H271.838V170.97C271.838 170.259 271.66 169.718 271.305 169.345C270.95 168.964 270.464 168.773 269.849 168.773C269.225 168.773 268.727 168.968 268.354 169.358C267.99 169.748 267.808 170.316 267.808 171.061V175H266.625V167.876H267.808V168.89C268.042 168.526 268.358 168.244 268.757 168.045C269.164 167.846 269.611 167.746 270.096 167.746ZM276.383 168.851V173.05C276.383 173.397 276.457 173.644 276.604 173.791C276.752 173.93 277.007 173.999 277.371 173.999H278.242V175H277.176C276.518 175 276.024 174.848 275.694 174.545C275.365 174.242 275.2 173.743 275.2 173.05V168.851H274.277V167.876H275.2V166.082H276.383V167.876H278.242V168.851H276.383ZM286.176 171.165C286.176 171.39 286.163 171.629 286.137 171.88H280.443C280.486 172.582 280.724 173.132 281.158 173.531C281.6 173.921 282.133 174.116 282.757 174.116C283.268 174.116 283.693 173.999 284.031 173.765C284.377 173.522 284.62 173.202 284.759 172.803H286.033C285.842 173.488 285.461 174.047 284.889 174.48C284.317 174.905 283.606 175.117 282.757 175.117C282.081 175.117 281.474 174.965 280.937 174.662C280.408 174.359 279.992 173.93 279.689 173.375C279.385 172.812 279.234 172.162 279.234 171.425C279.234 170.688 279.381 170.043 279.676 169.488C279.97 168.933 280.382 168.509 280.911 168.214C281.448 167.911 282.063 167.759 282.757 167.759C283.433 167.759 284.031 167.906 284.551 168.201C285.071 168.496 285.469 168.903 285.747 169.423C286.033 169.934 286.176 170.515 286.176 171.165ZM284.954 170.918C284.954 170.467 284.854 170.082 284.655 169.761C284.455 169.432 284.182 169.185 283.836 169.02C283.498 168.847 283.121 168.76 282.705 168.76C282.107 168.76 281.595 168.951 281.171 169.332C280.755 169.713 280.516 170.242 280.456 170.918H284.954ZM287.295 171.412C287.295 170.684 287.443 170.047 287.737 169.501C288.032 168.946 288.435 168.517 288.946 168.214C289.466 167.911 290.047 167.759 290.688 167.759C291.243 167.759 291.759 167.889 292.235 168.149C292.712 168.4 293.076 168.734 293.327 169.15V165.38H294.523V175H293.327V173.661C293.093 174.086 292.747 174.437 292.287 174.714C291.828 174.983 291.291 175.117 290.675 175.117C290.043 175.117 289.466 174.961 288.946 174.649C288.435 174.337 288.032 173.899 287.737 173.336C287.443 172.773 287.295 172.131 287.295 171.412ZM293.327 171.425C293.327 170.888 293.219 170.42 293.002 170.021C292.786 169.622 292.491 169.319 292.118 169.111C291.754 168.894 291.351 168.786 290.909 168.786C290.467 168.786 290.064 168.89 289.7 169.098C289.336 169.306 289.046 169.609 288.829 170.008C288.613 170.407 288.504 170.875 288.504 171.412C288.504 171.958 288.613 172.435 288.829 172.842C289.046 173.241 289.336 173.548 289.7 173.765C290.064 173.973 290.467 174.077 290.909 174.077C291.351 174.077 291.754 173.973 292.118 173.765C292.491 173.548 292.786 173.241 293.002 172.842C293.219 172.435 293.327 171.962 293.327 171.425ZM299.546 171.412C299.546 170.684 299.694 170.047 299.988 169.501C300.283 168.946 300.686 168.517 301.197 168.214C301.717 167.911 302.294 167.759 302.926 167.759C303.55 167.759 304.092 167.893 304.551 168.162C305.011 168.431 305.353 168.769 305.578 169.176V167.876H306.774V175H305.578V173.674C305.344 174.09 304.993 174.437 304.525 174.714C304.066 174.983 303.529 175.117 302.913 175.117C302.281 175.117 301.709 174.961 301.197 174.649C300.686 174.337 300.283 173.899 299.988 173.336C299.694 172.773 299.546 172.131 299.546 171.412ZM305.578 171.425C305.578 170.888 305.47 170.42 305.253 170.021C305.037 169.622 304.742 169.319 304.369 169.111C304.005 168.894 303.602 168.786 303.16 168.786C302.718 168.786 302.315 168.89 301.951 169.098C301.587 169.306 301.297 169.609 301.08 170.008C300.864 170.407 300.755 170.875 300.755 171.412C300.755 171.958 300.864 172.435 301.08 172.842C301.297 173.241 301.587 173.548 301.951 173.765C302.315 173.973 302.718 174.077 303.16 174.077C303.602 174.077 304.005 173.973 304.369 173.765C304.742 173.548 305.037 173.241 305.253 172.842C305.47 172.435 305.578 171.962 305.578 171.425ZM308.331 171.425C308.331 170.688 308.479 170.047 308.773 169.501C309.068 168.946 309.475 168.517 309.995 168.214C310.524 167.911 311.126 167.759 311.802 167.759C312.678 167.759 313.397 167.971 313.96 168.396C314.532 168.821 314.909 169.41 315.091 170.164H313.817C313.696 169.731 313.458 169.388 313.102 169.137C312.756 168.886 312.322 168.76 311.802 168.76C311.126 168.76 310.58 168.994 310.164 169.462C309.748 169.921 309.54 170.576 309.54 171.425C309.54 172.283 309.748 172.946 310.164 173.414C310.58 173.882 311.126 174.116 311.802 174.116C312.322 174.116 312.756 173.995 313.102 173.752C313.449 173.509 313.687 173.163 313.817 172.712H315.091C314.901 173.44 314.519 174.025 313.947 174.467C313.375 174.9 312.66 175.117 311.802 175.117C311.126 175.117 310.524 174.965 309.995 174.662C309.475 174.359 309.068 173.93 308.773 173.375C308.479 172.82 308.331 172.17 308.331 171.425ZM316.228 171.425C316.228 170.688 316.375 170.047 316.67 169.501C316.965 168.946 317.372 168.517 317.892 168.214C318.421 167.911 319.023 167.759 319.699 167.759C320.574 167.759 321.294 167.971 321.857 168.396C322.429 168.821 322.806 169.41 322.988 170.164H321.714C321.593 169.731 321.354 169.388 320.999 169.137C320.652 168.886 320.219 168.76 319.699 168.76C319.023 168.76 318.477 168.994 318.061 169.462C317.645 169.921 317.437 170.576 317.437 171.425C317.437 172.283 317.645 172.946 318.061 173.414C318.477 173.882 319.023 174.116 319.699 174.116C320.219 174.116 320.652 173.995 320.999 173.752C321.346 173.509 321.584 173.163 321.714 172.712H322.988C322.797 173.44 322.416 174.025 321.844 174.467C321.272 174.9 320.557 175.117 319.699 175.117C319.023 175.117 318.421 174.965 317.892 174.662C317.372 174.359 316.965 173.93 316.67 173.375C316.375 172.82 316.228 172.17 316.228 171.425ZM331.066 171.165C331.066 171.39 331.053 171.629 331.027 171.88H325.333C325.377 172.582 325.615 173.132 326.048 173.531C326.49 173.921 327.023 174.116 327.647 174.116C328.159 174.116 328.583 173.999 328.921 173.765C329.268 173.522 329.511 173.202 329.649 172.803H330.923C330.733 173.488 330.351 174.047 329.779 174.48C329.207 174.905 328.497 175.117 327.647 175.117C326.971 175.117 326.365 174.965 325.827 174.662C325.299 174.359 324.883 173.93 324.579 173.375C324.276 172.812 324.124 172.162 324.124 171.425C324.124 170.688 324.272 170.043 324.566 169.488C324.861 168.933 325.273 168.509 325.801 168.214C326.339 167.911 326.954 167.759 327.647 167.759C328.323 167.759 328.921 167.906 329.441 168.201C329.961 168.496 330.36 168.903 330.637 169.423C330.923 169.934 331.066 170.515 331.066 171.165ZM329.844 170.918C329.844 170.467 329.745 170.082 329.545 169.761C329.346 169.432 329.073 169.185 328.726 169.02C328.388 168.847 328.011 168.76 327.595 168.76C326.997 168.76 326.486 168.951 326.061 169.332C325.645 169.713 325.407 170.242 325.346 170.918H329.844ZM335.15 175.117C334.604 175.117 334.114 175.026 333.681 174.844C333.248 174.653 332.905 174.393 332.654 174.064C332.403 173.726 332.264 173.34 332.238 172.907H333.46C333.495 173.262 333.659 173.553 333.954 173.778C334.257 174.003 334.652 174.116 335.137 174.116C335.588 174.116 335.943 174.016 336.203 173.817C336.463 173.618 336.593 173.366 336.593 173.063C336.593 172.751 336.454 172.521 336.177 172.374C335.9 172.218 335.471 172.066 334.89 171.919C334.361 171.78 333.928 171.642 333.59 171.503C333.261 171.356 332.975 171.143 332.732 170.866C332.498 170.58 332.381 170.207 332.381 169.748C332.381 169.384 332.489 169.05 332.706 168.747C332.923 168.444 333.23 168.205 333.629 168.032C334.028 167.85 334.483 167.759 334.994 167.759C335.783 167.759 336.42 167.958 336.905 168.357C337.39 168.756 337.65 169.302 337.685 169.995H336.502C336.476 169.622 336.324 169.323 336.047 169.098C335.778 168.873 335.414 168.76 334.955 168.76C334.53 168.76 334.192 168.851 333.941 169.033C333.69 169.215 333.564 169.453 333.564 169.748C333.564 169.982 333.638 170.177 333.785 170.333C333.941 170.48 334.132 170.602 334.357 170.697C334.591 170.784 334.912 170.883 335.319 170.996C335.83 171.135 336.246 171.273 336.567 171.412C336.888 171.542 337.161 171.741 337.386 172.01C337.62 172.279 337.741 172.63 337.75 173.063C337.75 173.453 337.642 173.804 337.425 174.116C337.208 174.428 336.901 174.675 336.502 174.857C336.112 175.03 335.661 175.117 335.15 175.117ZM341.942 175.117C341.396 175.117 340.906 175.026 340.473 174.844C340.04 174.653 339.697 174.393 339.446 174.064C339.195 173.726 339.056 173.34 339.03 172.907H340.252C340.287 173.262 340.451 173.553 340.746 173.778C341.049 174.003 341.444 174.116 341.929 174.116C342.38 174.116 342.735 174.016 342.995 173.817C343.255 173.618 343.385 173.366 343.385 173.063C343.385 172.751 343.246 172.521 342.969 172.374C342.692 172.218 342.263 172.066 341.682 171.919C341.153 171.78 340.72 171.642 340.382 171.503C340.053 171.356 339.767 171.143 339.524 170.866C339.29 170.58 339.173 170.207 339.173 169.748C339.173 169.384 339.281 169.05 339.498 168.747C339.715 168.444 340.022 168.205 340.421 168.032C340.82 167.85 341.275 167.759 341.786 167.759C342.575 167.759 343.212 167.958 343.697 168.357C344.182 168.756 344.442 169.302 344.477 169.995H343.294C343.268 169.622 343.116 169.323 342.839 169.098C342.57 168.873 342.206 168.76 341.747 168.76C341.322 168.76 340.984 168.851 340.733 169.033C340.482 169.215 340.356 169.453 340.356 169.748C340.356 169.982 340.43 170.177 340.577 170.333C340.733 170.48 340.924 170.602 341.149 170.697C341.383 170.784 341.704 170.883 342.111 170.996C342.622 171.135 343.038 171.273 343.359 171.412C343.68 171.542 343.953 171.741 344.178 172.01C344.412 172.279 344.533 172.63 344.542 173.063C344.542 173.453 344.434 173.804 344.217 174.116C344 174.428 343.693 174.675 343.294 174.857C342.904 175.03 342.453 175.117 341.942 175.117ZM349.236 171.412C349.236 170.684 349.383 170.047 349.678 169.501C349.972 168.946 350.375 168.517 350.887 168.214C351.407 167.911 351.983 167.759 352.616 167.759C353.24 167.759 353.781 167.893 354.241 168.162C354.7 168.431 355.042 168.769 355.268 169.176V167.876H356.464V175H355.268V173.674C355.034 174.09 354.683 174.437 354.215 174.714C353.755 174.983 353.218 175.117 352.603 175.117C351.97 175.117 351.398 174.961 350.887 174.649C350.375 174.337 349.972 173.899 349.678 173.336C349.383 172.773 349.236 172.131 349.236 171.412ZM355.268 171.425C355.268 170.888 355.159 170.42 354.943 170.021C354.726 169.622 354.431 169.319 354.059 169.111C353.695 168.894 353.292 168.786 352.85 168.786C352.408 168.786 352.005 168.89 351.641 169.098C351.277 169.306 350.986 169.609 350.77 170.008C350.553 170.407 350.445 170.875 350.445 171.412C350.445 171.958 350.553 172.435 350.77 172.842C350.986 173.241 351.277 173.548 351.641 173.765C352.005 173.973 352.408 174.077 352.85 174.077C353.292 174.077 353.695 173.973 354.059 173.765C354.431 173.548 354.726 173.241 354.943 172.842C355.159 172.435 355.268 171.962 355.268 171.425ZM361.934 167.746C362.801 167.746 363.503 168.01 364.04 168.539C364.577 169.059 364.846 169.813 364.846 170.801V175H363.676V170.97C363.676 170.259 363.498 169.718 363.143 169.345C362.788 168.964 362.302 168.773 361.687 168.773C361.063 168.773 360.565 168.968 360.192 169.358C359.828 169.748 359.646 170.316 359.646 171.061V175H358.463V167.876H359.646V168.89C359.88 168.526 360.196 168.244 360.595 168.045C361.002 167.846 361.449 167.746 361.934 167.746ZM366.336 171.412C366.336 170.684 366.484 170.047 366.778 169.501C367.073 168.946 367.476 168.517 367.987 168.214C368.507 167.911 369.088 167.759 369.729 167.759C370.284 167.759 370.8 167.889 371.276 168.149C371.753 168.4 372.117 168.734 372.368 169.15V165.38H373.564V175H372.368V173.661C372.134 174.086 371.788 174.437 371.328 174.714C370.869 174.983 370.332 175.117 369.716 175.117C369.084 175.117 368.507 174.961 367.987 174.649C367.476 174.337 367.073 173.899 366.778 173.336C366.484 172.773 366.336 172.131 366.336 171.412ZM372.368 171.425C372.368 170.888 372.26 170.42 372.043 170.021C371.827 169.622 371.532 169.319 371.159 169.111C370.795 168.894 370.392 168.786 369.95 168.786C369.508 168.786 369.105 168.89 368.741 169.098C368.377 169.306 368.087 169.609 367.87 170.008C367.654 170.407 367.545 170.875 367.545 171.412C367.545 171.958 367.654 172.435 367.87 172.842C368.087 173.241 368.377 173.548 368.741 173.765C369.105 173.973 369.508 174.077 369.95 174.077C370.392 174.077 370.795 173.973 371.159 173.765C371.532 173.548 371.827 173.241 372.043 172.842C372.26 172.435 372.368 171.962 372.368 171.425ZM80.184 186.189C80.418 185.782 80.7647 185.444 81.224 185.175C81.692 184.898 82.2337 184.759 82.849 184.759C83.4817 184.759 84.0537 184.911 84.565 185.214C85.085 185.517 85.4923 185.946 85.787 186.501C86.0817 187.047 86.229 187.684 86.229 188.412C86.229 189.131 86.0817 189.773 85.787 190.336C85.4923 190.899 85.085 191.337 84.565 191.649C84.0537 191.961 83.4817 192.117 82.849 192.117C82.2423 192.117 81.705 191.983 81.237 191.714C80.7777 191.437 80.4267 191.094 80.184 190.687V195.38H79.001V184.876H80.184V186.189ZM85.02 188.412C85.02 187.875 84.9117 187.407 84.695 187.008C84.4783 186.609 84.1837 186.306 83.811 186.098C83.447 185.89 83.044 185.786 82.602 185.786C82.1687 185.786 81.7657 185.894 81.393 186.111C81.029 186.319 80.7343 186.627 80.509 187.034C80.2923 187.433 80.184 187.896 80.184 188.425C80.184 188.962 80.2923 189.435 80.509 189.842C80.7343 190.241 81.029 190.548 81.393 190.765C81.7657 190.973 82.1687 191.077 82.602 191.077C83.044 191.077 83.447 190.973 83.811 190.765C84.1837 190.548 84.4783 190.241 84.695 189.842C84.9117 189.435 85.02 188.958 85.02 188.412ZM88.9692 186.033C89.1772 185.626 89.4718 185.309 89.8532 185.084C90.2432 184.859 90.7155 184.746 91.2702 184.746V185.968H90.9582C89.6322 185.968 88.9692 186.687 88.9692 188.126V192H87.7862V184.876H88.9692V186.033ZM95.7428 192.117C95.0754 192.117 94.4688 191.965 93.9228 191.662C93.3854 191.359 92.9608 190.93 92.6488 190.375C92.3454 189.812 92.1938 189.162 92.1938 188.425C92.1938 187.697 92.3498 187.056 92.6618 186.501C92.9824 185.938 93.4158 185.509 93.9618 185.214C94.5078 184.911 95.1188 184.759 95.7948 184.759C96.4708 184.759 97.0818 184.911 97.6278 185.214C98.1738 185.509 98.6028 185.933 98.9148 186.488C99.2354 187.043 99.3958 187.688 99.3958 188.425C99.3958 189.162 99.2311 189.812 98.9018 190.375C98.5811 190.93 98.1434 191.359 97.5888 191.662C97.0341 191.965 96.4188 192.117 95.7428 192.117ZM95.7428 191.077C96.1674 191.077 96.5661 190.977 96.9388 190.778C97.3114 190.579 97.6104 190.28 97.8358 189.881C98.0698 189.482 98.1868 188.997 98.1868 188.425C98.1868 187.853 98.0741 187.368 97.8488 186.969C97.6234 186.57 97.3288 186.276 96.9648 186.085C96.6008 185.886 96.2064 185.786 95.7818 185.786C95.3484 185.786 94.9498 185.886 94.5858 186.085C94.2304 186.276 93.9444 186.57 93.7278 186.969C93.5111 187.368 93.4028 187.853 93.4028 188.425C93.4028 189.006 93.5068 189.495 93.7148 189.894C93.9314 190.293 94.2174 190.592 94.5728 190.791C94.9281 190.982 95.3181 191.077 95.7428 191.077ZM102.394 185.851V190.05C102.394 190.397 102.468 190.644 102.615 190.791C102.763 190.93 103.018 190.999 103.382 190.999H104.253V192H103.187C102.529 192 102.035 191.848 101.705 191.545C101.376 191.242 101.211 190.743 101.211 190.05V185.851H100.288V184.876H101.211V183.082H102.394V184.876H104.253V185.851H102.394ZM112.187 188.165C112.187 188.39 112.174 188.629 112.148 188.88H106.454C106.497 189.582 106.735 190.132 107.169 190.531C107.611 190.921 108.144 191.116 108.768 191.116C109.279 191.116 109.704 190.999 110.042 190.765C110.388 190.522 110.631 190.202 110.77 189.803H112.044C111.853 190.488 111.472 191.047 110.9 191.48C110.328 191.905 109.617 192.117 108.768 192.117C108.092 192.117 107.485 191.965 106.948 191.662C106.419 191.359 106.003 190.93 105.7 190.375C105.396 189.812 105.245 189.162 105.245 188.425C105.245 187.688 105.392 187.043 105.687 186.488C105.981 185.933 106.393 185.509 106.922 185.214C107.459 184.911 108.074 184.759 108.768 184.759C109.444 184.759 110.042 184.906 110.562 185.201C111.082 185.496 111.48 185.903 111.758 186.423C112.044 186.934 112.187 187.515 112.187 188.165ZM110.965 187.918C110.965 187.467 110.865 187.082 110.666 186.761C110.466 186.432 110.193 186.185 109.847 186.02C109.509 185.847 109.132 185.76 108.716 185.76C108.118 185.76 107.606 185.951 107.182 186.332C106.766 186.713 106.527 187.242 106.467 187.918H110.965ZM113.306 188.425C113.306 187.688 113.453 187.047 113.748 186.501C114.043 185.946 114.45 185.517 114.97 185.214C115.499 184.911 116.101 184.759 116.777 184.759C117.652 184.759 118.372 184.971 118.935 185.396C119.507 185.821 119.884 186.41 120.066 187.164H118.792C118.671 186.731 118.432 186.388 118.077 186.137C117.73 185.886 117.297 185.76 116.777 185.76C116.101 185.76 115.555 185.994 115.139 186.462C114.723 186.921 114.515 187.576 114.515 188.425C114.515 189.283 114.723 189.946 115.139 190.414C115.555 190.882 116.101 191.116 116.777 191.116C117.297 191.116 117.73 190.995 118.077 190.752C118.424 190.509 118.662 190.163 118.792 189.712H120.066C119.875 190.44 119.494 191.025 118.922 191.467C118.35 191.9 117.635 192.117 116.777 192.117C116.101 192.117 115.499 191.965 114.97 191.662C114.45 191.359 114.043 190.93 113.748 190.375C113.453 189.82 113.306 189.17 113.306 188.425ZM123.088 185.851V190.05C123.088 190.397 123.161 190.644 123.309 190.791C123.456 190.93 123.712 190.999 124.076 190.999H124.947V192H123.881C123.222 192 122.728 191.848 122.399 191.545C122.069 191.242 121.905 190.743 121.905 190.05V185.851H120.982V184.876H121.905V183.082H123.088V184.876H124.947V185.851H123.088ZM135.982 184.876L131.692 195.354H130.47L131.874 191.922L129.001 184.876H130.314L132.55 190.648L134.76 184.876H135.982ZM140.278 192.117C139.611 192.117 139.004 191.965 138.458 191.662C137.921 191.359 137.496 190.93 137.184 190.375C136.881 189.812 136.729 189.162 136.729 188.425C136.729 187.697 136.885 187.056 137.197 186.501C137.518 185.938 137.951 185.509 138.497 185.214C139.043 184.911 139.654 184.759 140.33 184.759C141.006 184.759 141.617 184.911 142.163 185.214C142.709 185.509 143.138 185.933 143.45 186.488C143.771 187.043 143.931 187.688 143.931 188.425C143.931 189.162 143.766 189.812 143.437 190.375C143.116 190.93 142.679 191.359 142.124 191.662C141.569 191.965 140.954 192.117 140.278 192.117ZM140.278 191.077C140.703 191.077 141.101 190.977 141.474 190.778C141.847 190.579 142.146 190.28 142.371 189.881C142.605 189.482 142.722 188.997 142.722 188.425C142.722 187.853 142.609 187.368 142.384 186.969C142.159 186.57 141.864 186.276 141.5 186.085C141.136 185.886 140.742 185.786 140.317 185.786C139.884 185.786 139.485 185.886 139.121 186.085C138.766 186.276 138.48 186.57 138.263 186.969C138.046 187.368 137.938 187.853 137.938 188.425C137.938 189.006 138.042 189.495 138.25 189.894C138.467 190.293 138.753 190.592 139.108 190.791C139.463 190.982 139.853 191.077 140.278 191.077ZM151.804 184.876V192H150.621V190.947C150.396 191.311 150.08 191.597 149.672 191.805C149.274 192.004 148.832 192.104 148.346 192.104C147.792 192.104 147.293 191.991 146.851 191.766C146.409 191.532 146.058 191.185 145.798 190.726C145.547 190.267 145.421 189.708 145.421 189.049V184.876H146.591V188.893C146.591 189.595 146.769 190.137 147.124 190.518C147.48 190.891 147.965 191.077 148.58 191.077C149.213 191.077 149.711 190.882 150.075 190.492C150.439 190.102 150.621 189.534 150.621 188.789V184.876H151.804ZM154.985 186.033C155.193 185.626 155.487 185.309 155.869 185.084C156.259 184.859 156.731 184.746 157.286 184.746V185.968H156.974C155.648 185.968 154.985 186.687 154.985 188.126V192H153.802V184.876H154.985V186.033ZM171.607 184.876L169.384 192H168.162L166.446 186.345L164.73 192H163.508L161.272 184.876H162.481L164.119 190.856L165.887 184.876H167.096L168.825 190.869L170.437 184.876H171.607ZM179.281 188.165C179.281 188.39 179.268 188.629 179.242 188.88H173.548C173.592 189.582 173.83 190.132 174.263 190.531C174.705 190.921 175.238 191.116 175.862 191.116C176.374 191.116 176.798 190.999 177.136 190.765C177.483 190.522 177.726 190.202 177.864 189.803H179.138C178.948 190.488 178.566 191.047 177.994 191.48C177.422 191.905 176.712 192.117 175.862 192.117C175.186 192.117 174.58 191.965 174.042 191.662C173.514 191.359 173.098 190.93 172.794 190.375C172.491 189.812 172.339 189.162 172.339 188.425C172.339 187.688 172.487 187.043 172.781 186.488C173.076 185.933 173.488 185.509 174.016 185.214C174.554 184.911 175.169 184.759 175.862 184.759C176.538 184.759 177.136 184.906 177.656 185.201C178.176 185.496 178.575 185.903 178.852 186.423C179.138 186.934 179.281 187.515 179.281 188.165ZM178.059 187.918C178.059 187.467 177.96 187.082 177.76 186.761C177.561 186.432 177.288 186.185 176.941 186.02C176.603 185.847 176.226 185.76 175.81 185.76C175.212 185.76 174.701 185.951 174.276 186.332C173.86 186.713 173.622 187.242 173.561 187.918H178.059ZM182.026 186.202C182.268 185.777 182.624 185.431 183.092 185.162C183.56 184.893 184.093 184.759 184.691 184.759C185.332 184.759 185.908 184.911 186.42 185.214C186.931 185.517 187.334 185.946 187.629 186.501C187.923 187.047 188.071 187.684 188.071 188.412C188.071 189.131 187.923 189.773 187.629 190.336C187.334 190.899 186.927 191.337 186.407 191.649C185.895 191.961 185.323 192.117 184.691 192.117C184.075 192.117 183.534 191.983 183.066 191.714C182.606 191.445 182.26 191.103 182.026 190.687V192H180.843V182.38H182.026V186.202ZM186.862 188.412C186.862 187.875 186.753 187.407 186.537 187.008C186.32 186.609 186.025 186.306 185.653 186.098C185.289 185.89 184.886 185.786 184.444 185.786C184.01 185.786 183.607 185.894 183.235 186.111C182.871 186.319 182.576 186.627 182.351 187.034C182.134 187.433 182.026 187.896 182.026 188.425C182.026 188.962 182.134 189.435 182.351 189.842C182.576 190.241 182.871 190.548 183.235 190.765C183.607 190.973 184.01 191.077 184.444 191.077C184.886 191.077 185.289 190.973 185.653 190.765C186.025 190.548 186.32 190.241 186.537 189.842C186.753 189.435 186.862 188.958 186.862 188.412ZM192.15 192.117C191.604 192.117 191.114 192.026 190.681 191.844C190.248 191.653 189.905 191.393 189.654 191.064C189.403 190.726 189.264 190.34 189.238 189.907H190.46C190.495 190.262 190.659 190.553 190.954 190.778C191.257 191.003 191.652 191.116 192.137 191.116C192.588 191.116 192.943 191.016 193.203 190.817C193.463 190.618 193.593 190.366 193.593 190.063C193.593 189.751 193.454 189.521 193.177 189.374C192.9 189.218 192.471 189.066 191.89 188.919C191.361 188.78 190.928 188.642 190.59 188.503C190.261 188.356 189.975 188.143 189.732 187.866C189.498 187.58 189.381 187.207 189.381 186.748C189.381 186.384 189.489 186.05 189.706 185.747C189.923 185.444 190.23 185.205 190.629 185.032C191.028 184.85 191.483 184.759 191.994 184.759C192.783 184.759 193.42 184.958 193.905 185.357C194.39 185.756 194.65 186.302 194.685 186.995H193.502C193.476 186.622 193.324 186.323 193.047 186.098C192.778 185.873 192.414 185.76 191.955 185.76C191.53 185.76 191.192 185.851 190.941 186.033C190.69 186.215 190.564 186.453 190.564 186.748C190.564 186.982 190.638 187.177 190.785 187.333C190.941 187.48 191.132 187.602 191.357 187.697C191.591 187.784 191.912 187.883 192.319 187.996C192.83 188.135 193.246 188.273 193.567 188.412C193.888 188.542 194.161 188.741 194.386 189.01C194.62 189.279 194.741 189.63 194.75 190.063C194.75 190.453 194.642 190.804 194.425 191.116C194.208 191.428 193.901 191.675 193.502 191.857C193.112 192.03 192.661 192.117 192.15 192.117ZM197.031 183.719C196.806 183.719 196.615 183.641 196.459 183.485C196.303 183.329 196.225 183.138 196.225 182.913C196.225 182.688 196.303 182.497 196.459 182.341C196.615 182.185 196.806 182.107 197.031 182.107C197.248 182.107 197.43 182.185 197.577 182.341C197.733 182.497 197.811 182.688 197.811 182.913C197.811 183.138 197.733 183.329 197.577 183.485C197.43 183.641 197.248 183.719 197.031 183.719ZM197.603 184.876V192H196.42V184.876H197.603ZM201.062 185.851V190.05C201.062 190.397 201.136 190.644 201.283 190.791C201.43 190.93 201.686 190.999 202.05 190.999H202.921V192H201.855C201.196 192 200.702 191.848 200.373 191.545C200.044 191.242 199.879 190.743 199.879 190.05V185.851H198.956V184.876H199.879V183.082H201.062V184.876H202.921V185.851H201.062ZM210.855 188.165C210.855 188.39 210.842 188.629 210.816 188.88H205.122C205.165 189.582 205.403 190.132 205.837 190.531C206.279 190.921 206.812 191.116 207.436 191.116C207.947 191.116 208.372 190.999 208.71 190.765C209.056 190.522 209.299 190.202 209.438 189.803H210.712C210.521 190.488 210.14 191.047 209.568 191.48C208.996 191.905 208.285 192.117 207.436 192.117C206.76 192.117 206.153 191.965 205.616 191.662C205.087 191.359 204.671 190.93 204.368 190.375C204.064 189.812 203.913 189.162 203.913 188.425C203.913 187.688 204.06 187.043 204.355 186.488C204.649 185.933 205.061 185.509 205.59 185.214C206.127 184.911 206.742 184.759 207.436 184.759C208.112 184.759 208.71 184.906 209.23 185.201C209.75 185.496 210.148 185.903 210.426 186.423C210.712 186.934 210.855 187.515 210.855 188.165ZM209.633 187.918C209.633 187.467 209.533 187.082 209.334 186.761C209.134 186.432 208.861 186.185 208.515 186.02C208.177 185.847 207.8 185.76 207.384 185.76C206.786 185.76 206.274 185.951 205.85 186.332C205.434 186.713 205.195 187.242 205.135 187.918H209.633ZM212.793 192.078C212.568 192.078 212.377 192 212.221 191.844C212.065 191.688 211.987 191.497 211.987 191.272C211.987 191.047 212.065 190.856 212.221 190.7C212.377 190.544 212.568 190.466 212.793 190.466C213.01 190.466 213.192 190.544 213.339 190.7C213.495 190.856 213.573 191.047 213.573 191.272C213.573 191.497 213.495 191.688 213.339 191.844C213.192 192 213.01 192.078 212.793 192.078Z" fill="#0C0200"/>
<rect x="438" y="147.995" width="49" height="30.9474" rx="15.4737" fill="#FF4B1E"/>
<circle cx="471.526" cy="163.469" r="12.8947" fill="white"/>
<rect x="443" y="96" width="41" height="9" rx="4.5" fill="#0C0200" fill-opacity="0.1"/>
<rect x="58.5248" y="240.525" width="218.95" height="161.95" rx="9.97128" fill="#FEFEFE"/>
<rect x="58.5248" y="240.525" width="218.95" height="161.95" rx="9.97128" stroke="#FF4B1F" stroke-width="1.04961"/>
<rect x="58.5248" y="240.525" width="218.95" height="161.95" rx="9.97128" stroke="#EAE3E1" stroke-width="1.04961"/>
<path d="M90.45 269.53V280H88.35V273.19L85.545 280H83.955L81.135 273.19V280H79.035V269.53H81.42L84.75 277.315L88.08 269.53H90.45ZM91.9862 275.815C91.9862 274.975 92.1512 274.23 92.4812 273.58C92.8212 272.93 93.2762 272.43 93.8462 272.08C94.4262 271.73 95.0712 271.555 95.7812 271.555C96.4012 271.555 96.9412 271.68 97.4012 271.93C97.8712 272.18 98.2462 272.495 98.5262 272.875V271.69H100.641V280H98.5262V278.785C98.2562 279.175 97.8812 279.5 97.4012 279.76C96.9312 280.01 96.3862 280.135 95.7662 280.135C95.0662 280.135 94.4262 279.955 93.8462 279.595C93.2762 279.235 92.8212 278.73 92.4812 278.08C92.1512 277.42 91.9862 276.665 91.9862 275.815ZM98.5262 275.845C98.5262 275.335 98.4262 274.9 98.2262 274.54C98.0262 274.17 97.7562 273.89 97.4162 273.7C97.0762 273.5 96.7112 273.4 96.3212 273.4C95.9312 273.4 95.5712 273.495 95.2412 273.685C94.9112 273.875 94.6412 274.155 94.4312 274.525C94.2312 274.885 94.1312 275.315 94.1312 275.815C94.1312 276.315 94.2312 276.755 94.4312 277.135C94.6412 277.505 94.9112 277.79 95.2412 277.99C95.5812 278.19 95.9412 278.29 96.3212 278.29C96.7112 278.29 97.0762 278.195 97.4162 278.005C97.7562 277.805 98.0262 277.525 98.2262 277.165C98.4262 276.795 98.5262 276.355 98.5262 275.845ZM104.792 268.9V280H102.692V268.9H104.792ZM118.387 271.69L115.957 280H113.692L112.177 274.195L110.662 280H108.382L105.937 271.69H108.067L109.537 278.02L111.127 271.69H113.347L114.907 278.005L116.377 271.69H118.387ZM118.983 275.815C118.983 274.975 119.148 274.23 119.478 273.58C119.818 272.93 120.273 272.43 120.843 272.08C121.423 271.73 122.068 271.555 122.778 271.555C123.398 271.555 123.938 271.68 124.398 271.93C124.868 272.18 125.243 272.495 125.523 272.875V271.69H127.638V280H125.523V278.785C125.253 279.175 124.878 279.5 124.398 279.76C123.928 280.01 123.383 280.135 122.763 280.135C122.063 280.135 121.423 279.955 120.843 279.595C120.273 279.235 119.818 278.73 119.478 278.08C119.148 277.42 118.983 276.665 118.983 275.815ZM125.523 275.845C125.523 275.335 125.423 274.9 125.223 274.54C125.023 274.17 124.753 273.89 124.413 273.7C124.073 273.5 123.708 273.4 123.318 273.4C122.928 273.4 122.568 273.495 122.238 273.685C121.908 273.875 121.638 274.155 121.428 274.525C121.228 274.885 121.128 275.315 121.128 275.815C121.128 276.315 121.228 276.755 121.428 277.135C121.638 277.505 121.908 277.79 122.238 277.99C122.578 278.19 122.938 278.29 123.318 278.29C123.708 278.29 124.073 278.195 124.413 278.005C124.753 277.805 125.023 277.525 125.223 277.165C125.423 276.795 125.523 276.355 125.523 275.845ZM131.789 272.98C132.059 272.54 132.409 272.195 132.839 271.945C133.279 271.695 133.779 271.57 134.339 271.57V273.775H133.784C133.124 273.775 132.624 273.93 132.284 274.24C131.954 274.55 131.789 275.09 131.789 275.86V280H129.689V271.69H131.789V272.98ZM143.479 275.665C143.479 275.965 143.459 276.235 143.419 276.475H137.344C137.394 277.075 137.604 277.545 137.974 277.885C138.344 278.225 138.799 278.395 139.339 278.395C140.119 278.395 140.674 278.06 141.004 277.39H143.269C143.029 278.19 142.569 278.85 141.889 279.37C141.209 279.88 140.374 280.135 139.384 280.135C138.584 280.135 137.864 279.96 137.224 279.61C136.594 279.25 136.099 278.745 135.739 278.095C135.389 277.445 135.214 276.695 135.214 275.845C135.214 274.985 135.389 274.23 135.739 273.58C136.089 272.93 136.579 272.43 137.209 272.08C137.839 271.73 138.564 271.555 139.384 271.555C140.174 271.555 140.879 271.725 141.499 272.065C142.129 272.405 142.614 272.89 142.954 273.52C143.304 274.14 143.479 274.855 143.479 275.665ZM141.304 275.065C141.294 274.525 141.099 274.095 140.719 273.775C140.339 273.445 139.874 273.28 139.324 273.28C138.804 273.28 138.364 273.44 138.004 273.76C137.654 274.07 137.439 274.505 137.359 275.065H141.304ZM154.526 274.63C155.116 274.74 155.601 275.035 155.981 275.515C156.361 275.995 156.551 276.545 156.551 277.165C156.551 277.725 156.411 278.22 156.131 278.65C155.861 279.07 155.466 279.4 154.946 279.64C154.426 279.88 153.811 280 153.101 280H148.586V269.53H152.906C153.616 269.53 154.226 269.645 154.736 269.875C155.256 270.105 155.646 270.425 155.906 270.835C156.176 271.245 156.311 271.71 156.311 272.23C156.311 272.84 156.146 273.35 155.816 273.76C155.496 274.17 155.066 274.46 154.526 274.63ZM150.686 273.85H152.606C153.106 273.85 153.491 273.74 153.761 273.52C154.031 273.29 154.166 272.965 154.166 272.545C154.166 272.125 154.031 271.8 153.761 271.57C153.491 271.34 153.106 271.225 152.606 271.225H150.686V273.85ZM152.801 278.29C153.311 278.29 153.706 278.17 153.986 277.93C154.276 277.69 154.421 277.35 154.421 276.91C154.421 276.46 154.271 276.11 153.971 275.86C153.671 275.6 153.266 275.47 152.756 275.47H150.686V278.29H152.801ZM160.324 268.9V280H158.224V268.9H160.324ZM166.089 280.135C165.289 280.135 164.569 279.96 163.929 279.61C163.289 279.25 162.784 278.745 162.414 278.095C162.054 277.445 161.874 276.695 161.874 275.845C161.874 274.995 162.059 274.245 162.429 273.595C162.809 272.945 163.324 272.445 163.974 272.095C164.624 271.735 165.349 271.555 166.149 271.555C166.949 271.555 167.674 271.735 168.324 272.095C168.974 272.445 169.484 272.945 169.854 273.595C170.234 274.245 170.424 274.995 170.424 275.845C170.424 276.695 170.229 277.445 169.839 278.095C169.459 278.745 168.939 279.25 168.279 279.61C167.629 279.96 166.899 280.135 166.089 280.135ZM166.089 278.305C166.469 278.305 166.824 278.215 167.154 278.035C167.494 277.845 167.764 277.565 167.964 277.195C168.164 276.825 168.264 276.375 168.264 275.845C168.264 275.055 168.054 274.45 167.634 274.03C167.224 273.6 166.719 273.385 166.119 273.385C165.519 273.385 165.014 273.6 164.604 274.03C164.204 274.45 164.004 275.055 164.004 275.845C164.004 276.635 164.199 277.245 164.589 277.675C164.989 278.095 165.489 278.305 166.089 278.305ZM171.425 275.845C171.425 274.985 171.6 274.235 171.95 273.595C172.3 272.945 172.785 272.445 173.405 272.095C174.025 271.735 174.735 271.555 175.535 271.555C176.565 271.555 177.415 271.815 178.085 272.335C178.765 272.845 179.22 273.565 179.45 274.495H177.185C177.065 274.135 176.86 273.855 176.57 273.655C176.29 273.445 175.94 273.34 175.52 273.34C174.92 273.34 174.445 273.56 174.095 274C173.745 274.43 173.57 275.045 173.57 275.845C173.57 276.635 173.745 277.25 174.095 277.69C174.445 278.12 174.92 278.335 175.52 278.335C176.37 278.335 176.925 277.955 177.185 277.195H179.45C179.22 278.095 178.765 278.81 178.085 279.34C177.405 279.87 176.555 280.135 175.535 280.135C174.735 280.135 174.025 279.96 173.405 279.61C172.785 279.25 172.3 278.75 171.95 278.11C171.6 277.46 171.425 276.705 171.425 275.845ZM185.908 280L183.088 276.46V280H180.988V268.9H183.088V275.215L185.878 271.69H188.608L184.948 275.86L188.638 280H185.908ZM197.473 275.665C197.473 275.965 197.453 276.235 197.413 276.475H191.338C191.388 277.075 191.598 277.545 191.968 277.885C192.338 278.225 192.793 278.395 193.333 278.395C194.113 278.395 194.668 278.06 194.998 277.39H197.263C197.023 278.19 196.563 278.85 195.883 279.37C195.203 279.88 194.368 280.135 193.378 280.135C192.578 280.135 191.858 279.96 191.218 279.61C190.588 279.25 190.093 278.745 189.733 278.095C189.383 277.445 189.208 276.695 189.208 275.845C189.208 274.985 189.383 274.23 189.733 273.58C190.083 272.93 190.573 272.43 191.203 272.08C191.833 271.73 192.558 271.555 193.378 271.555C194.168 271.555 194.873 271.725 195.493 272.065C196.123 272.405 196.608 272.89 196.948 273.52C197.298 274.14 197.473 274.855 197.473 275.665ZM195.298 275.065C195.288 274.525 195.093 274.095 194.713 273.775C194.333 273.445 193.868 273.28 193.318 273.28C192.798 273.28 192.358 273.44 191.998 273.76C191.648 274.07 191.433 274.505 191.353 275.065H195.298ZM198.466 275.815C198.466 274.975 198.631 274.23 198.961 273.58C199.301 272.93 199.761 272.43 200.341 272.08C200.921 271.73 201.566 271.555 202.276 271.555C202.816 271.555 203.331 271.675 203.821 271.915C204.311 272.145 204.701 272.455 204.991 272.845V268.9H207.121V280H204.991V278.77C204.731 279.18 204.366 279.51 203.896 279.76C203.426 280.01 202.881 280.135 202.261 280.135C201.561 280.135 200.921 279.955 200.341 279.595C199.761 279.235 199.301 278.73 198.961 278.08C198.631 277.42 198.466 276.665 198.466 275.815ZM205.006 275.845C205.006 275.335 204.906 274.9 204.706 274.54C204.506 274.17 204.236 273.89 203.896 273.7C203.556 273.5 203.191 273.4 202.801 273.4C202.411 273.4 202.051 273.495 201.721 273.685C201.391 273.875 201.121 274.155 200.911 274.525C200.711 274.885 200.611 275.315 200.611 275.815C200.611 276.315 200.711 276.755 200.911 277.135C201.121 277.505 201.391 277.79 201.721 277.99C202.061 278.19 202.421 278.29 202.801 278.29C203.191 278.29 203.556 278.195 203.896 278.005C204.236 277.805 204.506 277.525 204.706 277.165C204.906 276.795 205.006 276.355 205.006 275.845Z" fill="#0C0200" fill-opacity="0.8"/>
<rect x="78" y="305" width="155" height="9" rx="4.5" fill="#35FDBA" fill-opacity="0.2"/>
<rect x="78" y="305" width="71" height="9" rx="4.5" fill="#18D563"/>
<rect x="78" y="329" width="155" height="10" rx="5" fill="#35FDBA" fill-opacity="0.2"/>
<rect x="78" y="329.375" width="50" height="9" rx="4.5" fill="#18D563"/>
<rect x="78" y="354" width="155" height="9" rx="4.5" fill="#35FDBA" fill-opacity="0.2"/>
<rect x="78" y="353.75" width="111.377" height="9.375" rx="4.6875" fill="#18D563"/>
<rect x="78" y="378" width="155" height="9" rx="4.5" fill="#35FDBA" fill-opacity="0.2"/>
<rect x="78" y="378.125" width="131" height="9" rx="4.5" fill="#18D563"/>
<rect x="246" y="305" width="18" height="9" rx="4.5" fill="#0C0200" fill-opacity="0.1"/>
<rect x="246" y="329" width="18" height="9" rx="4.5" fill="#0C0200" fill-opacity="0.1"/>
<rect x="246" y="353" width="18" height="9" rx="4.5" fill="#0C0200" fill-opacity="0.1"/>
<rect x="246" y="377" width="18" height="9" rx="4.5" fill="#0C0200" fill-opacity="0.1"/>
<g clip-path="url(#clip0_147_2)">
<rect x="295" y="240" width="220" height="163" rx="10.4961" fill="#FEFEFE"/>
<path d="M318.135 269.53V280H316.035V269.53H318.135ZM327.845 272.77C327.845 273.33 327.71 273.855 327.44 274.345C327.18 274.835 326.765 275.23 326.195 275.53C325.635 275.83 324.925 275.98 324.065 275.98H322.31V280H320.21V269.53H324.065C324.875 269.53 325.565 269.67 326.135 269.95C326.705 270.23 327.13 270.615 327.41 271.105C327.7 271.595 327.845 272.15 327.845 272.77ZM323.975 274.285C324.555 274.285 324.985 274.155 325.265 273.895C325.545 273.625 325.685 273.25 325.685 272.77C325.685 271.75 325.115 271.24 323.975 271.24H322.31V274.285H323.975ZM338.85 274.63C339.44 274.74 339.925 275.035 340.305 275.515C340.685 275.995 340.875 276.545 340.875 277.165C340.875 277.725 340.735 278.22 340.455 278.65C340.185 279.07 339.79 279.4 339.27 279.64C338.75 279.88 338.135 280 337.425 280H332.91V269.53H337.23C337.94 269.53 338.55 269.645 339.06 269.875C339.58 270.105 339.97 270.425 340.23 270.835C340.5 271.245 340.635 271.71 340.635 272.23C340.635 272.84 340.47 273.35 340.14 273.76C339.82 274.17 339.39 274.46 338.85 274.63ZM335.01 273.85H336.93C337.43 273.85 337.815 273.74 338.085 273.52C338.355 273.29 338.49 272.965 338.49 272.545C338.49 272.125 338.355 271.8 338.085 271.57C337.815 271.34 337.43 271.225 336.93 271.225H335.01V273.85ZM337.125 278.29C337.635 278.29 338.03 278.17 338.31 277.93C338.6 277.69 338.745 277.35 338.745 276.91C338.745 276.46 338.595 276.11 338.295 275.86C337.995 275.6 337.59 275.47 337.08 275.47H335.01V278.29H337.125ZM344.649 268.9V280H342.549V268.9H344.649ZM350.413 280.135C349.613 280.135 348.893 279.96 348.253 279.61C347.613 279.25 347.108 278.745 346.738 278.095C346.378 277.445 346.198 276.695 346.198 275.845C346.198 274.995 346.383 274.245 346.753 273.595C347.133 272.945 347.648 272.445 348.298 272.095C348.948 271.735 349.673 271.555 350.473 271.555C351.273 271.555 351.998 271.735 352.648 272.095C353.298 272.445 353.808 272.945 354.178 273.595C354.558 274.245 354.748 274.995 354.748 275.845C354.748 276.695 354.553 277.445 354.163 278.095C353.783 278.745 353.263 279.25 352.603 279.61C351.953 279.96 351.223 280.135 350.413 280.135ZM350.413 278.305C350.793 278.305 351.148 278.215 351.478 278.035C351.818 277.845 352.088 277.565 352.288 277.195C352.488 276.825 352.588 276.375 352.588 275.845C352.588 275.055 352.378 274.45 351.958 274.03C351.548 273.6 351.043 273.385 350.443 273.385C349.843 273.385 349.338 273.6 348.928 274.03C348.528 274.45 348.328 275.055 348.328 275.845C348.328 276.635 348.523 277.245 348.913 277.675C349.313 278.095 349.813 278.305 350.413 278.305ZM355.749 275.845C355.749 274.985 355.924 274.235 356.274 273.595C356.624 272.945 357.109 272.445 357.729 272.095C358.349 271.735 359.059 271.555 359.859 271.555C360.889 271.555 361.739 271.815 362.409 272.335C363.089 272.845 363.544 273.565 363.774 274.495H361.509C361.389 274.135 361.184 273.855 360.894 273.655C360.614 273.445 360.264 273.34 359.844 273.34C359.244 273.34 358.769 273.56 358.419 274C358.069 274.43 357.894 275.045 357.894 275.845C357.894 276.635 358.069 277.25 358.419 277.69C358.769 278.12 359.244 278.335 359.844 278.335C360.694 278.335 361.249 277.955 361.509 277.195H363.774C363.544 278.095 363.089 278.81 362.409 279.34C361.729 279.87 360.879 280.135 359.859 280.135C359.059 280.135 358.349 279.96 357.729 279.61C357.109 279.25 356.624 278.75 356.274 278.11C355.924 277.46 355.749 276.705 355.749 275.845ZM370.232 280L367.412 276.46V280H365.312V268.9H367.412V275.215L370.202 271.69H372.932L369.272 275.86L372.962 280H370.232ZM381.797 275.665C381.797 275.965 381.777 276.235 381.737 276.475H375.662C375.712 277.075 375.922 277.545 376.292 277.885C376.662 278.225 377.117 278.395 377.657 278.395C378.437 278.395 378.992 278.06 379.322 277.39H381.587C381.347 278.19 380.887 278.85 380.207 279.37C379.527 279.88 378.692 280.135 377.702 280.135C376.902 280.135 376.182 279.96 375.542 279.61C374.912 279.25 374.417 278.745 374.057 278.095C373.707 277.445 373.532 276.695 373.532 275.845C373.532 274.985 373.707 274.23 374.057 273.58C374.407 272.93 374.897 272.43 375.527 272.08C376.157 271.73 376.882 271.555 377.702 271.555C378.492 271.555 379.197 271.725 379.817 272.065C380.447 272.405 380.932 272.89 381.272 273.52C381.622 274.14 381.797 274.855 381.797 275.665ZM379.622 275.065C379.612 274.525 379.417 274.095 379.037 273.775C378.657 273.445 378.192 273.28 377.642 273.28C377.122 273.28 376.682 273.44 376.322 273.76C375.972 274.07 375.757 274.505 375.677 275.065H379.622ZM382.79 275.815C382.79 274.975 382.955 274.23 383.285 273.58C383.625 272.93 384.085 272.43 384.665 272.08C385.245 271.73 385.89 271.555 386.6 271.555C387.14 271.555 387.655 271.675 388.145 271.915C388.635 272.145 389.025 272.455 389.315 272.845V268.9H391.445V280H389.315V278.77C389.055 279.18 388.69 279.51 388.22 279.76C387.75 280.01 387.205 280.135 386.585 280.135C385.885 280.135 385.245 279.955 384.665 279.595C384.085 279.235 383.625 278.73 383.285 278.08C382.955 277.42 382.79 276.665 382.79 275.815ZM389.33 275.845C389.33 275.335 389.23 274.9 389.03 274.54C388.83 274.17 388.56 273.89 388.22 273.7C387.88 273.5 387.515 273.4 387.125 273.4C386.735 273.4 386.375 273.495 386.045 273.685C385.715 273.875 385.445 274.155 385.235 274.525C385.035 274.885 384.935 275.315 384.935 275.815C384.935 276.315 385.035 276.755 385.235 277.135C385.445 277.505 385.715 277.79 386.045 277.99C386.385 278.19 386.745 278.29 387.125 278.29C387.515 278.29 387.88 278.195 388.22 278.005C388.56 277.805 388.83 277.525 389.03 277.165C389.23 276.795 389.33 276.355 389.33 275.845Z" fill="#0C0200" fill-opacity="0.8"/>
<rect x="315" y="318" width="36" height="100" rx="7" fill="#FF4B1E"/>
<rect x="315" y="318" width="36" height="100" rx="7" fill="url(#paint1_radial_147_2)"/>
<rect x="361" y="359" width="36" height="59" rx="7" fill="#FF4B1E" fill-opacity="0.2"/>
<rect x="407" y="335" width="36" height="83" rx="7" fill="#FF4B1E"/>
<rect x="407" y="335" width="36" height="83" rx="7" fill="url(#paint2_radial_147_2)"/>
<rect x="453" y="289" width="36" height="129" rx="7" fill="#FF4B1E" fill-opacity="0.2"/>
</g>
<rect x="295.525" y="240.525" width="218.95" height="161.95" rx="9.97128" stroke="#FF4B1F" stroke-width="1.04961"/>
<rect x="295.525" y="240.525" width="218.95" height="161.95" rx="9.97128" stroke="#EAE3E1" stroke-width="1.04961"/>
<defs>
<linearGradient id="paint0_linear_147_2" x1="286" y1="0" x2="286" y2="476" gradientUnits="userSpaceOnUse">
<stop stop-color="#FFD4CA"/>
<stop offset="1" stop-color="#FFEFEB"/>
</linearGradient>
<radialGradient id="paint1_radial_147_2" cx="0" cy="0" r="1" gradientTransform="matrix(26.9379 80.7692 -2.1035 74.8276 321.703 337.231)" gradientUnits="userSpaceOnUse">
<stop stop-color="#FF9176"/>
<stop offset="1" stop-color="#FF4B1E"/>
</radialGradient>
<radialGradient id="paint2_radial_147_2" cx="0" cy="0" r="1" gradientTransform="matrix(26.9379 67.0385 -2.1035 62.1069 413.703 350.962)" gradientUnits="userSpaceOnUse">
<stop stop-color="#FF9176"/>
<stop offset="1" stop-color="#FF4B1E"/>
</radialGradient>
<clipPath id="clip0_147_2">
<rect x="295" y="240" width="220" height="163" rx="10.4961" fill="white"/>
</clipPath>
</defs>
</svg>
