<svg width="14" height="10" viewBox="0 0 14 10" fill="none" xmlns="http://www.w3.org/2000/svg">
<path d="M5.59409 9.42409C5.46249 9.42485 5.33202 9.39963 5.21018 9.34986C5.08835 9.3001 4.97753 9.22677 4.88409 9.13409L0.294092 4.50409C0.105788 4.31579 -1.9841e-09 4.06039 0 3.79409C1.9841e-09 3.52779 0.105788 3.2724 0.294092 3.08409C0.482395 2.89579 0.73779 2.79 1.00409 2.79C1.27039 2.79 1.52579 2.89579 1.71409 3.08409L5.59409 6.97409L12.2641 0.294092C12.4524 0.105788 12.7078 -5.24944e-09 12.9741 0C13.2404 5.24944e-09 13.4958 0.105788 13.6841 0.294092C13.8724 0.482395 13.9782 0.73779 13.9782 1.00409C13.9782 1.27039 13.8724 1.52579 13.6841 1.71409L6.30409 9.09409C6.11882 9.29151 5.86445 9.40974 5.59409 9.42409Z" fill="#FF4B1E"/>
</svg>
