<svg width="124" height="26" viewBox="0 0 124 26" fill="none" xmlns="http://www.w3.org/2000/svg">
<path d="M19 10.1935L18.4405 11.7554C18.2904 12.1737 14.6059 22 1.59199 22H0V-1.90735e-06L3.18406 1.22244V18.6858C10.0026 18.1606 13.3323 14.2979 14.6833 12.1179L11.8812 11.1372C10.5711 12.9546 8.60158 14.8511 5.79955 15.6181V12.1876C8.14218 11.1789 9.61139 8.94314 10.3711 7.46036L7.81006 6.47962L5.79955 9.19883V2.23113L6.09984 2.3427L6.10432 2.34736L14.5014 5.5732L14.0192 7.05598C13.9964 7.12571 13.8417 7.59057 13.5324 8.27385L19 10.1935Z" fill="url(#paint0_linear_2007_2454)"/>
<path d="M29.99 11.85V15.99H34.636C35.878 15.99 37.649 15.576 37.649 14.058C37.649 12.609 35.878 11.85 34.636 11.85H29.99ZM29.99 5.47899V9.18199H34.636C36.545 9.18199 37.166 8.37699 37.166 7.45699C37.166 6.72099 36.568 5.47899 34.636 5.47899H29.99ZM34.636 2.71899C37.81 2.71899 40.179 4.14499 40.179 7.38799C40.179 8.62999 39.581 9.82599 38.086 10.493C39.972 11.068 40.662 13.069 40.662 14.081C40.662 17.669 37.971 18.819 34.636 18.819C32.083 18.819 29.553 18.819 27 18.819V2.71899C29.53 2.71899 32.083 2.71899 34.636 2.71899Z" fill="#0C0200" fill-opacity="0.9"/>
<path d="M42.5852 7.47999H45.1842L45.3912 8.79099C46.2652 7.38799 47.4382 7.18099 48.5882 7.18099C49.7612 7.18099 50.8882 7.64099 51.5092 8.26199L50.2442 10.7C49.6692 10.217 49.1402 9.96399 48.2202 9.96399C46.7482 9.96399 45.3912 10.746 45.3912 12.839V18.819H42.5852V7.47999Z" fill="#0C0200" fill-opacity="0.9"/>
<path d="M57.8939 7.24999C61.5049 7.24999 63.8279 9.91799 63.8279 13.161C63.8279 16.427 61.5969 19.072 57.9169 19.072C54.2369 19.072 52.0289 16.427 52.0289 13.161C52.0289 9.91799 54.2829 7.24999 57.8939 7.24999ZM57.9169 9.80299C55.8929 9.80299 54.8349 11.459 54.8349 13.161C54.8349 14.886 55.8699 16.496 57.9169 16.496C59.9639 16.496 60.9989 14.886 60.9989 13.161C60.9989 11.459 59.8029 9.80299 57.9169 9.80299Z" fill="#0C0200" fill-opacity="0.9"/>
<path d="M73.2287 7.45699H75.6897L78.1737 15.99L80.7727 7.45699H83.8777L79.9217 18.865H76.6557L75.4827 15.507L74.4707 11.712L73.4587 15.507L72.2857 18.865H69.0197L65.0407 7.45699H68.1687L70.7677 15.99L73.2287 7.45699Z" fill="#0C0200" fill-opacity="0.9"/>
<path d="M95.2193 8.65299L93.6553 10.493C92.8503 9.73399 91.9303 9.48099 90.8493 9.48099C89.5153 9.48099 88.7793 9.89499 88.7793 10.608C88.7793 11.344 89.4463 11.758 90.8953 11.85C93.0343 11.988 95.7483 12.471 95.7483 15.484C95.7483 17.485 94.1153 19.21 90.8723 19.21C89.0783 19.21 87.2843 18.911 85.6283 17.186L87.0083 15.185C87.8133 16.082 89.6533 16.749 90.9183 16.772C91.9763 16.795 92.9653 16.243 92.9653 15.415C92.9653 14.633 92.3213 14.311 90.7113 14.219C88.5723 14.058 86.0193 13.276 86.0193 10.7C86.0193 8.07799 88.7333 7.15799 90.8033 7.15799C92.5743 7.15799 93.9083 7.50299 95.2193 8.65299Z" fill="#0C0200" fill-opacity="0.9"/>
<path d="M100.353 7.43399V18.819H97.5471V7.43399H100.353ZM97.2941 4.28299C97.2941 6.46799 100.606 6.46799 100.606 4.28299C100.606 2.09799 97.2941 2.09799 97.2941 4.28299Z" fill="#0C0200" fill-opacity="0.9"/>
<path d="M106.619 18.819H103.813V10.102H101.697V7.64099H103.813V6.88199C103.813 3.84599 105.86 2.44299 108.137 2.44299C109.126 2.44299 110.161 2.76499 111.081 3.36299L110.046 5.45599C109.448 5.06499 108.896 4.85799 108.321 4.85799C107.355 4.85799 106.619 5.50199 106.619 6.88199V7.64099H109.954V10.102H106.619V18.819Z" fill="#0C0200" fill-opacity="0.9"/>
<path d="M120.495 7.47999H123.6L116.677 23.557H113.595L115.711 18.635L111.18 7.47999H114.446L116.171 12.379L117.252 15.576L118.425 12.448L120.495 7.47999Z" fill="#0C0200" fill-opacity="0.9"/>
<defs>
<linearGradient id="paint0_linear_2007_2454" x1="1.19342" y1="20.017" x2="13.5642" y2="1.06887" gradientUnits="userSpaceOnUse">
<stop stop-color="#FF7D5D"/>
<stop offset="1" stop-color="#FF4B1E"/>
</linearGradient>
</defs>
</svg>
