<svg width="19" height="26" viewBox="0 0 19 26" fill="none" xmlns="http://www.w3.org/2000/svg">
<path d="M19 10.1935L18.4405 11.7554C18.2904 12.1737 14.6059 22 1.59199 22H0V-1.90735e-06L3.18406 1.22244V18.6858C10.0026 18.1606 13.3323 14.2979 14.6833 12.1179L11.8812 11.1372C10.5711 12.9546 8.60158 14.8511 5.79955 15.6181V12.1876C8.14218 11.1789 9.61139 8.94314 10.3711 7.46036L7.81006 6.47962L5.79955 9.19883V2.23113L6.09984 2.3427L6.10432 2.34736L14.5014 5.5732L14.0192 7.05598C13.9964 7.12571 13.8417 7.59057 13.5324 8.27385L19 10.1935Z" fill="url(#paint0_linear_2006_45457)"/>
<defs>
<linearGradient id="paint0_linear_2006_45457" x1="1.19342" y1="20.017" x2="13.5642" y2="1.06887" gradientUnits="userSpaceOnUse">
<stop stop-color="#FF7D5D"/>
<stop offset="1" stop-color="#FF4B1E"/>
</linearGradient>
</defs>
</svg>
