<svg width="126" height="30" viewBox="0 0 126 30" fill="none" xmlns="http://www.w3.org/2000/svg">
<path d="M19 12.1935L18.4405 13.7554C18.2904 14.1737 14.6059 24 1.59199 24H0V2L3.18406 3.22244V20.6858C10.0026 20.1606 13.3323 16.2979 14.6833 14.1179L11.8812 13.1372C10.5711 14.9546 8.60158 16.8511 5.79955 17.6181V14.1876C8.14218 13.1789 9.61139 10.9431 10.3711 9.46036L7.81006 8.47962L5.79955 11.1988V4.23113L6.09984 4.3427L6.10432 4.34736L14.5014 7.5732L14.0192 9.05598C13.9964 9.12571 13.8417 9.59057 13.5324 10.2738L19 12.1935Z" fill="url(#paint0_linear_2007_1268)"/>
<path d="M31.025 14.031V18.171H35.671C36.913 18.171 38.684 17.757 38.684 16.239C38.684 14.79 36.913 14.031 35.671 14.031H31.025ZM31.025 7.66V11.363H35.671C37.58 11.363 38.201 10.558 38.201 9.638C38.201 8.902 37.603 7.66 35.671 7.66H31.025ZM35.671 4.9C38.845 4.9 41.214 6.326 41.214 9.569C41.214 10.811 40.616 12.007 39.121 12.674C41.007 13.249 41.697 15.25 41.697 16.262C41.697 19.85 39.006 21 35.671 21C33.118 21 30.588 21 28.035 21V4.9C30.565 4.9 33.118 4.9 35.671 4.9ZM43.6202 9.661H46.2192L46.4262 10.972C47.3002 9.569 48.4732 9.362 49.6232 9.362C50.7962 9.362 51.9232 9.822 52.5442 10.443L51.2792 12.881C50.7042 12.398 50.1752 12.145 49.2552 12.145C47.7832 12.145 46.4262 12.927 46.4262 15.02V21H43.6202V9.661ZM58.9289 9.431C62.5399 9.431 64.8629 12.099 64.8629 15.342C64.8629 18.608 62.6319 21.253 58.9519 21.253C55.2719 21.253 53.0639 18.608 53.0639 15.342C53.0639 12.099 55.3179 9.431 58.9289 9.431ZM58.9519 11.984C56.9279 11.984 55.8699 13.64 55.8699 15.342C55.8699 17.067 56.9049 18.677 58.9519 18.677C60.9989 18.677 62.0339 17.067 62.0339 15.342C62.0339 13.64 60.8379 11.984 58.9519 11.984ZM74.2637 9.638H76.7247L79.2087 18.171L81.8077 9.638H84.9127L80.9567 21.046H77.6907L76.5177 17.688L75.5057 13.893L74.4937 17.688L73.3207 21.046H70.0547L66.0757 9.638H69.2037L71.8027 18.171L74.2637 9.638ZM96.2543 10.834L94.6903 12.674C93.8853 11.915 92.9653 11.662 91.8843 11.662C90.5503 11.662 89.8143 12.076 89.8143 12.789C89.8143 13.525 90.4813 13.939 91.9303 14.031C94.0693 14.169 96.7833 14.652 96.7833 17.665C96.7833 19.666 95.1503 21.391 91.9073 21.391C90.1133 21.391 88.3193 21.092 86.6633 19.367L88.0433 17.366C88.8483 18.263 90.6883 18.93 91.9533 18.953C93.0113 18.976 94.0003 18.424 94.0003 17.596C94.0003 16.814 93.3563 16.492 91.7463 16.4C89.6073 16.239 87.0543 15.457 87.0543 12.881C87.0543 10.259 89.7683 9.339 91.8383 9.339C93.6093 9.339 94.9433 9.684 96.2543 10.834ZM101.388 9.615V21H98.5821V9.615H101.388ZM98.3291 6.464C98.3291 8.649 101.641 8.649 101.641 6.464C101.641 4.279 98.3291 4.279 98.3291 6.464ZM107.654 21H104.848V12.283H102.732V9.822H104.848V9.063C104.848 6.027 106.895 4.624 109.172 4.624C110.161 4.624 111.196 4.946 112.116 5.544L111.081 7.637C110.483 7.246 109.931 7.039 109.356 7.039C108.39 7.039 107.654 7.683 107.654 9.063V9.822H110.989V12.283H107.654V21ZM121.53 9.661H124.635L117.712 25.738H114.63L116.746 20.816L112.215 9.661H115.481L117.206 14.56L118.287 17.757L119.46 14.629L121.53 9.661Z" fill="white" fill-opacity="0.9"/>
<defs>
<linearGradient id="paint0_linear_2007_1268" x1="1.19342" y1="22.017" x2="13.5642" y2="3.06887" gradientUnits="userSpaceOnUse">
<stop stop-color="#FF7D5D"/>
<stop offset="1" stop-color="#FF4B1E"/>
</linearGradient>
</defs>
</svg>
