<svg width="35" height="40" viewBox="0 0 35 40" fill="none" xmlns="http://www.w3.org/2000/svg">
<path fill-rule="evenodd" clip-rule="evenodd" d="M25.7059 5.82886C26.3614 6.48293 27.1042 7.22376 27.1042 7.22376C27.1042 7.22376 30.1628 7.45123 30.307 7.46373C30.4526 7.47623 30.6279 7.5875 30.6553 7.78875C30.6827 7.99 35 37.3263 35 37.3263L24.4059 39.6292L25.7059 5.82886ZM24.0808 4.71766C23.9996 4.72817 23.9292 4.7442 23.8802 4.75876C23.8541 4.76626 23.4163 4.90251 22.6911 5.12751C21.9809 3.07501 20.7283 1.18876 18.5255 1.18876C18.4646 1.18876 18.4011 1.19127 18.339 1.19502C17.7121 0.362517 16.9359 0 16.2655 0C11.1322 0 8.67941 6.45001 7.91073 9.72626C5.91563 10.3475 4.49892 10.7888 4.31857 10.8463C3.2041 11.1975 3.16927 11.2325 3.02375 12.2863C2.91305 13.085 0 35.7263 0 35.7263L22.6998 40L22.7239 39.9948L24.0808 4.71766ZM18.171 6.31002C18.171 6.38877 18.1698 6.46126 18.1698 6.53376C16.9198 6.92251 15.5627 7.34501 14.202 7.76876C14.9657 4.80626 16.3973 3.37498 17.6499 2.83498C17.9646 3.62998 18.171 4.77127 18.171 6.31002ZM16.1237 1.38377C16.3464 1.38377 16.569 1.46001 16.7829 1.60751C15.1374 2.38501 13.3749 4.345 12.6298 8.2575C11.5415 8.59625 10.478 8.9275 9.49412 9.23375C10.366 6.24875 12.437 1.38377 16.1237 1.38377ZM17.0081 18.8275C17.0081 18.8275 15.6797 18.115 14.0515 18.115C11.6633 18.115 11.5427 19.6213 11.5427 20C11.5427 22.0712 16.9135 22.865 16.9135 27.715C16.9135 31.53 14.5055 33.9875 11.2579 33.9875C7.36095 33.9875 5.36835 31.55 5.36835 31.55L6.41192 28.0862C6.41192 28.0862 8.46049 29.8538 10.1894 29.8538C11.3176 29.8538 11.7778 28.96 11.7778 28.3075C11.7778 25.6062 7.37091 25.485 7.37091 21.0462C7.37091 17.3112 10.0389 13.6962 15.4247 13.6962C17.4994 13.6962 18.5255 14.2938 18.5255 14.2938L17.0081 18.8275ZM19.5156 6.11501C19.5156 5.97876 19.5169 5.845 19.5169 5.69875C19.5169 4.42375 19.3402 3.39625 19.0579 2.5825C20.1935 2.725 20.9497 4.02373 21.4361 5.51748C20.8664 5.69498 20.2184 5.89626 19.5156 6.11501Z" fill="#81BF37"/>
</svg>
