<svg width="260" height="353" viewBox="0 0 260 353" fill="none" xmlns="http://www.w3.org/2000/svg">
<rect width="260" height="353" rx="25" fill="#0C0200"/>
<rect x="0.5" y="0.5" width="259" height="352" rx="24.5" stroke="white" stroke-opacity="0.6"/>
<path d="M69.036 29.436L65.526 42H62.556L60.198 33.054L57.732 42L54.78 42.018L51.396 29.436H54.096L56.31 39.192L58.866 29.436H61.674L64.086 39.138L66.318 29.436H69.036ZM71.9595 30.84C71.5155 30.84 71.1435 30.702 70.8435 30.426C70.5555 30.138 70.4115 29.784 70.4115 29.364C70.4115 28.944 70.5555 28.596 70.8435 28.32C71.1435 28.032 71.5155 27.888 71.9595 27.888C72.4035 27.888 72.7695 28.032 73.0575 28.32C73.3575 28.596 73.5075 28.944 73.5075 29.364C73.5075 29.784 73.3575 30.138 73.0575 30.426C72.7695 30.702 72.4035 30.84 71.9595 30.84ZM73.2015 32.028V42H70.6815V32.028H73.2015ZM78.6252 34.098V38.922C78.6252 39.258 78.7032 39.504 78.8592 39.66C79.0272 39.804 79.3032 39.876 79.6872 39.876H80.8572V42H79.2732C77.1492 42 76.0872 40.968 76.0872 38.904V34.098H74.8992V32.028H76.0872V29.562H78.6252V32.028H80.8572V34.098H78.6252ZM88.2857 31.884C89.0417 31.884 89.7137 32.052 90.3017 32.388C90.8897 32.712 91.3457 33.198 91.6697 33.846C92.0057 34.482 92.1737 35.25 92.1737 36.15V42H89.6537V36.492C89.6537 35.7 89.4557 35.094 89.0597 34.674C88.6637 34.242 88.1237 34.026 87.4397 34.026C86.7437 34.026 86.1917 34.242 85.7837 34.674C85.3877 35.094 85.1897 35.7 85.1897 36.492V42H82.6697V28.68H85.1897V33.27C85.5137 32.838 85.9457 32.502 86.4857 32.262C87.0257 32.01 87.6257 31.884 88.2857 31.884ZM98.9981 42.162C98.0381 42.162 97.1741 41.952 96.4061 41.532C95.6381 41.1 95.0321 40.494 94.5881 39.714C94.1561 38.934 93.9401 38.034 93.9401 37.014C93.9401 35.994 94.1621 35.094 94.6061 34.314C95.0621 33.534 95.6801 32.934 96.4601 32.514C97.2401 32.082 98.1101 31.866 99.0701 31.866C100.03 31.866 100.9 32.082 101.68 32.514C102.46 32.934 103.072 33.534 103.516 34.314C103.972 35.094 104.2 35.994 104.2 37.014C104.2 38.034 103.966 38.934 103.498 39.714C103.042 40.494 102.418 41.1 101.626 41.532C100.846 41.952 99.9701 42.162 98.9981 42.162ZM98.9981 39.966C99.4541 39.966 99.8801 39.858 100.276 39.642C100.684 39.414 101.008 39.078 101.248 38.634C101.488 38.19 101.608 37.65 101.608 37.014C101.608 36.066 101.356 35.34 100.852 34.836C100.36 34.32 99.7541 34.062 99.0341 34.062C98.3141 34.062 97.7081 34.32 97.2161 34.836C96.7361 35.34 96.4961 36.066 96.4961 37.014C96.4961 37.962 96.7301 38.694 97.1981 39.21C97.6781 39.714 98.2781 39.966 98.9981 39.966ZM115.463 32.028V42H112.925V40.74C112.601 41.172 112.175 41.514 111.647 41.766C111.131 42.006 110.567 42.126 109.955 42.126C109.175 42.126 108.485 41.964 107.885 41.64C107.285 41.304 106.811 40.818 106.463 40.182C106.127 39.534 105.959 38.766 105.959 37.878V32.028H108.479V37.518C108.479 38.31 108.677 38.922 109.073 39.354C109.469 39.774 110.009 39.984 110.693 39.984C111.389 39.984 111.935 39.774 112.331 39.354C112.727 38.922 112.925 38.31 112.925 37.518V32.028H115.463ZM120.883 34.098V38.922C120.883 39.258 120.961 39.504 121.117 39.66C121.285 39.804 121.561 39.876 121.945 39.876H123.115V42H121.531C119.407 42 118.345 40.968 118.345 38.904V34.098H117.157V32.028H118.345V29.562H120.883V32.028H123.115V34.098H120.883ZM140.503 29.436L135.895 42H132.835L128.227 29.436H130.927L134.383 39.426L137.821 29.436H140.503ZM143.291 30.84C142.847 30.84 142.475 30.702 142.175 30.426C141.887 30.138 141.743 29.784 141.743 29.364C141.743 28.944 141.887 28.596 142.175 28.32C142.475 28.032 142.847 27.888 143.291 27.888C143.735 27.888 144.101 28.032 144.389 28.32C144.689 28.596 144.839 28.944 144.839 29.364C144.839 29.784 144.689 30.138 144.389 30.426C144.101 30.702 143.735 30.84 143.291 30.84ZM144.533 32.028V42H142.013V32.028H144.533ZM150.839 42.162C150.023 42.162 149.291 42.018 148.643 41.73C147.995 41.43 147.479 41.028 147.095 40.524C146.723 40.02 146.519 39.462 146.483 38.85H149.021C149.069 39.234 149.255 39.552 149.579 39.804C149.915 40.056 150.329 40.182 150.821 40.182C151.301 40.182 151.673 40.086 151.937 39.894C152.213 39.702 152.351 39.456 152.351 39.156C152.351 38.832 152.183 38.592 151.847 38.436C151.523 38.268 151.001 38.088 150.281 37.896C149.537 37.716 148.925 37.53 148.445 37.338C147.977 37.146 147.569 36.852 147.221 36.456C146.885 36.06 146.717 35.526 146.717 34.854C146.717 34.302 146.873 33.798 147.185 33.342C147.509 32.886 147.965 32.526 148.553 32.262C149.153 31.998 149.855 31.866 150.659 31.866C151.847 31.866 152.795 32.166 153.503 32.766C154.211 33.354 154.601 34.152 154.673 35.16H152.261C152.225 34.764 152.057 34.452 151.757 34.224C151.469 33.984 151.079 33.864 150.587 33.864C150.131 33.864 149.777 33.948 149.525 34.116C149.285 34.284 149.165 34.518 149.165 34.818C149.165 35.154 149.333 35.412 149.669 35.592C150.005 35.76 150.527 35.934 151.235 36.114C151.955 36.294 152.549 36.48 153.017 36.672C153.485 36.864 153.887 37.164 154.223 37.572C154.571 37.968 154.751 38.496 154.763 39.156C154.763 39.732 154.601 40.248 154.277 40.704C153.965 41.16 153.509 41.52 152.909 41.784C152.321 42.036 151.631 42.162 150.839 42.162ZM158.11 30.84C157.666 30.84 157.294 30.702 156.994 30.426C156.706 30.138 156.562 29.784 156.562 29.364C156.562 28.944 156.706 28.596 156.994 28.32C157.294 28.032 157.666 27.888 158.11 27.888C158.554 27.888 158.92 28.032 159.208 28.32C159.508 28.596 159.658 28.944 159.658 29.364C159.658 29.784 159.508 30.138 159.208 30.426C158.92 30.702 158.554 30.84 158.11 30.84ZM159.352 32.028V42H156.832V32.028H159.352ZM164.776 34.098V38.922C164.776 39.258 164.854 39.504 165.01 39.66C165.178 39.804 165.454 39.876 165.838 39.876H167.008V42H165.424C163.3 42 162.238 40.968 162.238 38.904V34.098H161.05V32.028H162.238V29.562H164.776V32.028H167.008V34.098H164.776ZM173.248 42.162C172.288 42.162 171.424 41.952 170.656 41.532C169.888 41.1 169.282 40.494 168.838 39.714C168.406 38.934 168.19 38.034 168.19 37.014C168.19 35.994 168.412 35.094 168.856 34.314C169.312 33.534 169.93 32.934 170.71 32.514C171.49 32.082 172.36 31.866 173.32 31.866C174.28 31.866 175.15 32.082 175.93 32.514C176.71 32.934 177.322 33.534 177.766 34.314C178.222 35.094 178.45 35.994 178.45 37.014C178.45 38.034 178.216 38.934 177.748 39.714C177.292 40.494 176.668 41.1 175.876 41.532C175.096 41.952 174.22 42.162 173.248 42.162ZM173.248 39.966C173.704 39.966 174.13 39.858 174.526 39.642C174.934 39.414 175.258 39.078 175.498 38.634C175.738 38.19 175.858 37.65 175.858 37.014C175.858 36.066 175.606 35.34 175.102 34.836C174.61 34.32 174.004 34.062 173.284 34.062C172.564 34.062 171.958 34.32 171.466 34.836C170.986 35.34 170.746 36.066 170.746 37.014C170.746 37.962 170.98 38.694 171.448 39.21C171.928 39.714 172.528 39.966 173.248 39.966ZM182.819 33.576C183.143 33.048 183.563 32.634 184.079 32.334C184.607 32.034 185.207 31.884 185.879 31.884V34.53H185.213C184.421 34.53 183.821 34.716 183.413 35.088C183.017 35.46 182.819 36.108 182.819 37.032V42H180.299V32.028H182.819V33.576ZM194.385 29.436V42H191.865V29.436H194.385ZM201.267 29.436C202.587 29.436 203.745 29.694 204.741 30.21C205.749 30.726 206.523 31.464 207.063 32.424C207.615 33.372 207.891 34.476 207.891 35.736C207.891 36.996 207.615 38.1 207.063 39.048C206.523 39.984 205.749 40.71 204.741 41.226C203.745 41.742 202.587 42 201.267 42H196.875V29.436H201.267ZM201.177 39.858C202.497 39.858 203.517 39.498 204.237 38.778C204.957 38.058 205.317 37.044 205.317 35.736C205.317 34.428 204.957 33.408 204.237 32.676C203.517 31.932 202.497 31.56 201.177 31.56H199.395V39.858H201.177Z" fill="white"/>
<rect x="12" y="69" width="236" height="78" rx="15" fill="white" fill-opacity="0.08"/>
<path d="M22 91C22 84.3726 27.3726 79 34 79H86C92.6274 79 98 84.3726 98 91V94C98 100.627 92.6274 106 86 106H34C27.3726 106 22 100.627 22 94V91Z" fill="#5F5929"/>
<path d="M38.481 94.386C38.481 93.6667 38.6283 93.0297 38.923 92.475C39.2263 91.9203 39.6337 91.4913 40.145 91.188C40.665 90.876 41.237 90.72 41.861 90.72C42.4243 90.72 42.914 90.8327 43.33 91.058C43.7547 91.2747 44.0927 91.5477 44.344 91.877V90.837H45.839V98H44.344V96.934C44.0927 97.272 43.7503 97.5537 43.317 97.779C42.8837 98.0043 42.3897 98.117 41.835 98.117C41.2197 98.117 40.6563 97.961 40.145 97.649C39.6337 97.3283 39.2263 96.8863 38.923 96.323C38.6283 95.751 38.481 95.1053 38.481 94.386ZM44.344 94.412C44.344 93.918 44.24 93.489 44.032 93.125C43.8327 92.761 43.5683 92.4837 43.239 92.293C42.9097 92.1023 42.5543 92.007 42.173 92.007C41.7917 92.007 41.4363 92.1023 41.107 92.293C40.7777 92.475 40.509 92.748 40.301 93.112C40.1017 93.4673 40.002 93.892 40.002 94.386C40.002 94.88 40.1017 95.3133 40.301 95.686C40.509 96.0587 40.7777 96.3447 41.107 96.544C41.445 96.7347 41.8003 96.83 42.173 96.83C42.5543 96.83 42.9097 96.7347 43.239 96.544C43.5683 96.3533 43.8327 96.076 44.032 95.712C44.24 95.3393 44.344 94.906 44.344 94.412ZM53.5965 89.667L49.9825 98H48.4875L52.1405 89.823H47.3305V88.562H53.5965V89.667ZM55.684 95.985C56.516 95.2657 57.1703 94.6763 57.647 94.217C58.1323 93.749 58.5353 93.2637 58.856 92.761C59.1766 92.2583 59.337 91.7557 59.337 91.253C59.337 90.733 59.2113 90.3257 58.96 90.031C58.7173 89.7363 58.3316 89.589 57.803 89.589C57.2916 89.589 56.893 89.7537 56.607 90.083C56.3296 90.4037 56.1823 90.837 56.165 91.383H54.735C54.761 90.395 55.0556 89.641 55.619 89.121C56.191 88.5923 56.9146 88.328 57.79 88.328C58.7346 88.328 59.4713 88.588 60 89.108C60.5373 89.628 60.806 90.3213 60.806 91.188C60.806 91.812 60.6456 92.4143 60.325 92.995C60.013 93.567 59.636 94.0827 59.194 94.542C58.7606 94.9927 58.206 95.517 57.53 96.115L56.945 96.635H61.066V97.87H54.748V96.791L55.684 95.985ZM65.3969 94.425L68.6989 98H66.6969L64.0449 94.919V98H62.5629V88.38H64.0449V93.97L66.6449 90.837H68.6989L65.3969 94.425ZM74.6621 90.72C74.5668 90.3213 74.3935 90.0223 74.1421 89.823C73.8908 89.6237 73.5398 89.524 73.0891 89.524C72.4045 89.524 71.8931 89.7883 71.5551 90.317C71.2171 90.837 71.0395 91.7037 71.0221 92.917C71.2475 92.5357 71.5768 92.241 72.0101 92.033C72.4435 91.825 72.9115 91.721 73.4141 91.721C73.9861 91.721 74.4888 91.8467 74.9221 92.098C75.3641 92.3407 75.7065 92.696 75.9491 93.164C76.2005 93.632 76.3261 94.191 76.3261 94.841C76.3261 95.4477 76.2048 95.9893 75.9621 96.466C75.7281 96.9427 75.3771 97.3197 74.9091 97.597C74.4411 97.8657 73.8778 98 73.2191 98C72.3265 98 71.6245 97.805 71.1131 97.415C70.6105 97.0163 70.2551 96.4573 70.0471 95.738C69.8478 95.0187 69.7481 94.1217 69.7481 93.047C69.7481 89.875 70.8661 88.289 73.1021 88.289C73.9688 88.289 74.6491 88.523 75.1431 88.991C75.6458 89.459 75.9405 90.0353 76.0271 90.72H74.6621ZM73.0891 92.969C72.5605 92.969 72.1098 93.1293 71.7371 93.45C71.3731 93.762 71.1911 94.217 71.1911 94.815C71.1911 95.413 71.3601 95.8897 71.6981 96.245C72.0448 96.5917 72.5258 96.765 73.1411 96.765C73.6871 96.765 74.1161 96.596 74.4281 96.258C74.7488 95.92 74.9091 95.4693 74.9091 94.906C74.9091 94.3167 74.7531 93.8487 74.4411 93.502C74.1378 93.1467 73.6871 92.969 73.0891 92.969ZM81.105 92.046H79.779V98H78.284V92.046H77.439V90.837H78.284V90.33C78.284 89.5067 78.5006 88.9087 78.934 88.536C79.376 88.1547 80.065 87.964 81.001 87.964V89.199C80.5503 89.199 80.234 89.2857 80.052 89.459C79.87 89.6237 79.779 89.914 79.779 90.33V90.837H81.105V92.046Z" fill="#F6EA8E"/>
<path d="M102 91C102 84.3726 107.373 79 114 79H153C159.627 79 165 84.3726 165 91V94C165 100.627 159.627 106 153 106H114C107.373 106 102 100.627 102 94V91Z" fill="#5F5929"/>
<path d="M125.423 90.837L121.029 101.367H119.495L120.951 97.883L118.13 90.837H119.781L121.796 96.297L123.889 90.837H125.423ZM128.192 95.426C128.279 95.8593 128.465 96.1887 128.751 96.414C129.037 96.6393 129.423 96.752 129.908 96.752C130.524 96.752 130.974 96.5093 131.26 96.024C131.546 95.5387 131.689 94.711 131.689 93.541C131.481 93.8357 131.187 94.0653 130.805 94.23C130.433 94.386 130.025 94.464 129.583 94.464C129.02 94.464 128.509 94.3513 128.049 94.126C127.59 93.892 127.226 93.5497 126.957 93.099C126.697 92.6397 126.567 92.085 126.567 91.435C126.567 90.4817 126.845 89.7233 127.399 89.16C127.963 88.588 128.734 88.302 129.713 88.302C130.892 88.302 131.728 88.6963 132.222 89.485C132.725 90.265 132.976 91.4653 132.976 93.086C132.976 94.204 132.881 95.1183 132.69 95.829C132.508 96.5397 132.188 97.077 131.728 97.441C131.269 97.805 130.632 97.987 129.817 97.987C128.89 97.987 128.175 97.7443 127.672 97.259C127.17 96.7737 126.888 96.1627 126.827 95.426H128.192ZM129.843 93.216C130.363 93.216 130.771 93.0557 131.065 92.735C131.369 92.4057 131.52 91.9723 131.52 91.435C131.52 90.837 131.36 90.3733 131.039 90.044C130.727 89.706 130.298 89.537 129.752 89.537C129.206 89.537 128.773 89.7103 128.452 90.057C128.14 90.395 127.984 90.8413 127.984 91.396C127.984 91.9247 128.136 92.3623 128.439 92.709C128.751 93.047 129.219 93.216 129.843 93.216ZM137.861 94.373L140.175 98H138.498L136.951 95.569L135.495 98H133.948L136.262 94.477L133.948 90.837H135.625L137.172 93.268L138.628 90.837H140.175L137.861 94.373ZM142.685 93.047C141.783 92.5963 141.333 91.8857 141.333 90.915C141.333 90.447 141.45 90.018 141.684 89.628C141.918 89.238 142.269 88.9303 142.737 88.705C143.205 88.471 143.777 88.354 144.453 88.354C145.12 88.354 145.688 88.471 146.156 88.705C146.632 88.9303 146.988 89.238 147.222 89.628C147.456 90.018 147.573 90.447 147.573 90.915C147.573 91.4003 147.447 91.8293 147.196 92.202C146.953 92.566 146.628 92.8477 146.221 93.047C146.715 93.229 147.105 93.528 147.391 93.944C147.677 94.3513 147.82 94.8323 147.82 95.387C147.82 95.9503 147.677 96.4487 147.391 96.882C147.105 97.3153 146.706 97.649 146.195 97.883C145.683 98.117 145.103 98.234 144.453 98.234C143.803 98.234 143.222 98.117 142.711 97.883C142.208 97.649 141.814 97.3153 141.528 96.882C141.242 96.4487 141.099 95.9503 141.099 95.387C141.099 94.8237 141.242 94.3383 141.528 93.931C141.814 93.5237 142.199 93.229 142.685 93.047ZM146.156 91.097C146.156 90.6117 146.004 90.239 145.701 89.979C145.397 89.719 144.981 89.589 144.453 89.589C143.933 89.589 143.521 89.719 143.218 89.979C142.914 90.239 142.763 90.616 142.763 91.11C142.763 91.5433 142.919 91.8987 143.231 92.176C143.551 92.4447 143.959 92.579 144.453 92.579C144.947 92.579 145.354 92.4403 145.675 92.163C145.995 91.8857 146.156 91.5303 146.156 91.097ZM144.453 93.697C143.881 93.697 143.413 93.84 143.049 94.126C142.693 94.4033 142.516 94.8063 142.516 95.335C142.516 95.829 142.689 96.232 143.036 96.544C143.382 96.8473 143.855 96.999 144.453 96.999C145.042 96.999 145.506 96.843 145.844 96.531C146.19 96.219 146.364 95.8203 146.364 95.335C146.364 94.815 146.186 94.412 145.831 94.126C145.484 93.84 145.025 93.697 144.453 93.697Z" fill="#F6EA8E"/>
<path d="M169 91C169 84.3726 174.373 79 181 79H196C202.627 79 208 84.3726 208 91V94C208 100.627 202.627 106 196 106H181C174.373 106 169 100.627 169 94V91Z" fill="#5F5929"/>
<path d="M188.406 88.835C189.29 88.835 189.996 89.0777 190.525 89.563C191.062 90.0483 191.331 90.7113 191.331 91.552C191.331 92.4273 191.054 93.086 190.499 93.528C189.944 93.97 189.208 94.191 188.289 94.191L188.237 95.218H186.95L186.885 93.177H187.314C188.155 93.177 188.796 93.0643 189.238 92.839C189.689 92.6137 189.914 92.1847 189.914 91.552C189.914 91.0927 189.78 90.733 189.511 90.473C189.251 90.213 188.887 90.083 188.419 90.083C187.951 90.083 187.583 90.2087 187.314 90.46C187.045 90.7113 186.911 91.0623 186.911 91.513H185.52C185.52 90.993 185.637 90.5293 185.871 90.122C186.105 89.7147 186.439 89.3983 186.872 89.173C187.314 88.9477 187.825 88.835 188.406 88.835ZM187.574 98.091C187.305 98.091 187.08 98 186.898 97.818C186.716 97.636 186.625 97.4107 186.625 97.142C186.625 96.8733 186.716 96.648 186.898 96.466C187.08 96.284 187.305 96.193 187.574 96.193C187.834 96.193 188.055 96.284 188.237 96.466C188.419 96.648 188.51 96.8733 188.51 97.142C188.51 97.4107 188.419 97.636 188.237 97.818C188.055 98 187.834 98.091 187.574 98.091Z" fill="#F6EA8E"/>
<path d="M24.52 122.545V133H23.155V122.545H24.52ZM30.8514 124.63C31.8514 124.63 32.6614 124.935 33.2814 125.545C33.9014 126.145 34.2114 127.015 34.2114 128.155V133H32.8614V128.35C32.8614 127.53 32.6564 126.905 32.2464 126.475C31.8364 126.035 31.2764 125.815 30.5664 125.815C29.8464 125.815 29.2714 126.04 28.8414 126.49C28.4214 126.94 28.2114 127.595 28.2114 128.455V133H26.8464V124.78H28.2114V125.95C28.4814 125.53 28.8464 125.205 29.3064 124.975C29.7764 124.745 30.2914 124.63 30.8514 124.63ZM35.9311 128.875C35.9311 128.025 36.1011 127.285 36.4411 126.655C36.7811 126.015 37.2511 125.52 37.8511 125.17C38.4611 124.82 39.1561 124.645 39.9361 124.645C40.9461 124.645 41.7761 124.89 42.4261 125.38C43.0861 125.87 43.5211 126.55 43.7311 127.42H42.2611C42.1211 126.92 41.8461 126.525 41.4361 126.235C41.0361 125.945 40.5361 125.8 39.9361 125.8C39.1561 125.8 38.5261 126.07 38.0461 126.61C37.5661 127.14 37.3261 127.895 37.3261 128.875C37.3261 129.865 37.5661 130.63 38.0461 131.17C38.5261 131.71 39.1561 131.98 39.9361 131.98C40.5361 131.98 41.0361 131.84 41.4361 131.56C41.8361 131.28 42.1111 130.88 42.2611 130.36H43.7311C43.5111 131.2 43.0711 131.875 42.4111 132.385C41.7511 132.885 40.9261 133.135 39.9361 133.135C39.1561 133.135 38.4611 132.96 37.8511 132.61C37.2511 132.26 36.7811 131.765 36.4411 131.125C36.1011 130.485 35.9311 129.735 35.9311 128.875ZM49.1375 133.135C48.3675 133.135 47.6675 132.96 47.0375 132.61C46.4175 132.26 45.9275 131.765 45.5675 131.125C45.2175 130.475 45.0425 129.725 45.0425 128.875C45.0425 128.035 45.2225 127.295 45.5825 126.655C45.9525 126.005 46.4525 125.51 47.0825 125.17C47.7125 124.82 48.4175 124.645 49.1975 124.645C49.9775 124.645 50.6825 124.82 51.3125 125.17C51.9425 125.51 52.4375 126 52.7975 126.64C53.1675 127.28 53.3525 128.025 53.3525 128.875C53.3525 129.725 53.1625 130.475 52.7825 131.125C52.4125 131.765 51.9075 132.26 51.2675 132.61C50.6275 132.96 49.9175 133.135 49.1375 133.135ZM49.1375 131.935C49.6275 131.935 50.0875 131.82 50.5175 131.59C50.9475 131.36 51.2925 131.015 51.5525 130.555C51.8225 130.095 51.9575 129.535 51.9575 128.875C51.9575 128.215 51.8275 127.655 51.5675 127.195C51.3075 126.735 50.9675 126.395 50.5475 126.175C50.1275 125.945 49.6725 125.83 49.1825 125.83C48.6825 125.83 48.2225 125.945 47.8025 126.175C47.3925 126.395 47.0625 126.735 46.8125 127.195C46.5625 127.655 46.4375 128.215 46.4375 128.875C46.4375 129.545 46.5575 130.11 46.7975 130.57C47.0475 131.03 47.3775 131.375 47.7875 131.605C48.1975 131.825 48.6475 131.935 49.1375 131.935ZM59.1522 124.63C60.1522 124.63 60.9622 124.935 61.5822 125.545C62.2022 126.145 62.5122 127.015 62.5122 128.155V133H61.1622V128.35C61.1622 127.53 60.9572 126.905 60.5472 126.475C60.1372 126.035 59.5772 125.815 58.8672 125.815C58.1472 125.815 57.5722 126.04 57.1422 126.49C56.7222 126.94 56.5122 127.595 56.5122 128.455V133H55.1472V124.78H56.5122V125.95C56.7822 125.53 57.1472 125.205 57.6072 124.975C58.0772 124.745 58.5922 124.63 59.1522 124.63ZM67.6519 133.135C67.0219 133.135 66.4569 133.03 65.9569 132.82C65.4569 132.6 65.0619 132.3 64.7719 131.92C64.4819 131.53 64.3219 131.085 64.2919 130.585H65.7019C65.7419 130.995 65.9319 131.33 66.2719 131.59C66.6219 131.85 67.0769 131.98 67.6369 131.98C68.1569 131.98 68.5669 131.865 68.8669 131.635C69.1669 131.405 69.3169 131.115 69.3169 130.765C69.3169 130.405 69.1569 130.14 68.8369 129.97C68.5169 129.79 68.0219 129.615 67.3519 129.445C66.7419 129.285 66.2419 129.125 65.8519 128.965C65.4719 128.795 65.1419 128.55 64.8619 128.23C64.5919 127.9 64.4569 127.47 64.4569 126.94C64.4569 126.52 64.5819 126.135 64.8319 125.785C65.0819 125.435 65.4369 125.16 65.8969 124.96C66.3569 124.75 66.8819 124.645 67.4719 124.645C68.3819 124.645 69.1169 124.875 69.6769 125.335C70.2369 125.795 70.5369 126.425 70.5769 127.225H69.2119C69.1819 126.795 69.0069 126.45 68.6869 126.19C68.3769 125.93 67.9569 125.8 67.4269 125.8C66.9369 125.8 66.5469 125.905 66.2569 126.115C65.9669 126.325 65.8219 126.6 65.8219 126.94C65.8219 127.21 65.9069 127.435 66.0769 127.615C66.2569 127.785 66.4769 127.925 66.7369 128.035C67.0069 128.135 67.3769 128.25 67.8469 128.38C68.4369 128.54 68.9169 128.7 69.2869 128.86C69.6569 129.01 69.9719 129.24 70.2319 129.55C70.5019 129.86 70.6419 130.265 70.6519 130.765C70.6519 131.215 70.5269 131.62 70.2769 131.98C70.0269 132.34 69.6719 132.625 69.2119 132.835C68.7619 133.035 68.2419 133.135 67.6519 133.135ZM73.2838 123.445C73.0238 123.445 72.8038 123.355 72.6238 123.175C72.4438 122.995 72.3538 122.775 72.3538 122.515C72.3538 122.255 72.4438 122.035 72.6238 121.855C72.8038 121.675 73.0238 121.585 73.2838 121.585C73.5338 121.585 73.7438 121.675 73.9138 121.855C74.0938 122.035 74.1838 122.255 74.1838 122.515C74.1838 122.775 74.0938 122.995 73.9138 123.175C73.7438 123.355 73.5338 123.445 73.2838 123.445ZM73.9438 124.78V133H72.5788V124.78H73.9438ZM79.1802 133.135C78.5502 133.135 77.9852 133.03 77.4852 132.82C76.9852 132.6 76.5902 132.3 76.3002 131.92C76.0102 131.53 75.8502 131.085 75.8202 130.585H77.2302C77.2702 130.995 77.4602 131.33 77.8002 131.59C78.1502 131.85 78.6052 131.98 79.1652 131.98C79.6852 131.98 80.0952 131.865 80.3952 131.635C80.6952 131.405 80.8452 131.115 80.8452 130.765C80.8452 130.405 80.6852 130.14 80.3652 129.97C80.0452 129.79 79.5502 129.615 78.8802 129.445C78.2702 129.285 77.7702 129.125 77.3802 128.965C77.0002 128.795 76.6702 128.55 76.3902 128.23C76.1202 127.9 75.9852 127.47 75.9852 126.94C75.9852 126.52 76.1102 126.135 76.3602 125.785C76.6102 125.435 76.9652 125.16 77.4252 124.96C77.8852 124.75 78.4102 124.645 79.0002 124.645C79.9102 124.645 80.6452 124.875 81.2052 125.335C81.7652 125.795 82.0652 126.425 82.1052 127.225H80.7402C80.7102 126.795 80.5352 126.45 80.2152 126.19C79.9052 125.93 79.4852 125.8 78.9552 125.8C78.4652 125.8 78.0752 125.905 77.7852 126.115C77.4952 126.325 77.3502 126.6 77.3502 126.94C77.3502 127.21 77.4352 127.435 77.6052 127.615C77.7852 127.785 78.0052 127.925 78.2652 128.035C78.5352 128.135 78.9052 128.25 79.3752 128.38C79.9652 128.54 80.4452 128.7 80.8152 128.86C81.1852 129.01 81.5002 129.24 81.7602 129.55C82.0302 129.86 82.1702 130.265 82.1802 130.765C82.1802 131.215 82.0552 131.62 81.8052 131.98C81.5552 132.34 81.2002 132.625 80.7402 132.835C80.2902 133.035 79.7702 133.135 79.1802 133.135ZM85.7721 125.905V130.75C85.7721 131.15 85.8571 131.435 86.0271 131.605C86.1971 131.765 86.4921 131.845 86.9121 131.845H87.9171V133H86.6871C85.9271 133 85.3571 132.825 84.9771 132.475C84.5971 132.125 84.4071 131.55 84.4071 130.75V125.905H83.3421V124.78H84.4071V122.71H85.7721V124.78H87.9171V125.905H85.7721ZM97.071 128.575C97.071 128.835 97.056 129.11 97.026 129.4H90.456C90.506 130.21 90.781 130.845 91.281 131.305C91.791 131.755 92.406 131.98 93.126 131.98C93.716 131.98 94.206 131.845 94.596 131.575C94.996 131.295 95.276 130.925 95.436 130.465H96.906C96.686 131.255 96.246 131.9 95.586 132.4C94.926 132.89 94.106 133.135 93.126 133.135C92.346 133.135 91.646 132.96 91.026 132.61C90.416 132.26 89.936 131.765 89.586 131.125C89.236 130.475 89.061 129.725 89.061 128.875C89.061 128.025 89.231 127.28 89.571 126.64C89.911 126 90.386 125.51 90.996 125.17C91.616 124.82 92.326 124.645 93.126 124.645C93.906 124.645 94.596 124.815 95.196 125.155C95.796 125.495 96.256 125.965 96.576 126.565C96.906 127.155 97.071 127.825 97.071 128.575ZM95.661 128.29C95.661 127.77 95.546 127.325 95.316 126.955C95.086 126.575 94.771 126.29 94.371 126.1C93.981 125.9 93.546 125.8 93.066 125.8C92.376 125.8 91.786 126.02 91.296 126.46C90.816 126.9 90.541 127.51 90.471 128.29H95.661ZM102.878 124.63C103.878 124.63 104.688 124.935 105.308 125.545C105.928 126.145 106.238 127.015 106.238 128.155V133H104.888V128.35C104.888 127.53 104.683 126.905 104.273 126.475C103.863 126.035 103.303 125.815 102.593 125.815C101.873 125.815 101.298 126.04 100.868 126.49C100.448 126.94 100.238 127.595 100.238 128.455V133H98.8728V124.78H100.238V125.95C100.508 125.53 100.873 125.205 101.333 124.975C101.803 124.745 102.318 124.63 102.878 124.63ZM110.133 125.905V130.75C110.133 131.15 110.218 131.435 110.388 131.605C110.558 131.765 110.853 131.845 111.272 131.845H112.278V133H111.048C110.288 133 109.718 132.825 109.338 132.475C108.958 132.125 108.768 131.55 108.768 130.75V125.905H107.703V124.78H108.768V122.71H110.133V124.78H112.278V125.905H110.133ZM118.635 123.445C118.375 123.445 118.155 123.355 117.975 123.175C117.795 122.995 117.705 122.775 117.705 122.515C117.705 122.255 117.795 122.035 117.975 121.855C118.155 121.675 118.375 121.585 118.635 121.585C118.885 121.585 119.095 121.675 119.265 121.855C119.445 122.035 119.535 122.255 119.535 122.515C119.535 122.775 119.445 122.995 119.265 123.175C119.095 123.355 118.885 123.445 118.635 123.445ZM119.295 124.78V133H117.93V124.78H119.295ZM121.112 128.86C121.112 128.02 121.282 127.285 121.622 126.655C121.962 126.015 122.427 125.52 123.017 125.17C123.617 124.82 124.287 124.645 125.027 124.645C125.667 124.645 126.262 124.795 126.812 125.095C127.362 125.385 127.782 125.77 128.072 126.25V121.9H129.452V133H128.072V131.455C127.802 131.945 127.402 132.35 126.872 132.67C126.342 132.98 125.722 133.135 125.012 133.135C124.282 133.135 123.617 132.955 123.017 132.595C122.427 132.235 121.962 131.73 121.622 131.08C121.282 130.43 121.112 129.69 121.112 128.86ZM128.072 128.875C128.072 128.255 127.947 127.715 127.697 127.255C127.447 126.795 127.107 126.445 126.677 126.205C126.257 125.955 125.792 125.83 125.282 125.83C124.772 125.83 124.307 125.95 123.887 126.19C123.467 126.43 123.132 126.78 122.882 127.24C122.632 127.7 122.507 128.24 122.507 128.86C122.507 129.49 122.632 130.04 122.882 130.51C123.132 130.97 123.467 131.325 123.887 131.575C124.307 131.815 124.772 131.935 125.282 131.935C125.792 131.935 126.257 131.815 126.677 131.575C127.107 131.325 127.447 130.97 127.697 130.51C127.947 130.04 128.072 129.495 128.072 128.875ZM139.259 128.575C139.259 128.835 139.244 129.11 139.214 129.4H132.644C132.694 130.21 132.969 130.845 133.469 131.305C133.979 131.755 134.594 131.98 135.314 131.98C135.904 131.98 136.394 131.845 136.784 131.575C137.184 131.295 137.464 130.925 137.624 130.465H139.094C138.874 131.255 138.434 131.9 137.774 132.4C137.114 132.89 136.294 133.135 135.314 133.135C134.534 133.135 133.834 132.96 133.214 132.61C132.604 132.26 132.124 131.765 131.774 131.125C131.424 130.475 131.249 129.725 131.249 128.875C131.249 128.025 131.419 127.28 131.759 126.64C132.099 126 132.574 125.51 133.184 125.17C133.804 124.82 134.514 124.645 135.314 124.645C136.094 124.645 136.784 124.815 137.384 125.155C137.984 125.495 138.444 125.965 138.764 126.565C139.094 127.155 139.259 127.825 139.259 128.575ZM137.849 128.29C137.849 127.77 137.734 127.325 137.504 126.955C137.274 126.575 136.959 126.29 136.559 126.1C136.169 125.9 135.734 125.8 135.254 125.8C134.564 125.8 133.974 126.02 133.484 126.46C133.004 126.9 132.729 127.51 132.659 128.29H137.849ZM145.065 124.63C146.065 124.63 146.875 124.935 147.495 125.545C148.115 126.145 148.425 127.015 148.425 128.155V133H147.075V128.35C147.075 127.53 146.87 126.905 146.46 126.475C146.05 126.035 145.49 125.815 144.78 125.815C144.06 125.815 143.485 126.04 143.055 126.49C142.635 126.94 142.425 127.595 142.425 128.455V133H141.06V124.78H142.425V125.95C142.695 125.53 143.06 125.205 143.52 124.975C143.99 124.745 144.505 124.63 145.065 124.63ZM152.32 125.905V130.75C152.32 131.15 152.405 131.435 152.575 131.605C152.745 131.765 153.04 131.845 153.46 131.845H154.465V133H153.235C152.475 133 151.905 132.825 151.525 132.475C151.145 132.125 150.955 131.55 150.955 130.75V125.905H149.89V124.78H150.955V122.71H152.32V124.78H154.465V125.905H152.32ZM156.824 123.445C156.564 123.445 156.344 123.355 156.164 123.175C155.984 122.995 155.894 122.775 155.894 122.515C155.894 122.255 155.984 122.035 156.164 121.855C156.344 121.675 156.564 121.585 156.824 121.585C157.074 121.585 157.284 121.675 157.454 121.855C157.634 122.035 157.724 122.255 157.724 122.515C157.724 122.775 157.634 122.995 157.454 123.175C157.284 123.355 157.074 123.445 156.824 123.445ZM157.484 124.78V133H156.119V124.78H157.484ZM163.155 125.905H161.43V133H160.065V125.905H159V124.78H160.065V124.195C160.065 123.275 160.3 122.605 160.77 122.185C161.25 121.755 162.015 121.54 163.065 121.54V122.68C162.465 122.68 162.04 122.8 161.79 123.04C161.55 123.27 161.43 123.655 161.43 124.195V124.78H163.155V125.905ZM165.452 123.445C165.192 123.445 164.972 123.355 164.792 123.175C164.612 122.995 164.522 122.775 164.522 122.515C164.522 122.255 164.612 122.035 164.792 121.855C164.972 121.675 165.192 121.585 165.452 121.585C165.702 121.585 165.912 121.675 166.082 121.855C166.262 122.035 166.352 122.255 166.352 122.515C166.352 122.775 166.262 122.995 166.082 123.175C165.912 123.355 165.702 123.445 165.452 123.445ZM166.112 124.78V133H164.747V124.78H166.112ZM167.928 128.875C167.928 128.025 168.098 127.285 168.438 126.655C168.778 126.015 169.248 125.52 169.848 125.17C170.458 124.82 171.153 124.645 171.933 124.645C172.943 124.645 173.773 124.89 174.423 125.38C175.083 125.87 175.518 126.55 175.728 127.42H174.258C174.118 126.92 173.843 126.525 173.433 126.235C173.033 125.945 172.533 125.8 171.933 125.8C171.153 125.8 170.523 126.07 170.043 126.61C169.563 127.14 169.323 127.895 169.323 128.875C169.323 129.865 169.563 130.63 170.043 131.17C170.523 131.71 171.153 131.98 171.933 131.98C172.533 131.98 173.033 131.84 173.433 131.56C173.833 131.28 174.108 130.88 174.258 130.36H175.728C175.508 131.2 175.068 131.875 174.408 132.385C173.748 132.885 172.923 133.135 171.933 133.135C171.153 133.135 170.458 132.96 169.848 132.61C169.248 132.26 168.778 131.765 168.438 131.125C168.098 130.485 167.928 129.735 167.928 128.875ZM177.04 128.86C177.04 128.02 177.21 127.285 177.55 126.655C177.89 126.015 178.355 125.52 178.945 125.17C179.545 124.82 180.21 124.645 180.94 124.645C181.66 124.645 182.285 124.8 182.815 125.11C183.345 125.42 183.74 125.81 184 126.28V124.78H185.38V133H184V131.47C183.73 131.95 183.325 132.35 182.785 132.67C182.255 132.98 181.635 133.135 180.925 133.135C180.195 133.135 179.535 132.955 178.945 132.595C178.355 132.235 177.89 131.73 177.55 131.08C177.21 130.43 177.04 129.69 177.04 128.86ZM184 128.875C184 128.255 183.875 127.715 183.625 127.255C183.375 126.795 183.035 126.445 182.605 126.205C182.185 125.955 181.72 125.83 181.21 125.83C180.7 125.83 180.235 125.95 179.815 126.19C179.395 126.43 179.06 126.78 178.81 127.24C178.56 127.7 178.435 128.24 178.435 128.86C178.435 129.49 178.56 130.04 178.81 130.51C179.06 130.97 179.395 131.325 179.815 131.575C180.235 131.815 180.7 131.935 181.21 131.935C181.72 131.935 182.185 131.815 182.605 131.575C183.035 131.325 183.375 130.97 183.625 130.51C183.875 130.04 184 129.495 184 128.875ZM189.351 125.905V130.75C189.351 131.15 189.436 131.435 189.606 131.605C189.776 131.765 190.071 131.845 190.491 131.845H191.496V133H190.266C189.506 133 188.936 132.825 188.556 132.475C188.176 132.125 187.986 131.55 187.986 130.75V125.905H186.921V124.78H187.986V122.71H189.351V124.78H191.496V125.905H189.351ZM193.855 123.445C193.595 123.445 193.375 123.355 193.195 123.175C193.015 122.995 192.925 122.775 192.925 122.515C192.925 122.255 193.015 122.035 193.195 121.855C193.375 121.675 193.595 121.585 193.855 121.585C194.105 121.585 194.315 121.675 194.485 121.855C194.665 122.035 194.755 122.255 194.755 122.515C194.755 122.775 194.665 122.995 194.485 123.175C194.315 123.355 194.105 123.445 193.855 123.445ZM194.515 124.78V133H193.15V124.78H194.515ZM200.427 133.135C199.657 133.135 198.957 132.96 198.327 132.61C197.707 132.26 197.217 131.765 196.857 131.125C196.507 130.475 196.332 129.725 196.332 128.875C196.332 128.035 196.512 127.295 196.872 126.655C197.242 126.005 197.742 125.51 198.372 125.17C199.002 124.82 199.707 124.645 200.487 124.645C201.267 124.645 201.972 124.82 202.602 125.17C203.232 125.51 203.727 126 204.087 126.64C204.457 127.28 204.642 128.025 204.642 128.875C204.642 129.725 204.452 130.475 204.072 131.125C203.702 131.765 203.197 132.26 202.557 132.61C201.917 132.96 201.207 133.135 200.427 133.135ZM200.427 131.935C200.917 131.935 201.377 131.82 201.807 131.59C202.237 131.36 202.582 131.015 202.842 130.555C203.112 130.095 203.247 129.535 203.247 128.875C203.247 128.215 203.117 127.655 202.857 127.195C202.597 126.735 202.257 126.395 201.837 126.175C201.417 125.945 200.962 125.83 200.472 125.83C199.972 125.83 199.512 125.945 199.092 126.175C198.682 126.395 198.352 126.735 198.102 127.195C197.852 127.655 197.727 128.215 197.727 128.875C197.727 129.545 197.847 130.11 198.087 130.57C198.337 131.03 198.667 131.375 199.077 131.605C199.487 131.825 199.937 131.935 200.427 131.935ZM210.441 124.63C211.441 124.63 212.251 124.935 212.871 125.545C213.491 126.145 213.801 127.015 213.801 128.155V133H212.451V128.35C212.451 127.53 212.246 126.905 211.836 126.475C211.426 126.035 210.866 125.815 210.156 125.815C209.436 125.815 208.861 126.04 208.431 126.49C208.011 126.94 207.801 127.595 207.801 128.455V133H206.436V124.78H207.801V125.95C208.071 125.53 208.436 125.205 208.896 124.975C209.366 124.745 209.881 124.63 210.441 124.63Z" fill="white"/>
<rect x="12" y="159" width="236" height="81" rx="15" fill="white" fill-opacity="0.08"/>
<path d="M22 181C22 174.373 27.3726 169 34 169H178C184.627 169 190 174.373 190 181V184C190 190.627 184.627 196 178 196H34C27.3726 196 22 190.627 22 184V181Z" fill="#5F5929"/>
<path d="M42.5055 176.472C42.1421 176.229 41.7889 175.971 41.447 175.697L41.093 175.414C40.4539 174.903 39.5457 174.903 38.9066 175.414L38.5897 175.668C37.6033 176.457 36.5226 177.12 35.3726 177.643L34.5257 178.028C33.9071 178.309 33.4827 178.939 33.5149 179.656C33.5988 181.52 34.0227 183.078 34.6121 184.365L35.7575 183.22C35.3565 182.196 35.0765 180.992 35.0134 179.588C35.0104 179.521 35.0509 179.437 35.1464 179.394L35.9932 179.009C37.2563 178.435 38.4433 177.706 39.5267 176.839L39.8436 176.586C39.9349 176.513 40.0647 176.513 40.156 176.586L40.51 176.869C40.8077 177.107 41.1132 177.335 41.4259 177.552L42.5055 176.472Z" fill="#F6EA8E"/>
<path fill-rule="evenodd" clip-rule="evenodd" d="M34.5529 186.546C34.2652 186.839 34.2669 187.31 34.5581 187.601C34.851 187.894 35.3259 187.894 35.6187 187.601L36.2591 186.961C37.4101 188.323 38.6229 189.109 39.2483 189.457C39.7176 189.719 40.2819 189.719 40.7511 189.458C42.1031 188.704 46.2046 185.908 46.4848 179.674C46.5168 178.962 46.0968 178.334 45.4831 178.051L45.2682 177.952L45.8718 177.348C46.1647 177.055 46.1647 176.581 45.8718 176.288C45.5806 175.996 45.1096 175.995 44.8163 176.283C44.8146 176.284 44.8129 176.286 44.8111 176.288L34.5581 186.541C34.5564 186.543 34.5546 186.544 34.5529 186.546ZM39.9789 188.147C39.439 187.846 38.3476 187.142 37.3239 185.896L44.1379 179.082L44.8546 179.413C44.9492 179.457 44.9893 179.54 44.9863 179.607C44.7396 185.096 41.1585 187.513 40.0209 188.147C40.0111 188.153 40.0042 188.154 39.9998 188.154C39.9955 188.154 39.9887 188.153 39.9789 188.147Z" fill="#F6EA8E"/>
<path d="M61.293 180.656C61.293 181.115 61.1847 181.549 60.968 181.956C60.7513 182.363 60.4047 182.697 59.928 182.957C59.4513 183.208 58.8403 183.334 58.095 183.334H56.457V187H54.975V177.965H58.095C58.7883 177.965 59.3733 178.086 59.85 178.329C60.3353 178.563 60.695 178.884 60.929 179.291C61.1717 179.698 61.293 180.153 61.293 180.656ZM58.095 182.125C58.6583 182.125 59.0787 181.999 59.356 181.748C59.6333 181.488 59.772 181.124 59.772 180.656C59.772 179.668 59.213 179.174 58.095 179.174H56.457V182.125H58.095ZM64.1884 180.877C64.4051 180.513 64.6911 180.231 65.0464 180.032C65.4104 179.824 65.8394 179.72 66.3334 179.72V181.254H65.9564C65.3758 181.254 64.9338 181.401 64.6304 181.696C64.3358 181.991 64.1884 182.502 64.1884 183.23V187H62.7064V179.837H64.1884V180.877ZM70.8027 187.117C70.1267 187.117 69.5157 186.965 68.9697 186.662C68.4237 186.35 67.9947 185.917 67.6827 185.362C67.3707 184.799 67.2147 184.149 67.2147 183.412C67.2147 182.684 67.375 182.038 67.6957 181.475C68.0164 180.912 68.454 180.478 69.0087 180.175C69.5634 179.872 70.183 179.72 70.8677 179.72C71.5524 179.72 72.172 179.872 72.7267 180.175C73.2814 180.478 73.719 180.912 74.0397 181.475C74.3604 182.038 74.5207 182.684 74.5207 183.412C74.5207 184.14 74.356 184.786 74.0267 185.349C73.6974 185.912 73.2467 186.35 72.6747 186.662C72.1114 186.965 71.4874 187.117 70.8027 187.117ZM70.8027 185.83C71.184 185.83 71.5394 185.739 71.8687 185.557C72.2067 185.375 72.4797 185.102 72.6877 184.738C72.8957 184.374 72.9997 183.932 72.9997 183.412C72.9997 182.892 72.9 182.454 72.7007 182.099C72.5014 181.735 72.237 181.462 71.9077 181.28C71.5784 181.098 71.223 181.007 70.8417 181.007C70.4604 181.007 70.105 181.098 69.7757 181.28C69.455 181.462 69.1994 181.735 69.0087 182.099C68.818 182.454 68.7227 182.892 68.7227 183.412C68.7227 184.183 68.9177 184.781 69.3077 185.206C69.7064 185.622 70.2047 185.83 70.8027 185.83ZM77.7147 181.046V185.011C77.7147 185.28 77.7754 185.475 77.8967 185.596C78.0267 185.709 78.2434 185.765 78.5467 185.765H79.4567V187H78.2867C77.6194 187 77.1081 186.844 76.7527 186.532C76.3974 186.22 76.2197 185.713 76.2197 185.011V181.046H75.3747V179.837H76.2197V178.056H77.7147V179.837H79.4567V181.046H77.7147ZM87.3877 183.243C87.3877 183.512 87.3703 183.754 87.3357 183.971H81.8627C81.906 184.543 82.1183 185.002 82.4997 185.349C82.881 185.696 83.349 185.869 83.9037 185.869C84.701 185.869 85.2643 185.535 85.5937 184.868H87.1927C86.976 185.527 86.5817 186.068 86.0097 186.493C85.4463 186.909 84.7443 187.117 83.9037 187.117C83.219 187.117 82.6037 186.965 82.0577 186.662C81.5203 186.35 81.0957 185.917 80.7837 185.362C80.4803 184.799 80.3287 184.149 80.3287 183.412C80.3287 182.675 80.476 182.03 80.7707 181.475C81.074 180.912 81.4943 180.478 82.0317 180.175C82.5777 179.872 83.2017 179.72 83.9037 179.72C84.5797 179.72 85.182 179.867 85.7107 180.162C86.2393 180.457 86.651 180.873 86.9457 181.41C87.2403 181.939 87.3877 182.55 87.3877 183.243ZM85.8407 182.775C85.832 182.229 85.637 181.791 85.2557 181.462C84.8743 181.133 84.402 180.968 83.8387 180.968C83.3273 180.968 82.8897 181.133 82.5257 181.462C82.1617 181.783 81.945 182.22 81.8757 182.775H85.8407ZM88.3521 183.412C88.3521 182.675 88.4994 182.03 88.7941 181.475C89.0974 180.912 89.5134 180.478 90.0421 180.175C90.5708 179.872 91.1774 179.72 91.8621 179.72C92.7288 179.72 93.4438 179.928 94.0071 180.344C94.5791 180.751 94.9648 181.336 95.1641 182.099H93.5651C93.4351 181.744 93.2271 181.466 92.9411 181.267C92.6551 181.068 92.2954 180.968 91.8621 180.968C91.2554 180.968 90.7701 181.185 90.4061 181.618C90.0508 182.043 89.8731 182.641 89.8731 183.412C89.8731 184.183 90.0508 184.786 90.4061 185.219C90.7701 185.652 91.2554 185.869 91.8621 185.869C92.7201 185.869 93.2878 185.492 93.5651 184.738H95.1641C94.9561 185.466 94.5661 186.047 93.9941 186.48C93.4221 186.905 92.7114 187.117 91.8621 187.117C91.1774 187.117 90.5708 186.965 90.0421 186.662C89.5134 186.35 89.0974 185.917 88.7941 185.362C88.4994 184.799 88.3521 184.149 88.3521 183.412ZM98.37 181.046V185.011C98.37 185.28 98.4307 185.475 98.552 185.596C98.682 185.709 98.8987 185.765 99.202 185.765H100.112V187H98.942C98.2747 187 97.7633 186.844 97.408 186.532C97.0527 186.22 96.875 185.713 96.875 185.011V181.046H96.03V179.837H96.875V178.056H98.37V179.837H100.112V181.046H98.37ZM108.043 183.243C108.043 183.512 108.026 183.754 107.991 183.971H102.518C102.561 184.543 102.774 185.002 103.155 185.349C103.536 185.696 104.004 185.869 104.559 185.869C105.356 185.869 105.92 185.535 106.249 184.868H107.848C107.631 185.527 107.237 186.068 106.665 186.493C106.102 186.909 105.4 187.117 104.559 187.117C103.874 187.117 103.259 186.965 102.713 186.662C102.176 186.35 101.751 185.917 101.439 185.362C101.136 184.799 100.984 184.149 100.984 183.412C100.984 182.675 101.131 182.03 101.426 181.475C101.729 180.912 102.15 180.478 102.687 180.175C103.233 179.872 103.857 179.72 104.559 179.72C105.235 179.72 105.837 179.867 106.366 180.162C106.895 180.457 107.306 180.873 107.601 181.41C107.896 181.939 108.043 182.55 108.043 183.243ZM106.496 182.775C106.487 182.229 106.292 181.791 105.911 181.462C105.53 181.133 105.057 180.968 104.494 180.968C103.983 180.968 103.545 181.133 103.181 181.462C102.817 181.783 102.6 182.22 102.531 182.775H106.496ZM109.007 183.386C109.007 182.667 109.155 182.03 109.449 181.475C109.753 180.92 110.16 180.491 110.671 180.188C111.191 179.876 111.768 179.72 112.4 179.72C112.868 179.72 113.328 179.824 113.778 180.032C114.238 180.231 114.602 180.5 114.87 180.838V177.38H116.365V187H114.87V185.921C114.628 186.268 114.29 186.554 113.856 186.779C113.432 187.004 112.942 187.117 112.387 187.117C111.763 187.117 111.191 186.961 110.671 186.649C110.16 186.328 109.753 185.886 109.449 185.323C109.155 184.751 109.007 184.105 109.007 183.386ZM114.87 183.412C114.87 182.918 114.766 182.489 114.558 182.125C114.359 181.761 114.095 181.484 113.765 181.293C113.436 181.102 113.081 181.007 112.699 181.007C112.318 181.007 111.963 181.102 111.633 181.293C111.304 181.475 111.035 181.748 110.827 182.112C110.628 182.467 110.528 182.892 110.528 183.386C110.528 183.88 110.628 184.313 110.827 184.686C111.035 185.059 111.304 185.345 111.633 185.544C111.971 185.735 112.327 185.83 112.699 185.83C113.081 185.83 113.436 185.735 113.765 185.544C114.095 185.353 114.359 185.076 114.558 184.712C114.766 184.339 114.87 183.906 114.87 183.412ZM133.454 177.965L130.776 187H129.099L127.201 180.162L125.186 187L123.522 187.013L120.961 177.965H122.534L124.406 185.323L126.434 177.965H128.098L129.983 185.284L131.868 177.965H133.454ZM141.241 183.243C141.241 183.512 141.224 183.754 141.189 183.971H135.716C135.76 184.543 135.972 185.002 136.353 185.349C136.735 185.696 137.203 185.869 137.757 185.869C138.555 185.869 139.118 185.535 139.447 184.868H141.046C140.83 185.527 140.435 186.068 139.863 186.493C139.3 186.909 138.598 187.117 137.757 187.117C137.073 187.117 136.457 186.965 135.911 186.662C135.374 186.35 134.949 185.917 134.637 185.362C134.334 184.799 134.182 184.149 134.182 183.412C134.182 182.675 134.33 182.03 134.624 181.475C134.928 180.912 135.348 180.478 135.885 180.175C136.431 179.872 137.055 179.72 137.757 179.72C138.433 179.72 139.036 179.867 139.564 180.162C140.093 180.457 140.505 180.873 140.799 181.41C141.094 181.939 141.241 182.55 141.241 183.243ZM139.694 182.775C139.686 182.229 139.491 181.791 139.109 181.462C138.728 181.133 138.256 180.968 137.692 180.968C137.181 180.968 136.743 181.133 136.379 181.462C136.015 181.783 135.799 182.22 135.729 182.775H139.694ZM144.182 180.903C144.433 180.556 144.775 180.275 145.209 180.058C145.651 179.833 146.14 179.72 146.678 179.72C147.31 179.72 147.882 179.872 148.394 180.175C148.905 180.478 149.308 180.912 149.603 181.475C149.897 182.03 150.045 182.667 150.045 183.386C150.045 184.105 149.897 184.751 149.603 185.323C149.308 185.886 148.901 186.328 148.381 186.649C147.869 186.961 147.302 187.117 146.678 187.117C146.123 187.117 145.629 187.009 145.196 186.792C144.771 186.575 144.433 186.298 144.182 185.96V187H142.7V177.38H144.182V180.903ZM148.537 183.386C148.537 182.892 148.433 182.467 148.225 182.112C148.025 181.748 147.757 181.475 147.419 181.293C147.089 181.102 146.734 181.007 146.353 181.007C145.98 181.007 145.625 181.102 145.287 181.293C144.957 181.484 144.689 181.761 144.481 182.125C144.281 182.489 144.182 182.918 144.182 183.412C144.182 183.906 144.281 184.339 144.481 184.712C144.689 185.076 144.957 185.353 145.287 185.544C145.625 185.735 145.98 185.83 146.353 185.83C146.734 185.83 147.089 185.735 147.419 185.544C147.757 185.345 148.025 185.059 148.225 184.686C148.433 184.313 148.537 183.88 148.537 183.386ZM154.11 187.117C153.547 187.117 153.04 187.017 152.589 186.818C152.147 186.61 151.796 186.333 151.536 185.986C151.276 185.631 151.137 185.236 151.12 184.803H152.654C152.68 185.106 152.823 185.362 153.083 185.57C153.352 185.769 153.685 185.869 154.084 185.869C154.5 185.869 154.821 185.791 155.046 185.635C155.28 185.47 155.397 185.262 155.397 185.011C155.397 184.742 155.267 184.543 155.007 184.413C154.756 184.283 154.353 184.14 153.798 183.984C153.261 183.837 152.823 183.694 152.485 183.555C152.147 183.416 151.852 183.204 151.601 182.918C151.358 182.632 151.237 182.255 151.237 181.787C151.237 181.406 151.35 181.059 151.575 180.747C151.8 180.426 152.121 180.175 152.537 179.993C152.962 179.811 153.447 179.72 153.993 179.72C154.808 179.72 155.462 179.928 155.956 180.344C156.459 180.751 156.727 181.31 156.762 182.021H155.28C155.254 181.7 155.124 181.445 154.89 181.254C154.656 181.063 154.34 180.968 153.941 180.968C153.551 180.968 153.252 181.042 153.044 181.189C152.836 181.336 152.732 181.531 152.732 181.774C152.732 181.965 152.801 182.125 152.94 182.255C153.079 182.385 153.248 182.489 153.447 182.567C153.646 182.636 153.941 182.727 154.331 182.84C154.851 182.979 155.276 183.122 155.605 183.269C155.943 183.408 156.233 183.616 156.476 183.893C156.719 184.17 156.844 184.539 156.853 184.998C156.853 185.405 156.74 185.769 156.515 186.09C156.29 186.411 155.969 186.662 155.553 186.844C155.146 187.026 154.665 187.117 154.11 187.117ZM159.208 178.888C158.94 178.888 158.714 178.797 158.532 178.615C158.35 178.433 158.259 178.208 158.259 177.939C158.259 177.67 158.35 177.445 158.532 177.263C158.714 177.081 158.94 176.99 159.208 176.99C159.468 176.99 159.689 177.081 159.871 177.263C160.053 177.445 160.144 177.67 160.144 177.939C160.144 178.208 160.053 178.433 159.871 178.615C159.689 178.797 159.468 178.888 159.208 178.888ZM159.936 179.837V187H158.454V179.837H159.936ZM163.611 181.046V185.011C163.611 185.28 163.672 185.475 163.793 185.596C163.923 185.709 164.14 185.765 164.443 185.765H165.353V187H164.183C163.516 187 163.005 186.844 162.649 186.532C162.294 186.22 162.116 185.713 162.116 185.011V181.046H161.271V179.837H162.116V178.056H163.611V179.837H165.353V181.046H163.611ZM173.284 183.243C173.284 183.512 173.267 183.754 173.232 183.971H167.759C167.802 184.543 168.015 185.002 168.396 185.349C168.777 185.696 169.245 185.869 169.8 185.869C170.597 185.869 171.161 185.535 171.49 184.868H173.089C172.872 185.527 172.478 186.068 171.906 186.493C171.343 186.909 170.641 187.117 169.8 187.117C169.115 187.117 168.5 186.965 167.954 186.662C167.417 186.35 166.992 185.917 166.68 185.362C166.377 184.799 166.225 184.149 166.225 183.412C166.225 182.675 166.372 182.03 166.667 181.475C166.97 180.912 167.391 180.478 167.928 180.175C168.474 179.872 169.098 179.72 169.8 179.72C170.476 179.72 171.078 179.867 171.607 180.162C172.136 180.457 172.547 180.873 172.842 181.41C173.137 181.939 173.284 182.55 173.284 183.243ZM171.737 182.775C171.728 182.229 171.533 181.791 171.152 181.462C170.771 181.133 170.298 180.968 169.735 180.968C169.224 180.968 168.786 181.133 168.422 181.462C168.058 181.783 167.841 182.22 167.772 182.775H171.737Z" fill="#F6EA8E"/>
<path d="M24.52 221.89H28.18V223H23.155V212.545H24.52V221.89ZM30.3346 213.445C30.0746 213.445 29.8546 213.355 29.6746 213.175C29.4946 212.995 29.4046 212.775 29.4046 212.515C29.4046 212.255 29.4946 212.035 29.6746 211.855C29.8546 211.675 30.0746 211.585 30.3346 211.585C30.5846 211.585 30.7946 211.675 30.9646 211.855C31.1446 212.035 31.2346 212.255 31.2346 212.515C31.2346 212.775 31.1446 212.995 30.9646 213.175C30.7946 213.355 30.5846 213.445 30.3346 213.445ZM30.9946 214.78V223H29.6296V214.78H30.9946ZM43.206 214.63C43.846 214.63 44.416 214.765 44.916 215.035C45.416 215.295 45.811 215.69 46.101 216.22C46.391 216.75 46.536 217.395 46.536 218.155V223H45.186V218.35C45.186 217.53 44.981 216.905 44.571 216.475C44.171 216.035 43.626 215.815 42.936 215.815C42.226 215.815 41.661 216.045 41.241 216.505C40.821 216.955 40.611 217.61 40.611 218.47V223H39.261V218.35C39.261 217.53 39.056 216.905 38.646 216.475C38.246 216.035 37.701 215.815 37.011 215.815C36.301 215.815 35.736 216.045 35.316 216.505C34.896 216.955 34.686 217.61 34.686 218.47V223H33.321V214.78H34.686V215.965C34.956 215.535 35.316 215.205 35.766 214.975C36.226 214.745 36.731 214.63 37.281 214.63C37.971 214.63 38.581 214.785 39.111 215.095C39.641 215.405 40.036 215.86 40.296 216.46C40.526 215.88 40.906 215.43 41.436 215.11C41.966 214.79 42.556 214.63 43.206 214.63ZM49.4801 213.445C49.2201 213.445 49.0001 213.355 48.8201 213.175C48.6401 212.995 48.5501 212.775 48.5501 212.515C48.5501 212.255 48.6401 212.035 48.8201 211.855C49.0001 211.675 49.2201 211.585 49.4801 211.585C49.7301 211.585 49.9401 211.675 50.1101 211.855C50.2901 212.035 50.3801 212.255 50.3801 212.515C50.3801 212.775 50.2901 212.995 50.1101 213.175C49.9401 213.355 49.7301 213.445 49.4801 213.445ZM50.1401 214.78V223H48.7751V214.78H50.1401ZM54.1315 215.905V220.75C54.1315 221.15 54.2165 221.435 54.3865 221.605C54.5565 221.765 54.8515 221.845 55.2715 221.845H56.2765V223H55.0465C54.2865 223 53.7165 222.825 53.3365 222.475C52.9565 222.125 52.7665 221.55 52.7665 220.75V215.905H51.7015V214.78H52.7665V212.71H54.1315V214.78H56.2765V215.905H54.1315ZM65.4304 218.575C65.4304 218.835 65.4154 219.11 65.3854 219.4H58.8154C58.8654 220.21 59.1404 220.845 59.6404 221.305C60.1504 221.755 60.7654 221.98 61.4854 221.98C62.0754 221.98 62.5654 221.845 62.9554 221.575C63.3554 221.295 63.6354 220.925 63.7954 220.465H65.2654C65.0454 221.255 64.6054 221.9 63.9454 222.4C63.2854 222.89 62.4654 223.135 61.4854 223.135C60.7054 223.135 60.0054 222.96 59.3854 222.61C58.7754 222.26 58.2954 221.765 57.9454 221.125C57.5954 220.475 57.4204 219.725 57.4204 218.875C57.4204 218.025 57.5904 217.28 57.9304 216.64C58.2704 216 58.7454 215.51 59.3554 215.17C59.9754 214.82 60.6854 214.645 61.4854 214.645C62.2654 214.645 62.9554 214.815 63.5554 215.155C64.1554 215.495 64.6154 215.965 64.9354 216.565C65.2654 217.155 65.4304 217.825 65.4304 218.575ZM64.0204 218.29C64.0204 217.77 63.9054 217.325 63.6754 216.955C63.4454 216.575 63.1304 216.29 62.7304 216.1C62.3404 215.9 61.9054 215.8 61.4254 215.8C60.7354 215.8 60.1454 216.02 59.6554 216.46C59.1754 216.9 58.9004 217.51 58.8304 218.29H64.0204ZM66.7221 218.86C66.7221 218.02 66.8921 217.285 67.2321 216.655C67.5721 216.015 68.0371 215.52 68.6271 215.17C69.2271 214.82 69.8971 214.645 70.6371 214.645C71.2771 214.645 71.8721 214.795 72.4221 215.095C72.9721 215.385 73.3921 215.77 73.6821 216.25V211.9H75.0621V223H73.6821V221.455C73.4121 221.945 73.0121 222.35 72.4821 222.67C71.9521 222.98 71.3321 223.135 70.6221 223.135C69.8921 223.135 69.2271 222.955 68.6271 222.595C68.0371 222.235 67.5721 221.73 67.2321 221.08C66.8921 220.43 66.7221 219.69 66.7221 218.86ZM73.6821 218.875C73.6821 218.255 73.5571 217.715 73.3071 217.255C73.0571 216.795 72.7171 216.445 72.2871 216.205C71.8671 215.955 71.4021 215.83 70.8921 215.83C70.3821 215.83 69.9171 215.95 69.4971 216.19C69.0771 216.43 68.7421 216.78 68.4921 217.24C68.2421 217.7 68.1171 218.24 68.1171 218.86C68.1171 219.49 68.2421 220.04 68.4921 220.51C68.7421 220.97 69.0771 221.325 69.4971 221.575C69.9171 221.815 70.3821 221.935 70.8921 221.935C71.4021 221.935 71.8671 221.815 72.2871 221.575C72.7171 221.325 73.0571 220.97 73.3071 220.51C73.5571 220.04 73.6821 219.495 73.6821 218.875ZM82.7329 216.295C83.0029 215.825 83.4029 215.435 83.9329 215.125C84.4729 214.805 85.0979 214.645 85.8079 214.645C86.5379 214.645 87.1979 214.82 87.7879 215.17C88.3879 215.52 88.8579 216.015 89.1979 216.655C89.5379 217.285 89.7079 218.02 89.7079 218.86C89.7079 219.69 89.5379 220.43 89.1979 221.08C88.8579 221.73 88.3879 222.235 87.7879 222.595C87.1979 222.955 86.5379 223.135 85.8079 223.135C85.1079 223.135 84.4879 222.98 83.9479 222.67C83.4179 222.35 83.0129 221.955 82.7329 221.485V226.9H81.3679V214.78H82.7329V216.295ZM88.3129 218.86C88.3129 218.24 88.1879 217.7 87.9379 217.24C87.6879 216.78 87.3479 216.43 86.9179 216.19C86.4979 215.95 86.0329 215.83 85.5229 215.83C85.0229 215.83 84.5579 215.955 84.1279 216.205C83.7079 216.445 83.3679 216.8 83.1079 217.27C82.8579 217.73 82.7329 218.265 82.7329 218.875C82.7329 219.495 82.8579 220.04 83.1079 220.51C83.3679 220.97 83.7079 221.325 84.1279 221.575C84.5579 221.815 85.0229 221.935 85.5229 221.935C86.0329 221.935 86.4979 221.815 86.9179 221.575C87.3479 221.325 87.6879 220.97 87.9379 220.51C88.1879 220.04 88.3129 219.49 88.3129 218.86ZM92.8696 216.115C93.1096 215.645 93.4496 215.28 93.8896 215.02C94.3396 214.76 94.8846 214.63 95.5246 214.63V216.04H95.1646C93.6346 216.04 92.8696 216.87 92.8696 218.53V223H91.5046V214.78H92.8696V216.115ZM100.685 223.135C99.9153 223.135 99.2153 222.96 98.5853 222.61C97.9653 222.26 97.4753 221.765 97.1153 221.125C96.7653 220.475 96.5903 219.725 96.5903 218.875C96.5903 218.035 96.7703 217.295 97.1303 216.655C97.5003 216.005 98.0003 215.51 98.6303 215.17C99.2603 214.82 99.9653 214.645 100.745 214.645C101.525 214.645 102.23 214.82 102.86 215.17C103.49 215.51 103.985 216 104.345 216.64C104.715 217.28 104.9 218.025 104.9 218.875C104.9 219.725 104.71 220.475 104.33 221.125C103.96 221.765 103.455 222.26 102.815 222.61C102.175 222.96 101.465 223.135 100.685 223.135ZM100.685 221.935C101.175 221.935 101.635 221.82 102.065 221.59C102.495 221.36 102.84 221.015 103.1 220.555C103.37 220.095 103.505 219.535 103.505 218.875C103.505 218.215 103.375 217.655 103.115 217.195C102.855 216.735 102.515 216.395 102.095 216.175C101.675 215.945 101.22 215.83 100.73 215.83C100.23 215.83 99.7703 215.945 99.3503 216.175C98.9403 216.395 98.6103 216.735 98.3603 217.195C98.1103 217.655 97.9853 218.215 97.9853 218.875C97.9853 219.545 98.1053 220.11 98.3453 220.57C98.5953 221.03 98.9253 221.375 99.3353 221.605C99.7453 221.825 100.195 221.935 100.685 221.935ZM108.36 215.905V220.75C108.36 221.15 108.445 221.435 108.615 221.605C108.785 221.765 109.08 221.845 109.5 221.845H110.505V223H109.275C108.515 223 107.945 222.825 107.565 222.475C107.185 222.125 106.995 221.55 106.995 220.75V215.905H105.93V214.78H106.995V212.71H108.36V214.78H110.505V215.905H108.36ZM119.659 218.575C119.659 218.835 119.644 219.11 119.614 219.4H113.044C113.094 220.21 113.369 220.845 113.869 221.305C114.379 221.755 114.994 221.98 115.714 221.98C116.304 221.98 116.794 221.845 117.184 221.575C117.584 221.295 117.864 220.925 118.024 220.465H119.494C119.274 221.255 118.834 221.9 118.174 222.4C117.514 222.89 116.694 223.135 115.714 223.135C114.934 223.135 114.234 222.96 113.614 222.61C113.004 222.26 112.524 221.765 112.174 221.125C111.824 220.475 111.649 219.725 111.649 218.875C111.649 218.025 111.819 217.28 112.159 216.64C112.499 216 112.974 215.51 113.584 215.17C114.204 214.82 114.914 214.645 115.714 214.645C116.494 214.645 117.184 214.815 117.784 215.155C118.384 215.495 118.844 215.965 119.164 216.565C119.494 217.155 119.659 217.825 119.659 218.575ZM118.249 218.29C118.249 217.77 118.134 217.325 117.904 216.955C117.674 216.575 117.359 216.29 116.959 216.1C116.569 215.9 116.134 215.8 115.654 215.8C114.964 215.8 114.374 216.02 113.884 216.46C113.404 216.9 113.129 217.51 113.059 218.29H118.249ZM120.951 218.875C120.951 218.025 121.121 217.285 121.461 216.655C121.801 216.015 122.271 215.52 122.871 215.17C123.481 214.82 124.176 214.645 124.956 214.645C125.966 214.645 126.796 214.89 127.446 215.38C128.106 215.87 128.541 216.55 128.751 217.42H127.281C127.141 216.92 126.866 216.525 126.456 216.235C126.056 215.945 125.556 215.8 124.956 215.8C124.176 215.8 123.546 216.07 123.066 216.61C122.586 217.14 122.346 217.895 122.346 218.875C122.346 219.865 122.586 220.63 123.066 221.17C123.546 221.71 124.176 221.98 124.956 221.98C125.556 221.98 126.056 221.84 126.456 221.56C126.856 221.28 127.131 220.88 127.281 220.36H128.751C128.531 221.2 128.091 221.875 127.431 222.385C126.771 222.885 125.946 223.135 124.956 223.135C124.176 223.135 123.481 222.96 122.871 222.61C122.271 222.26 121.801 221.765 121.461 221.125C121.121 220.485 120.951 219.735 120.951 218.875ZM132.237 215.905V220.75C132.237 221.15 132.322 221.435 132.492 221.605C132.662 221.765 132.957 221.845 133.377 221.845H134.382V223H133.152C132.392 223 131.822 222.825 131.442 222.475C131.062 222.125 130.872 221.55 130.872 220.75V215.905H129.807V214.78H130.872V212.71H132.237V214.78H134.382V215.905H132.237ZM136.741 213.445C136.481 213.445 136.261 213.355 136.081 213.175C135.901 212.995 135.811 212.775 135.811 212.515C135.811 212.255 135.901 212.035 136.081 211.855C136.261 211.675 136.481 211.585 136.741 211.585C136.991 211.585 137.201 211.675 137.371 211.855C137.551 212.035 137.641 212.255 137.641 212.515C137.641 212.775 137.551 212.995 137.371 213.175C137.201 213.355 136.991 213.445 136.741 213.445ZM137.401 214.78V223H136.036V214.78H137.401ZM143.312 223.135C142.542 223.135 141.842 222.96 141.212 222.61C140.592 222.26 140.102 221.765 139.742 221.125C139.392 220.475 139.217 219.725 139.217 218.875C139.217 218.035 139.397 217.295 139.757 216.655C140.127 216.005 140.627 215.51 141.257 215.17C141.887 214.82 142.592 214.645 143.372 214.645C144.152 214.645 144.857 214.82 145.487 215.17C146.117 215.51 146.612 216 146.972 216.64C147.342 217.28 147.527 218.025 147.527 218.875C147.527 219.725 147.337 220.475 146.957 221.125C146.587 221.765 146.082 222.26 145.442 222.61C144.802 222.96 144.092 223.135 143.312 223.135ZM143.312 221.935C143.802 221.935 144.262 221.82 144.692 221.59C145.122 221.36 145.467 221.015 145.727 220.555C145.997 220.095 146.132 219.535 146.132 218.875C146.132 218.215 146.002 217.655 145.742 217.195C145.482 216.735 145.142 216.395 144.722 216.175C144.302 215.945 143.847 215.83 143.357 215.83C142.857 215.83 142.397 215.945 141.977 216.175C141.567 216.395 141.237 216.735 140.987 217.195C140.737 217.655 140.612 218.215 140.612 218.875C140.612 219.545 140.732 220.11 140.972 220.57C141.222 221.03 141.552 221.375 141.962 221.605C142.372 221.825 142.822 221.935 143.312 221.935ZM153.327 214.63C154.327 214.63 155.137 214.935 155.757 215.545C156.377 216.145 156.687 217.015 156.687 218.155V223H155.337V218.35C155.337 217.53 155.132 216.905 154.722 216.475C154.312 216.035 153.752 215.815 153.042 215.815C152.322 215.815 151.747 216.04 151.317 216.49C150.897 216.94 150.687 217.595 150.687 218.455V223H149.322V214.78H150.687V215.95C150.957 215.53 151.322 215.205 151.782 214.975C152.252 214.745 152.767 214.63 153.327 214.63Z" fill="white"/>
<rect x="12" y="252" width="236" height="78" rx="15" fill="white" fill-opacity="0.08"/>
<path d="M22 274C22 267.373 27.3726 262 34 262H170C176.627 262 182 267.373 182 274V277C182 283.627 176.627 289 170 289H34C27.3726 289 22 283.627 22 277V274Z" fill="#5F5929"/>
<path d="M40 272.25C40.4142 272.25 40.75 272.586 40.75 273V276.5C40.75 276.914 40.4142 277.25 40 277.25C39.5858 277.25 39.25 276.914 39.25 276.5V273C39.25 272.586 39.5858 272.25 40 272.25Z" fill="#F6EA8E"/>
<path d="M41 279C41 279.552 40.5523 280 40 280C39.4477 280 39 279.552 39 279C39 278.448 39.4477 278 40 278C40.5523 278 41 278.448 41 279Z" fill="#F6EA8E"/>
<path fill-rule="evenodd" clip-rule="evenodd" d="M40.0001 269C38.9547 269 38.2162 269.702 37.8477 270.447C37.6557 270.834 36.7599 272.544 35.8431 274.294L35.8153 274.346C34.9229 276.049 34.0172 277.778 33.8072 278.202C33.4351 278.954 33.3293 279.952 33.8996 280.816C34.4691 281.679 35.4423 282 36.3636 282L43.6364 282C44.5577 282 45.5309 281.679 46.1005 280.816C46.6707 279.952 46.5649 278.954 46.1928 278.202C45.9832 277.778 45.08 276.055 44.189 274.355L44.1569 274.294C43.24 272.544 42.3443 270.835 42.1525 270.447C41.784 269.702 41.0455 269 40.0001 269ZM39.1919 271.112C39.5961 270.296 40.4041 270.296 40.8081 271.112C41.0102 271.521 41.9201 273.257 42.8297 274.992C43.7383 276.726 44.6466 278.459 44.8485 278.867C45.2525 279.684 44.8485 280.5 43.6364 280.5L36.3636 280.5C35.1515 280.5 34.7475 279.684 35.1515 278.867C35.3538 278.459 36.2647 276.72 37.1748 274.984C38.0829 273.251 38.9901 271.52 39.1919 271.112Z" fill="#F6EA8E"/>
<path d="M54.481 275.463C54.481 274.579 54.6847 273.786 55.092 273.084C55.508 272.382 56.067 271.836 56.769 271.446C57.4797 271.047 58.2553 270.848 59.096 270.848C60.058 270.848 60.9117 271.086 61.657 271.563C62.411 272.031 62.957 272.698 63.295 273.565H61.514C61.28 273.088 60.955 272.733 60.539 272.499C60.123 272.265 59.642 272.148 59.096 272.148C58.498 272.148 57.965 272.282 57.497 272.551C57.029 272.82 56.6607 273.205 56.392 273.708C56.132 274.211 56.002 274.796 56.002 275.463C56.002 276.13 56.132 276.715 56.392 277.218C56.6607 277.721 57.029 278.111 57.497 278.388C57.965 278.657 58.498 278.791 59.096 278.791C59.642 278.791 60.123 278.674 60.539 278.44C60.955 278.206 61.28 277.851 61.514 277.374H63.295C62.957 278.241 62.411 278.908 61.657 279.376C60.9117 279.844 60.058 280.078 59.096 280.078C58.2467 280.078 57.471 279.883 56.769 279.493C56.067 279.094 55.508 278.544 55.092 277.842C54.6847 277.14 54.481 276.347 54.481 275.463ZM64.5357 276.386C64.5357 275.667 64.683 275.03 64.9777 274.475C65.281 273.92 65.6884 273.491 66.1997 273.188C66.7197 272.876 67.2917 272.72 67.9157 272.72C68.479 272.72 68.9687 272.833 69.3847 273.058C69.8094 273.275 70.1474 273.548 70.3987 273.877V272.837H71.8937V280H70.3987V278.934C70.1474 279.272 69.805 279.554 69.3717 279.779C68.9384 280.004 68.4444 280.117 67.8897 280.117C67.2744 280.117 66.711 279.961 66.1997 279.649C65.6884 279.328 65.281 278.886 64.9777 278.323C64.683 277.751 64.5357 277.105 64.5357 276.386ZM70.3987 276.412C70.3987 275.918 70.2947 275.489 70.0867 275.125C69.8874 274.761 69.623 274.484 69.2937 274.293C68.9644 274.102 68.609 274.007 68.2277 274.007C67.8464 274.007 67.491 274.102 67.1617 274.293C66.8324 274.475 66.5637 274.748 66.3557 275.112C66.1564 275.467 66.0567 275.892 66.0567 276.386C66.0567 276.88 66.1564 277.313 66.3557 277.686C66.5637 278.059 66.8324 278.345 67.1617 278.544C67.4997 278.735 67.855 278.83 68.2277 278.83C68.609 278.83 68.9644 278.735 69.2937 278.544C69.623 278.353 69.8874 278.076 70.0867 277.712C70.2947 277.339 70.3987 276.906 70.3987 276.412ZM77.4542 272.72C78.0176 272.72 78.5202 272.837 78.9622 273.071C79.4129 273.305 79.7639 273.652 80.0152 274.111C80.2666 274.57 80.3922 275.125 80.3922 275.775V280H78.9232V275.996C78.9232 275.355 78.7629 274.865 78.4422 274.527C78.1216 274.18 77.6839 274.007 77.1292 274.007C76.5746 274.007 76.1326 274.18 75.8032 274.527C75.4826 274.865 75.3222 275.355 75.3222 275.996V280H73.8402V272.837H75.3222V273.656C75.5649 273.361 75.8726 273.132 76.2452 272.967C76.6266 272.802 77.0296 272.72 77.4542 272.72ZM85.8966 272.72C86.46 272.72 86.9626 272.837 87.4046 273.071C87.8553 273.305 88.2063 273.652 88.4576 274.111C88.709 274.57 88.8346 275.125 88.8346 275.775V280H87.3656V275.996C87.3656 275.355 87.2053 274.865 86.8846 274.527C86.564 274.18 86.1263 274.007 85.5716 274.007C85.017 274.007 84.575 274.18 84.2456 274.527C83.925 274.865 83.7646 275.355 83.7646 275.996V280H82.2826V272.837H83.7646V273.656C84.0073 273.361 84.315 273.132 84.6876 272.967C85.069 272.802 85.472 272.72 85.8966 272.72ZM93.832 280.117C93.156 280.117 92.545 279.965 91.999 279.662C91.453 279.35 91.024 278.917 90.712 278.362C90.4 277.799 90.244 277.149 90.244 276.412C90.244 275.684 90.4043 275.038 90.725 274.475C91.0457 273.912 91.4833 273.478 92.038 273.175C92.5927 272.872 93.2123 272.72 93.897 272.72C94.5817 272.72 95.2013 272.872 95.756 273.175C96.3107 273.478 96.7483 273.912 97.069 274.475C97.3897 275.038 97.55 275.684 97.55 276.412C97.55 277.14 97.3853 277.786 97.056 278.349C96.7267 278.912 96.276 279.35 95.704 279.662C95.1407 279.965 94.5167 280.117 93.832 280.117ZM93.832 278.83C94.2133 278.83 94.5687 278.739 94.898 278.557C95.236 278.375 95.509 278.102 95.717 277.738C95.925 277.374 96.029 276.932 96.029 276.412C96.029 275.892 95.9293 275.454 95.73 275.099C95.5307 274.735 95.2663 274.462 94.937 274.28C94.6077 274.098 94.2523 274.007 93.871 274.007C93.4897 274.007 93.1343 274.098 92.805 274.28C92.4843 274.462 92.2287 274.735 92.038 275.099C91.8473 275.454 91.752 275.892 91.752 276.412C91.752 277.183 91.947 277.781 92.337 278.206C92.7357 278.622 93.234 278.83 93.832 278.83ZM100.744 274.046V278.011C100.744 278.28 100.805 278.475 100.926 278.596C101.056 278.709 101.273 278.765 101.576 278.765H102.486V280H101.316C100.649 280 100.137 279.844 99.782 279.532C99.4267 279.22 99.249 278.713 99.249 278.011V274.046H98.404V272.837H99.249V271.056H100.744V272.837H102.486V274.046H100.744ZM112.065 275.359C112.55 275.446 112.962 275.701 113.3 276.126C113.638 276.551 113.807 277.032 113.807 277.569C113.807 278.028 113.686 278.444 113.443 278.817C113.209 279.181 112.867 279.471 112.416 279.688C111.965 279.896 111.441 280 110.843 280H107.229V270.965H110.674C111.289 270.965 111.818 271.069 112.26 271.277C112.702 271.485 113.036 271.767 113.261 272.122C113.486 272.469 113.599 272.859 113.599 273.292C113.599 273.812 113.46 274.245 113.183 274.592C112.906 274.939 112.533 275.194 112.065 275.359ZM108.711 274.761H110.544C111.029 274.761 111.406 274.653 111.675 274.436C111.952 274.211 112.091 273.89 112.091 273.474C112.091 273.067 111.952 272.75 111.675 272.525C111.406 272.291 111.029 272.174 110.544 272.174H108.711V274.761ZM110.713 278.791C111.216 278.791 111.61 278.67 111.896 278.427C112.182 278.184 112.325 277.846 112.325 277.413C112.325 276.971 112.173 276.62 111.87 276.36C111.567 276.1 111.164 275.97 110.661 275.97H108.711V278.791H110.713ZM116.899 270.38V280H115.417V270.38H116.899ZM121.952 280.117C121.276 280.117 120.665 279.965 120.119 279.662C119.573 279.35 119.144 278.917 118.832 278.362C118.52 277.799 118.364 277.149 118.364 276.412C118.364 275.684 118.524 275.038 118.845 274.475C119.166 273.912 119.603 273.478 120.158 273.175C120.713 272.872 121.332 272.72 122.017 272.72C122.702 272.72 123.321 272.872 123.876 273.175C124.431 273.478 124.868 273.912 125.189 274.475C125.51 275.038 125.67 275.684 125.67 276.412C125.67 277.14 125.505 277.786 125.176 278.349C124.847 278.912 124.396 279.35 123.824 279.662C123.261 279.965 122.637 280.117 121.952 280.117ZM121.952 278.83C122.333 278.83 122.689 278.739 123.018 278.557C123.356 278.375 123.629 278.102 123.837 277.738C124.045 277.374 124.149 276.932 124.149 276.412C124.149 275.892 124.049 275.454 123.85 275.099C123.651 274.735 123.386 274.462 123.057 274.28C122.728 274.098 122.372 274.007 121.991 274.007C121.61 274.007 121.254 274.098 120.925 274.28C120.604 274.462 120.349 274.735 120.158 275.099C119.967 275.454 119.872 275.892 119.872 276.412C119.872 277.183 120.067 277.781 120.457 278.206C120.856 278.622 121.354 278.83 121.952 278.83ZM126.641 276.412C126.641 275.675 126.788 275.03 127.083 274.475C127.386 273.912 127.802 273.478 128.331 273.175C128.86 272.872 129.466 272.72 130.151 272.72C131.018 272.72 131.733 272.928 132.296 273.344C132.868 273.751 133.254 274.336 133.453 275.099H131.854C131.724 274.744 131.516 274.466 131.23 274.267C130.944 274.068 130.584 273.968 130.151 273.968C129.544 273.968 129.059 274.185 128.695 274.618C128.34 275.043 128.162 275.641 128.162 276.412C128.162 277.183 128.34 277.786 128.695 278.219C129.059 278.652 129.544 278.869 130.151 278.869C131.009 278.869 131.577 278.492 131.854 277.738H133.453C133.245 278.466 132.855 279.047 132.283 279.48C131.711 279.905 131 280.117 130.151 280.117C129.466 280.117 128.86 279.965 128.331 279.662C127.802 279.35 127.386 278.917 127.083 278.362C126.788 277.799 126.641 277.149 126.641 276.412ZM137.764 276.425L141.066 280H139.064L136.412 276.919V280H134.93V270.38H136.412V275.97L139.012 272.837H141.066L137.764 276.425ZM150.341 275.359C150.827 275.446 151.238 275.701 151.576 276.126C151.914 276.551 152.083 277.032 152.083 277.569C152.083 278.028 151.962 278.444 151.719 278.817C151.485 279.181 151.143 279.471 150.692 279.688C150.242 279.896 149.717 280 149.119 280H145.505V270.965H148.95C149.566 270.965 150.094 271.069 150.536 271.277C150.978 271.485 151.312 271.767 151.537 272.122C151.763 272.469 151.875 272.859 151.875 273.292C151.875 273.812 151.737 274.245 151.459 274.592C151.182 274.939 150.809 275.194 150.341 275.359ZM146.987 274.761H148.82C149.306 274.761 149.683 274.653 149.951 274.436C150.229 274.211 150.367 273.89 150.367 273.474C150.367 273.067 150.229 272.75 149.951 272.525C149.683 272.291 149.306 272.174 148.82 272.174H146.987V274.761ZM148.989 278.791C149.492 278.791 149.886 278.67 150.172 278.427C150.458 278.184 150.601 277.846 150.601 277.413C150.601 276.971 150.45 276.62 150.146 276.36C149.843 276.1 149.44 275.97 148.937 275.97H146.987V278.791H148.989ZM156.801 280.117C156.125 280.117 155.514 279.965 154.968 279.662C154.422 279.35 153.993 278.917 153.681 278.362C153.369 277.799 153.213 277.149 153.213 276.412C153.213 275.684 153.373 275.038 153.694 274.475C154.014 273.912 154.452 273.478 155.007 273.175C155.561 272.872 156.181 272.72 156.866 272.72C157.55 272.72 158.17 272.872 158.725 273.175C159.279 273.478 159.717 273.912 160.038 274.475C160.358 275.038 160.519 275.684 160.519 276.412C160.519 277.14 160.354 277.786 160.025 278.349C159.695 278.912 159.245 279.35 158.673 279.662C158.109 279.965 157.485 280.117 156.801 280.117ZM156.801 278.83C157.182 278.83 157.537 278.739 157.867 278.557C158.205 278.375 158.478 278.102 158.686 277.738C158.894 277.374 158.998 276.932 158.998 276.412C158.998 275.892 158.898 275.454 158.699 275.099C158.499 274.735 158.235 274.462 157.906 274.28C157.576 274.098 157.221 274.007 156.84 274.007C156.458 274.007 156.103 274.098 155.774 274.28C155.453 274.462 155.197 274.735 155.007 275.099C154.816 275.454 154.721 275.892 154.721 276.412C154.721 277.183 154.916 277.781 155.306 278.206C155.704 278.622 156.203 278.83 156.801 278.83ZM163.713 274.046V278.011C163.713 278.28 163.773 278.475 163.895 278.596C164.025 278.709 164.241 278.765 164.545 278.765H165.455V280H164.285C163.617 280 163.106 279.844 162.751 279.532C162.395 279.22 162.218 278.713 162.218 278.011V274.046H161.373V272.837H162.218V271.056H163.713V272.837H165.455V274.046H163.713Z" fill="#F6EA8E"/>
<path d="M31.795 305.545L27.85 316H26.275L22.33 305.545H23.785L27.07 314.56L30.355 305.545H31.795ZM40.5817 307.78V316H39.2167V314.785C38.9567 315.205 38.5917 315.535 38.1217 315.775C37.6617 316.005 37.1517 316.12 36.5917 316.12C35.9517 316.12 35.3767 315.99 34.8667 315.73C34.3567 315.46 33.9517 315.06 33.6517 314.53C33.3617 314 33.2167 313.355 33.2167 312.595V307.78H34.5667V312.415C34.5667 313.225 34.7717 313.85 35.1817 314.29C35.5917 314.72 36.1517 314.935 36.8617 314.935C37.5917 314.935 38.1667 314.71 38.5867 314.26C39.0067 313.81 39.2167 313.155 39.2167 312.295V307.78H40.5817ZM44.2514 304.9V316H42.8864V304.9H44.2514ZM50.5829 307.63C51.5829 307.63 52.3929 307.935 53.0129 308.545C53.6329 309.145 53.9429 310.015 53.9429 311.155V316H52.5929V311.35C52.5929 310.53 52.3879 309.905 51.9779 309.475C51.5679 309.035 51.0079 308.815 50.2979 308.815C49.5779 308.815 49.0029 309.04 48.5729 309.49C48.1529 309.94 47.9429 310.595 47.9429 311.455V316H46.5779V307.78H47.9429V308.95C48.2129 308.53 48.5779 308.205 49.0379 307.975C49.5079 307.745 50.0229 307.63 50.5829 307.63ZM63.6726 311.575C63.6726 311.835 63.6576 312.11 63.6276 312.4H57.0576C57.1076 313.21 57.3826 313.845 57.8826 314.305C58.3926 314.755 59.0076 314.98 59.7276 314.98C60.3176 314.98 60.8076 314.845 61.1976 314.575C61.5976 314.295 61.8776 313.925 62.0376 313.465H63.5076C63.2876 314.255 62.8476 314.9 62.1876 315.4C61.5276 315.89 60.7076 316.135 59.7276 316.135C58.9476 316.135 58.2476 315.96 57.6276 315.61C57.0176 315.26 56.5376 314.765 56.1876 314.125C55.8376 313.475 55.6626 312.725 55.6626 311.875C55.6626 311.025 55.8326 310.28 56.1726 309.64C56.5126 309 56.9876 308.51 57.5976 308.17C58.2176 307.82 58.9276 307.645 59.7276 307.645C60.5076 307.645 61.1976 307.815 61.7976 308.155C62.3976 308.495 62.8576 308.965 63.1776 309.565C63.5076 310.155 63.6726 310.825 63.6726 311.575ZM62.2626 311.29C62.2626 310.77 62.1476 310.325 61.9176 309.955C61.6876 309.575 61.3726 309.29 60.9726 309.1C60.5826 308.9 60.1476 308.8 59.6676 308.8C58.9776 308.8 58.3876 309.02 57.8976 309.46C57.4176 309.9 57.1426 310.51 57.0726 311.29H62.2626ZM66.8393 309.115C67.0793 308.645 67.4193 308.28 67.8593 308.02C68.3093 307.76 68.8543 307.63 69.4943 307.63V309.04H69.1343C67.6043 309.04 66.8393 309.87 66.8393 311.53V316H65.4743V307.78H66.8393V309.115ZM70.56 311.86C70.56 311.02 70.73 310.285 71.07 309.655C71.41 309.015 71.875 308.52 72.465 308.17C73.065 307.82 73.73 307.645 74.46 307.645C75.18 307.645 75.805 307.8 76.335 308.11C76.865 308.42 77.26 308.81 77.52 309.28V307.78H78.9V316H77.52V314.47C77.25 314.95 76.845 315.35 76.305 315.67C75.775 315.98 75.155 316.135 74.445 316.135C73.715 316.135 73.055 315.955 72.465 315.595C71.875 315.235 71.41 314.73 71.07 314.08C70.73 313.43 70.56 312.69 70.56 311.86ZM77.52 311.875C77.52 311.255 77.395 310.715 77.145 310.255C76.895 309.795 76.555 309.445 76.125 309.205C75.705 308.955 75.24 308.83 74.73 308.83C74.22 308.83 73.755 308.95 73.335 309.19C72.915 309.43 72.58 309.78 72.33 310.24C72.08 310.7 71.955 311.24 71.955 311.86C71.955 312.49 72.08 313.04 72.33 313.51C72.58 313.97 72.915 314.325 73.335 314.575C73.755 314.815 74.22 314.935 74.73 314.935C75.24 314.935 75.705 314.815 76.125 314.575C76.555 314.325 76.895 313.97 77.145 313.51C77.395 313.04 77.52 312.495 77.52 311.875ZM82.5718 309.31C82.8518 308.82 83.2618 308.42 83.8018 308.11C84.3418 307.8 84.9568 307.645 85.6468 307.645C86.3868 307.645 87.0518 307.82 87.6418 308.17C88.2318 308.52 88.6968 309.015 89.0368 309.655C89.3768 310.285 89.5468 311.02 89.5468 311.86C89.5468 312.69 89.3768 313.43 89.0368 314.08C88.6968 314.73 88.2268 315.235 87.6268 315.595C87.0368 315.955 86.3768 316.135 85.6468 316.135C84.9368 316.135 84.3118 315.98 83.7718 315.67C83.2418 315.36 82.8418 314.965 82.5718 314.485V316H81.2068V304.9H82.5718V309.31ZM88.1518 311.86C88.1518 311.24 88.0268 310.7 87.7768 310.24C87.5268 309.78 87.1868 309.43 86.7568 309.19C86.3368 308.95 85.8718 308.83 85.3618 308.83C84.8618 308.83 84.3968 308.955 83.9668 309.205C83.5468 309.445 83.2068 309.8 82.9468 310.27C82.6968 310.73 82.5718 311.265 82.5718 311.875C82.5718 312.495 82.6968 313.04 82.9468 313.51C83.2068 313.97 83.5468 314.325 83.9668 314.575C84.3968 314.815 84.8618 314.935 85.3618 314.935C85.8718 314.935 86.3368 314.815 86.7568 314.575C87.1868 314.325 87.5268 313.97 87.7768 313.51C88.0268 313.04 88.1518 312.49 88.1518 311.86ZM92.7085 304.9V316H91.3435V304.9H92.7085ZM102.535 311.575C102.535 311.835 102.52 312.11 102.49 312.4H95.9199C95.9699 313.21 96.2449 313.845 96.7449 314.305C97.2549 314.755 97.8699 314.98 98.5899 314.98C99.1799 314.98 99.6699 314.845 100.06 314.575C100.46 314.295 100.74 313.925 100.9 313.465H102.37C102.15 314.255 101.71 314.9 101.05 315.4C100.39 315.89 99.5699 316.135 98.5899 316.135C97.8099 316.135 97.1099 315.96 96.4899 315.61C95.8799 315.26 95.3999 314.765 95.0499 314.125C94.6999 313.475 94.5249 312.725 94.5249 311.875C94.5249 311.025 94.6949 310.28 95.0349 309.64C95.3749 309 95.8499 308.51 96.4599 308.17C97.0799 307.82 97.7899 307.645 98.5899 307.645C99.3699 307.645 100.06 307.815 100.66 308.155C101.26 308.495 101.72 308.965 102.04 309.565C102.37 310.155 102.535 310.825 102.535 311.575ZM101.125 311.29C101.125 310.77 101.01 310.325 100.78 309.955C100.55 309.575 100.235 309.29 99.8349 309.1C99.4449 308.9 99.0099 308.8 98.5299 308.8C97.8399 308.8 97.2499 309.02 96.7599 309.46C96.2799 309.9 96.0049 310.51 95.9349 311.29H101.125ZM110.001 308.905V313.75C110.001 314.15 110.086 314.435 110.256 314.605C110.426 314.765 110.721 314.845 111.141 314.845H112.146V316H110.916C110.156 316 109.586 315.825 109.206 315.475C108.826 315.125 108.636 314.55 108.636 313.75V308.905H107.571V307.78H108.636V305.71H110.001V307.78H112.146V308.905H110.001ZM117.385 316.135C116.615 316.135 115.915 315.96 115.285 315.61C114.665 315.26 114.175 314.765 113.815 314.125C113.465 313.475 113.29 312.725 113.29 311.875C113.29 311.035 113.47 310.295 113.83 309.655C114.2 309.005 114.7 308.51 115.33 308.17C115.96 307.82 116.665 307.645 117.445 307.645C118.225 307.645 118.93 307.82 119.56 308.17C120.19 308.51 120.685 309 121.045 309.64C121.415 310.28 121.6 311.025 121.6 311.875C121.6 312.725 121.41 313.475 121.03 314.125C120.66 314.765 120.155 315.26 119.515 315.61C118.875 315.96 118.165 316.135 117.385 316.135ZM117.385 314.935C117.875 314.935 118.335 314.82 118.765 314.59C119.195 314.36 119.54 314.015 119.8 313.555C120.07 313.095 120.205 312.535 120.205 311.875C120.205 311.215 120.075 310.655 119.815 310.195C119.555 309.735 119.215 309.395 118.795 309.175C118.375 308.945 117.92 308.83 117.43 308.83C116.93 308.83 116.47 308.945 116.05 309.175C115.64 309.395 115.31 309.735 115.06 310.195C114.81 310.655 114.685 311.215 114.685 311.875C114.685 312.545 114.805 313.11 115.045 313.57C115.295 314.03 115.625 314.375 116.035 314.605C116.445 314.825 116.895 314.935 117.385 314.935ZM126.883 311.86C126.883 311.02 127.053 310.285 127.393 309.655C127.733 309.015 128.198 308.52 128.788 308.17C129.388 307.82 130.053 307.645 130.783 307.645C131.503 307.645 132.128 307.8 132.658 308.11C133.188 308.42 133.583 308.81 133.843 309.28V307.78H135.223V316H133.843V314.47C133.573 314.95 133.168 315.35 132.628 315.67C132.098 315.98 131.478 316.135 130.768 316.135C130.038 316.135 129.378 315.955 128.788 315.595C128.198 315.235 127.733 314.73 127.393 314.08C127.053 313.43 126.883 312.69 126.883 311.86ZM133.843 311.875C133.843 311.255 133.718 310.715 133.468 310.255C133.218 309.795 132.878 309.445 132.448 309.205C132.028 308.955 131.563 308.83 131.053 308.83C130.543 308.83 130.078 308.95 129.658 309.19C129.238 309.43 128.903 309.78 128.653 310.24C128.403 310.7 128.278 311.24 128.278 311.86C128.278 312.49 128.403 313.04 128.653 313.51C128.903 313.97 129.238 314.325 129.658 314.575C130.078 314.815 130.543 314.935 131.053 314.935C131.563 314.935 132.028 314.815 132.448 314.575C132.878 314.325 133.218 313.97 133.468 313.51C133.718 313.04 133.843 312.495 133.843 311.875ZM139.195 308.905V313.75C139.195 314.15 139.28 314.435 139.45 314.605C139.62 314.765 139.915 314.845 140.335 314.845H141.34V316H140.11C139.35 316 138.78 315.825 138.4 315.475C138.02 315.125 137.83 314.55 137.83 313.75V308.905H136.765V307.78H137.83V305.71H139.195V307.78H141.34V308.905H139.195ZM144.659 308.905V313.75C144.659 314.15 144.744 314.435 144.914 314.605C145.084 314.765 145.379 314.845 145.799 314.845H146.804V316H145.574C144.814 316 144.244 315.825 143.864 315.475C143.484 315.125 143.294 314.55 143.294 313.75V308.905H142.229V307.78H143.294V305.71H144.659V307.78H146.804V308.905H144.659ZM147.948 311.86C147.948 311.02 148.118 310.285 148.458 309.655C148.798 309.015 149.263 308.52 149.853 308.17C150.453 307.82 151.118 307.645 151.848 307.645C152.568 307.645 153.193 307.8 153.723 308.11C154.253 308.42 154.648 308.81 154.908 309.28V307.78H156.288V316H154.908V314.47C154.638 314.95 154.233 315.35 153.693 315.67C153.163 315.98 152.543 316.135 151.833 316.135C151.103 316.135 150.443 315.955 149.853 315.595C149.263 315.235 148.798 314.73 148.458 314.08C148.118 313.43 147.948 312.69 147.948 311.86ZM154.908 311.875C154.908 311.255 154.783 310.715 154.533 310.255C154.283 309.795 153.943 309.445 153.513 309.205C153.093 308.955 152.628 308.83 152.118 308.83C151.608 308.83 151.143 308.95 150.723 309.19C150.303 309.43 149.968 309.78 149.718 310.24C149.468 310.7 149.343 311.24 149.343 311.86C149.343 312.49 149.468 313.04 149.718 313.51C149.968 313.97 150.303 314.325 150.723 314.575C151.143 314.815 151.608 314.935 152.118 314.935C152.628 314.935 153.093 314.815 153.513 314.575C153.943 314.325 154.283 313.97 154.533 313.51C154.783 313.04 154.908 312.495 154.908 311.875ZM158.084 311.875C158.084 311.025 158.254 310.285 158.594 309.655C158.934 309.015 159.404 308.52 160.004 308.17C160.614 307.82 161.309 307.645 162.089 307.645C163.099 307.645 163.929 307.89 164.579 308.38C165.239 308.87 165.674 309.55 165.884 310.42H164.414C164.274 309.92 163.999 309.525 163.589 309.235C163.189 308.945 162.689 308.8 162.089 308.8C161.309 308.8 160.679 309.07 160.199 309.61C159.719 310.14 159.479 310.895 159.479 311.875C159.479 312.865 159.719 313.63 160.199 314.17C160.679 314.71 161.309 314.98 162.089 314.98C162.689 314.98 163.189 314.84 163.589 314.56C163.989 314.28 164.264 313.88 164.414 313.36H165.884C165.664 314.2 165.224 314.875 164.564 315.385C163.904 315.885 163.079 316.135 162.089 316.135C161.309 316.135 160.614 315.96 160.004 315.61C159.404 315.26 158.934 314.765 158.594 314.125C158.254 313.485 158.084 312.735 158.084 311.875ZM172.296 316L169.071 312.37V316H167.706V304.9H169.071V311.425L172.236 307.78H174.141L170.271 311.875L174.156 316H172.296ZM178.336 316.135C177.706 316.135 177.141 316.03 176.641 315.82C176.141 315.6 175.746 315.3 175.456 314.92C175.166 314.53 175.006 314.085 174.976 313.585H176.386C176.426 313.995 176.616 314.33 176.956 314.59C177.306 314.85 177.761 314.98 178.321 314.98C178.841 314.98 179.251 314.865 179.551 314.635C179.851 314.405 180.001 314.115 180.001 313.765C180.001 313.405 179.841 313.14 179.521 312.97C179.201 312.79 178.706 312.615 178.036 312.445C177.426 312.285 176.926 312.125 176.536 311.965C176.156 311.795 175.826 311.55 175.546 311.23C175.276 310.9 175.141 310.47 175.141 309.94C175.141 309.52 175.266 309.135 175.516 308.785C175.766 308.435 176.121 308.16 176.581 307.96C177.041 307.75 177.566 307.645 178.156 307.645C179.066 307.645 179.801 307.875 180.361 308.335C180.921 308.795 181.221 309.425 181.261 310.225H179.896C179.866 309.795 179.691 309.45 179.371 309.19C179.061 308.93 178.641 308.8 178.111 308.8C177.621 308.8 177.231 308.905 176.941 309.115C176.651 309.325 176.506 309.6 176.506 309.94C176.506 310.21 176.591 310.435 176.761 310.615C176.941 310.785 177.161 310.925 177.421 311.035C177.691 311.135 178.061 311.25 178.531 311.38C179.121 311.54 179.601 311.7 179.971 311.86C180.341 312.01 180.656 312.24 180.916 312.55C181.186 312.86 181.326 313.265 181.336 313.765C181.336 314.215 181.211 314.62 180.961 314.98C180.711 315.34 180.356 315.625 179.896 315.835C179.446 316.035 178.926 316.135 178.336 316.135Z" fill="white"/>
</svg>
