<svg width="260" height="353" viewBox="0 0 260 353" fill="none" xmlns="http://www.w3.org/2000/svg">
<rect x="0.5" y="0.5" width="259" height="352" rx="24.5" fill="#0C0200"/>
<rect x="0.5" y="0.5" width="259" height="352" rx="24.5" stroke="#FF4B1E"/>
<path d="M84.036 29.436L80.526 42H77.556L75.198 33.054L72.732 42L69.78 42.018L66.396 29.436H69.096L71.31 39.192L73.866 29.436H76.674L79.086 39.138L81.318 29.436H84.036ZM86.9595 30.84C86.5155 30.84 86.1435 30.702 85.8435 30.426C85.5555 30.138 85.4115 29.784 85.4115 29.364C85.4115 28.944 85.5555 28.596 85.8435 28.32C86.1435 28.032 86.5155 27.888 86.9595 27.888C87.4035 27.888 87.7695 28.032 88.0575 28.32C88.3575 28.596 88.5075 28.944 88.5075 29.364C88.5075 29.784 88.3575 30.138 88.0575 30.426C87.7695 30.702 87.4035 30.84 86.9595 30.84ZM88.2015 32.028V42H85.6815V32.028H88.2015ZM93.6252 34.098V38.922C93.6252 39.258 93.7032 39.504 93.8592 39.66C94.0272 39.804 94.3032 39.876 94.6872 39.876H95.8572V42H94.2732C92.1492 42 91.0872 40.968 91.0872 38.904V34.098H89.8992V32.028H91.0872V29.562H93.6252V32.028H95.8572V34.098H93.6252ZM103.286 31.884C104.042 31.884 104.714 32.052 105.302 32.388C105.89 32.712 106.346 33.198 106.67 33.846C107.006 34.482 107.174 35.25 107.174 36.15V42H104.654V36.492C104.654 35.7 104.456 35.094 104.06 34.674C103.664 34.242 103.124 34.026 102.44 34.026C101.744 34.026 101.192 34.242 100.784 34.674C100.388 35.094 100.19 35.7 100.19 36.492V42H97.6697V28.68H100.19V33.27C100.514 32.838 100.946 32.502 101.486 32.262C102.026 32.01 102.626 31.884 103.286 31.884ZM125.145 29.436L120.537 42H117.477L112.869 29.436H115.569L119.025 39.426L122.463 29.436H125.145ZM127.934 30.84C127.49 30.84 127.118 30.702 126.818 30.426C126.53 30.138 126.386 29.784 126.386 29.364C126.386 28.944 126.53 28.596 126.818 28.32C127.118 28.032 127.49 27.888 127.934 27.888C128.378 27.888 128.744 28.032 129.032 28.32C129.332 28.596 129.482 28.944 129.482 29.364C129.482 29.784 129.332 30.138 129.032 30.426C128.744 30.702 128.378 30.84 127.934 30.84ZM129.176 32.028V42H126.656V32.028H129.176ZM135.482 42.162C134.666 42.162 133.934 42.018 133.286 41.73C132.638 41.43 132.122 41.028 131.738 40.524C131.366 40.02 131.162 39.462 131.126 38.85H133.664C133.712 39.234 133.898 39.552 134.222 39.804C134.558 40.056 134.972 40.182 135.464 40.182C135.944 40.182 136.316 40.086 136.58 39.894C136.856 39.702 136.994 39.456 136.994 39.156C136.994 38.832 136.826 38.592 136.49 38.436C136.166 38.268 135.644 38.088 134.924 37.896C134.18 37.716 133.568 37.53 133.088 37.338C132.62 37.146 132.212 36.852 131.864 36.456C131.528 36.06 131.36 35.526 131.36 34.854C131.36 34.302 131.516 33.798 131.828 33.342C132.152 32.886 132.608 32.526 133.196 32.262C133.796 31.998 134.498 31.866 135.302 31.866C136.49 31.866 137.438 32.166 138.146 32.766C138.854 33.354 139.244 34.152 139.316 35.16H136.904C136.868 34.764 136.7 34.452 136.4 34.224C136.112 33.984 135.722 33.864 135.23 33.864C134.774 33.864 134.42 33.948 134.168 34.116C133.928 34.284 133.808 34.518 133.808 34.818C133.808 35.154 133.976 35.412 134.312 35.592C134.648 35.76 135.17 35.934 135.878 36.114C136.598 36.294 137.192 36.48 137.66 36.672C138.128 36.864 138.53 37.164 138.866 37.572C139.214 37.968 139.394 38.496 139.406 39.156C139.406 39.732 139.244 40.248 138.92 40.704C138.608 41.16 138.152 41.52 137.552 41.784C136.964 42.036 136.274 42.162 135.482 42.162ZM142.752 30.84C142.308 30.84 141.936 30.702 141.636 30.426C141.348 30.138 141.204 29.784 141.204 29.364C141.204 28.944 141.348 28.596 141.636 28.32C141.936 28.032 142.308 27.888 142.752 27.888C143.196 27.888 143.562 28.032 143.85 28.32C144.15 28.596 144.3 28.944 144.3 29.364C144.3 29.784 144.15 30.138 143.85 30.426C143.562 30.702 143.196 30.84 142.752 30.84ZM143.994 32.028V42H141.474V32.028H143.994ZM149.418 34.098V38.922C149.418 39.258 149.496 39.504 149.652 39.66C149.82 39.804 150.096 39.876 150.48 39.876H151.65V42H150.066C147.942 42 146.88 40.968 146.88 38.904V34.098H145.692V32.028H146.88V29.562H149.418V32.028H151.65V34.098H149.418ZM157.891 42.162C156.931 42.162 156.067 41.952 155.299 41.532C154.531 41.1 153.925 40.494 153.481 39.714C153.049 38.934 152.833 38.034 152.833 37.014C152.833 35.994 153.055 35.094 153.499 34.314C153.955 33.534 154.573 32.934 155.353 32.514C156.133 32.082 157.003 31.866 157.963 31.866C158.923 31.866 159.793 32.082 160.573 32.514C161.353 32.934 161.965 33.534 162.409 34.314C162.865 35.094 163.093 35.994 163.093 37.014C163.093 38.034 162.859 38.934 162.391 39.714C161.935 40.494 161.311 41.1 160.519 41.532C159.739 41.952 158.863 42.162 157.891 42.162ZM157.891 39.966C158.347 39.966 158.773 39.858 159.169 39.642C159.577 39.414 159.901 39.078 160.141 38.634C160.381 38.19 160.501 37.65 160.501 37.014C160.501 36.066 160.249 35.34 159.745 34.836C159.253 34.32 158.647 34.062 157.927 34.062C157.207 34.062 156.601 34.32 156.109 34.836C155.629 35.34 155.389 36.066 155.389 37.014C155.389 37.962 155.623 38.694 156.091 39.21C156.571 39.714 157.171 39.966 157.891 39.966ZM167.461 33.576C167.785 33.048 168.205 32.634 168.721 32.334C169.249 32.034 169.849 31.884 170.521 31.884V34.53H169.855C169.063 34.53 168.463 34.716 168.055 35.088C167.659 35.46 167.461 36.108 167.461 37.032V42H164.941V32.028H167.461V33.576ZM179.028 29.436V42H176.508V29.436H179.028ZM185.909 29.436C187.229 29.436 188.387 29.694 189.383 30.21C190.391 30.726 191.165 31.464 191.705 32.424C192.257 33.372 192.533 34.476 192.533 35.736C192.533 36.996 192.257 38.1 191.705 39.048C191.165 39.984 190.391 40.71 189.383 41.226C188.387 41.742 187.229 42 185.909 42H181.517V29.436H185.909ZM185.819 39.858C187.139 39.858 188.159 39.498 188.879 38.778C189.599 38.058 189.959 37.044 189.959 35.736C189.959 34.428 189.599 33.408 188.879 32.676C188.159 31.932 187.139 31.56 185.819 31.56H184.037V39.858H185.819Z" fill="white"/>
<rect x="12" y="69" width="236" height="78" rx="15" fill="white" fill-opacity="0.08"/>
<path d="M22 91C22 84.3726 27.3726 79 34 79H86C92.6274 79 98 84.3726 98 91V94C98 100.627 92.6274 106 86 106H34C27.3726 106 22 100.627 22 94V91Z" fill="#295F4D"/>
<path d="M38.481 94.386C38.481 93.6667 38.6283 93.0297 38.923 92.475C39.2263 91.9203 39.6337 91.4913 40.145 91.188C40.665 90.876 41.237 90.72 41.861 90.72C42.4243 90.72 42.914 90.8327 43.33 91.058C43.7547 91.2747 44.0927 91.5477 44.344 91.877V90.837H45.839V98H44.344V96.934C44.0927 97.272 43.7503 97.5537 43.317 97.779C42.8837 98.0043 42.3897 98.117 41.835 98.117C41.2197 98.117 40.6563 97.961 40.145 97.649C39.6337 97.3283 39.2263 96.8863 38.923 96.323C38.6283 95.751 38.481 95.1053 38.481 94.386ZM44.344 94.412C44.344 93.918 44.24 93.489 44.032 93.125C43.8327 92.761 43.5683 92.4837 43.239 92.293C42.9097 92.1023 42.5543 92.007 42.173 92.007C41.7917 92.007 41.4363 92.1023 41.107 92.293C40.7777 92.475 40.509 92.748 40.301 93.112C40.1017 93.4673 40.002 93.892 40.002 94.386C40.002 94.88 40.1017 95.3133 40.301 95.686C40.509 96.0587 40.7777 96.3447 41.107 96.544C41.445 96.7347 41.8003 96.83 42.173 96.83C42.5543 96.83 42.9097 96.7347 43.239 96.544C43.5683 96.3533 43.8327 96.076 44.032 95.712C44.24 95.3393 44.344 94.906 44.344 94.412ZM53.5965 89.667L49.9825 98H48.4875L52.1405 89.823H47.3305V88.562H53.5965V89.667ZM55.684 95.985C56.516 95.2657 57.1703 94.6763 57.647 94.217C58.1323 93.749 58.5353 93.2637 58.856 92.761C59.1766 92.2583 59.337 91.7557 59.337 91.253C59.337 90.733 59.2113 90.3257 58.96 90.031C58.7173 89.7363 58.3316 89.589 57.803 89.589C57.2916 89.589 56.893 89.7537 56.607 90.083C56.3296 90.4037 56.1823 90.837 56.165 91.383H54.735C54.761 90.395 55.0556 89.641 55.619 89.121C56.191 88.5923 56.9146 88.328 57.79 88.328C58.7346 88.328 59.4713 88.588 60 89.108C60.5373 89.628 60.806 90.3213 60.806 91.188C60.806 91.812 60.6456 92.4143 60.325 92.995C60.013 93.567 59.636 94.0827 59.194 94.542C58.7606 94.9927 58.206 95.517 57.53 96.115L56.945 96.635H61.066V97.87H54.748V96.791L55.684 95.985ZM65.3969 94.425L68.6989 98H66.6969L64.0449 94.919V98H62.5629V88.38H64.0449V93.97L66.6449 90.837H68.6989L65.3969 94.425ZM74.6621 90.72C74.5668 90.3213 74.3935 90.0223 74.1421 89.823C73.8908 89.6237 73.5398 89.524 73.0891 89.524C72.4045 89.524 71.8931 89.7883 71.5551 90.317C71.2171 90.837 71.0395 91.7037 71.0221 92.917C71.2475 92.5357 71.5768 92.241 72.0101 92.033C72.4435 91.825 72.9115 91.721 73.4141 91.721C73.9861 91.721 74.4888 91.8467 74.9221 92.098C75.3641 92.3407 75.7065 92.696 75.9491 93.164C76.2005 93.632 76.3261 94.191 76.3261 94.841C76.3261 95.4477 76.2048 95.9893 75.9621 96.466C75.7281 96.9427 75.3771 97.3197 74.9091 97.597C74.4411 97.8657 73.8778 98 73.2191 98C72.3265 98 71.6245 97.805 71.1131 97.415C70.6105 97.0163 70.2551 96.4573 70.0471 95.738C69.8478 95.0187 69.7481 94.1217 69.7481 93.047C69.7481 89.875 70.8661 88.289 73.1021 88.289C73.9688 88.289 74.6491 88.523 75.1431 88.991C75.6458 89.459 75.9405 90.0353 76.0271 90.72H74.6621ZM73.0891 92.969C72.5605 92.969 72.1098 93.1293 71.7371 93.45C71.3731 93.762 71.1911 94.217 71.1911 94.815C71.1911 95.413 71.3601 95.8897 71.6981 96.245C72.0448 96.5917 72.5258 96.765 73.1411 96.765C73.6871 96.765 74.1161 96.596 74.4281 96.258C74.7488 95.92 74.9091 95.4693 74.9091 94.906C74.9091 94.3167 74.7531 93.8487 74.4411 93.502C74.1378 93.1467 73.6871 92.969 73.0891 92.969ZM81.105 92.046H79.779V98H78.284V92.046H77.439V90.837H78.284V90.33C78.284 89.5067 78.5006 88.9087 78.934 88.536C79.376 88.1547 80.065 87.964 81.001 87.964V89.199C80.5503 89.199 80.234 89.2857 80.052 89.459C79.87 89.6237 79.779 89.914 79.779 90.33V90.837H81.105V92.046Z" fill="#8EF6D3"/>
<path d="M22.645 127.765C22.645 126.745 22.875 125.83 23.335 125.02C23.795 124.2 24.42 123.56 25.21 123.1C26.01 122.64 26.895 122.41 27.865 122.41C29.005 122.41 30 122.685 30.85 123.235C31.7 123.785 32.32 124.565 32.71 125.575H31.075C30.785 124.945 30.365 124.46 29.815 124.12C29.275 123.78 28.625 123.61 27.865 123.61C27.135 123.61 26.48 123.78 25.9 124.12C25.32 124.46 24.865 124.945 24.535 125.575C24.205 126.195 24.04 126.925 24.04 127.765C24.04 128.595 24.205 129.325 24.535 129.955C24.865 130.575 25.32 131.055 25.9 131.395C26.48 131.735 27.135 131.905 27.865 131.905C28.625 131.905 29.275 131.74 29.815 131.41C30.365 131.07 30.785 130.585 31.075 129.955H32.71C32.32 130.955 31.7 131.73 30.85 132.28C30 132.82 29.005 133.09 27.865 133.09C26.895 133.09 26.01 132.865 25.21 132.415C24.42 131.955 23.795 131.32 23.335 130.51C22.875 129.7 22.645 128.785 22.645 127.765ZM38.3269 133.135C37.5569 133.135 36.8569 132.96 36.2269 132.61C35.6069 132.26 35.1169 131.765 34.7569 131.125C34.4069 130.475 34.2319 129.725 34.2319 128.875C34.2319 128.035 34.4119 127.295 34.7719 126.655C35.1419 126.005 35.6419 125.51 36.2719 125.17C36.9019 124.82 37.6069 124.645 38.3869 124.645C39.1669 124.645 39.8719 124.82 40.5019 125.17C41.1319 125.51 41.6269 126 41.9869 126.64C42.3569 127.28 42.5419 128.025 42.5419 128.875C42.5419 129.725 42.3519 130.475 41.9719 131.125C41.6019 131.765 41.0969 132.26 40.4569 132.61C39.8169 132.96 39.1069 133.135 38.3269 133.135ZM38.3269 131.935C38.8169 131.935 39.2769 131.82 39.7069 131.59C40.1369 131.36 40.4819 131.015 40.7419 130.555C41.0119 130.095 41.1469 129.535 41.1469 128.875C41.1469 128.215 41.0169 127.655 40.7569 127.195C40.4969 126.735 40.1569 126.395 39.7369 126.175C39.3169 125.945 38.8619 125.83 38.3719 125.83C37.8719 125.83 37.4119 125.945 36.9919 126.175C36.5819 126.395 36.2519 126.735 36.0019 127.195C35.7519 127.655 35.6269 128.215 35.6269 128.875C35.6269 129.545 35.7469 130.11 35.9869 130.57C36.2369 131.03 36.5669 131.375 36.9769 131.605C37.3869 131.825 37.8369 131.935 38.3269 131.935ZM48.3416 124.63C49.3416 124.63 50.1516 124.935 50.7716 125.545C51.3916 126.145 51.7016 127.015 51.7016 128.155V133H50.3516V128.35C50.3516 127.53 50.1466 126.905 49.7366 126.475C49.3266 126.035 48.7666 125.815 48.0566 125.815C47.3366 125.815 46.7616 126.04 46.3316 126.49C45.9116 126.94 45.7016 127.595 45.7016 128.455V133H44.3366V124.78H45.7016V125.95C45.9716 125.53 46.3366 125.205 46.7966 124.975C47.2666 124.745 47.7816 124.63 48.3416 124.63ZM56.8414 133.135C56.2114 133.135 55.6464 133.03 55.1464 132.82C54.6464 132.6 54.2514 132.3 53.9614 131.92C53.6714 131.53 53.5114 131.085 53.4814 130.585H54.8914C54.9314 130.995 55.1214 131.33 55.4614 131.59C55.8114 131.85 56.2664 131.98 56.8264 131.98C57.3464 131.98 57.7564 131.865 58.0564 131.635C58.3564 131.405 58.5064 131.115 58.5064 130.765C58.5064 130.405 58.3464 130.14 58.0264 129.97C57.7064 129.79 57.2114 129.615 56.5414 129.445C55.9314 129.285 55.4314 129.125 55.0414 128.965C54.6614 128.795 54.3314 128.55 54.0514 128.23C53.7814 127.9 53.6464 127.47 53.6464 126.94C53.6464 126.52 53.7714 126.135 54.0214 125.785C54.2714 125.435 54.6264 125.16 55.0864 124.96C55.5464 124.75 56.0714 124.645 56.6614 124.645C57.5714 124.645 58.3064 124.875 58.8664 125.335C59.4264 125.795 59.7264 126.425 59.7664 127.225H58.4014C58.3714 126.795 58.1964 126.45 57.8764 126.19C57.5664 125.93 57.1464 125.8 56.6164 125.8C56.1264 125.8 55.7364 125.905 55.4464 126.115C55.1564 126.325 55.0114 126.6 55.0114 126.94C55.0114 127.21 55.0964 127.435 55.2664 127.615C55.4464 127.785 55.6664 127.925 55.9264 128.035C56.1964 128.135 56.5664 128.25 57.0364 128.38C57.6264 128.54 58.1064 128.7 58.4764 128.86C58.8464 129.01 59.1614 129.24 59.4214 129.55C59.6914 129.86 59.8314 130.265 59.8414 130.765C59.8414 131.215 59.7164 131.62 59.4664 131.98C59.2164 132.34 58.8614 132.625 58.4014 132.835C57.9514 133.035 57.4314 133.135 56.8414 133.135ZM62.4733 123.445C62.2133 123.445 61.9933 123.355 61.8133 123.175C61.6333 122.995 61.5433 122.775 61.5433 122.515C61.5433 122.255 61.6333 122.035 61.8133 121.855C61.9933 121.675 62.2133 121.585 62.4733 121.585C62.7233 121.585 62.9333 121.675 63.1033 121.855C63.2833 122.035 63.3733 122.255 63.3733 122.515C63.3733 122.775 63.2833 122.995 63.1033 123.175C62.9333 123.355 62.7233 123.445 62.4733 123.445ZM63.1333 124.78V133H61.7683V124.78H63.1333ZM68.3697 133.135C67.7397 133.135 67.1747 133.03 66.6747 132.82C66.1747 132.6 65.7797 132.3 65.4897 131.92C65.1997 131.53 65.0397 131.085 65.0097 130.585H66.4197C66.4597 130.995 66.6497 131.33 66.9897 131.59C67.3397 131.85 67.7947 131.98 68.3547 131.98C68.8747 131.98 69.2847 131.865 69.5847 131.635C69.8847 131.405 70.0347 131.115 70.0347 130.765C70.0347 130.405 69.8747 130.14 69.5547 129.97C69.2347 129.79 68.7397 129.615 68.0697 129.445C67.4597 129.285 66.9597 129.125 66.5697 128.965C66.1897 128.795 65.8597 128.55 65.5797 128.23C65.3097 127.9 65.1747 127.47 65.1747 126.94C65.1747 126.52 65.2997 126.135 65.5497 125.785C65.7997 125.435 66.1547 125.16 66.6147 124.96C67.0747 124.75 67.5997 124.645 68.1897 124.645C69.0997 124.645 69.8347 124.875 70.3947 125.335C70.9547 125.795 71.2547 126.425 71.2947 127.225H69.9297C69.8997 126.795 69.7247 126.45 69.4047 126.19C69.0947 125.93 68.6747 125.8 68.1447 125.8C67.6547 125.8 67.2647 125.905 66.9747 126.115C66.6847 126.325 66.5397 126.6 66.5397 126.94C66.5397 127.21 66.6247 127.435 66.7947 127.615C66.9747 127.785 67.1947 127.925 67.4547 128.035C67.7247 128.135 68.0947 128.25 68.5647 128.38C69.1547 128.54 69.6347 128.7 70.0047 128.86C70.3747 129.01 70.6897 129.24 70.9497 129.55C71.2197 129.86 71.3597 130.265 71.3697 130.765C71.3697 131.215 71.2447 131.62 70.9947 131.98C70.7447 132.34 70.3897 132.625 69.9297 132.835C69.4797 133.035 68.9597 133.135 68.3697 133.135ZM74.9616 125.905V130.75C74.9616 131.15 75.0466 131.435 75.2166 131.605C75.3866 131.765 75.6816 131.845 76.1016 131.845H77.1066V133H75.8766C75.1166 133 74.5466 132.825 74.1666 132.475C73.7866 132.125 73.5966 131.55 73.5966 130.75V125.905H72.5316V124.78H73.5966V122.71H74.9616V124.78H77.1066V125.905H74.9616ZM86.2605 128.575C86.2605 128.835 86.2455 129.11 86.2155 129.4H79.6455C79.6955 130.21 79.9705 130.845 80.4705 131.305C80.9805 131.755 81.5955 131.98 82.3155 131.98C82.9055 131.98 83.3955 131.845 83.7855 131.575C84.1855 131.295 84.4655 130.925 84.6255 130.465H86.0955C85.8755 131.255 85.4355 131.9 84.7755 132.4C84.1155 132.89 83.2955 133.135 82.3155 133.135C81.5355 133.135 80.8355 132.96 80.2155 132.61C79.6055 132.26 79.1255 131.765 78.7755 131.125C78.4255 130.475 78.2505 129.725 78.2505 128.875C78.2505 128.025 78.4205 127.28 78.7605 126.64C79.1005 126 79.5755 125.51 80.1855 125.17C80.8055 124.82 81.5155 124.645 82.3155 124.645C83.0955 124.645 83.7855 124.815 84.3855 125.155C84.9855 125.495 85.4455 125.965 85.7655 126.565C86.0955 127.155 86.2605 127.825 86.2605 128.575ZM84.8505 128.29C84.8505 127.77 84.7355 127.325 84.5055 126.955C84.2755 126.575 83.9605 126.29 83.5605 126.1C83.1705 125.9 82.7355 125.8 82.2555 125.8C81.5655 125.8 80.9755 126.02 80.4855 126.46C80.0055 126.9 79.7305 127.51 79.6605 128.29H84.8505ZM92.0672 124.63C93.0672 124.63 93.8772 124.935 94.4972 125.545C95.1172 126.145 95.4272 127.015 95.4272 128.155V133H94.0772V128.35C94.0772 127.53 93.8722 126.905 93.4622 126.475C93.0522 126.035 92.4922 125.815 91.7822 125.815C91.0622 125.815 90.4872 126.04 90.0572 126.49C89.6372 126.94 89.4272 127.595 89.4272 128.455V133H88.0622V124.78H89.4272V125.95C89.6972 125.53 90.0622 125.205 90.5222 124.975C90.9922 124.745 91.5072 124.63 92.0672 124.63ZM99.322 125.905V130.75C99.322 131.15 99.407 131.435 99.577 131.605C99.747 131.765 100.042 131.845 100.462 131.845H101.467V133H100.237C99.477 133 98.907 132.825 98.527 132.475C98.147 132.125 97.957 131.55 97.957 130.75V125.905H96.892V124.78H97.957V122.71H99.322V124.78H101.467V125.905H99.322ZM107.825 123.445C107.565 123.445 107.345 123.355 107.165 123.175C106.985 122.995 106.895 122.775 106.895 122.515C106.895 122.255 106.985 122.035 107.165 121.855C107.345 121.675 107.565 121.585 107.825 121.585C108.075 121.585 108.285 121.675 108.455 121.855C108.635 122.035 108.725 122.255 108.725 122.515C108.725 122.775 108.635 122.995 108.455 123.175C108.285 123.355 108.075 123.445 107.825 123.445ZM108.485 124.78V133H107.12V124.78H108.485ZM110.301 128.86C110.301 128.02 110.471 127.285 110.811 126.655C111.151 126.015 111.616 125.52 112.206 125.17C112.806 124.82 113.476 124.645 114.216 124.645C114.856 124.645 115.451 124.795 116.001 125.095C116.551 125.385 116.971 125.77 117.261 126.25V121.9H118.641V133H117.261V131.455C116.991 131.945 116.591 132.35 116.061 132.67C115.531 132.98 114.911 133.135 114.201 133.135C113.471 133.135 112.806 132.955 112.206 132.595C111.616 132.235 111.151 131.73 110.811 131.08C110.471 130.43 110.301 129.69 110.301 128.86ZM117.261 128.875C117.261 128.255 117.136 127.715 116.886 127.255C116.636 126.795 116.296 126.445 115.866 126.205C115.446 125.955 114.981 125.83 114.471 125.83C113.961 125.83 113.496 125.95 113.076 126.19C112.656 126.43 112.321 126.78 112.071 127.24C111.821 127.7 111.696 128.24 111.696 128.86C111.696 129.49 111.821 130.04 112.071 130.51C112.321 130.97 112.656 131.325 113.076 131.575C113.496 131.815 113.961 131.935 114.471 131.935C114.981 131.935 115.446 131.815 115.866 131.575C116.296 131.325 116.636 130.97 116.886 130.51C117.136 130.04 117.261 129.495 117.261 128.875ZM128.448 128.575C128.448 128.835 128.433 129.11 128.403 129.4H121.833C121.883 130.21 122.158 130.845 122.658 131.305C123.168 131.755 123.783 131.98 124.503 131.98C125.093 131.98 125.583 131.845 125.973 131.575C126.373 131.295 126.653 130.925 126.813 130.465H128.283C128.063 131.255 127.623 131.9 126.963 132.4C126.303 132.89 125.483 133.135 124.503 133.135C123.723 133.135 123.023 132.96 122.403 132.61C121.793 132.26 121.313 131.765 120.963 131.125C120.613 130.475 120.438 129.725 120.438 128.875C120.438 128.025 120.608 127.28 120.948 126.64C121.288 126 121.763 125.51 122.373 125.17C122.993 124.82 123.703 124.645 124.503 124.645C125.283 124.645 125.973 124.815 126.573 125.155C127.173 125.495 127.633 125.965 127.953 126.565C128.283 127.155 128.448 127.825 128.448 128.575ZM127.038 128.29C127.038 127.77 126.923 127.325 126.693 126.955C126.463 126.575 126.148 126.29 125.748 126.1C125.358 125.9 124.923 125.8 124.443 125.8C123.753 125.8 123.163 126.02 122.673 126.46C122.193 126.9 121.918 127.51 121.848 128.29H127.038ZM134.255 124.63C135.255 124.63 136.065 124.935 136.685 125.545C137.305 126.145 137.615 127.015 137.615 128.155V133H136.265V128.35C136.265 127.53 136.06 126.905 135.65 126.475C135.24 126.035 134.68 125.815 133.97 125.815C133.25 125.815 132.675 126.04 132.245 126.49C131.825 126.94 131.615 127.595 131.615 128.455V133H130.25V124.78H131.615V125.95C131.885 125.53 132.25 125.205 132.71 124.975C133.18 124.745 133.695 124.63 134.255 124.63ZM141.509 125.905V130.75C141.509 131.15 141.594 131.435 141.764 131.605C141.934 131.765 142.229 131.845 142.649 131.845H143.654V133H142.424C141.664 133 141.094 132.825 140.714 132.475C140.334 132.125 140.144 131.55 140.144 130.75V125.905H139.079V124.78H140.144V122.71H141.509V124.78H143.654V125.905H141.509ZM146.013 123.445C145.753 123.445 145.533 123.355 145.353 123.175C145.173 122.995 145.083 122.775 145.083 122.515C145.083 122.255 145.173 122.035 145.353 121.855C145.533 121.675 145.753 121.585 146.013 121.585C146.263 121.585 146.473 121.675 146.643 121.855C146.823 122.035 146.913 122.255 146.913 122.515C146.913 122.775 146.823 122.995 146.643 123.175C146.473 123.355 146.263 123.445 146.013 123.445ZM146.673 124.78V133H145.308V124.78H146.673ZM152.345 125.905H150.62V133H149.255V125.905H148.19V124.78H149.255V124.195C149.255 123.275 149.49 122.605 149.96 122.185C150.44 121.755 151.205 121.54 152.255 121.54V122.68C151.655 122.68 151.23 122.8 150.98 123.04C150.74 123.27 150.62 123.655 150.62 124.195V124.78H152.345V125.905ZM154.641 123.445C154.381 123.445 154.161 123.355 153.981 123.175C153.801 122.995 153.711 122.775 153.711 122.515C153.711 122.255 153.801 122.035 153.981 121.855C154.161 121.675 154.381 121.585 154.641 121.585C154.891 121.585 155.101 121.675 155.271 121.855C155.451 122.035 155.541 122.255 155.541 122.515C155.541 122.775 155.451 122.995 155.271 123.175C155.101 123.355 154.891 123.445 154.641 123.445ZM155.301 124.78V133H153.936V124.78H155.301ZM157.118 128.875C157.118 128.025 157.288 127.285 157.628 126.655C157.968 126.015 158.438 125.52 159.038 125.17C159.648 124.82 160.343 124.645 161.123 124.645C162.133 124.645 162.963 124.89 163.613 125.38C164.273 125.87 164.708 126.55 164.918 127.42H163.448C163.308 126.92 163.033 126.525 162.623 126.235C162.223 125.945 161.723 125.8 161.123 125.8C160.343 125.8 159.713 126.07 159.233 126.61C158.753 127.14 158.513 127.895 158.513 128.875C158.513 129.865 158.753 130.63 159.233 131.17C159.713 131.71 160.343 131.98 161.123 131.98C161.723 131.98 162.223 131.84 162.623 131.56C163.023 131.28 163.298 130.88 163.448 130.36H164.918C164.698 131.2 164.258 131.875 163.598 132.385C162.938 132.885 162.113 133.135 161.123 133.135C160.343 133.135 159.648 132.96 159.038 132.61C158.438 132.26 157.968 131.765 157.628 131.125C157.288 130.485 157.118 129.735 157.118 128.875ZM166.229 128.86C166.229 128.02 166.399 127.285 166.739 126.655C167.079 126.015 167.544 125.52 168.134 125.17C168.734 124.82 169.399 124.645 170.129 124.645C170.849 124.645 171.474 124.8 172.004 125.11C172.534 125.42 172.929 125.81 173.189 126.28V124.78H174.569V133H173.189V131.47C172.919 131.95 172.514 132.35 171.974 132.67C171.444 132.98 170.824 133.135 170.114 133.135C169.384 133.135 168.724 132.955 168.134 132.595C167.544 132.235 167.079 131.73 166.739 131.08C166.399 130.43 166.229 129.69 166.229 128.86ZM173.189 128.875C173.189 128.255 173.064 127.715 172.814 127.255C172.564 126.795 172.224 126.445 171.794 126.205C171.374 125.955 170.909 125.83 170.399 125.83C169.889 125.83 169.424 125.95 169.004 126.19C168.584 126.43 168.249 126.78 167.999 127.24C167.749 127.7 167.624 128.24 167.624 128.86C167.624 129.49 167.749 130.04 167.999 130.51C168.249 130.97 168.584 131.325 169.004 131.575C169.424 131.815 169.889 131.935 170.399 131.935C170.909 131.935 171.374 131.815 171.794 131.575C172.224 131.325 172.564 130.97 172.814 130.51C173.064 130.04 173.189 129.495 173.189 128.875ZM178.541 125.905V130.75C178.541 131.15 178.626 131.435 178.796 131.605C178.966 131.765 179.261 131.845 179.681 131.845H180.686V133H179.456C178.696 133 178.126 132.825 177.746 132.475C177.366 132.125 177.176 131.55 177.176 130.75V125.905H176.111V124.78H177.176V122.71H178.541V124.78H180.686V125.905H178.541ZM183.045 123.445C182.785 123.445 182.565 123.355 182.385 123.175C182.205 122.995 182.115 122.775 182.115 122.515C182.115 122.255 182.205 122.035 182.385 121.855C182.565 121.675 182.785 121.585 183.045 121.585C183.295 121.585 183.505 121.675 183.675 121.855C183.855 122.035 183.945 122.255 183.945 122.515C183.945 122.775 183.855 122.995 183.675 123.175C183.505 123.355 183.295 123.445 183.045 123.445ZM183.705 124.78V133H182.34V124.78H183.705ZM189.616 133.135C188.846 133.135 188.146 132.96 187.516 132.61C186.896 132.26 186.406 131.765 186.046 131.125C185.696 130.475 185.521 129.725 185.521 128.875C185.521 128.035 185.701 127.295 186.061 126.655C186.431 126.005 186.931 125.51 187.561 125.17C188.191 124.82 188.896 124.645 189.676 124.645C190.456 124.645 191.161 124.82 191.791 125.17C192.421 125.51 192.916 126 193.276 126.64C193.646 127.28 193.831 128.025 193.831 128.875C193.831 129.725 193.641 130.475 193.261 131.125C192.891 131.765 192.386 132.26 191.746 132.61C191.106 132.96 190.396 133.135 189.616 133.135ZM189.616 131.935C190.106 131.935 190.566 131.82 190.996 131.59C191.426 131.36 191.771 131.015 192.031 130.555C192.301 130.095 192.436 129.535 192.436 128.875C192.436 128.215 192.306 127.655 192.046 127.195C191.786 126.735 191.446 126.395 191.026 126.175C190.606 125.945 190.151 125.83 189.661 125.83C189.161 125.83 188.701 125.945 188.281 126.175C187.871 126.395 187.541 126.735 187.291 127.195C187.041 127.655 186.916 128.215 186.916 128.875C186.916 129.545 187.036 130.11 187.276 130.57C187.526 131.03 187.856 131.375 188.266 131.605C188.676 131.825 189.126 131.935 189.616 131.935ZM199.631 124.63C200.631 124.63 201.441 124.935 202.061 125.545C202.681 126.145 202.991 127.015 202.991 128.155V133H201.641V128.35C201.641 127.53 201.436 126.905 201.026 126.475C200.616 126.035 200.056 125.815 199.346 125.815C198.626 125.815 198.051 126.04 197.621 126.49C197.201 126.94 196.991 127.595 196.991 128.455V133H195.626V124.78H196.991V125.95C197.261 125.53 197.626 125.205 198.086 124.975C198.556 124.745 199.071 124.63 199.631 124.63Z" fill="white"/>
<rect x="12" y="159" width="236" height="81" rx="15" fill="white" fill-opacity="0.08"/>
<path d="M22 181C22 174.373 27.3726 169 34 169H178C184.627 169 190 174.373 190 181V184C190 190.627 184.627 196 178 196H34C27.3726 196 22 190.627 22 184V181Z" fill="#295F4D"/>
<path d="M38.2801 181.183C37.9872 180.89 37.5123 180.89 37.2194 181.183C36.9266 181.475 36.9266 181.95 37.2194 182.243L38.7675 183.791C39.0604 184.084 39.5353 184.084 39.8282 183.791L42.7905 180.829C43.0834 180.536 43.0834 180.061 42.7905 179.768C42.4976 179.475 42.0227 179.475 41.7299 179.768L39.2979 182.2L38.2801 181.183Z" fill="#8EF6D3"/>
<path fill-rule="evenodd" clip-rule="evenodd" d="M41.093 175.414C40.4539 174.902 39.5457 174.902 38.9066 175.414L38.5897 175.667C37.6033 176.456 36.5226 177.12 35.3726 177.643L34.5257 178.027C33.9071 178.309 33.4827 178.939 33.5149 179.655C33.7959 185.904 37.8957 188.703 39.2483 189.457C39.7176 189.719 40.2819 189.719 40.7511 189.457C42.1031 188.704 46.2046 185.908 46.4848 179.674C46.5168 178.961 46.0968 178.334 45.4831 178.051L44.583 177.635C43.4631 177.118 42.4101 176.467 41.447 175.697L41.093 175.414ZM39.8436 176.585C39.9349 176.512 40.0647 176.512 40.156 176.585L40.51 176.868C41.5678 177.715 42.7244 178.429 43.9544 178.997L44.8546 179.412C44.9492 179.456 44.9893 179.54 44.9863 179.607C44.7396 185.096 41.1585 187.513 40.0209 188.147C40.0111 188.152 40.0042 188.153 39.9998 188.153C39.9955 188.153 39.9887 188.152 39.9789 188.147C38.8423 187.513 35.261 185.094 35.0134 179.588C35.0104 179.521 35.0509 179.436 35.1464 179.393L35.9932 179.008C37.2563 178.434 38.4433 177.705 39.5267 176.839L39.8436 176.585Z" fill="#8EF6D3"/>
<path d="M61.293 180.656C61.293 181.115 61.1847 181.549 60.968 181.956C60.7513 182.363 60.4047 182.697 59.928 182.957C59.4513 183.208 58.8403 183.334 58.095 183.334H56.457V187H54.975V177.965H58.095C58.7883 177.965 59.3733 178.086 59.85 178.329C60.3353 178.563 60.695 178.884 60.929 179.291C61.1717 179.698 61.293 180.153 61.293 180.656ZM58.095 182.125C58.6583 182.125 59.0787 181.999 59.356 181.748C59.6333 181.488 59.772 181.124 59.772 180.656C59.772 179.668 59.213 179.174 58.095 179.174H56.457V182.125H58.095ZM64.1884 180.877C64.4051 180.513 64.6911 180.231 65.0464 180.032C65.4104 179.824 65.8394 179.72 66.3334 179.72V181.254H65.9564C65.3758 181.254 64.9338 181.401 64.6304 181.696C64.3358 181.991 64.1884 182.502 64.1884 183.23V187H62.7064V179.837H64.1884V180.877ZM70.8027 187.117C70.1267 187.117 69.5157 186.965 68.9697 186.662C68.4237 186.35 67.9947 185.917 67.6827 185.362C67.3707 184.799 67.2147 184.149 67.2147 183.412C67.2147 182.684 67.375 182.038 67.6957 181.475C68.0164 180.912 68.454 180.478 69.0087 180.175C69.5634 179.872 70.183 179.72 70.8677 179.72C71.5524 179.72 72.172 179.872 72.7267 180.175C73.2814 180.478 73.719 180.912 74.0397 181.475C74.3604 182.038 74.5207 182.684 74.5207 183.412C74.5207 184.14 74.356 184.786 74.0267 185.349C73.6974 185.912 73.2467 186.35 72.6747 186.662C72.1114 186.965 71.4874 187.117 70.8027 187.117ZM70.8027 185.83C71.184 185.83 71.5394 185.739 71.8687 185.557C72.2067 185.375 72.4797 185.102 72.6877 184.738C72.8957 184.374 72.9997 183.932 72.9997 183.412C72.9997 182.892 72.9 182.454 72.7007 182.099C72.5014 181.735 72.237 181.462 71.9077 181.28C71.5784 181.098 71.223 181.007 70.8417 181.007C70.4604 181.007 70.105 181.098 69.7757 181.28C69.455 181.462 69.1994 181.735 69.0087 182.099C68.818 182.454 68.7227 182.892 68.7227 183.412C68.7227 184.183 68.9177 184.781 69.3077 185.206C69.7064 185.622 70.2047 185.83 70.8027 185.83ZM77.7147 181.046V185.011C77.7147 185.28 77.7754 185.475 77.8967 185.596C78.0267 185.709 78.2434 185.765 78.5467 185.765H79.4567V187H78.2867C77.6194 187 77.1081 186.844 76.7527 186.532C76.3974 186.22 76.2197 185.713 76.2197 185.011V181.046H75.3747V179.837H76.2197V178.056H77.7147V179.837H79.4567V181.046H77.7147ZM87.3877 183.243C87.3877 183.512 87.3703 183.754 87.3357 183.971H81.8627C81.906 184.543 82.1183 185.002 82.4997 185.349C82.881 185.696 83.349 185.869 83.9037 185.869C84.701 185.869 85.2643 185.535 85.5937 184.868H87.1927C86.976 185.527 86.5817 186.068 86.0097 186.493C85.4463 186.909 84.7443 187.117 83.9037 187.117C83.219 187.117 82.6037 186.965 82.0577 186.662C81.5203 186.35 81.0957 185.917 80.7837 185.362C80.4803 184.799 80.3287 184.149 80.3287 183.412C80.3287 182.675 80.476 182.03 80.7707 181.475C81.074 180.912 81.4943 180.478 82.0317 180.175C82.5777 179.872 83.2017 179.72 83.9037 179.72C84.5797 179.72 85.182 179.867 85.7107 180.162C86.2393 180.457 86.651 180.873 86.9457 181.41C87.2403 181.939 87.3877 182.55 87.3877 183.243ZM85.8407 182.775C85.832 182.229 85.637 181.791 85.2557 181.462C84.8743 181.133 84.402 180.968 83.8387 180.968C83.3273 180.968 82.8897 181.133 82.5257 181.462C82.1617 181.783 81.945 182.22 81.8757 182.775H85.8407ZM88.3521 183.412C88.3521 182.675 88.4994 182.03 88.7941 181.475C89.0974 180.912 89.5134 180.478 90.0421 180.175C90.5708 179.872 91.1774 179.72 91.8621 179.72C92.7288 179.72 93.4438 179.928 94.0071 180.344C94.5791 180.751 94.9648 181.336 95.1641 182.099H93.5651C93.4351 181.744 93.2271 181.466 92.9411 181.267C92.6551 181.068 92.2954 180.968 91.8621 180.968C91.2554 180.968 90.7701 181.185 90.4061 181.618C90.0508 182.043 89.8731 182.641 89.8731 183.412C89.8731 184.183 90.0508 184.786 90.4061 185.219C90.7701 185.652 91.2554 185.869 91.8621 185.869C92.7201 185.869 93.2878 185.492 93.5651 184.738H95.1641C94.9561 185.466 94.5661 186.047 93.9941 186.48C93.4221 186.905 92.7114 187.117 91.8621 187.117C91.1774 187.117 90.5708 186.965 90.0421 186.662C89.5134 186.35 89.0974 185.917 88.7941 185.362C88.4994 184.799 88.3521 184.149 88.3521 183.412ZM98.37 181.046V185.011C98.37 185.28 98.4307 185.475 98.552 185.596C98.682 185.709 98.8987 185.765 99.202 185.765H100.112V187H98.942C98.2747 187 97.7633 186.844 97.408 186.532C97.0527 186.22 96.875 185.713 96.875 185.011V181.046H96.03V179.837H96.875V178.056H98.37V179.837H100.112V181.046H98.37ZM108.043 183.243C108.043 183.512 108.026 183.754 107.991 183.971H102.518C102.561 184.543 102.774 185.002 103.155 185.349C103.536 185.696 104.004 185.869 104.559 185.869C105.356 185.869 105.92 185.535 106.249 184.868H107.848C107.631 185.527 107.237 186.068 106.665 186.493C106.102 186.909 105.4 187.117 104.559 187.117C103.874 187.117 103.259 186.965 102.713 186.662C102.176 186.35 101.751 185.917 101.439 185.362C101.136 184.799 100.984 184.149 100.984 183.412C100.984 182.675 101.131 182.03 101.426 181.475C101.729 180.912 102.15 180.478 102.687 180.175C103.233 179.872 103.857 179.72 104.559 179.72C105.235 179.72 105.837 179.867 106.366 180.162C106.895 180.457 107.306 180.873 107.601 181.41C107.896 181.939 108.043 182.55 108.043 183.243ZM106.496 182.775C106.487 182.229 106.292 181.791 105.911 181.462C105.53 181.133 105.057 180.968 104.494 180.968C103.983 180.968 103.545 181.133 103.181 181.462C102.817 181.783 102.6 182.22 102.531 182.775H106.496ZM109.007 183.386C109.007 182.667 109.155 182.03 109.449 181.475C109.753 180.92 110.16 180.491 110.671 180.188C111.191 179.876 111.768 179.72 112.4 179.72C112.868 179.72 113.328 179.824 113.778 180.032C114.238 180.231 114.602 180.5 114.87 180.838V177.38H116.365V187H114.87V185.921C114.628 186.268 114.29 186.554 113.856 186.779C113.432 187.004 112.942 187.117 112.387 187.117C111.763 187.117 111.191 186.961 110.671 186.649C110.16 186.328 109.753 185.886 109.449 185.323C109.155 184.751 109.007 184.105 109.007 183.386ZM114.87 183.412C114.87 182.918 114.766 182.489 114.558 182.125C114.359 181.761 114.095 181.484 113.765 181.293C113.436 181.102 113.081 181.007 112.699 181.007C112.318 181.007 111.963 181.102 111.633 181.293C111.304 181.475 111.035 181.748 110.827 182.112C110.628 182.467 110.528 182.892 110.528 183.386C110.528 183.88 110.628 184.313 110.827 184.686C111.035 185.059 111.304 185.345 111.633 185.544C111.971 185.735 112.327 185.83 112.699 185.83C113.081 185.83 113.436 185.735 113.765 185.544C114.095 185.353 114.359 185.076 114.558 184.712C114.766 184.339 114.87 183.906 114.87 183.412ZM133.454 177.965L130.776 187H129.099L127.201 180.162L125.186 187L123.522 187.013L120.961 177.965H122.534L124.406 185.323L126.434 177.965H128.098L129.983 185.284L131.868 177.965H133.454ZM141.241 183.243C141.241 183.512 141.224 183.754 141.189 183.971H135.716C135.76 184.543 135.972 185.002 136.353 185.349C136.735 185.696 137.203 185.869 137.757 185.869C138.555 185.869 139.118 185.535 139.447 184.868H141.046C140.83 185.527 140.435 186.068 139.863 186.493C139.3 186.909 138.598 187.117 137.757 187.117C137.073 187.117 136.457 186.965 135.911 186.662C135.374 186.35 134.949 185.917 134.637 185.362C134.334 184.799 134.182 184.149 134.182 183.412C134.182 182.675 134.33 182.03 134.624 181.475C134.928 180.912 135.348 180.478 135.885 180.175C136.431 179.872 137.055 179.72 137.757 179.72C138.433 179.72 139.036 179.867 139.564 180.162C140.093 180.457 140.505 180.873 140.799 181.41C141.094 181.939 141.241 182.55 141.241 183.243ZM139.694 182.775C139.686 182.229 139.491 181.791 139.109 181.462C138.728 181.133 138.256 180.968 137.692 180.968C137.181 180.968 136.743 181.133 136.379 181.462C136.015 181.783 135.799 182.22 135.729 182.775H139.694ZM144.182 180.903C144.433 180.556 144.775 180.275 145.209 180.058C145.651 179.833 146.14 179.72 146.678 179.72C147.31 179.72 147.882 179.872 148.394 180.175C148.905 180.478 149.308 180.912 149.603 181.475C149.897 182.03 150.045 182.667 150.045 183.386C150.045 184.105 149.897 184.751 149.603 185.323C149.308 185.886 148.901 186.328 148.381 186.649C147.869 186.961 147.302 187.117 146.678 187.117C146.123 187.117 145.629 187.009 145.196 186.792C144.771 186.575 144.433 186.298 144.182 185.96V187H142.7V177.38H144.182V180.903ZM148.537 183.386C148.537 182.892 148.433 182.467 148.225 182.112C148.025 181.748 147.757 181.475 147.419 181.293C147.089 181.102 146.734 181.007 146.353 181.007C145.98 181.007 145.625 181.102 145.287 181.293C144.957 181.484 144.689 181.761 144.481 182.125C144.281 182.489 144.182 182.918 144.182 183.412C144.182 183.906 144.281 184.339 144.481 184.712C144.689 185.076 144.957 185.353 145.287 185.544C145.625 185.735 145.98 185.83 146.353 185.83C146.734 185.83 147.089 185.735 147.419 185.544C147.757 185.345 148.025 185.059 148.225 184.686C148.433 184.313 148.537 183.88 148.537 183.386ZM154.11 187.117C153.547 187.117 153.04 187.017 152.589 186.818C152.147 186.61 151.796 186.333 151.536 185.986C151.276 185.631 151.137 185.236 151.12 184.803H152.654C152.68 185.106 152.823 185.362 153.083 185.57C153.352 185.769 153.685 185.869 154.084 185.869C154.5 185.869 154.821 185.791 155.046 185.635C155.28 185.47 155.397 185.262 155.397 185.011C155.397 184.742 155.267 184.543 155.007 184.413C154.756 184.283 154.353 184.14 153.798 183.984C153.261 183.837 152.823 183.694 152.485 183.555C152.147 183.416 151.852 183.204 151.601 182.918C151.358 182.632 151.237 182.255 151.237 181.787C151.237 181.406 151.35 181.059 151.575 180.747C151.8 180.426 152.121 180.175 152.537 179.993C152.962 179.811 153.447 179.72 153.993 179.72C154.808 179.72 155.462 179.928 155.956 180.344C156.459 180.751 156.727 181.31 156.762 182.021H155.28C155.254 181.7 155.124 181.445 154.89 181.254C154.656 181.063 154.34 180.968 153.941 180.968C153.551 180.968 153.252 181.042 153.044 181.189C152.836 181.336 152.732 181.531 152.732 181.774C152.732 181.965 152.801 182.125 152.94 182.255C153.079 182.385 153.248 182.489 153.447 182.567C153.646 182.636 153.941 182.727 154.331 182.84C154.851 182.979 155.276 183.122 155.605 183.269C155.943 183.408 156.233 183.616 156.476 183.893C156.719 184.17 156.844 184.539 156.853 184.998C156.853 185.405 156.74 185.769 156.515 186.09C156.29 186.411 155.969 186.662 155.553 186.844C155.146 187.026 154.665 187.117 154.11 187.117ZM159.208 178.888C158.94 178.888 158.714 178.797 158.532 178.615C158.35 178.433 158.259 178.208 158.259 177.939C158.259 177.67 158.35 177.445 158.532 177.263C158.714 177.081 158.94 176.99 159.208 176.99C159.468 176.99 159.689 177.081 159.871 177.263C160.053 177.445 160.144 177.67 160.144 177.939C160.144 178.208 160.053 178.433 159.871 178.615C159.689 178.797 159.468 178.888 159.208 178.888ZM159.936 179.837V187H158.454V179.837H159.936ZM163.611 181.046V185.011C163.611 185.28 163.672 185.475 163.793 185.596C163.923 185.709 164.14 185.765 164.443 185.765H165.353V187H164.183C163.516 187 163.005 186.844 162.649 186.532C162.294 186.22 162.116 185.713 162.116 185.011V181.046H161.271V179.837H162.116V178.056H163.611V179.837H165.353V181.046H163.611ZM173.284 183.243C173.284 183.512 173.267 183.754 173.232 183.971H167.759C167.802 184.543 168.015 185.002 168.396 185.349C168.777 185.696 169.245 185.869 169.8 185.869C170.597 185.869 171.161 185.535 171.49 184.868H173.089C172.872 185.527 172.478 186.068 171.906 186.493C171.343 186.909 170.641 187.117 169.8 187.117C169.115 187.117 168.5 186.965 167.954 186.662C167.417 186.35 166.992 185.917 166.68 185.362C166.377 184.799 166.225 184.149 166.225 183.412C166.225 182.675 166.372 182.03 166.667 181.475C166.97 180.912 167.391 180.478 167.928 180.175C168.474 179.872 169.098 179.72 169.8 179.72C170.476 179.72 171.078 179.867 171.607 180.162C172.136 180.457 172.547 180.873 172.842 181.41C173.137 181.939 173.284 182.55 173.284 183.243ZM171.737 182.775C171.728 182.229 171.533 181.791 171.152 181.462C170.771 181.133 170.298 180.968 169.735 180.968C169.224 180.968 168.786 181.133 168.422 181.462C168.058 181.783 167.841 182.22 167.772 182.775H171.737Z" fill="#8EF6D3"/>
<path d="M24.52 213.655V217.15H28.33V218.275H24.52V221.875H28.78V223H23.155V212.53H28.78V213.655H24.52ZM34.8504 214.63C35.8504 214.63 36.6604 214.935 37.2804 215.545C37.9004 216.145 38.2104 217.015 38.2104 218.155V223H36.8604V218.35C36.8604 217.53 36.6554 216.905 36.2454 216.475C35.8354 216.035 35.2754 215.815 34.5654 215.815C33.8454 215.815 33.2704 216.04 32.8404 216.49C32.4204 216.94 32.2104 217.595 32.2104 218.455V223H30.8454V214.78H32.2104V215.95C32.4804 215.53 32.8454 215.205 33.3054 214.975C33.7754 214.745 34.2904 214.63 34.8504 214.63ZM44.5202 214.63C45.1402 214.63 45.7002 214.765 46.2002 215.035C46.7002 215.295 47.0902 215.69 47.3702 216.22C47.6602 216.75 47.8052 217.395 47.8052 218.155V223H46.4552V218.35C46.4552 217.53 46.2502 216.905 45.8402 216.475C45.4302 216.035 44.8702 215.815 44.1602 215.815C43.4402 215.815 42.8652 216.04 42.4352 216.49C42.0152 216.94 41.8052 217.595 41.8052 218.455V223H40.4402V211.9H41.8052V215.95C42.0752 215.53 42.4452 215.205 42.9152 214.975C43.3952 214.745 43.9302 214.63 44.5202 214.63ZM49.5249 218.86C49.5249 218.02 49.6949 217.285 50.0349 216.655C50.3749 216.015 50.8399 215.52 51.4299 215.17C52.0299 214.82 52.6949 214.645 53.4249 214.645C54.1449 214.645 54.7699 214.8 55.2999 215.11C55.8299 215.42 56.2249 215.81 56.4849 216.28V214.78H57.8649V223H56.4849V221.47C56.2149 221.95 55.8099 222.35 55.2699 222.67C54.7399 222.98 54.1199 223.135 53.4099 223.135C52.6799 223.135 52.0199 222.955 51.4299 222.595C50.8399 222.235 50.3749 221.73 50.0349 221.08C49.6949 220.43 49.5249 219.69 49.5249 218.86ZM56.4849 218.875C56.4849 218.255 56.3599 217.715 56.1099 217.255C55.8599 216.795 55.5199 216.445 55.0899 216.205C54.6699 215.955 54.2049 215.83 53.6949 215.83C53.1849 215.83 52.7199 215.95 52.2999 216.19C51.8799 216.43 51.5449 216.78 51.2949 217.24C51.0449 217.7 50.9199 218.24 50.9199 218.86C50.9199 219.49 51.0449 220.04 51.2949 220.51C51.5449 220.97 51.8799 221.325 52.2999 221.575C52.7199 221.815 53.1849 221.935 53.6949 221.935C54.2049 221.935 54.6699 221.815 55.0899 221.575C55.5199 221.325 55.8599 220.97 56.1099 220.51C56.3599 220.04 56.4849 219.495 56.4849 218.875ZM64.1766 214.63C65.1766 214.63 65.9866 214.935 66.6066 215.545C67.2266 216.145 67.5366 217.015 67.5366 218.155V223H66.1866V218.35C66.1866 217.53 65.9816 216.905 65.5716 216.475C65.1616 216.035 64.6016 215.815 63.8916 215.815C63.1716 215.815 62.5966 216.04 62.1666 216.49C61.7466 216.94 61.5366 217.595 61.5366 218.455V223H60.1716V214.78H61.5366V215.95C61.8066 215.53 62.1716 215.205 62.6316 214.975C63.1016 214.745 63.6166 214.63 64.1766 214.63ZM69.2563 218.875C69.2563 218.025 69.4263 217.285 69.7663 216.655C70.1063 216.015 70.5763 215.52 71.1763 215.17C71.7863 214.82 72.4813 214.645 73.2613 214.645C74.2713 214.645 75.1013 214.89 75.7513 215.38C76.4113 215.87 76.8463 216.55 77.0563 217.42H75.5863C75.4463 216.92 75.1713 216.525 74.7613 216.235C74.3613 215.945 73.8613 215.8 73.2613 215.8C72.4813 215.8 71.8513 216.07 71.3713 216.61C70.8913 217.14 70.6513 217.895 70.6513 218.875C70.6513 219.865 70.8913 220.63 71.3713 221.17C71.8513 221.71 72.4813 221.98 73.2613 221.98C73.8613 221.98 74.3613 221.84 74.7613 221.56C75.1613 221.28 75.4363 220.88 75.5863 220.36H77.0563C76.8363 221.2 76.3963 221.875 75.7363 222.385C75.0763 222.885 74.2513 223.135 73.2613 223.135C72.4813 223.135 71.7863 222.96 71.1763 222.61C70.5763 222.26 70.1063 221.765 69.7663 221.125C69.4263 220.485 69.2563 219.735 69.2563 218.875ZM86.3777 218.575C86.3777 218.835 86.3627 219.11 86.3327 219.4H79.7627C79.8127 220.21 80.0877 220.845 80.5877 221.305C81.0977 221.755 81.7127 221.98 82.4327 221.98C83.0227 221.98 83.5127 221.845 83.9027 221.575C84.3027 221.295 84.5827 220.925 84.7427 220.465H86.2127C85.9927 221.255 85.5527 221.9 84.8927 222.4C84.2327 222.89 83.4127 223.135 82.4327 223.135C81.6527 223.135 80.9527 222.96 80.3327 222.61C79.7227 222.26 79.2427 221.765 78.8927 221.125C78.5427 220.475 78.3677 219.725 78.3677 218.875C78.3677 218.025 78.5377 217.28 78.8777 216.64C79.2177 216 79.6927 215.51 80.3027 215.17C80.9227 214.82 81.6327 214.645 82.4327 214.645C83.2127 214.645 83.9027 214.815 84.5027 215.155C85.1027 215.495 85.5627 215.965 85.8827 216.565C86.2127 217.155 86.3777 217.825 86.3777 218.575ZM84.9677 218.29C84.9677 217.77 84.8527 217.325 84.6227 216.955C84.3927 216.575 84.0777 216.29 83.6777 216.1C83.2877 215.9 82.8527 215.8 82.3727 215.8C81.6827 215.8 81.0927 216.02 80.6027 216.46C80.1227 216.9 79.8477 217.51 79.7777 218.29H84.9677ZM87.6694 218.86C87.6694 218.02 87.8394 217.285 88.1794 216.655C88.5194 216.015 88.9844 215.52 89.5744 215.17C90.1744 214.82 90.8444 214.645 91.5844 214.645C92.2244 214.645 92.8194 214.795 93.3694 215.095C93.9194 215.385 94.3394 215.77 94.6294 216.25V211.9H96.0094V223H94.6294V221.455C94.3594 221.945 93.9594 222.35 93.4294 222.67C92.8994 222.98 92.2794 223.135 91.5694 223.135C90.8394 223.135 90.1744 222.955 89.5744 222.595C88.9844 222.235 88.5194 221.73 88.1794 221.08C87.8394 220.43 87.6694 219.69 87.6694 218.86ZM94.6294 218.875C94.6294 218.255 94.5044 217.715 94.2544 217.255C94.0044 216.795 93.6644 216.445 93.2344 216.205C92.8144 215.955 92.3494 215.83 91.8394 215.83C91.3294 215.83 90.8644 215.95 90.4444 216.19C90.0244 216.43 89.6894 216.78 89.4394 217.24C89.1894 217.7 89.0644 218.24 89.0644 218.86C89.0644 219.49 89.1894 220.04 89.4394 220.51C89.6894 220.97 90.0244 221.325 90.4444 221.575C90.8644 221.815 91.3294 221.935 91.8394 221.935C92.3494 221.935 92.8144 221.815 93.2344 221.575C93.6644 221.325 94.0044 220.97 94.2544 220.51C94.5044 220.04 94.6294 219.495 94.6294 218.875ZM103.98 215.905V220.75C103.98 221.15 104.065 221.435 104.235 221.605C104.405 221.765 104.7 221.845 105.12 221.845H106.125V223H104.895C104.135 223 103.565 222.825 103.185 222.475C102.805 222.125 102.615 221.55 102.615 220.75V215.905H101.55V214.78H102.615V212.71H103.98V214.78H106.125V215.905H103.98ZM111.859 214.63C112.479 214.63 113.039 214.765 113.539 215.035C114.039 215.295 114.429 215.69 114.709 216.22C114.999 216.75 115.144 217.395 115.144 218.155V223H113.794V218.35C113.794 217.53 113.589 216.905 113.179 216.475C112.769 216.035 112.209 215.815 111.499 215.815C110.779 215.815 110.204 216.04 109.774 216.49C109.354 216.94 109.144 217.595 109.144 218.455V223H107.779V211.9H109.144V215.95C109.414 215.53 109.784 215.205 110.254 214.975C110.734 214.745 111.269 214.63 111.859 214.63ZM118.739 216.115C118.979 215.645 119.319 215.28 119.759 215.02C120.209 214.76 120.754 214.63 121.394 214.63V216.04H121.034C119.504 216.04 118.739 216.87 118.739 218.53V223H117.374V214.78H118.739V216.115ZM130.469 218.575C130.469 218.835 130.454 219.11 130.424 219.4H123.854C123.904 220.21 124.179 220.845 124.679 221.305C125.189 221.755 125.804 221.98 126.524 221.98C127.114 221.98 127.604 221.845 127.994 221.575C128.394 221.295 128.674 220.925 128.834 220.465H130.304C130.084 221.255 129.644 221.9 128.984 222.4C128.324 222.89 127.504 223.135 126.524 223.135C125.744 223.135 125.044 222.96 124.424 222.61C123.814 222.26 123.334 221.765 122.984 221.125C122.634 220.475 122.459 219.725 122.459 218.875C122.459 218.025 122.629 217.28 122.969 216.64C123.309 216 123.784 215.51 124.394 215.17C125.014 214.82 125.724 214.645 126.524 214.645C127.304 214.645 127.994 214.815 128.594 215.155C129.194 215.495 129.654 215.965 129.974 216.565C130.304 217.155 130.469 217.825 130.469 218.575ZM129.059 218.29C129.059 217.77 128.944 217.325 128.714 216.955C128.484 216.575 128.169 216.29 127.769 216.1C127.379 215.9 126.944 215.8 126.464 215.8C125.774 215.8 125.184 216.02 124.694 216.46C124.214 216.9 123.939 217.51 123.869 218.29H129.059ZM131.761 218.86C131.761 218.02 131.931 217.285 132.271 216.655C132.611 216.015 133.076 215.52 133.666 215.17C134.266 214.82 134.931 214.645 135.661 214.645C136.381 214.645 137.006 214.8 137.536 215.11C138.066 215.42 138.461 215.81 138.721 216.28V214.78H140.101V223H138.721V221.47C138.451 221.95 138.046 222.35 137.506 222.67C136.976 222.98 136.356 223.135 135.646 223.135C134.916 223.135 134.256 222.955 133.666 222.595C133.076 222.235 132.611 221.73 132.271 221.08C131.931 220.43 131.761 219.69 131.761 218.86ZM138.721 218.875C138.721 218.255 138.596 217.715 138.346 217.255C138.096 216.795 137.756 216.445 137.326 216.205C136.906 215.955 136.441 215.83 135.931 215.83C135.421 215.83 134.956 215.95 134.536 216.19C134.116 216.43 133.781 216.78 133.531 217.24C133.281 217.7 133.156 218.24 133.156 218.86C133.156 219.49 133.281 220.04 133.531 220.51C133.781 220.97 134.116 221.325 134.536 221.575C134.956 221.815 135.421 221.935 135.931 221.935C136.441 221.935 136.906 221.815 137.326 221.575C137.756 221.325 138.096 220.97 138.346 220.51C138.596 220.04 138.721 219.495 138.721 218.875ZM144.073 215.905V220.75C144.073 221.15 144.158 221.435 144.328 221.605C144.498 221.765 144.793 221.845 145.213 221.845H146.218V223H144.988C144.228 223 143.658 222.825 143.278 222.475C142.898 222.125 142.708 221.55 142.708 220.75V215.905H141.643V214.78H142.708V212.71H144.073V214.78H146.218V215.905H144.073ZM151.361 218.86C151.361 218.02 151.531 217.285 151.871 216.655C152.211 216.015 152.676 215.52 153.266 215.17C153.866 214.82 154.536 214.645 155.276 214.645C155.916 214.645 156.511 214.795 157.061 215.095C157.611 215.385 158.031 215.77 158.321 216.25V211.9H159.701V223H158.321V221.455C158.051 221.945 157.651 222.35 157.121 222.67C156.591 222.98 155.971 223.135 155.261 223.135C154.531 223.135 153.866 222.955 153.266 222.595C152.676 222.235 152.211 221.73 151.871 221.08C151.531 220.43 151.361 219.69 151.361 218.86ZM158.321 218.875C158.321 218.255 158.196 217.715 157.946 217.255C157.696 216.795 157.356 216.445 156.926 216.205C156.506 215.955 156.041 215.83 155.531 215.83C155.021 215.83 154.556 215.95 154.136 216.19C153.716 216.43 153.381 216.78 153.131 217.24C152.881 217.7 152.756 218.24 152.756 218.86C152.756 219.49 152.881 220.04 153.131 220.51C153.381 220.97 153.716 221.325 154.136 221.575C154.556 221.815 155.021 221.935 155.531 221.935C156.041 221.935 156.506 221.815 156.926 221.575C157.356 221.325 157.696 220.97 157.946 220.51C158.196 220.04 158.321 219.495 158.321 218.875ZM169.508 218.575C169.508 218.835 169.493 219.11 169.463 219.4H162.893C162.943 220.21 163.218 220.845 163.718 221.305C164.228 221.755 164.843 221.98 165.563 221.98C166.153 221.98 166.643 221.845 167.033 221.575C167.433 221.295 167.713 220.925 167.873 220.465H169.343C169.123 221.255 168.683 221.9 168.023 222.4C167.363 222.89 166.543 223.135 165.563 223.135C164.783 223.135 164.083 222.96 163.463 222.61C162.853 222.26 162.373 221.765 162.023 221.125C161.673 220.475 161.498 219.725 161.498 218.875C161.498 218.025 161.668 217.28 162.008 216.64C162.348 216 162.823 215.51 163.433 215.17C164.053 214.82 164.763 214.645 165.563 214.645C166.343 214.645 167.033 214.815 167.633 215.155C168.233 215.495 168.693 215.965 169.013 216.565C169.343 217.155 169.508 217.825 169.508 218.575ZM168.098 218.29C168.098 217.77 167.983 217.325 167.753 216.955C167.523 216.575 167.208 216.29 166.808 216.1C166.418 215.9 165.983 215.8 165.503 215.8C164.813 215.8 164.223 216.02 163.733 216.46C163.253 216.9 162.978 217.51 162.908 218.29H168.098ZM172.974 215.905V220.75C172.974 221.15 173.059 221.435 173.229 221.605C173.399 221.765 173.694 221.845 174.114 221.845H175.119V223H173.889C173.129 223 172.559 222.825 172.179 222.475C171.799 222.125 171.609 221.55 171.609 220.75V215.905H170.544V214.78H171.609V212.71H172.974V214.78H175.119V215.905H172.974ZM184.273 218.575C184.273 218.835 184.258 219.11 184.228 219.4H177.658C177.708 220.21 177.983 220.845 178.483 221.305C178.993 221.755 179.608 221.98 180.328 221.98C180.918 221.98 181.408 221.845 181.798 221.575C182.198 221.295 182.478 220.925 182.638 220.465H184.108C183.888 221.255 183.448 221.9 182.788 222.4C182.128 222.89 181.308 223.135 180.328 223.135C179.548 223.135 178.848 222.96 178.228 222.61C177.618 222.26 177.138 221.765 176.788 221.125C176.438 220.475 176.263 219.725 176.263 218.875C176.263 218.025 176.433 217.28 176.773 216.64C177.113 216 177.588 215.51 178.198 215.17C178.818 214.82 179.528 214.645 180.328 214.645C181.108 214.645 181.798 214.815 182.398 215.155C182.998 215.495 183.458 215.965 183.778 216.565C184.108 217.155 184.273 217.825 184.273 218.575ZM182.863 218.29C182.863 217.77 182.748 217.325 182.518 216.955C182.288 216.575 181.973 216.29 181.573 216.1C181.183 215.9 180.748 215.8 180.268 215.8C179.578 215.8 178.988 216.02 178.498 216.46C178.018 216.9 177.743 217.51 177.673 218.29H182.863ZM185.565 218.875C185.565 218.025 185.735 217.285 186.075 216.655C186.415 216.015 186.885 215.52 187.485 215.17C188.095 214.82 188.79 214.645 189.57 214.645C190.58 214.645 191.41 214.89 192.06 215.38C192.72 215.87 193.155 216.55 193.365 217.42H191.895C191.755 216.92 191.48 216.525 191.07 216.235C190.67 215.945 190.17 215.8 189.57 215.8C188.79 215.8 188.16 216.07 187.68 216.61C187.2 217.14 186.96 217.895 186.96 218.875C186.96 219.865 187.2 220.63 187.68 221.17C188.16 221.71 188.79 221.98 189.57 221.98C190.17 221.98 190.67 221.84 191.07 221.56C191.47 221.28 191.745 220.88 191.895 220.36H193.365C193.145 221.2 192.705 221.875 192.045 222.385C191.385 222.885 190.56 223.135 189.57 223.135C188.79 223.135 188.095 222.96 187.485 222.61C186.885 222.26 186.415 221.765 186.075 221.125C185.735 220.485 185.565 219.735 185.565 218.875ZM196.851 215.905V220.75C196.851 221.15 196.936 221.435 197.106 221.605C197.276 221.765 197.571 221.845 197.991 221.845H198.996V223H197.766C197.006 223 196.436 222.825 196.056 222.475C195.676 222.125 195.486 221.55 195.486 220.75V215.905H194.421V214.78H195.486V212.71H196.851V214.78H198.996V215.905H196.851ZM201.355 213.445C201.095 213.445 200.875 213.355 200.695 213.175C200.515 212.995 200.425 212.775 200.425 212.515C200.425 212.255 200.515 212.035 200.695 211.855C200.875 211.675 201.095 211.585 201.355 211.585C201.605 211.585 201.815 211.675 201.985 211.855C202.165 212.035 202.255 212.255 202.255 212.515C202.255 212.775 202.165 212.995 201.985 213.175C201.815 213.355 201.605 213.445 201.355 213.445ZM202.015 214.78V223H200.65V214.78H202.015ZM207.927 223.135C207.157 223.135 206.457 222.96 205.827 222.61C205.207 222.26 204.717 221.765 204.357 221.125C204.007 220.475 203.832 219.725 203.832 218.875C203.832 218.035 204.012 217.295 204.372 216.655C204.742 216.005 205.242 215.51 205.872 215.17C206.502 214.82 207.207 214.645 207.987 214.645C208.767 214.645 209.472 214.82 210.102 215.17C210.732 215.51 211.227 216 211.587 216.64C211.957 217.28 212.142 218.025 212.142 218.875C212.142 219.725 211.952 220.475 211.572 221.125C211.202 221.765 210.697 222.26 210.057 222.61C209.417 222.96 208.707 223.135 207.927 223.135ZM207.927 221.935C208.417 221.935 208.877 221.82 209.307 221.59C209.737 221.36 210.082 221.015 210.342 220.555C210.612 220.095 210.747 219.535 210.747 218.875C210.747 218.215 210.617 217.655 210.357 217.195C210.097 216.735 209.757 216.395 209.337 216.175C208.917 215.945 208.462 215.83 207.972 215.83C207.472 215.83 207.012 215.945 206.592 216.175C206.182 216.395 205.852 216.735 205.602 217.195C205.352 217.655 205.227 218.215 205.227 218.875C205.227 219.545 205.347 220.11 205.587 220.57C205.837 221.03 206.167 221.375 206.577 221.605C206.987 221.825 207.437 221.935 207.927 221.935ZM217.941 214.63C218.941 214.63 219.751 214.935 220.371 215.545C220.991 216.145 221.301 217.015 221.301 218.155V223H219.951V218.35C219.951 217.53 219.746 216.905 219.336 216.475C218.926 216.035 218.366 215.815 217.656 215.815C216.936 215.815 216.361 216.04 215.931 216.49C215.511 216.94 215.301 217.595 215.301 218.455V223H213.936V214.78H215.301V215.95C215.571 215.53 215.936 215.205 216.396 214.975C216.866 214.745 217.381 214.63 217.941 214.63Z" fill="white"/>
<rect x="12" y="252" width="236" height="78" rx="15" fill="white" fill-opacity="0.08"/>
<path d="M22 274C22 267.373 27.3726 262 34 262H135C141.627 262 147 267.373 147 274V277C147 283.627 141.627 289 135 289H34C27.3726 289 22 283.627 22 277V274Z" fill="#295F4D"/>
<rect x="32.6" y="268.1" width="14.8" height="14.8" rx="7.4" stroke="#8EF6D3" stroke-width="1.2"/>
<path d="M42.7197 279.28C43.0126 279.573 43.4874 279.573 43.7803 279.28C44.0732 278.987 44.0732 278.513 43.7803 278.22L41.0607 275.5L43.7803 272.78C44.0732 272.487 44.0732 272.013 43.7803 271.72C43.4874 271.427 43.0126 271.427 42.7197 271.72L40 274.439L37.2803 271.72C36.9874 271.427 36.5126 271.427 36.2197 271.72C35.9268 272.013 35.9268 272.487 36.2197 272.78L38.9393 275.5L36.2197 278.22C35.9268 278.513 35.9268 278.987 36.2197 279.28C36.5126 279.573 36.9874 279.573 37.2803 279.28L40 276.561L42.7197 279.28Z" fill="#8EF6D3"/>
<path d="M59.811 275.359C60.2963 275.446 60.708 275.701 61.046 276.126C61.384 276.551 61.553 277.032 61.553 277.569C61.553 278.028 61.4317 278.444 61.189 278.817C60.955 279.181 60.6127 279.471 60.162 279.688C59.7113 279.896 59.187 280 58.589 280H54.975V270.965H58.42C59.0353 270.965 59.564 271.069 60.006 271.277C60.448 271.485 60.7817 271.767 61.007 272.122C61.2323 272.469 61.345 272.859 61.345 273.292C61.345 273.812 61.2063 274.245 60.929 274.592C60.6517 274.939 60.279 275.194 59.811 275.359ZM56.457 274.761H58.29C58.7753 274.761 59.1523 274.653 59.421 274.436C59.6983 274.211 59.837 273.89 59.837 273.474C59.837 273.067 59.6983 272.75 59.421 272.525C59.1523 272.291 58.7753 272.174 58.29 272.174H56.457V274.761ZM58.459 278.791C58.9617 278.791 59.356 278.67 59.642 278.427C59.928 278.184 60.071 277.846 60.071 277.413C60.071 276.971 59.9193 276.62 59.616 276.36C59.3127 276.1 58.9097 275.97 58.407 275.97H56.457V278.791H58.459ZM64.6455 270.38V280H63.1635V270.38H64.6455ZM69.6982 280.117C69.0222 280.117 68.4112 279.965 67.8652 279.662C67.3192 279.35 66.8902 278.917 66.5782 278.362C66.2662 277.799 66.1102 277.149 66.1102 276.412C66.1102 275.684 66.2705 275.038 66.5912 274.475C66.9119 273.912 67.3495 273.478 67.9042 273.175C68.4589 272.872 69.0785 272.72 69.7632 272.72C70.4479 272.72 71.0675 272.872 71.6222 273.175C72.1769 273.478 72.6145 273.912 72.9352 274.475C73.2559 275.038 73.4162 275.684 73.4162 276.412C73.4162 277.14 73.2515 277.786 72.9222 278.349C72.5929 278.912 72.1422 279.35 71.5702 279.662C71.0069 279.965 70.3829 280.117 69.6982 280.117ZM69.6982 278.83C70.0795 278.83 70.4349 278.739 70.7642 278.557C71.1022 278.375 71.3752 278.102 71.5832 277.738C71.7912 277.374 71.8952 276.932 71.8952 276.412C71.8952 275.892 71.7955 275.454 71.5962 275.099C71.3969 274.735 71.1325 274.462 70.8032 274.28C70.4739 274.098 70.1185 274.007 69.7372 274.007C69.3559 274.007 69.0005 274.098 68.6712 274.28C68.3505 274.462 68.0949 274.735 67.9042 275.099C67.7135 275.454 67.6182 275.892 67.6182 276.412C67.6182 277.183 67.8132 277.781 68.2032 278.206C68.6019 278.622 69.1002 278.83 69.6982 278.83ZM74.3873 276.412C74.3873 275.675 74.5346 275.03 74.8293 274.475C75.1326 273.912 75.5486 273.478 76.0773 273.175C76.6059 272.872 77.2126 272.72 77.8973 272.72C78.7639 272.72 79.4789 272.928 80.0423 273.344C80.6143 273.751 80.9999 274.336 81.1993 275.099H79.6003C79.4703 274.744 79.2623 274.466 78.9763 274.267C78.6903 274.068 78.3306 273.968 77.8973 273.968C77.2906 273.968 76.8053 274.185 76.4413 274.618C76.0859 275.043 75.9083 275.641 75.9083 276.412C75.9083 277.183 76.0859 277.786 76.4413 278.219C76.8053 278.652 77.2906 278.869 77.8973 278.869C78.7553 278.869 79.3229 278.492 79.6003 277.738H81.1993C80.9913 278.466 80.6013 279.047 80.0293 279.48C79.4573 279.905 78.7466 280.117 77.8973 280.117C77.2126 280.117 76.6059 279.965 76.0773 279.662C75.5486 279.35 75.1326 278.917 74.8293 278.362C74.5346 277.799 74.3873 277.149 74.3873 276.412ZM85.5102 276.425L88.8122 280H86.8102L84.1582 276.919V280H82.6762V270.38H84.1582V275.97L86.7582 272.837H88.8122L85.5102 276.425ZM96.4394 276.243C96.4394 276.512 96.4221 276.754 96.3874 276.971H90.9144C90.9577 277.543 91.1701 278.002 91.5514 278.349C91.9327 278.696 92.4007 278.869 92.9554 278.869C93.7527 278.869 94.3161 278.535 94.6454 277.868H96.2444C96.0277 278.527 95.6334 279.068 95.0614 279.493C94.4981 279.909 93.7961 280.117 92.9554 280.117C92.2707 280.117 91.6554 279.965 91.1094 279.662C90.5721 279.35 90.1474 278.917 89.8354 278.362C89.5321 277.799 89.3804 277.149 89.3804 276.412C89.3804 275.675 89.5277 275.03 89.8224 274.475C90.1257 273.912 90.5461 273.478 91.0834 273.175C91.6294 272.872 92.2534 272.72 92.9554 272.72C93.6314 272.72 94.2337 272.867 94.7624 273.162C95.2911 273.457 95.7027 273.873 95.9974 274.41C96.2921 274.939 96.4394 275.55 96.4394 276.243ZM94.8924 275.775C94.8837 275.229 94.6887 274.791 94.3074 274.462C93.9261 274.133 93.4537 273.968 92.8904 273.968C92.3791 273.968 91.9414 274.133 91.5774 274.462C91.2134 274.783 90.9967 275.22 90.9274 275.775H94.8924ZM97.4039 276.386C97.4039 275.667 97.5512 275.03 97.8459 274.475C98.1492 273.92 98.5565 273.491 99.0679 273.188C99.5879 272.876 100.164 272.72 100.797 272.72C101.265 272.72 101.724 272.824 102.175 273.032C102.634 273.231 102.998 273.5 103.267 273.838V270.38H104.762V280H103.267V278.921C103.024 279.268 102.686 279.554 102.253 279.779C101.828 280.004 101.339 280.117 100.784 280.117C100.16 280.117 99.5879 279.961 99.0679 279.649C98.5565 279.328 98.1492 278.886 97.8459 278.323C97.5512 277.751 97.4039 277.105 97.4039 276.386ZM103.267 276.412C103.267 275.918 103.163 275.489 102.955 275.125C102.756 274.761 102.491 274.484 102.162 274.293C101.833 274.102 101.477 274.007 101.096 274.007C100.715 274.007 100.359 274.102 100.03 274.293C99.7005 274.475 99.4319 274.748 99.2239 275.112C99.0245 275.467 98.9249 275.892 98.9249 276.386C98.9249 276.88 99.0245 277.313 99.2239 277.686C99.4319 278.059 99.7005 278.345 100.03 278.544C100.368 278.735 100.723 278.83 101.096 278.83C101.477 278.83 101.833 278.735 102.162 278.544C102.491 278.353 102.756 278.076 102.955 277.712C103.163 277.339 103.267 276.906 103.267 276.412ZM114.921 275.359C115.407 275.446 115.818 275.701 116.156 276.126C116.494 276.551 116.663 277.032 116.663 277.569C116.663 278.028 116.542 278.444 116.299 278.817C116.065 279.181 115.723 279.471 115.272 279.688C114.822 279.896 114.297 280 113.699 280H110.085V270.965H113.53C114.146 270.965 114.674 271.069 115.116 271.277C115.558 271.485 115.892 271.767 116.117 272.122C116.343 272.469 116.455 272.859 116.455 273.292C116.455 273.812 116.317 274.245 116.039 274.592C115.762 274.939 115.389 275.194 114.921 275.359ZM111.567 274.761H113.4C113.886 274.761 114.263 274.653 114.531 274.436C114.809 274.211 114.947 273.89 114.947 273.474C114.947 273.067 114.809 272.75 114.531 272.525C114.263 272.291 113.886 272.174 113.4 272.174H111.567V274.761ZM113.569 278.791C114.072 278.791 114.466 278.67 114.752 278.427C115.038 278.184 115.181 277.846 115.181 277.413C115.181 276.971 115.03 276.62 114.726 276.36C114.423 276.1 114.02 275.97 113.517 275.97H111.567V278.791H113.569ZM121.381 280.117C120.705 280.117 120.094 279.965 119.548 279.662C119.002 279.35 118.573 278.917 118.261 278.362C117.949 277.799 117.793 277.149 117.793 276.412C117.793 275.684 117.953 275.038 118.274 274.475C118.594 273.912 119.032 273.478 119.587 273.175C120.141 272.872 120.761 272.72 121.446 272.72C122.13 272.72 122.75 272.872 123.305 273.175C123.859 273.478 124.297 273.912 124.618 274.475C124.938 275.038 125.099 275.684 125.099 276.412C125.099 277.14 124.934 277.786 124.605 278.349C124.275 278.912 123.825 279.35 123.253 279.662C122.689 279.965 122.065 280.117 121.381 280.117ZM121.381 278.83C121.762 278.83 122.117 278.739 122.447 278.557C122.785 278.375 123.058 278.102 123.266 277.738C123.474 277.374 123.578 276.932 123.578 276.412C123.578 275.892 123.478 275.454 123.279 275.099C123.079 274.735 122.815 274.462 122.486 274.28C122.156 274.098 121.801 274.007 121.42 274.007C121.038 274.007 120.683 274.098 120.354 274.28C120.033 274.462 119.777 274.735 119.587 275.099C119.396 275.454 119.301 275.892 119.301 276.412C119.301 277.183 119.496 277.781 119.886 278.206C120.284 278.622 120.783 278.83 121.381 278.83ZM128.293 274.046V278.011C128.293 278.28 128.354 278.475 128.475 278.596C128.605 278.709 128.822 278.765 129.125 278.765H130.035V280H128.865C128.198 280 127.686 279.844 127.331 279.532C126.976 279.22 126.798 278.713 126.798 278.011V274.046H125.953V272.837H126.798V271.056H128.293V272.837H130.035V274.046H128.293Z" fill="#8EF6D3"/>
<path d="M28.39 310.615C28.77 310.675 29.115 310.83 29.425 311.08C29.745 311.33 29.995 311.64 30.175 312.01C30.365 312.38 30.46 312.775 30.46 313.195C30.46 313.725 30.325 314.205 30.055 314.635C29.785 315.055 29.39 315.39 28.87 315.64C28.36 315.88 27.755 316 27.055 316H23.155V305.545H26.905C27.615 305.545 28.22 305.665 28.72 305.905C29.22 306.135 29.595 306.45 29.845 306.85C30.095 307.25 30.22 307.7 30.22 308.2C30.22 308.82 30.05 309.335 29.71 309.745C29.38 310.145 28.94 310.435 28.39 310.615ZM24.52 310.06H26.815C27.455 310.06 27.95 309.91 28.3 309.61C28.65 309.31 28.825 308.895 28.825 308.365C28.825 307.835 28.65 307.42 28.3 307.12C27.95 306.82 27.445 306.67 26.785 306.67H24.52V310.06ZM26.935 314.875C27.615 314.875 28.145 314.715 28.525 314.395C28.905 314.075 29.095 313.63 29.095 313.06C29.095 312.48 28.895 312.025 28.495 311.695C28.095 311.355 27.56 311.185 26.89 311.185H24.52V314.875H26.935ZM33.7192 304.9V316H32.3542V304.9H33.7192ZM39.6306 316.135C38.8606 316.135 38.1606 315.96 37.5306 315.61C36.9106 315.26 36.4206 314.765 36.0606 314.125C35.7106 313.475 35.5356 312.725 35.5356 311.875C35.5356 311.035 35.7156 310.295 36.0756 309.655C36.4456 309.005 36.9456 308.51 37.5756 308.17C38.2056 307.82 38.9106 307.645 39.6906 307.645C40.4706 307.645 41.1756 307.82 41.8056 308.17C42.4356 308.51 42.9306 309 43.2906 309.64C43.6606 310.28 43.8456 311.025 43.8456 311.875C43.8456 312.725 43.6556 313.475 43.2756 314.125C42.9056 314.765 42.4006 315.26 41.7606 315.61C41.1206 315.96 40.4106 316.135 39.6306 316.135ZM39.6306 314.935C40.1206 314.935 40.5806 314.82 41.0106 314.59C41.4406 314.36 41.7856 314.015 42.0456 313.555C42.3156 313.095 42.4506 312.535 42.4506 311.875C42.4506 311.215 42.3206 310.655 42.0606 310.195C41.8006 309.735 41.4606 309.395 41.0406 309.175C40.6206 308.945 40.1656 308.83 39.6756 308.83C39.1756 308.83 38.7156 308.945 38.2956 309.175C37.8856 309.395 37.5556 309.735 37.3056 310.195C37.0556 310.655 36.9306 311.215 36.9306 311.875C36.9306 312.545 37.0506 313.11 37.2906 313.57C37.5406 314.03 37.8706 314.375 38.2806 314.605C38.6906 314.825 39.1406 314.935 39.6306 314.935ZM45.1304 311.875C45.1304 311.025 45.3004 310.285 45.6404 309.655C45.9804 309.015 46.4504 308.52 47.0504 308.17C47.6604 307.82 48.3554 307.645 49.1354 307.645C50.1454 307.645 50.9754 307.89 51.6254 308.38C52.2854 308.87 52.7204 309.55 52.9304 310.42H51.4604C51.3204 309.92 51.0454 309.525 50.6354 309.235C50.2354 308.945 49.7354 308.8 49.1354 308.8C48.3554 308.8 47.7254 309.07 47.2454 309.61C46.7654 310.14 46.5254 310.895 46.5254 311.875C46.5254 312.865 46.7654 313.63 47.2454 314.17C47.7254 314.71 48.3554 314.98 49.1354 314.98C49.7354 314.98 50.2354 314.84 50.6354 314.56C51.0354 314.28 51.3104 313.88 51.4604 313.36H52.9304C52.7104 314.2 52.2704 314.875 51.6104 315.385C50.9504 315.885 50.1254 316.135 49.1354 316.135C48.3554 316.135 47.6604 315.96 47.0504 315.61C46.4504 315.26 45.9804 314.765 45.6404 314.125C45.3004 313.485 45.1304 312.735 45.1304 311.875ZM59.3417 316L56.1167 312.37V316H54.7517V304.9H56.1167V311.425L59.2817 307.78H61.1867L57.3167 311.875L61.2017 316H59.3417ZM76.3554 307.63C76.9954 307.63 77.5654 307.765 78.0654 308.035C78.5654 308.295 78.9604 308.69 79.2504 309.22C79.5404 309.75 79.6854 310.395 79.6854 311.155V316H78.3354V311.35C78.3354 310.53 78.1304 309.905 77.7204 309.475C77.3204 309.035 76.7754 308.815 76.0854 308.815C75.3754 308.815 74.8104 309.045 74.3904 309.505C73.9704 309.955 73.7604 310.61 73.7604 311.47V316H72.4104V311.35C72.4104 310.53 72.2054 309.905 71.7954 309.475C71.3954 309.035 70.8504 308.815 70.1604 308.815C69.4504 308.815 68.8854 309.045 68.4654 309.505C68.0454 309.955 67.8354 310.61 67.8354 311.47V316H66.4704V307.78H67.8354V308.965C68.1054 308.535 68.4654 308.205 68.9154 307.975C69.3754 307.745 69.8804 307.63 70.4304 307.63C71.1204 307.63 71.7304 307.785 72.2604 308.095C72.7904 308.405 73.1854 308.86 73.4454 309.46C73.6754 308.88 74.0554 308.43 74.5854 308.11C75.1154 307.79 75.7054 307.63 76.3554 307.63ZM81.4145 311.86C81.4145 311.02 81.5845 310.285 81.9245 309.655C82.2645 309.015 82.7295 308.52 83.3195 308.17C83.9195 307.82 84.5845 307.645 85.3145 307.645C86.0345 307.645 86.6595 307.8 87.1895 308.11C87.7195 308.42 88.1145 308.81 88.3745 309.28V307.78H89.7545V316H88.3745V314.47C88.1045 314.95 87.6995 315.35 87.1595 315.67C86.6295 315.98 86.0095 316.135 85.2995 316.135C84.5695 316.135 83.9095 315.955 83.3195 315.595C82.7295 315.235 82.2645 314.73 81.9245 314.08C81.5845 313.43 81.4145 312.69 81.4145 311.86ZM88.3745 311.875C88.3745 311.255 88.2495 310.715 87.9995 310.255C87.7495 309.795 87.4095 309.445 86.9795 309.205C86.5595 308.955 86.0945 308.83 85.5845 308.83C85.0745 308.83 84.6095 308.95 84.1895 309.19C83.7695 309.43 83.4345 309.78 83.1845 310.24C82.9345 310.7 82.8095 311.24 82.8095 311.86C82.8095 312.49 82.9345 313.04 83.1845 313.51C83.4345 313.97 83.7695 314.325 84.1895 314.575C84.6095 314.815 85.0745 314.935 85.5845 314.935C86.0945 314.935 86.5595 314.815 86.9795 314.575C87.4095 314.325 87.7495 313.97 87.9995 313.51C88.2495 313.04 88.3745 312.495 88.3745 311.875ZM93.4263 304.9V316H92.0613V304.9H93.4263ZM96.4577 306.445C96.1977 306.445 95.9777 306.355 95.7977 306.175C95.6177 305.995 95.5277 305.775 95.5277 305.515C95.5277 305.255 95.6177 305.035 95.7977 304.855C95.9777 304.675 96.1977 304.585 96.4577 304.585C96.7077 304.585 96.9177 304.675 97.0877 304.855C97.2677 305.035 97.3577 305.255 97.3577 305.515C97.3577 305.775 97.2677 305.995 97.0877 306.175C96.9177 306.355 96.7077 306.445 96.4577 306.445ZM97.1177 307.78V316H95.7527V307.78H97.1177ZM98.9341 311.875C98.9341 311.025 99.1041 310.285 99.4441 309.655C99.7841 309.015 100.254 308.52 100.854 308.17C101.464 307.82 102.159 307.645 102.939 307.645C103.949 307.645 104.779 307.89 105.429 308.38C106.089 308.87 106.524 309.55 106.734 310.42H105.264C105.124 309.92 104.849 309.525 104.439 309.235C104.039 308.945 103.539 308.8 102.939 308.8C102.159 308.8 101.529 309.07 101.049 309.61C100.569 310.14 100.329 310.895 100.329 311.875C100.329 312.865 100.569 313.63 101.049 314.17C101.529 314.71 102.159 314.98 102.939 314.98C103.539 314.98 104.039 314.84 104.439 314.56C104.839 314.28 105.114 313.88 105.264 313.36H106.734C106.514 314.2 106.074 314.875 105.414 315.385C104.754 315.885 103.929 316.135 102.939 316.135C102.159 316.135 101.464 315.96 100.854 315.61C100.254 315.26 99.7841 314.765 99.4441 314.125C99.1041 313.485 98.9341 312.735 98.9341 311.875ZM109.26 306.445C109 306.445 108.78 306.355 108.6 306.175C108.42 305.995 108.33 305.775 108.33 305.515C108.33 305.255 108.42 305.035 108.6 304.855C108.78 304.675 109 304.585 109.26 304.585C109.51 304.585 109.72 304.675 109.89 304.855C110.07 305.035 110.16 305.255 110.16 305.515C110.16 305.775 110.07 305.995 109.89 306.175C109.72 306.355 109.51 306.445 109.26 306.445ZM109.92 307.78V316H108.555V307.78H109.92ZM115.832 316.135C115.062 316.135 114.362 315.96 113.732 315.61C113.112 315.26 112.622 314.765 112.262 314.125C111.912 313.475 111.737 312.725 111.737 311.875C111.737 311.035 111.917 310.295 112.277 309.655C112.647 309.005 113.147 308.51 113.777 308.17C114.407 307.82 115.112 307.645 115.892 307.645C116.672 307.645 117.377 307.82 118.007 308.17C118.637 308.51 119.132 309 119.492 309.64C119.862 310.28 120.047 311.025 120.047 311.875C120.047 312.725 119.857 313.475 119.477 314.125C119.107 314.765 118.602 315.26 117.962 315.61C117.322 315.96 116.612 316.135 115.832 316.135ZM115.832 314.935C116.322 314.935 116.782 314.82 117.212 314.59C117.642 314.36 117.987 314.015 118.247 313.555C118.517 313.095 118.652 312.535 118.652 311.875C118.652 311.215 118.522 310.655 118.262 310.195C118.002 309.735 117.662 309.395 117.242 309.175C116.822 308.945 116.367 308.83 115.877 308.83C115.377 308.83 114.917 308.945 114.497 309.175C114.087 309.395 113.757 309.735 113.507 310.195C113.257 310.655 113.132 311.215 113.132 311.875C113.132 312.545 113.252 313.11 113.492 313.57C113.742 314.03 114.072 314.375 114.482 314.605C114.892 314.825 115.342 314.935 115.832 314.935ZM129.132 307.78V316H127.767V314.785C127.507 315.205 127.142 315.535 126.672 315.775C126.212 316.005 125.702 316.12 125.142 316.12C124.502 316.12 123.927 315.99 123.417 315.73C122.907 315.46 122.502 315.06 122.202 314.53C121.912 314 121.767 313.355 121.767 312.595V307.78H123.117V312.415C123.117 313.225 123.322 313.85 123.732 314.29C124.142 314.72 124.702 314.935 125.412 314.935C126.142 314.935 126.717 314.71 127.137 314.26C127.557 313.81 127.767 313.155 127.767 312.295V307.78H129.132ZM134.346 316.135C133.716 316.135 133.151 316.03 132.651 315.82C132.151 315.6 131.756 315.3 131.466 314.92C131.176 314.53 131.016 314.085 130.986 313.585H132.396C132.436 313.995 132.626 314.33 132.966 314.59C133.316 314.85 133.771 314.98 134.331 314.98C134.851 314.98 135.261 314.865 135.561 314.635C135.861 314.405 136.011 314.115 136.011 313.765C136.011 313.405 135.851 313.14 135.531 312.97C135.211 312.79 134.716 312.615 134.046 312.445C133.436 312.285 132.936 312.125 132.546 311.965C132.166 311.795 131.836 311.55 131.556 311.23C131.286 310.9 131.151 310.47 131.151 309.94C131.151 309.52 131.276 309.135 131.526 308.785C131.776 308.435 132.131 308.16 132.591 307.96C133.051 307.75 133.576 307.645 134.166 307.645C135.076 307.645 135.811 307.875 136.371 308.335C136.931 308.795 137.231 309.425 137.271 310.225H135.906C135.876 309.795 135.701 309.45 135.381 309.19C135.071 308.93 134.651 308.8 134.121 308.8C133.631 308.8 133.241 308.905 132.951 309.115C132.661 309.325 132.516 309.6 132.516 309.94C132.516 310.21 132.601 310.435 132.771 310.615C132.951 310.785 133.171 310.925 133.431 311.035C133.701 311.135 134.071 311.25 134.541 311.38C135.131 311.54 135.611 311.7 135.981 311.86C136.351 312.01 136.666 312.24 136.926 312.55C137.196 312.86 137.336 313.265 137.346 313.765C137.346 314.215 137.221 314.62 136.971 314.98C136.721 315.34 136.366 315.625 135.906 315.835C135.456 316.035 134.936 316.135 134.346 316.135ZM142.762 311.86C142.762 311.02 142.932 310.285 143.272 309.655C143.612 309.015 144.077 308.52 144.667 308.17C145.267 307.82 145.932 307.645 146.662 307.645C147.382 307.645 148.007 307.8 148.537 308.11C149.067 308.42 149.462 308.81 149.722 309.28V307.78H151.102V316H149.722V314.47C149.452 314.95 149.047 315.35 148.507 315.67C147.977 315.98 147.357 316.135 146.647 316.135C145.917 316.135 145.257 315.955 144.667 315.595C144.077 315.235 143.612 314.73 143.272 314.08C142.932 313.43 142.762 312.69 142.762 311.86ZM149.722 311.875C149.722 311.255 149.597 310.715 149.347 310.255C149.097 309.795 148.757 309.445 148.327 309.205C147.907 308.955 147.442 308.83 146.932 308.83C146.422 308.83 145.957 308.95 145.537 309.19C145.117 309.43 144.782 309.78 144.532 310.24C144.282 310.7 144.157 311.24 144.157 311.86C144.157 312.49 144.282 313.04 144.532 313.51C144.782 313.97 145.117 314.325 145.537 314.575C145.957 314.815 146.422 314.935 146.932 314.935C147.442 314.935 147.907 314.815 148.327 314.575C148.757 314.325 149.097 313.97 149.347 313.51C149.597 313.04 149.722 312.495 149.722 311.875ZM152.899 311.875C152.899 311.025 153.069 310.285 153.409 309.655C153.749 309.015 154.219 308.52 154.819 308.17C155.429 307.82 156.124 307.645 156.904 307.645C157.914 307.645 158.744 307.89 159.394 308.38C160.054 308.87 160.489 309.55 160.699 310.42H159.229C159.089 309.92 158.814 309.525 158.404 309.235C158.004 308.945 157.504 308.8 156.904 308.8C156.124 308.8 155.494 309.07 155.014 309.61C154.534 310.14 154.294 310.895 154.294 311.875C154.294 312.865 154.534 313.63 155.014 314.17C155.494 314.71 156.124 314.98 156.904 314.98C157.504 314.98 158.004 314.84 158.404 314.56C158.804 314.28 159.079 313.88 159.229 313.36H160.699C160.479 314.2 160.039 314.875 159.379 315.385C158.719 315.885 157.894 316.135 156.904 316.135C156.124 316.135 155.429 315.96 154.819 315.61C154.219 315.26 153.749 314.765 153.409 314.125C153.069 313.485 152.899 312.735 152.899 311.875ZM164.185 308.905V313.75C164.185 314.15 164.27 314.435 164.44 314.605C164.61 314.765 164.905 314.845 165.325 314.845H166.33V316H165.1C164.34 316 163.77 315.825 163.39 315.475C163.01 315.125 162.82 314.55 162.82 313.75V308.905H161.755V307.78H162.82V305.71H164.185V307.78H166.33V308.905H164.185ZM168.689 306.445C168.429 306.445 168.209 306.355 168.029 306.175C167.849 305.995 167.759 305.775 167.759 305.515C167.759 305.255 167.849 305.035 168.029 304.855C168.209 304.675 168.429 304.585 168.689 304.585C168.939 304.585 169.149 304.675 169.319 304.855C169.499 305.035 169.589 305.255 169.589 305.515C169.589 305.775 169.499 305.995 169.319 306.175C169.149 306.355 168.939 306.445 168.689 306.445ZM169.349 307.78V316H167.984V307.78H169.349ZM174.736 314.74L177.286 307.78H178.741L175.516 316H173.926L170.701 307.78H172.171L174.736 314.74ZM180.789 306.445C180.529 306.445 180.309 306.355 180.129 306.175C179.949 305.995 179.859 305.775 179.859 305.515C179.859 305.255 179.949 305.035 180.129 304.855C180.309 304.675 180.529 304.585 180.789 304.585C181.039 304.585 181.249 304.675 181.419 304.855C181.599 305.035 181.689 305.255 181.689 305.515C181.689 305.775 181.599 305.995 181.419 306.175C181.249 306.355 181.039 306.445 180.789 306.445ZM181.449 307.78V316H180.084V307.78H181.449ZM185.44 308.905V313.75C185.44 314.15 185.525 314.435 185.695 314.605C185.865 314.765 186.16 314.845 186.58 314.845H187.585V316H186.355C185.595 316 185.025 315.825 184.645 315.475C184.265 315.125 184.075 314.55 184.075 313.75V308.905H183.01V307.78H184.075V305.71H185.44V307.78H187.585V308.905H185.44ZM196.319 307.78L191.369 319.87H189.959L191.579 315.91L188.264 307.78H189.779L192.359 314.44L194.909 307.78H196.319Z" fill="white"/>
</svg>
