<svg width="66" height="26" viewBox="0 0 66 26" fill="none" xmlns="http://www.w3.org/2000/svg">
<path d="M24.0825 25.2704C26.8471 25.2704 29.0657 23.9052 30.7381 20.7651L34.4584 13.8023V19.707C34.4584 23.1884 36.7111 25.2704 40.1925 25.2704C42.923 25.2704 44.9368 24.0758 46.8822 20.7651L55.4492 6.29339C57.3264 3.11918 55.9953 0.72998 51.8654 0.72998C49.6469 0.72998 48.2134 1.44674 46.9164 3.87006L41.0117 14.9628V5.09879C41.0117 2.1635 39.6123 0.72998 37.0183 0.72998C34.9704 0.72998 33.3321 1.6174 32.0692 4.07485L26.5058 14.9628V5.20119C26.5058 2.0611 25.2088 0.72998 22.0687 0.72998H15.6521C13.2287 0.72998 12 1.85632 12 3.93833C12 6.02034 13.297 7.21494 15.6521 7.21494H18.2802V19.6729C18.2802 23.1884 20.6352 25.2704 24.0825 25.2704Z" fill="#873EFF"/>
</svg>
